<?xml version="1.0" encoding="utf-8"?>
<!-- Generator: Adobe Illustrator 19.2.1, SVG Export Plug-In . SVG Version: 6.00 Build 0)  -->
<svg version="1.1" xmlns="http://www.w3.org/2000/svg" xmlns:xlink="http://www.w3.org/1999/xlink" x="0px" y="0px"
	 viewBox="0 0 288 288" style="enable-background:new 0 0 288 288;" xml:space="preserve">
<style type="text/css">
	.st0{display:none;}
	.st1{display:inline;}
	.st2{fill:#EF3E42;}
	.st3{fill:#004B8D;}
	.st4{fill:#D7CA9E;}
	.st5{fill:#A03123;}
	.st6{fill-rule:evenodd;clip-rule:evenodd;fill:#FFFFFF;}
	.st7{fill-rule:evenodd;clip-rule:evenodd;fill:#1E3B6E;}
	.st8{fill-rule:evenodd;clip-rule:evenodd;fill:#BE2132;}
	.st9{fill-rule:evenodd;clip-rule:evenodd;fill:#E19D26;}
	.st10{fill:#DC4329;}
	.st11{fill:#DC4A26;}
	.st12{fill:#231F20;}
	.st13{fill:#FFFFFF;}
	.st14{fill:#050404;}
	.st15{fill:#263C82;}
	.st16{fill:#CC3533;}
	.st17{fill:#E82F4D;}
	.st18{fill:#010101;}
	.st19{fill:#C1C8CF;}
	.st20{fill:#365A8B;}
	.st21{fill:#29417C;}
	.st22{fill:#F47920;}
	.st23{fill:#FAA61A;}
	.st24{fill:#CCCCCC;}
	.st25{fill:#002B54;}
	.st26{fill:#ED1C24;}
	.st27{opacity:0.3;fill:#002B54;}
	.st28{fill:#020303;}
	.st29{fill:#1B9ED8;}
	.st30{fill:#189DD8;}
	.st31{fill:#43748F;}
	.st32{fill:#EB3947;}
	.st33{fill:#EB3A47;}
	.st34{fill:#44758F;}
	.st35{fill:#1F9ED8;}
	.st36{fill:#FCFDFD;}
	.st37{fill:#020202;}
	.st38{fill:#E83543;}
	.st39{fill-rule:evenodd;clip-rule:evenodd;fill:#C1A677;}
	.st40{fill-rule:evenodd;clip-rule:evenodd;fill:#212F55;}
	.st41{fill-rule:evenodd;clip-rule:evenodd;fill:#AB285C;}
	.st42{fill-rule:evenodd;clip-rule:evenodd;fill:#014A67;}
	.st43{fill:#F47A39;}
	.st44{fill-rule:evenodd;clip-rule:evenodd;fill:#242052;}
	.st45{fill:#123B35;}
	.st46{display:inline;fill:#DB2732;}
	.st47{display:inline;fill:#1D3665;}
	.st48{fill-rule:evenodd;clip-rule:evenodd;}
	.st49{fill:#F58220;}
	.st50{fill:#1A3562;}
	.st51{fill:#036B66;}
	.st52{fill:#C4CDD3;}
	.st53{fill:#EB1F4E;}
	.st54{display:inline;fill:#C4203B;}
	.st55{display:inline;fill:#164883;}
	.st56{display:inline;fill:#90BCE5;}
	.st57{display:inline;fill:#1B2F5B;}
	.st58{fill:#144983;}
	.st59{fill:#CD1F43;}
	.st60{fill:#1A459D;}
	.st61{fill:#0A2042;}
	.st62{fill:#D92E27;}
	.st63{display:inline;fill:#CF1F45;}
	.st64{fill-rule:evenodd;clip-rule:evenodd;fill:#D7CA9E;}
	.st65{fill:#1E3B6E;}
	.st66{fill:#39B54A;}
	.st67{fill:#E19D26;}
	.st68{fill:#BE2132;}
	.st69{fill:#EF5426;}
	.st70{display:inline;fill:#FFFFFF;}
	.st71{display:inline;fill:#E31837;}
	.st72{display:inline;fill:#E21D37;}
	.st73{display:inline;fill:#005596;}
	.st74{display:inline;fill:#CC3533;}
	.st75{display:inline;fill:#E82F4D;}
	.st76{display:inline;fill:#010101;}
	.st77{display:inline;fill:#2A398B;}
	.st78{fill:#999999;}
	.st79{display:inline;fill:#999999;}
	.st80{display:inline;fill:#041E41;}
	.st81{display:inline;fill:#D4451D;}
	.st82{display:inline;fill:#EA7200;}
	.st83{display:inline;fill:#BDBBBB;}
	.st84{fill:#041E41;}
	.st85{fill:none;stroke:#000000;stroke-width:0.34;}
	.st86{fill:#D4451D;}
	.st87{fill:#EA7200;}
	.st88{fill:#BDBBBB;}
	.st89{fill:none;stroke:#EA7200;stroke-width:0;stroke-linecap:round;stroke-linejoin:round;}
	.st90{fill:#9C9FA1;}
	.st91{fill-rule:evenodd;clip-rule:evenodd;fill:#333290;}
	.st92{fill:#005B9B;}
	.st93{fill:#EF4043;}
	.st94{fill-rule:evenodd;clip-rule:evenodd;fill:#09A2DD;}
	.st95{fill-rule:evenodd;clip-rule:evenodd;fill:#43758E;}
	.st96{fill-rule:evenodd;clip-rule:evenodd;fill:#FCEE1E;}
	.st97{fill-rule:evenodd;clip-rule:evenodd;fill:#EE3441;}
	.st98{fill:#B89760;}
	.st99{fill:#D52D47;}
	.st100{fill-rule:evenodd;clip-rule:evenodd;fill:#0B2242;}
	.st101{fill:#F37938;}
	.st102{fill:#164883;}
	.st103{fill:#8E6D2A;}
	.st104{fill-rule:evenodd;clip-rule:evenodd;fill:#1A314F;}
	.st105{fill-rule:evenodd;clip-rule:evenodd;fill:#8F3326;}
	.st106{fill-rule:evenodd;clip-rule:evenodd;fill:#B68E64;}
	.st107{fill:#03493B;}
	.st108{fill:#FCC158;}
	.st109{fill:#BB544F;}
	.st110{fill:#D0B04A;}
	.st111{fill-rule:evenodd;clip-rule:evenodd;fill:#B6A269;}
	.st112{fill-rule:evenodd;clip-rule:evenodd;fill:#001F5B;}
	.st113{fill:#1D3665;}
	.st114{fill:#FFFFFF;stroke:#FFFFFF;stroke-width:0.16;}
	.st115{fill:#004666;}
	.st116{fill:none;stroke:#037062;stroke-width:2.8199;}
	.st117{fill:#BCCBD2;}
	.st118{fill:#037062;}
	.st119{fill:#E63248;}
	.st120{fill:none;stroke:#E63248;stroke-width:0.2826;}
	.st121{fill:none;stroke:#037062;stroke-width:1.0988;}
	.st122{fill:none;stroke:#BCCBD2;stroke-width:4.9365;}
	.st123{fill:#FCEE21;}
	.st124{fill:#FCEE23;}
	.st125{fill:#C4203B;}
	.st126{fill:#193661;}
	.st127{fill:#164884;}
	.st128{fill:#CF1F44;}
	.st129{fill:#0A2042;stroke:#010101;stroke-width:0.2131;}
	.st130{fill:#CF1F45;}
	.st131{fill:#1E3160;}
	.st132{fill:#BA202E;}
	.st133{fill:#212759;}
	.st134{fill:#BA1F31;}
	.st135{fill:#7BBCE8;}
	.st136{fill:#FED208;}
	.st137{fill:#6DB3E3;}
	.st138{fill:#FFCE04;}
	.st139{fill:#1B2F5B;}
	.st140{fill:#90BCE5;}
	.st141{fill:#D8782C;}
	.st142{fill:#C49C6F;}
	.st143{fill:#F04B23;}
	.st144{display:inline;fill-rule:evenodd;clip-rule:evenodd;fill:#F58220;}
	.st145{fill:#094F91;}
	.st146{fill:#DB2732;}
	.st147{fill:none;}
	.st148{fill:#00174A;}
	.st149{fill:none;stroke:#FFFFFF;stroke-width:3;stroke-miterlimit:10;}
	.st150{fill:none;stroke:#000000;stroke-width:0.1055;stroke-linecap:round;stroke-linejoin:round;}
	.st151{fill:#25358E;}
	.st152{fill:#ED1C2E;}
	.st153{fill:#FFFFFF;stroke:#000000;stroke-width:0.3293;stroke-linecap:round;stroke-linejoin:round;}
	.st154{display:inline;fill-rule:evenodd;clip-rule:evenodd;fill:#00174A;}
	.st155{fill:#0D2240;}
	.st156{display:inline;fill:#8EC641;}
	.st157{fill:#182D56;}
	.st158{fill:#BE323A;}
	.st159{fill:#C62034;}
	.st160{fill:#0B1437;}
	.st161{fill:#EC2135;}
	.st162{fill:#8EC641;}
	.st163{fill-rule:evenodd;clip-rule:evenodd;fill:#332312;}
	.st164{fill:#E4E5E6;}
	.st165{clip-path:url(#XMLID_4225_);}
	.st166{clip-path:url(#XMLID_4226_);fill:url(#XMLID_4227_);}
	.st167{clip-path:url(#XMLID_4228_);}
	.st168{clip-path:url(#XMLID_4229_);fill:url(#XMLID_4230_);}
	.st169{clip-path:url(#XMLID_4231_);}
	.st170{clip-path:url(#XMLID_4232_);fill:url(#XMLID_4233_);}
	.st171{clip-path:url(#XMLID_4234_);}
	.st172{clip-path:url(#XMLID_4235_);fill:url(#XMLID_4236_);}
	.st173{clip-path:url(#XMLID_4237_);}
	.st174{clip-path:url(#XMLID_4238_);fill:url(#XMLID_4239_);}
	.st175{clip-path:url(#XMLID_4240_);}
	.st176{clip-path:url(#XMLID_4241_);fill:url(#XMLID_4242_);}
	.st177{clip-path:url(#XMLID_4243_);}
	.st178{clip-path:url(#XMLID_4244_);fill:url(#XMLID_4245_);}
	.st179{clip-path:url(#XMLID_4246_);}
	.st180{clip-path:url(#XMLID_4247_);fill:url(#XMLID_4248_);}
	.st181{fill:#A4A9AD;}
	.st182{fill:#F05123;}
	.st183{fill:#8E744B;}
	.st184{fill:#EEE0C6;}
	.st185{fill:#8F182B;}
	.st186{fill:#FFC526;}
	.st187{fill:#B0B8BC;}
	.st188{fill:#FCBB30;}
	.st189{fill:#E21D38;}
	.st190{fill:#FFC759;}
	.st191{fill:#E03B3F;}
	.st192{fill:#8E8F92;}
	.st193{fill:#E13B3F;}
	.st194{fill:#FDDF0A;}
	.st195{fill:#E7AA23;}
	.st196{fill:#F37321;}
	.st197{fill:#008056;}
	.st198{fill:#E2293A;}
	.st199{fill:#1F438B;}
	.st200{fill:#005588;}
	.st201{fill:#A7B2B8;}
	.st202{fill:#8C2A43;}
	.st203{fill:#1C2D5B;}
	.st204{fill:#0C724D;}
	.st205{fill:#232020;}
	.st206{fill:#A8ABAD;}
	.st207{fill:#EB2627;}
	.st208{fill:#E56C25;}
	.st209{fill:#203C73;}
	.st210{fill:#B99758;}
	.st211{fill:#C8202F;}
	.st212{fill:#EEE3C6;}
	.st213{fill:#045937;}
	.st214{fill:#C02C38;}
	.st215{fill:#EEB41E;}
	.st216{fill:#F37E2F;}
	.st217{fill:#01549C;}
	.st218{fill:#0862AB;}
	.st219{fill:#E43B40;}
	.st220{fill:#DF1E38;}
	.st221{fill:#CD9C2B;}
	.st222{fill:#F47A3E;}
	.st223{fill:#FBB516;}
	.st224{fill:#E97424;}
	.st225{fill:#056D75;}
	.st226{fill:#142048;}
	.st227{fill:#FFC429;}
	.st228{fill:#114B9D;}
	.st229{fill:#213065;}
	.st230{fill:#1D2859;}
	.st231{fill:#A8AAAD;}
	.st232{fill:#1D427C;}
	.st233{fill:#153055;}
	.st234{fill:#AFB0B3;}
	.st235{fill:#20396F;}
	.st236{fill:#BE3138;}
	.st237{fill:#B4975A;}
	.st238{fill:#344042;}
	.st239{fill:#14244C;}
	.st240{fill:#D0202D;}
	.st241{fill:#A9A9AD;}
	.st242{fill:#1D3261;}
	.st243{fill:#811423;}
	.st244{fill:#6F6E76;}
	.st245{fill:#C62031;}
</style>
<g id="Layer_5" class="st0">
</g>
<g id="Layer_3">
</g>
<g id="Layer_4">
	<g id="XMLID_2755_">
		<path id="XMLID_2808_" class="st13" d="M229.3,121.6l-2.7,4.9l0.4,2.8c-7.3,14.2-15.2,27.5-18.1,32.1c-1.1-2.5-2.5-4-5.3-5.5
			c0,0,12.9-23.4,16.4-42c-9.8,4.9-20,9.6-20,9.6l17.5-28.3c0,0-33.6,7.4-60.3,10c-28.7-42.3-54.7-49.7-54.7-49.7
			s18.1,29.6,21.4,50.3c-22.3-2.1-44.5-5.7-66.4-10.6l31.8,51.6c-18.6,1.1-50,2.1-50,2.1c8,8,33.7,18.1,67.7,26.5l6.1,9.8
			c-20,15.1-32.1,35.8-32.1,35.8l2,3.7c0,0,9.9-0.6,22.1-1.1c0,0,3.3-10.7,16.9-23.9l15.4,24.9l19.3-31.2l2.1-0.2l1.2,0.7
			c-0.4,0.5-0.7,1.1-1,1.7c1.6,1.1,1.7,1.3,1.8,3.2c1.6,0.4,3.2,0.4,4.7-0.1l0.7-1.3l0.9,0.4c0.1,0.9,0.4,2,0.4,2
			c1.5,0.7,3.2,0.5,4.5-0.4c6.5,1.3,11,0.6,12.5,0.2c6.5,1.8,10.7,0.6,12.4-0.2c3,1.2,6.1,2,14.6,2c4,0,8.2-0.2,8.2-3.2
			c0-4.2-4-19.3-8-27.7c1.7,1.2,3.6,2,5.6,2.6l3.7-2.7c-1.7-2-1.3-2.5-1.1-4c-0.9-0.7-2-1.2-3.1-1.3c3.6-4.1,11-13.7,20-30.8
			c1.9-0.3,4.3-1.4,4.6-4.4c0.3-2.5,0.5-5.1,0.5-7.7C236.1,119.8,229.3,121.6,229.3,121.6z"/>
		<path id="XMLID_2807_" class="st18" d="M207.2,102.6L191,128.4c1.8-0.8,3.6-1.7,5.5-2.5L213.7,98c0,0-29.3,6.4-56,9.1
			c0.6,1,1.2,2,1.9,3C178,108.2,197.1,104.6,207.2,102.6z"/>
		<path id="XMLID_2806_" class="st18" d="M209.8,170.8c-2.2-9.3-2.6-10.9-7.6-13.4l-0.8-1.1c9.1-16.2,15.6-35.7,15.6-38
			c0-0.6-0.2-0.7-0.6-0.6c-14.5,7.3-30.3,13.8-33.8,16.3l-0.9,1.3c-5.4-4.9-11.1-9.4-17-13.6c-16.1-31.7-40.9-54-56.8-61.9
			c0,3.3,15.8,27.6,18.2,48.1c-28.6-2-64.8-9.8-64.8-9.8l31.2,50.5c-25.6,1.6-48.1,2.1-48.1,2.1c0,1.8,28.6,15.4,70.9,25
			c9.2,2.1,16.1,1.8,20.6,1.8c-0.9-0.9-1.7-1.8-2.5-2.7c6.1,3.8,11.7,7.5,16.7,10.8c-1.3,0-2.7,0-4.2,0c-10.1,0-17.8-0.5-22.7-0.9
			l-4.5-7c-1.1-0.2-2.2-0.4-3.3-0.7c-0.4-0.1-0.9-0.2-1.3-0.2c-1.9-0.4-3.8-0.9-5-1.2l6.4,10.3c-6,4.3-21.3,17.3-32.4,35.4l1,1.8
			c0,0,10.7-0.7,19.8-0.9c0,0,4.1-11.6,18.6-25l15,24.3l18.2-29.4c1.2-0.1,2.4-0.2,3.6-0.4c1.3,0.8,2.4,1.6,3.6,2.2
			c-0.7,0.4-1.2,0.9-1.6,1.6c0.7,0.5,1.1,1.3,1.1,2.1c0.6,0.1,1.2,0,1.8-0.1c0.4-0.7,0.8-1.4,1.2-2.1c1.1,0.6,2.2,1.1,3.4,1.6
			c0,0.6,0.1,1.2,0.2,1.8c0,0,1.1,0.4,2.6-0.9c8,1.8,12.9,0.2,12.9,0.2c8.2,2.4,12.4-0.3,12.4-0.3c3.2,1.4,5.9,2.2,14.7,2.2
			c4.8,0,6.3-0.6,6.3-1.4C217.9,194.5,213.8,178.8,209.8,170.8z"/>
		<path id="XMLID_2803_" class="st18" d="M230.5,123.2l-2,3.7l0.4,2.8c-9.2,18.1-19.5,34.5-19.5,34.5l1.3,3.1l1.5-1.1l1.1,0.1
			c0,0,9.8-9.4,22.3-33.6c0,0,3.6,0.1,3.9-2.8c0.3-3,0.5-5,0.5-6.2C235.4,122,230.5,123.2,230.5,123.2z M212.1,167.9l0.3,1.1
			c1.4,1,2.9,1.7,4.5,2.3l1.5-1.1c-0.6-0.8-0.8-1.8-0.6-2.8C215.9,166.2,212.1,167.9,212.1,167.9L212.1,167.9z"/>
		<path id="XMLID_2800_" class="st13" d="M175.4,195c1.3-0.8,2.6-1.6,3.8-2.6c-7.3,0.3-10.1-0.6-10.1-0.6c1.3-1.3,2.9-2.4,4-3.5
			c-0.8,0.1-1.6,0.2-2.4,0.3c0,0.3-0.4,0.7-1.5,1.4c-2.2,0.3-4.4,0.7-6.5,0.9c0.6,0.7,1.3,1.3,2,1.9c0.5-0.2,1-0.3,1.6-0.5
			c0,0.5-0.1,1-0.3,1.5c0.9,0.6,1.9,1.2,2.9,1.6c0.1-0.8,0.4-1.5,0.8-2.2c0.4,0.1,0.6,1.2,0.8,1.5c0.5,0.8,1.3,0.9,1.4,1.6
			c3.1,0.7,7,0.9,12.1,0.2l1.4-1.1C178,195.6,175.4,195,175.4,195z M163.2,183.9c-3.3,1.1-4.7,0.3-4.7,0.3c0.5-0.6,0.8-1.2,1.1-1.9
			c-2.9,0.8-3.8,0-3.8,0c0.4-0.4,0.7-0.9,0.9-1.4c-2-0.1-4,0.2-5.9,0.6c2.7,0.3,5.1,1.6,6.9,3.6c1.7-0.1,3.4-0.3,5.1-0.6
			L163.2,183.9z"/>
		<path id="XMLID_2797_" class="st13" d="M92,211l-3.6,4.6c0,0,10.6-1.6,17-0.7l1.8-3C103.7,210.1,92,211,92,211z M156.9,182
			c1.2,0,2.3-0.1,3.4-0.5c0,0.8-0.2,1.7-0.7,2.3c1.6-0.1,3.2-0.3,4.8-0.7c0,0-0.3,0.7-0.7,1.3c0.5-0.1,1-0.2,1.5-0.2
			c1,0,1.1,0.2,2,0.2c1.7,0,1.9,0.4,2.2,2.4c0.3,0.4,0.7,0.8,1.1,1.1c1.3-0.1,2.7-0.2,4.2-0.4c-1.2,1.5-2.5,2.8-4.1,3.9
			c0,0,6.8,0.7,10.4,0.2c-1,1.2-2.2,2.2-3.6,2.9c0,0,4.7,0.3,9.8,0.2c-0.6,0.7-1.3,1.3-2,1.9c0,0,6.2,1.4,10.7,0.3
			c-16.1-6.4-24.9-16.1-38.4-16.1C157.2,181.3,157.1,181.7,156.9,182L156.9,182z"/>
		<path id="XMLID_2792_" class="st13" d="M105.7,195.7l-5.1,5c0,0,9.3-1.3,15.5-0.4l2.4-2.7C116.2,195.7,105.7,195.7,105.7,195.7z
			 M100,201.5l-3.8,4.4c0,0,10.7-1.1,15,0.1l4.4-5.1C111.1,200.2,100,201.5,100,201.5z M95.5,206.6l-1.3,1.6c0,0,13.1-2,16.2-1.3
			l0.2-0.3C107.5,205.5,95.5,206.6,95.5,206.6L95.5,206.6z M93.7,208.9l-1.1,1.4c0,0,11-0.8,15,1l2.6-3.9
			C106.6,206.9,93.7,208.9,93.7,208.9L93.7,208.9z"/>
		<path id="XMLID_2791_" class="st13" d="M106.6,194.9l-0.2,0.2c0,0,9.1-0.1,12.6,2l0.5-0.5C116.7,195,106.6,194.9,106.6,194.9z"/>
		<path id="XMLID_2782_" class="st13" d="M120.2,196.8l0.2,1.4l3.3-3.2l0-1.7L120.2,196.8z M119,198l0.3,1.2l0.5-0.5l-0.2-1.4
			L119,198z M116.2,201.2l0.2,1.3l2.5-2.7l-0.3-1.2L116.2,201.2z M111.5,206.7l0.2,1.1l4.1-4.7l-0.2-1.3L111.5,206.7L111.5,206.7z
			 M110.7,207.6l0.2,1.1l0.2-0.3l-0.2-1L110.7,207.6z M107.8,212l0.1,0.9l2.4-3.6l-0.2-1L107.8,212z M105.9,215.3l0.1,0.9l1.5-2.6
			l-0.2-0.9L105.9,215.3z M111.7,190.5l-4.4,3.8c0,0,10.1,0.2,12.6,1.8l3.7-3.7C120.4,190.6,111.7,190.5,111.7,190.5L111.7,190.5z"
			/>
		<path id="XMLID_2774_" class="st224" d="M231.1,124.7l-1.3,2c2.4-0.4,4.8-0.5,7.1-0.2l1.5-2.1C236,123.9,233.5,124,231.1,124.7z
			 M230.5,129c-6.1,11-12.7,25.5-20,34.5l2.1-1.3l0.4-0.5l-0.4,1.3l0.9-0.4l-1.3,2.4l1.2-1c0,0,6.2-6.9,21.9-35.3
			C231.9,128,230.5,129,230.5,129L230.5,129z M105.1,215.5c-5.7-1.1-17.3,0.9-17.3,0.9l-3.1,4.5l18.2-0.9L105.1,215.5z M124.2,192
			l1.5-0.9c0,0,6.3,1,43.8-2.9c-0.9-0.7-1.3-0.5-1.3-2c0-0.5,0.1-0.6-0.7-0.6c-0.8,0-1.1-0.2-2.1-0.2c-1.2,0-3,1.2-21.4,1.2
			c-14.6,0-24.9-1.2-25.6-1.2c-0.7,0-2,1.3-5.9,4.4C112.4,189.9,120.2,189.8,124.2,192L124.2,192z M165.7,168.4
			c0.7,5.3,1.9,7.5,1.9,7.5c1.8,1.3,3.7,2.3,5.8,3.1C169.6,172,165.7,168.4,165.7,168.4z M169.5,197.8c0.6-0.1,1.1-0.4,1.6-0.8
			c-0.5-0.7-0.9-1.5-1.2-2.3C169.5,195.7,169.4,196.7,169.5,197.8L169.5,197.8z M163.1,196.6c1.3-1.7,2.1-2.7,2.3-3.4
			c-1.1,0.4-2.5,0.7-3.3,1.9C162.5,195.6,162.9,196.1,163.1,196.6L163.1,196.6z"/>
		<path id="XMLID_2768_" class="st224" d="M118.8,177.6c-1.1-0.2-2.2-0.4-3.3-0.7c-0.4-0.1-0.9-0.2-1.3-0.3l4.8,7.6
			c0.3,0,0.7,0,1.1,0.1c0.9,0,1.9,0.2,3.1,0.2L118.8,177.6z M189.4,129.1c0.5-0.2,1.1-0.5,1.6-0.7l16.2-25.8
			c-10.1,2-29.2,5.6-47.6,7.5c0.2,0.3,0.3,0.6,0.5,0.9l1.2,2.1c14.2-1.6,28.7-4,39.3-6l-15.1,24C186.7,130.4,188,129.8,189.4,129.1z
			 M149.8,192.5c-1.1,0.1-2.1,0.2-3.1,0.3c-5.9,0.5-11.8,0.8-17.7,0.9c-1.7,0-2.6,0-2.6,0c-0.1,0-0.2,0.1-0.3,0.2
			c-0.2,0.2-0.4,0.4-0.7,0.7l12.1,19.4l13.5-21.5C150.6,192.4,150.2,192.4,149.8,192.5z M217.2,167.9c-1.3-0.7-3.8,0.3-3.8,0.3
			c1.3,0.3,2.6,0.7,3.9,1.3C217.2,168.9,217.1,168.4,217.2,167.9z M211.8,163.7c-0.5,0.3-1,0.5-1.5,0.7l0.8,1.6l0.5-0.4l-0.2-0.6
			l0.8-1.5L211.8,163.7z"/>
		<path id="XMLID_2757_" class="st225" d="M131.7,140.6c0,0-15.4-12.7-34.4-15.9c-0.7,0-2.1,2.9-2.1,2.9s2-1.8,2.7-1.8
			C114.1,128.9,131.7,140.6,131.7,140.6z M140.6,154.4c-0.8,5-0.5,10.1,0.7,15c-0.4-3.8,0.9-12.7,0.9-12.7L140.6,154.4z
			 M144.6,157.9c-0.8,4.7-0.6,9.5,0.5,14.1c-0.4-2.9,1.1-11.4,1.1-11.4L144.6,157.9z M148.6,161.8c-0.8,4.1-0.8,8.2,0,12.3
			c-0.2-2.3,1.6-9.9,1.6-9.9L148.6,161.8z M101.7,147.9c0,0,3.1,1.9,8.2,5.7c-1.3-2.2-4.6-4.6-8.2-6.7l-8,0.6l0.6,0.9
			C96.8,148.2,99.3,148.1,101.7,147.9z M201,158.1c0,0-12-16.7-34.9-33.6c2,4,3.8,8.2,5.4,12.5c0.2,0.6,0.2,1.1-0.3,1.1
			c-5.1,0-22.8-9.8-40.3-8c9.1,8.7,18.1,20.7,9.3,16.3c0,0,9.1,5.6,19.8,16.9c8,0,9.6,1.3,10,2.4c0.9,2.2,2.2,6,7.5,12.2
			c2.4,0,2.8-0.2,3.7-2.3c0,0,0.7,2.7-0.6,4.8c10.9,8.6,32,17.2,35.3,17.2c1.3,0-1.4-11.8-7.5-26C206.5,162.6,205.4,160,201,158.1
			L201,158.1z M126.4,112.9c0-1.1,0-2.3-0.2-3.4c-9.8,1-15.7,3.3-17.9,4.4C111.7,112.9,117.9,112.6,126.4,112.9z M200.7,107
			l-15.1,24c1.1-0.6,2.4-1.2,3.8-1.9l15.8-25.1c-10,2-27.8,5.2-45,7l1.2,2.1C175.6,111.5,190.1,109,200.7,107z M120.1,184.4
			c0.9,0,1.9,0.2,3.1,0.2l-4.5-7c-1.1-0.2-2.2-0.4-3.3-0.7L120.1,184.4z M146.6,192.8c-8,0.7-14.4,0.8-17.7,0.9c-1.7,0-2.6,0-2.6,0
			c-0.1,0-0.1,0.1-0.2,0.2l11.4,18.2l12.3-19.7C148.7,192.6,147.7,192.7,146.6,192.8z"/>
		<path id="XMLID_2756_" class="st13" d="M137.5,207.3l9.1-14.5c-8,0.7-14.4,0.8-17.7,0.9L137.5,207.3z"/>
	</g>
</g>
<g id="Watermark">
</g>
</svg>
