<?xml version="1.0" encoding="utf-8"?>
<!-- Generator: Adobe Illustrator 19.2.1, SVG Export Plug-In . SVG Version: 6.00 Build 0)  -->
<svg version="1.1" xmlns="http://www.w3.org/2000/svg" xmlns:xlink="http://www.w3.org/1999/xlink" x="0px" y="0px"
	 viewBox="0 0 288 288" style="enable-background:new 0 0 288 288;" xml:space="preserve">
<style type="text/css">
	.st0{display:none;}
	.st1{display:inline;}
	.st2{fill:#EF3E42;}
	.st3{fill:#004B8D;}
	.st4{fill:#D7CA9E;}
	.st5{fill:#A03123;}
	.st6{fill-rule:evenodd;clip-rule:evenodd;fill:#FFFFFF;}
	.st7{fill-rule:evenodd;clip-rule:evenodd;fill:#1E3B6E;}
	.st8{fill-rule:evenodd;clip-rule:evenodd;fill:#BE2132;}
	.st9{fill-rule:evenodd;clip-rule:evenodd;fill:#E19D26;}
	.st10{fill:#DC4329;}
	.st11{fill:#DC4A26;}
	.st12{fill:#231F20;}
	.st13{fill:#FFFFFF;}
	.st14{fill:#050404;}
	.st15{fill:#263C82;}
	.st16{fill:#CC3533;}
	.st17{fill:#E82F4D;}
	.st18{fill:#010101;}
	.st19{fill:#C1C8CF;}
	.st20{fill:#365A8B;}
	.st21{fill:#29417C;}
	.st22{fill:#F47920;}
	.st23{fill:#FAA61A;}
	.st24{fill:#CCCCCC;}
	.st25{fill:#002B54;}
	.st26{fill:#ED1C24;}
	.st27{opacity:0.3;fill:#002B54;}
	.st28{fill:#020303;}
	.st29{fill:#1B9ED8;}
	.st30{fill:#189DD8;}
	.st31{fill:#43748F;}
	.st32{fill:#EB3947;}
	.st33{fill:#EB3A47;}
	.st34{fill:#44758F;}
	.st35{fill:#1F9ED8;}
	.st36{fill:#FCFDFD;}
	.st37{fill:#020202;}
	.st38{fill:#E83543;}
	.st39{fill-rule:evenodd;clip-rule:evenodd;fill:#C1A677;}
	.st40{fill-rule:evenodd;clip-rule:evenodd;fill:#212F55;}
	.st41{fill-rule:evenodd;clip-rule:evenodd;fill:#AB285C;}
	.st42{fill-rule:evenodd;clip-rule:evenodd;fill:#014A67;}
	.st43{fill:#F47A39;}
	.st44{fill-rule:evenodd;clip-rule:evenodd;fill:#242052;}
	.st45{fill:#123B35;}
	.st46{display:inline;fill:#DB2732;}
	.st47{display:inline;fill:#1D3665;}
	.st48{fill-rule:evenodd;clip-rule:evenodd;}
	.st49{fill:#F58220;}
	.st50{fill:#1A3562;}
	.st51{fill:#036B66;}
	.st52{fill:#C4CDD3;}
	.st53{fill:#EB1F4E;}
	.st54{display:inline;fill:#C4203B;}
	.st55{display:inline;fill:#164883;}
	.st56{display:inline;fill:#90BCE5;}
	.st57{display:inline;fill:#1B2F5B;}
	.st58{fill:#144983;}
	.st59{fill:#CD1F43;}
	.st60{fill:#1A459D;}
	.st61{fill:#0A2042;}
	.st62{fill:#D92E27;}
	.st63{display:inline;fill:#CF1F45;}
	.st64{fill-rule:evenodd;clip-rule:evenodd;fill:#D7CA9E;}
	.st65{fill:#1E3B6E;}
	.st66{fill:#39B54A;}
	.st67{fill:#E19D26;}
	.st68{fill:#BE2132;}
	.st69{fill:#EF5426;}
	.st70{display:inline;fill:#FFFFFF;}
	.st71{display:inline;fill:#E31837;}
	.st72{display:inline;fill:#E21D37;}
	.st73{display:inline;fill:#005596;}
	.st74{display:inline;fill:#CC3533;}
	.st75{display:inline;fill:#E82F4D;}
	.st76{display:inline;fill:#010101;}
	.st77{display:inline;fill:#2A398B;}
	.st78{fill:#999999;}
	.st79{display:inline;fill:#999999;}
	.st80{display:inline;fill:#041E41;}
	.st81{display:inline;fill:#D4451D;}
	.st82{display:inline;fill:#EA7200;}
	.st83{display:inline;fill:#BDBBBB;}
	.st84{fill:#041E41;}
	.st85{fill:none;stroke:#000000;stroke-width:0.34;}
	.st86{fill:#D4451D;}
	.st87{fill:#EA7200;}
	.st88{fill:#BDBBBB;}
	.st89{fill:none;stroke:#EA7200;stroke-width:0;stroke-linecap:round;stroke-linejoin:round;}
	.st90{fill:#9C9FA1;}
	.st91{fill-rule:evenodd;clip-rule:evenodd;fill:#333290;}
	.st92{fill:#005B9B;}
	.st93{fill:#EF4043;}
	.st94{fill-rule:evenodd;clip-rule:evenodd;fill:#09A2DD;}
	.st95{fill-rule:evenodd;clip-rule:evenodd;fill:#43758E;}
	.st96{fill-rule:evenodd;clip-rule:evenodd;fill:#FCEE1E;}
	.st97{fill-rule:evenodd;clip-rule:evenodd;fill:#EE3441;}
	.st98{fill:#B89760;}
	.st99{fill:#D52D47;}
	.st100{fill-rule:evenodd;clip-rule:evenodd;fill:#0B2242;}
	.st101{fill:#F37938;}
	.st102{fill:#164883;}
	.st103{fill:#8E6D2A;}
	.st104{fill-rule:evenodd;clip-rule:evenodd;fill:#1A314F;}
	.st105{fill-rule:evenodd;clip-rule:evenodd;fill:#8F3326;}
	.st106{fill-rule:evenodd;clip-rule:evenodd;fill:#B68E64;}
	.st107{fill:#03493B;}
	.st108{fill:#FCC158;}
	.st109{fill:#BB544F;}
	.st110{fill:#D0B04A;}
	.st111{fill-rule:evenodd;clip-rule:evenodd;fill:#B6A269;}
	.st112{fill-rule:evenodd;clip-rule:evenodd;fill:#001F5B;}
	.st113{fill:#1D3665;}
	.st114{fill:#FFFFFF;stroke:#FFFFFF;stroke-width:0.16;}
	.st115{fill:#004666;}
	.st116{fill:none;stroke:#037062;stroke-width:2.8199;}
	.st117{fill:#BCCBD2;}
	.st118{fill:#037062;}
	.st119{fill:#E63248;}
	.st120{fill:none;stroke:#E63248;stroke-width:0.2826;}
	.st121{fill:none;stroke:#037062;stroke-width:1.0988;}
	.st122{fill:none;stroke:#BCCBD2;stroke-width:4.9365;}
	.st123{fill:#FCEE21;}
	.st124{fill:#FCEE23;}
	.st125{fill:#C4203B;}
	.st126{fill:#193661;}
	.st127{fill:#164884;}
	.st128{fill:#CF1F44;}
	.st129{fill:#0A2042;stroke:#010101;stroke-width:0.2131;}
	.st130{fill:#CF1F45;}
	.st131{fill:#1E3160;}
	.st132{fill:#BA202E;}
	.st133{fill:#212759;}
	.st134{fill:#BA1F31;}
	.st135{fill:#7BBCE8;}
	.st136{fill:#FED208;}
	.st137{fill:#6DB3E3;}
	.st138{fill:#FFCE04;}
	.st139{fill:#1B2F5B;}
	.st140{fill:#90BCE5;}
	.st141{fill:#D8782C;}
	.st142{fill:#C49C6F;}
	.st143{fill:#F04B23;}
	.st144{display:inline;fill-rule:evenodd;clip-rule:evenodd;fill:#F58220;}
	.st145{fill:#094F91;}
	.st146{fill:#DB2732;}
	.st147{fill:none;}
	.st148{fill:#00174A;}
	.st149{fill:none;stroke:#FFFFFF;stroke-width:3;stroke-miterlimit:10;}
	.st150{fill:none;stroke:#000000;stroke-width:0.1055;stroke-linecap:round;stroke-linejoin:round;}
	.st151{fill:#25358E;}
	.st152{fill:#ED1C2E;}
	.st153{fill:#FFFFFF;stroke:#000000;stroke-width:0.3293;stroke-linecap:round;stroke-linejoin:round;}
	.st154{display:inline;fill-rule:evenodd;clip-rule:evenodd;fill:#00174A;}
	.st155{fill:#0D2240;}
	.st156{display:inline;fill:#8EC641;}
	.st157{fill:#182D56;}
	.st158{fill:#BE323A;}
	.st159{fill:#C62034;}
	.st160{fill:#0B1437;}
	.st161{fill:#EC2135;}
	.st162{fill:#8EC641;}
	.st163{fill-rule:evenodd;clip-rule:evenodd;fill:#332312;}
	.st164{fill:#E4E5E6;}
	.st165{clip-path:url(#XMLID_4225_);}
	.st166{clip-path:url(#XMLID_4226_);fill:url(#XMLID_4227_);}
	.st167{clip-path:url(#XMLID_4228_);}
	.st168{clip-path:url(#XMLID_4229_);fill:url(#XMLID_4230_);}
	.st169{clip-path:url(#XMLID_4231_);}
	.st170{clip-path:url(#XMLID_4232_);fill:url(#XMLID_4233_);}
	.st171{clip-path:url(#XMLID_4234_);}
	.st172{clip-path:url(#XMLID_4235_);fill:url(#XMLID_4236_);}
	.st173{clip-path:url(#XMLID_4237_);}
	.st174{clip-path:url(#XMLID_4238_);fill:url(#XMLID_4239_);}
	.st175{clip-path:url(#XMLID_4240_);}
	.st176{clip-path:url(#XMLID_4241_);fill:url(#XMLID_4242_);}
	.st177{clip-path:url(#XMLID_4243_);}
	.st178{clip-path:url(#XMLID_4244_);fill:url(#XMLID_4245_);}
	.st179{clip-path:url(#XMLID_4246_);}
	.st180{clip-path:url(#XMLID_4247_);fill:url(#XMLID_4248_);}
	.st181{fill:#A4A9AD;}
	.st182{fill:#F05123;}
	.st183{fill:#8E744B;}
	.st184{fill:#EEE0C6;}
	.st185{fill:#8F182B;}
	.st186{fill:#FFC526;}
	.st187{fill:#B0B8BC;}
	.st188{fill:#FCBB30;}
	.st189{fill:#E21D38;}
	.st190{fill:#FFC759;}
	.st191{fill:#E03B3F;}
	.st192{fill:#8E8F92;}
	.st193{fill:#E13B3F;}
	.st194{fill:#FDDF0A;}
	.st195{fill:#E7AA23;}
	.st196{fill:#F37321;}
	.st197{fill:#008056;}
	.st198{fill:#E2293A;}
	.st199{fill:#1F438B;}
	.st200{fill:#005588;}
	.st201{fill:#A7B2B8;}
	.st202{fill:#8C2A43;}
	.st203{fill:#1C2D5B;}
	.st204{fill:#0C724D;}
	.st205{fill:#232020;}
	.st206{fill:#A8ABAD;}
	.st207{fill:#EB2627;}
	.st208{fill:#E56C25;}
	.st209{fill:#203C73;}
	.st210{fill:#B99758;}
	.st211{fill:#C8202F;}
	.st212{fill:#EEE3C6;}
	.st213{fill:#045937;}
	.st214{fill:#C02C38;}
	.st215{fill:#EEB41E;}
	.st216{fill:#F37E2F;}
	.st217{fill:#01549C;}
	.st218{fill:#0862AB;}
	.st219{fill:#E43B40;}
	.st220{fill:#DF1E38;}
	.st221{fill:#CD9C2B;}
	.st222{fill:#F47A3E;}
	.st223{fill:#FBB516;}
	.st224{fill:#E97424;}
	.st225{fill:#056D75;}
	.st226{fill:#142048;}
	.st227{fill:#FFC429;}
	.st228{fill:#114B9D;}
	.st229{fill:#213065;}
	.st230{fill:#1D2859;}
	.st231{fill:#A8AAAD;}
	.st232{fill:#1D427C;}
	.st233{fill:#153055;}
	.st234{fill:#AFB0B3;}
	.st235{fill:#20396F;}
	.st236{fill:#BE3138;}
	.st237{fill:#B4975A;}
	.st238{fill:#344042;}
	.st239{fill:#14244C;}
	.st240{fill:#D0202D;}
	.st241{fill:#A9A9AD;}
	.st242{fill:#1D3261;}
	.st243{fill:#811423;}
	.st244{fill:#6F6E76;}
	.st245{fill:#C62031;}
</style>
<g id="Layer_5" class="st0">
</g>
<g id="Layer_3">
</g>
<g id="Layer_4">
	<g id="XMLID_2809_">
		<path id="XMLID_2865_" class="st13" d="M219.1,79.2h-11.8c-0.5-1.5-1.4-2.8-2.5-3.9c-3.4-3.4-8-4-10.7-1.3c-0.6,0.6-1,1.2-1.3,2
			c-0.9-0.7-1.9-1.2-3-1.6c-1.7-3.5-4-8.4-9.3-8.4c-1.7,0-3.4,0.4-4.9,1.2c-3.9-3.1-12.3-8.8-20.8-8.8c-9.4,0-22.5,8.6-26.3,8.6
			c-2.8,0-9-13.8-18.7-13.8c-5.2,0-10.5,3.5-16.8,7.3c-6,3.6-7.6,7.9-9.3,12.5c-1.4,2.2-3.1,4.3-5.1,6H48.8l51.2,89.1H64.9
			l-11.2,20.1h51.4c1.9-0.1,3.8-0.6,5.5-1.5l23.2,40.4l22.6-39.4h18.8v-11h-1.3c0-3.8-2.9-8-4.4-9.8l-0.3-1.6l4.3-7.5l25.2-9.3
			c3.4-1.5,6-4.4,6.9-8c2.1-0.2,4-1.3,5.3-3c1.9,0.5,3.8,0.8,5.8,0.9c3.8,0,7.8-2.1,8.9-6.2c0,0,4-2.5,5.8-10.1l-31.3-10.4
			L219.1,79.2z"/>
		<path id="XMLID_2864_" class="st18" d="M194.7,117.8l3.9,1.3l0,2.5c-2.1-0.1-3.8-0.5-3.8,5.7c0,4.6,0.9,6,0.9,7.3
			c0,2.2-0.2,2.7-7.1,2.7c-1.4-1.3-3-2.2-4.8-2.8c0,0-0.1-0.3-0.2-1l29.1-50.7h-8.9c0.7-1.3,0-3.4-1.6-5c-1.9-1.9-4.3-2.5-5.5-1.3
			c-0.5,0.6-0.7,1.4-0.5,2.2l-3.6,3.8c0.1-0.6,0.3-3.6-5.4-5.2c-1.7-3.4-3.1-7.6-6.6-7.6c-1.9,0.1-3.7,0.9-5.2,2.1
			c0,0-10.4-9.7-20.5-9.7c-8.8,0-20.9,8.6-26.3,8.6C123,70.8,118,57,110,57c-4.3,0-9.4,3.5-14.9,6.8c-5.5,3.3-6.5,7.4-7.8,10.7
			c-0.9,2.2-3.7,5.2-6.9,8.4H55.2l51.2,89c-0.4,0.1-0.8,0.1-1.1,0.1H67.1l-7,12.7h45.2c2.2-0.1,4.3-1,5.8-2.5l0.7-0.8l22.1,38.5
			l20.5-35.6h17.3v-3.6h-4.1l-0.7-2.3h0.6l3-1.4c0-3.4-4.2-8.3-4.2-8.3l-0.7-3.9l5.7-9.8l26.4-9.8c4.7-1.7,5.2-8.6,5.2-8.6
			s4.3,2,6.7-3.2c2.4,0.8,4.9,1.3,7.4,1.5c2.2,0,5.4-1.2,5.4-4.6c2.1-1.4,3.7-3.3,4.6-5.6l-31.1-10.3L194.7,117.8z"/>
		<path id="XMLID_2857_" class="st223" d="M117.2,154.2c-1.6-3.9-0.9-4.8-0.9-4.8s-5.2-4.3-3.7-9.7c0,0-13.5-19.6-13.5-31.2
			c0-6,2.9-5.4,2.9-10.4c0-4-2.7-7-4.7-7c-2.3,0-9.4,4.7-19.7,10.8l3.9-9l-9.4,9.7c0,0-1.8-9.4,3.2-14.5c0.8-0.8,1.7-1.7,2.5-2.5
			h-18l49.2,85.6c0.9-0.4,1.6-0.9,2.3-1.5l7.8-7.8C117.9,159.3,117.3,156.8,117.2,154.2z M197.3,85.5l-0.7,0.8
			c1.7,1.9,2.3,4.5,1.7,6.9c0,2.7-1.4,2.6-1.4,2.6c0,6.2-3.2,5.1-3.2,5.1c0,8.1-8.9,4.8-8.9,4.8c-1.3-0.2-2.5-0.5-3.7-1.1l-6,6.7
			c3.1,6,5.6,12.2,7.5,18.6l25.6-44.5L197.3,85.5z M153.7,180.2l1.1-1.8h-1.7L153.7,180.2z M176.4,94.2l-0.9-2.1
			c-4.8,0.8-9-1.6-10.3-2.2c-1.2-0.6,0.1-3.3,0.1-3.3c-0.3-0.4-0.6-0.8-1.1-1.1h-5c-0.9,0.6-1.1,1.9-0.5,2.8l0.1,0.1
			c4.9,5.2,9.3,10.9,12.9,17.1l5.5-5.8L176.4,94.2z M163.2,163.7l3.9-6.9l-4.4,2.1L163.2,163.7z M155.2,151c0-0.6-8.1-2.7-11.3-3.9
			c-2.9,1.1,0.8,1.7,0.8,5.5c-0.1,1.7-0.5,3.3-1.1,4.9l-1.6,0.4c0,0-3.2,6-5.3,5.1c-3,5.2-4.2,6.4-8.9,6.4c-1.4,0-2.8-0.4-4-1.1
			l-10.3,11.2l20.3,35.3l17.4-30.4h-12.5c0.1-2.1,0.8-4.2,2-5.9c0-5.2,3.2-6.2,5.6-6.5c5-0.4,7,0,7-2.5c0-1.7-0.1-3.8-0.1-3.8h1.8
			c0-6.7-1.9-8.4-1.9-11.8C153.3,152.5,155.2,152,155.2,151L155.2,151z"/>
		<polygon id="XMLID_2856_" class="st223" points="146.2,180.7 147.9,180.7 148.6,178.4 144.9,178.4 		"/>
		<path id="XMLID_2852_" class="st13" d="M203.9,120.9l-1.3,1.9l8.9,3l0-2.3L203.9,120.9z M217.3,125.3l-1.4,1.8l3.5,1.1l-0.5-2.4
			L217.3,125.3z M157.8,178.4l-1.3,2.3h5.4l0.7-2.3L157.8,178.4z"/>
		<path id="XMLID_2851_" class="st13" d="M219,131.3c0.1,0.6-0.6,1.4-1.7,1.6c-1.1,0.3-2.1,0-2.3-0.7c-0.1-0.6,0.6-1.3,1.7-1.6
			C217.8,130.4,218.8,130.7,219,131.3z"/>
		<path id="XMLID_2850_" class="st13" d="M146.3,173.6c0.4,0.5,0,1.5-0.9,2.2c-0.9,0.7-2,0.9-2.4,0.4c-0.4-0.5,0-1.5,0.9-2.2
			C144.8,173.3,145.9,173.1,146.3,173.6z"/>
		<path id="XMLID_2810_" class="st13" d="M184,75.1l-1.7-3.5c-0.1-0.3-1.3-0.3-1.3,0.4C181,72.4,182.3,75.1,184,75.1z M184,78.9
			l-5.2-7.1c-0.7,0-1.4,0.4-1.6,1.1l5.7,6C183.6,79.7,184,78.9,184,78.9z M182.3,81.5l-6.2-7.1c-0.8-0.9-2.2,0.8-2.2,0.8l7,6.9
			C181.5,82.8,182.6,81.8,182.3,81.5L182.3,81.5z M180.1,83.5c0-1.5-6.7-6.7-7.7-6.7c-1.1,0-1.5,1.3-1.5,1.3l8.5,6
			C179.6,84.3,180.1,83.7,180.1,83.5L180.1,83.5z M177.8,87c0.5,0.3,1.3-1.3,0.8-1.6c-2.9-2-5.9-3.8-9.1-5.3
			c-0.5,0.6-0.7,1.3-0.6,2.1L177.8,87z M176.4,89.8c0.3,0.1,1.3-0.8,0.6-1.3c-2.8-1.6-5.6-3.1-8.6-4.3c-1,1-0.4,1.7-0.4,1.7
			L176.4,89.8z M174.4,90.8c-2.4-1.3-5-2.4-7.6-3.2l-0.2,0.7C166.6,88.3,168.4,91.1,174.4,90.8L174.4,90.8z M194.2,86.7l3.4,6
			c-0.2-2.4-1.1-4.7-2.7-6.5C194.9,86.2,194.2,86.1,194.2,86.7L194.2,86.7z M197.1,94.7c0-2.4-3.8-6.5-3.8-6.5l-0.9,1.8l3.6,5.5
			C196.1,95.5,197.1,96,197.1,94.7L197.1,94.7z M190.5,93.5c0,0,1.7,4.8,3.5,4.8c0.3-2.2-0.6-4.4-2.4-5.8
			C191,92.5,190.6,92.9,190.5,93.5L190.5,93.5z M187.9,95.7c0,0,1,6.5,3.9,6.5C192.1,101.3,190.9,95.7,187.9,95.7L187.9,95.7z
			 M188.9,105.7c1-4.2-3.3-8.6-3.3-8.6c-3-0.2-3.1,0.8-3.1,0.8S184.7,105.7,188.9,105.7L188.9,105.7z M178.4,98.7
			c0.6-0.4,1.4-0.6,2.1-0.5c-0.8-2.7-2.4-2-2.4-2C177.6,97.1,178.4,98.7,178.4,98.7L178.4,98.7z M194,84.8c2.2-0.2,4.1-1.5,5-3.5
			c0-0.6-0.6-1-1.7-1c-1.1,0-4,3.1-4,4C193.3,84.4,193.4,84.8,194,84.8L194,84.8z M183.7,94c0.2,0.6,0.7,1,1.3,0.9
			c2.2,0,6.7-4.8,6.7-8.7c0-0.8-1.2-0.8-1.2-0.8C186.5,88.1,183.7,94,183.7,94L183.7,94z M189.8,84c2.7-1.3-0.1-4.8-2-3.7
			c-4.5,2.9-7.7,7.5-8.6,12.8c0.6,0.8,1.6,1.1,2.5,0.8C181.7,93.9,185.9,85.9,189.8,84L189.8,84z M134,139c-0.4,1.9-0.2,3.9,0.7,5.6
			c0.5-0.3,0.8-0.1,0.8-3.2S134,139,134,139z M129.7,136.9c-0.1,2.2,0,4.4,0.4,6.6c0,0,1.5,0.6,2.1-0.1c-0.1-0.8-0.1-2.7-0.1-3.9
			C132.1,136.6,129.7,136.9,129.7,136.9L129.7,136.9z M126.8,135.9c-0.8,1.8-0.3,4.5-0.3,6.4c0,2,1.3,1.9,1.9,1.5
			C127.7,142.4,129.7,137.3,126.8,135.9L126.8,135.9z M124.6,140.7c0-6.7-2.3-5.5-2.3-3.1C122.3,140.3,123.8,141.5,124.6,140.7
			L124.6,140.7z M121.6,142.9c0-0.6-0.8-0.5-0.8-4.7c0-3.3-3.7-2.1-3.7-0.3c0,1.7,3,3.9,3,5.2C120.1,143.1,121.6,143.7,121.6,142.9
			L121.6,142.9z M114.8,139.3c-2.8,3.9,1.8,8,1.8,8c1,0.1,1.9-0.2,2.7-0.8C119.3,146.5,117.8,141.1,114.8,139.3L114.8,139.3z
			 M132.5,154.9c0.4,10.1-1.2,9.9-1.2,11.4c0,2.5,4.3-0.7,4.3-7C135.6,151.8,132.5,154.9,132.5,154.9L132.5,154.9z M122.9,151.2
			c2.4,9.8,5.3,15.6,6.6,15.9c0,0,0.8-1.4,0.8-9.9C130.3,157.2,128.2,148.2,122.9,151.2L122.9,151.2z M119.1,154.9
			c0.8,9.1,6.3,13.1,6.3,13.1l1.1-0.6c-2.3-4.8-4.3-9.8-5.8-14.9L119.1,154.9z M141.8,151.5l-0.2,2.1l1.4,0.2l0.4-1.2
			C143.1,152.5,142.7,151.3,141.8,151.5L141.8,151.5z M139.1,150.6c-1.6,0-1,3.6-1,4.8c0,0.6-0.1,1.2-0.4,1.8
			c0.3,0.6,0.3,2.3,1.4,2.3c0.6,0,1.5-0.9,1.5-3.2C140.5,152.7,140.5,150.6,139.1,150.6L139.1,150.6z M135.7,148.7
			c-1,0-1.5,1.1-1.5,3.1c0,0.6,0.8,1.1,1.3,1.1c0.3,0,1-0.7,1-2.9C136.5,149.4,136.2,148.7,135.7,148.7L135.7,148.7z M133.4,148.2
			c0-1.6-1.4-1.9-2.9-1.9c-1.1-0.1-2.1,0.6-2.3,1.7c0.1,1.5,1,2.9,2.4,3.5C132.1,151,133.2,149.7,133.4,148.2z M126.1,148.3
			c0,0,0.6-2.3-1.2-2.3c-3.7,0-7.2,3.1-7.2,4.6c0,0.5,0.1,1,0.3,1.5C118,152.1,122.8,147.5,126.1,148.3L126.1,148.3z M179,100.2
			l-42.4,44.6c-1.5,1.6,2.5,4.4,3.9,2.8l40.6-45.3c0.6-0.5,0.7-1.5,0.2-2.1c-0.5-0.6-1.5-0.7-2.1-0.2L179,100.2z M95.8,72.8
			c0-1.6,2.3-3.3,2.6-4.1c-0.8-1.1-2.3-1.5-3.6-1c-0.3,4.6-1.5,6.7-2,9.6c1.7,1.4,1.1-2.1,3.6-2.1c1.1,0.2,2,1.1,2,2.2
			c0,0.8-0.2,1.5-0.8,2.1l1.7-0.1c0.5-0.6,0.8-1.4,0.7-2.2C100.2,73.8,95.8,73.7,95.8,72.8L95.8,72.8z M75.2,90.1
			c-1.8,2.1-2.1,8-2.1,8l15-12.9l-6,11c0,0,10.1-4.6,11.1-6.9c-1.6-3.6-3.9-6.9-6.7-9.7C86.5,79.7,77.1,88,75.2,90.1L75.2,90.1z
			 M146.5,143.3c8.9,3.8,17.1,5.8,21.4,5.8c4,0,9.4-1.1,9.4-9.7c0-5.6-3.1-13.6-8-21.6L146.5,143.3z M139.2,139.8l26.3-27.7
			c-9.6-13.4-23.7-25.4-36.4-25.4c-11.3,0-18.9,8.3-18.9,17.1C110.2,119.7,124.5,132,139.2,139.8z M199.8,121.8l1.7,0.6l2-3l9.3,3.1
			l0.1,3.6l1.8,0.6l2.1-2.9l3.1,1l0.8,3.8l1.3,0.4c1.4-1,2.6-2.2,3.4-3.7l-28.8-9.5l-0.4,1.1l3.7,1.2L199.8,121.8L199.8,121.8z
			 M163.8,178.4l-1,3.5h-9.8l-1.3-3.5h-1.8l-1.1,3.5h-3.3l-2-3.5h-1.1c-1.1,1.3-1.9,3-2.3,4.7h30.3v-1.2h-3.8l-1.1-3.5H163.8z
			 M62.8,183.2h6.1l5.3-9.5H68L62.8,183.2z M112.3,170.7c-2,1.8-4.5,2.8-7.1,3H105l-4.3,9.5h4.5c1.8-0.1,3.4-0.8,4.7-2.1l12.6-13.7
			l-2.9-4.1L112.3,170.7z"/>
	</g>
</g>
<g id="Watermark">
</g>
</svg>
