<?xml version="1.0" encoding="utf-8"?>
<!-- Generator: Adobe Illustrator 19.2.1, SVG Export Plug-In . SVG Version: 6.00 Build 0)  -->
<svg version="1.1" xmlns="http://www.w3.org/2000/svg" xmlns:xlink="http://www.w3.org/1999/xlink" x="0px" y="0px"
	 viewBox="0 0 288 288" style="enable-background:new 0 0 288 288;" xml:space="preserve">
<style type="text/css">
	.st0{display:none;}
	.st1{display:inline;}
	.st2{fill:#EF3E42;}
	.st3{fill:#004B8D;}
	.st4{fill:#D7CA9E;}
	.st5{fill:#A03123;}
	.st6{fill-rule:evenodd;clip-rule:evenodd;fill:#FFFFFF;}
	.st7{fill-rule:evenodd;clip-rule:evenodd;fill:#1E3B6E;}
	.st8{fill-rule:evenodd;clip-rule:evenodd;fill:#BE2132;}
	.st9{fill-rule:evenodd;clip-rule:evenodd;fill:#E19D26;}
	.st10{fill:#DC4329;}
	.st11{fill:#DC4A26;}
	.st12{fill:#231F20;}
	.st13{fill:#FFFFFF;}
	.st14{fill:#050404;}
	.st15{fill:#263C82;}
	.st16{fill:#CC3533;}
	.st17{fill:#E82F4D;}
	.st18{fill:#010101;}
	.st19{fill:#C1C8CF;}
	.st20{fill:#365A8B;}
	.st21{fill:#29417C;}
	.st22{fill:#F47920;}
	.st23{fill:#FAA61A;}
	.st24{fill:#CCCCCC;}
	.st25{fill:#002B54;}
	.st26{fill:#ED1C24;}
	.st27{opacity:0.3;fill:#002B54;}
	.st28{fill:#020303;}
	.st29{fill:#1B9ED8;}
	.st30{fill:#189DD8;}
	.st31{fill:#43748F;}
	.st32{fill:#EB3947;}
	.st33{fill:#EB3A47;}
	.st34{fill:#44758F;}
	.st35{fill:#1F9ED8;}
	.st36{fill:#FCFDFD;}
	.st37{fill:#020202;}
	.st38{fill:#E83543;}
	.st39{fill-rule:evenodd;clip-rule:evenodd;fill:#C1A677;}
	.st40{fill-rule:evenodd;clip-rule:evenodd;fill:#212F55;}
	.st41{fill-rule:evenodd;clip-rule:evenodd;fill:#AB285C;}
	.st42{fill-rule:evenodd;clip-rule:evenodd;fill:#014A67;}
	.st43{fill:#F47A39;}
	.st44{fill-rule:evenodd;clip-rule:evenodd;fill:#242052;}
	.st45{fill:#123B35;}
	.st46{display:inline;fill:#DB2732;}
	.st47{display:inline;fill:#1D3665;}
	.st48{fill-rule:evenodd;clip-rule:evenodd;}
	.st49{fill:#F58220;}
	.st50{fill:#1A3562;}
	.st51{fill:#036B66;}
	.st52{fill:#C4CDD3;}
	.st53{fill:#EB1F4E;}
	.st54{display:inline;fill:#C4203B;}
	.st55{display:inline;fill:#164883;}
	.st56{display:inline;fill:#90BCE5;}
	.st57{display:inline;fill:#1B2F5B;}
	.st58{fill:#144983;}
	.st59{fill:#CD1F43;}
	.st60{fill:#1A459D;}
	.st61{fill:#0A2042;}
	.st62{fill:#D92E27;}
	.st63{display:inline;fill:#CF1F45;}
	.st64{fill-rule:evenodd;clip-rule:evenodd;fill:#D7CA9E;}
	.st65{fill:#1E3B6E;}
	.st66{fill:#39B54A;}
	.st67{fill:#E19D26;}
	.st68{fill:#BE2132;}
	.st69{fill:#EF5426;}
	.st70{display:inline;fill:#FFFFFF;}
	.st71{display:inline;fill:#E31837;}
	.st72{display:inline;fill:#E21D37;}
	.st73{display:inline;fill:#005596;}
	.st74{display:inline;fill:#CC3533;}
	.st75{display:inline;fill:#E82F4D;}
	.st76{display:inline;fill:#010101;}
	.st77{display:inline;fill:#2A398B;}
	.st78{fill:#999999;}
	.st79{display:inline;fill:#999999;}
	.st80{display:inline;fill:#041E41;}
	.st81{display:inline;fill:#D4451D;}
	.st82{display:inline;fill:#EA7200;}
	.st83{display:inline;fill:#BDBBBB;}
	.st84{fill:#041E41;}
	.st85{fill:none;stroke:#000000;stroke-width:0.34;}
	.st86{fill:#D4451D;}
	.st87{fill:#EA7200;}
	.st88{fill:#BDBBBB;}
	.st89{fill:none;stroke:#EA7200;stroke-width:0;stroke-linecap:round;stroke-linejoin:round;}
	.st90{fill:#9C9FA1;}
	.st91{fill-rule:evenodd;clip-rule:evenodd;fill:#333290;}
	.st92{fill:#005B9B;}
	.st93{fill:#EF4043;}
	.st94{fill-rule:evenodd;clip-rule:evenodd;fill:#09A2DD;}
	.st95{fill-rule:evenodd;clip-rule:evenodd;fill:#43758E;}
	.st96{fill-rule:evenodd;clip-rule:evenodd;fill:#FCEE1E;}
	.st97{fill-rule:evenodd;clip-rule:evenodd;fill:#EE3441;}
	.st98{fill:#B89760;}
	.st99{fill:#D52D47;}
	.st100{fill-rule:evenodd;clip-rule:evenodd;fill:#0B2242;}
	.st101{fill:#F37938;}
	.st102{fill:#164883;}
	.st103{fill:#8E6D2A;}
	.st104{fill-rule:evenodd;clip-rule:evenodd;fill:#1A314F;}
	.st105{fill-rule:evenodd;clip-rule:evenodd;fill:#8F3326;}
	.st106{fill-rule:evenodd;clip-rule:evenodd;fill:#B68E64;}
	.st107{fill:#03493B;}
	.st108{fill:#FCC158;}
	.st109{fill:#BB544F;}
	.st110{fill:#D0B04A;}
	.st111{fill-rule:evenodd;clip-rule:evenodd;fill:#B6A269;}
	.st112{fill-rule:evenodd;clip-rule:evenodd;fill:#001F5B;}
	.st113{fill:#1D3665;}
	.st114{fill:#FFFFFF;stroke:#FFFFFF;stroke-width:0.16;}
	.st115{fill:#004666;}
	.st116{fill:none;stroke:#037062;stroke-width:2.8199;}
	.st117{fill:#BCCBD2;}
	.st118{fill:#037062;}
	.st119{fill:#E63248;}
	.st120{fill:none;stroke:#E63248;stroke-width:0.2826;}
	.st121{fill:none;stroke:#037062;stroke-width:1.0988;}
	.st122{fill:none;stroke:#BCCBD2;stroke-width:4.9365;}
	.st123{fill:#FCEE21;}
	.st124{fill:#FCEE23;}
	.st125{fill:#C4203B;}
	.st126{fill:#193661;}
	.st127{fill:#164884;}
	.st128{fill:#CF1F44;}
	.st129{fill:#0A2042;stroke:#010101;stroke-width:0.2131;}
	.st130{fill:#CF1F45;}
	.st131{fill:#1E3160;}
	.st132{fill:#BA202E;}
	.st133{fill:#212759;}
	.st134{fill:#BA1F31;}
	.st135{fill:#7BBCE8;}
	.st136{fill:#FED208;}
	.st137{fill:#6DB3E3;}
	.st138{fill:#FFCE04;}
	.st139{fill:#1B2F5B;}
	.st140{fill:#90BCE5;}
	.st141{fill:#D8782C;}
	.st142{fill:#C49C6F;}
	.st143{fill:#F04B23;}
	.st144{display:inline;fill-rule:evenodd;clip-rule:evenodd;fill:#F58220;}
	.st145{fill:#094F91;}
	.st146{fill:#DB2732;}
	.st147{fill:none;}
	.st148{fill:#00174A;}
	.st149{fill:none;stroke:#FFFFFF;stroke-width:3;stroke-miterlimit:10;}
	.st150{fill:none;stroke:#000000;stroke-width:0.1055;stroke-linecap:round;stroke-linejoin:round;}
	.st151{fill:#25358E;}
	.st152{fill:#ED1C2E;}
	.st153{fill:#FFFFFF;stroke:#000000;stroke-width:0.3293;stroke-linecap:round;stroke-linejoin:round;}
	.st154{display:inline;fill-rule:evenodd;clip-rule:evenodd;fill:#00174A;}
	.st155{fill:#0D2240;}
	.st156{display:inline;fill:#8EC641;}
	.st157{fill:#182D56;}
	.st158{fill:#BE323A;}
	.st159{fill:#C62034;}
	.st160{fill:#0B1437;}
	.st161{fill:#EC2135;}
	.st162{fill:#8EC641;}
	.st163{fill-rule:evenodd;clip-rule:evenodd;fill:#332312;}
	.st164{fill:#E4E5E6;}
	.st165{clip-path:url(#XMLID_4225_);}
	.st166{clip-path:url(#XMLID_4226_);fill:url(#XMLID_4227_);}
	.st167{clip-path:url(#XMLID_4228_);}
	.st168{clip-path:url(#XMLID_4229_);fill:url(#XMLID_4230_);}
	.st169{clip-path:url(#XMLID_4231_);}
	.st170{clip-path:url(#XMLID_4232_);fill:url(#XMLID_4233_);}
	.st171{clip-path:url(#XMLID_4234_);}
	.st172{clip-path:url(#XMLID_4235_);fill:url(#XMLID_4236_);}
	.st173{clip-path:url(#XMLID_4237_);}
	.st174{clip-path:url(#XMLID_4238_);fill:url(#XMLID_4239_);}
	.st175{clip-path:url(#XMLID_4240_);}
	.st176{clip-path:url(#XMLID_4241_);fill:url(#XMLID_4242_);}
	.st177{clip-path:url(#XMLID_4243_);}
	.st178{clip-path:url(#XMLID_4244_);fill:url(#XMLID_4245_);}
	.st179{clip-path:url(#XMLID_4246_);}
	.st180{clip-path:url(#XMLID_4247_);fill:url(#XMLID_4248_);}
	.st181{fill:#A4A9AD;}
	.st182{fill:#F05123;}
	.st183{fill:#8E744B;}
	.st184{fill:#EEE0C6;}
	.st185{fill:#8F182B;}
	.st186{fill:#FFC526;}
	.st187{fill:#B0B8BC;}
	.st188{fill:#FCBB30;}
	.st189{fill:#E21D38;}
	.st190{fill:#FFC759;}
	.st191{fill:#E03B3F;}
	.st192{fill:#8E8F92;}
	.st193{fill:#E13B3F;}
	.st194{fill:#FDDF0A;}
	.st195{fill:#E7AA23;}
	.st196{fill:#F37321;}
	.st197{fill:#008056;}
	.st198{fill:#E2293A;}
	.st199{fill:#1F438B;}
	.st200{fill:#005588;}
	.st201{fill:#A7B2B8;}
	.st202{fill:#8C2A43;}
	.st203{fill:#1C2D5B;}
	.st204{fill:#0C724D;}
	.st205{fill:#232020;}
	.st206{fill:#A8ABAD;}
	.st207{fill:#EB2627;}
	.st208{fill:#E56C25;}
	.st209{fill:#203C73;}
	.st210{fill:#B99758;}
	.st211{fill:#C8202F;}
	.st212{fill:#EEE3C6;}
	.st213{fill:#045937;}
	.st214{fill:#C02C38;}
	.st215{fill:#EEB41E;}
	.st216{fill:#F37E2F;}
	.st217{fill:#01549C;}
	.st218{fill:#0862AB;}
	.st219{fill:#E43B40;}
	.st220{fill:#DF1E38;}
	.st221{fill:#CD9C2B;}
	.st222{fill:#F47A3E;}
	.st223{fill:#FBB516;}
	.st224{fill:#E97424;}
	.st225{fill:#056D75;}
	.st226{fill:#142048;}
	.st227{fill:#FFC429;}
	.st228{fill:#114B9D;}
	.st229{fill:#213065;}
	.st230{fill:#1D2859;}
	.st231{fill:#A8AAAD;}
	.st232{fill:#1D427C;}
	.st233{fill:#153055;}
	.st234{fill:#AFB0B3;}
	.st235{fill:#20396F;}
	.st236{fill:#BE3138;}
	.st237{fill:#B4975A;}
	.st238{fill:#344042;}
	.st239{fill:#14244C;}
	.st240{fill:#D0202D;}
	.st241{fill:#A9A9AD;}
	.st242{fill:#1D3261;}
	.st243{fill:#811423;}
	.st244{fill:#6F6E76;}
	.st245{fill:#C62031;}
</style>
<g id="Layer_5" class="st0">
</g>
<g id="Layer_3">
</g>
<g id="Layer_4">
	<g id="XMLID_2958_">
		<path id="XMLID_2964_" class="st18" d="M141.2,210.8c40.4,0,73.1-32.7,73.1-73.1c0-40.4-32.7-73.1-73.1-73.1
			c-40.4,0-73.1,32.7-73.1,73.1C68.1,178.1,100.9,210.8,141.2,210.8L141.2,210.8z"/>
		<path id="XMLID_2963_" class="st13" d="M141.2,203.1c36.1,0,65.4-29.3,65.4-65.4c0-36.1-29.3-65.4-65.4-65.4
			c-36.1,0-65.4,29.3-65.4,65.4C75.8,173.9,105.1,203.1,141.2,203.1L141.2,203.1z"/>
		<path id="XMLID_2962_" class="st18" d="M81.5,210.5c-8.5,3.6-16.3,9.2-19.3,13c-4.7-11.5-5.6-19.4-4.7-28
			c1.2-11.8,6-22.6,12.4-30.2c0.3,6.7,2,12,5.9,11.5c3.1-0.5,4.4-2.1,6.5-3c6.6-2.8,12.6-3.3,20.9-3.3c7.6,0,19.7,3.3,25.1-2
			c3.5-3.5,7-7,7-7l-7.6-13.8l-8.1,21c-6.3-1.8-14.2-2.2-17.6-2.2c-7.3,0-15.5,2-19,3.3l-1.2-2.1c-0.7-1.4-1-2-1-2l20-50.2
			c4.8-11.5,7-18.7,15.4-20.6c8.2-1.7,13,1.2,19.3,8.2c5.7,6.3,15.7,19.7,15.7,19.7l9.1-23.9c-9.4,0-18.5-6.3-18.5-16
			c0-7.3,2.4-13.7,10.1-18.9c3.2-2.2,7.3-3.9,11.1-5C168.3,57.3,173,57,173,57c-0.7,0.6-1.5,1.5-1.5,1.5c-1.4,1.4-5,5-5.3,7.3
			c-0.4,3.3,2.4,5.1,6.7,5.1c2.6,0,22.1,0,22.1,0c4,0,7-3.8,4.8-7.4c-1.8-2.9-2.5-3.5-3.7-5.4c0,0-0.7-0.9-1.2-1.5c0,0,2.2,0,3.3,0
			c2.8,0,12,0.7,17.5,5.9c5.1,4.8,6,6.6,6.9,13.1c0.6,4.5-1.4,11.9-6.1,16.1c-4.5,4.1-11.7,6.6-17.1,7.5L174.5,165
			c-5.3,13.2-8.7,19.2-18.3,24.7c-9.4,5.4-18.9,6.7-24.3,6.7c-9.2,0-13.6-2.2-21.9-5.3c-8.2-3-12.8-2.4-14.9-1.1
			c-2,1.4-2.3,1.7-2.9,2.9c-0.8,1.8,0.6,4.7,2.5,6.2c5.3,4.2,10.9,6.7,12,7.1C105.5,206.2,90.2,206.8,81.5,210.5L81.5,210.5z"/>
		<path id="XMLID_2961_" class="st193" d="M84.3,166c4.4-1.3,11.2-2.7,17.7-2.7c0.9,0,8.6,0.1,15.8,1.6l9.5-24.5l11.7,21.4l-1.5,1.6
			c-0.1,0.2-3.6,3.6-7,7.1c-5.8,5.8-15.7,3-24,2.9l-3.2,0l-4.5-0.1c-5.7-0.1-10.2,1-15.2,3.1c-0.5,0.2-1,0.5-1.5,0.9
			c-1.3,0.9-3,2-5.7,2.3c-1.9,0.3-3.6-0.2-5-1.4c-1.4-1.1-2.4-2.9-3.1-5.3c-4,6.6-6.7,14.6-7.5,22.7c-0.7,7-0.2,13.2,2.9,22.2
			c4.2-3.6,10.5-7.4,17-10.2c4.6-2,10.8-3.1,16-3.7c-1.2-0.8-2.3-1.6-3.5-2.5c-2.8-2.2-4.9-6.5-3.4-9.8c0.9-2,1.7-2.7,4-4.2
			c2.5-1.7,7.6-2.9,17.6,0.7l3.6,1.3c6,2.3,10,3.8,17.3,3.8c3.6,0,13.1-0.6,22.8-6.2c8.6-5,11.8-10.2,16.8-22.8l0.2-0.5l25.5-67.5
			l1.7-0.3c4.5-0.7,11.3-2.9,15.5-6.8c4-3.6,5.5-10.1,5.1-13.4c-0.8-5.8-1.4-6.9-6-11.3c-3.3-3.1-8.7-4.5-12.6-4.9
			c0.4,0.6,0.9,1.3,1.4,2.2c1.5,2.5,1.7,5.3,0.3,7.7c-1.5,2.7-4.4,4.3-7.6,4.3l-22.1,0c-3.5,0-6.3-1-8-2.9c-1.3-1.5-1.9-3.4-1.7-5.5
			c0.1-1.2,0.7-2.5,1.8-4.1c-0.4,0.1-0.9,0.2-1.3,0.3c-3.7,1-7.4,2.7-10.2,4.6c-6,4.1-8.7,9.1-8.7,16.4c0,3.1,1.2,6,3.5,8.3
			c2.9,2.9,7.4,4.7,12,4.7h4.4l-12.6,33.1l-3.3-4.4c-0.1-0.1-10-13.3-15.5-19.4c-6.3-6.9-10.2-8.6-16.5-7.3
			c-5.8,1.2-7.8,5.6-11.9,15.4l-1.4,3.4l-19.9,49.7L84.3,166L84.3,166z"/>
		<polygon id="XMLID_2960_" class="st193" points="103.5,116.5 103.5,116.5 103.5,116.5 		"/>
		<polygon id="XMLID_2959_" class="st193" points="171.7,163.7 171.7,163.8 171.7,163.9 		"/>
	</g>
</g>
<g id="Watermark">
</g>
</svg>
