<?xml version="1.0" encoding="utf-8"?>
<!-- Generator: Adobe Illustrator 19.2.1, SVG Export Plug-In . SVG Version: 6.00 Build 0)  -->
<svg version="1.1" xmlns="http://www.w3.org/2000/svg" xmlns:xlink="http://www.w3.org/1999/xlink" x="0px" y="0px"
	 viewBox="0 0 288 288" style="enable-background:new 0 0 288 288;" xml:space="preserve">
<style type="text/css">
	.st0{display:none;}
	.st1{display:inline;}
	.st2{fill:#EF3E42;}
	.st3{fill:#004B8D;}
	.st4{fill:#D7CA9E;}
	.st5{fill:#A03123;}
	.st6{fill-rule:evenodd;clip-rule:evenodd;fill:#FFFFFF;}
	.st7{fill-rule:evenodd;clip-rule:evenodd;fill:#1E3B6E;}
	.st8{fill-rule:evenodd;clip-rule:evenodd;fill:#BE2132;}
	.st9{fill-rule:evenodd;clip-rule:evenodd;fill:#E19D26;}
	.st10{fill:#DC4329;}
	.st11{fill:#DC4A26;}
	.st12{fill:#231F20;}
	.st13{fill:#FFFFFF;}
	.st14{fill:#050404;}
	.st15{fill:#263C82;}
	.st16{fill:#CC3533;}
	.st17{fill:#E82F4D;}
	.st18{fill:#010101;}
	.st19{fill:#C1C8CF;}
	.st20{fill:#365A8B;}
	.st21{fill:#29417C;}
	.st22{fill:#F47920;}
	.st23{fill:#FAA61A;}
	.st24{fill:#CCCCCC;}
	.st25{fill:#002B54;}
	.st26{fill:#ED1C24;}
	.st27{opacity:0.3;fill:#002B54;}
	.st28{fill:#020303;}
	.st29{fill:#1B9ED8;}
	.st30{fill:#189DD8;}
	.st31{fill:#43748F;}
	.st32{fill:#EB3947;}
	.st33{fill:#EB3A47;}
	.st34{fill:#44758F;}
	.st35{fill:#1F9ED8;}
	.st36{fill:#FCFDFD;}
	.st37{fill:#020202;}
	.st38{fill:#E83543;}
	.st39{fill-rule:evenodd;clip-rule:evenodd;fill:#C1A677;}
	.st40{fill-rule:evenodd;clip-rule:evenodd;fill:#212F55;}
	.st41{fill-rule:evenodd;clip-rule:evenodd;fill:#AB285C;}
	.st42{fill-rule:evenodd;clip-rule:evenodd;fill:#014A67;}
	.st43{fill:#F47A39;}
	.st44{fill-rule:evenodd;clip-rule:evenodd;fill:#242052;}
	.st45{fill:#123B35;}
	.st46{display:inline;fill:#DB2732;}
	.st47{display:inline;fill:#1D3665;}
	.st48{fill-rule:evenodd;clip-rule:evenodd;}
	.st49{fill:#F58220;}
	.st50{fill:#1A3562;}
	.st51{fill:#036B66;}
	.st52{fill:#C4CDD3;}
	.st53{fill:#EB1F4E;}
	.st54{display:inline;fill:#C4203B;}
	.st55{display:inline;fill:#164883;}
	.st56{display:inline;fill:#90BCE5;}
	.st57{display:inline;fill:#1B2F5B;}
	.st58{fill:#144983;}
	.st59{fill:#CD1F43;}
	.st60{fill:#1A459D;}
	.st61{fill:#0A2042;}
	.st62{fill:#D92E27;}
	.st63{display:inline;fill:#CF1F45;}
	.st64{fill-rule:evenodd;clip-rule:evenodd;fill:#D7CA9E;}
	.st65{fill:#1E3B6E;}
	.st66{fill:#39B54A;}
	.st67{fill:#E19D26;}
	.st68{fill:#BE2132;}
	.st69{fill:#EF5426;}
	.st70{display:inline;fill:#FFFFFF;}
	.st71{display:inline;fill:#E31837;}
	.st72{display:inline;fill:#E21D37;}
	.st73{display:inline;fill:#005596;}
	.st74{display:inline;fill:#CC3533;}
	.st75{display:inline;fill:#E82F4D;}
	.st76{display:inline;fill:#010101;}
	.st77{display:inline;fill:#2A398B;}
	.st78{fill:#999999;}
	.st79{display:inline;fill:#999999;}
	.st80{display:inline;fill:#041E41;}
	.st81{display:inline;fill:#D4451D;}
	.st82{display:inline;fill:#EA7200;}
	.st83{display:inline;fill:#BDBBBB;}
	.st84{fill:#041E41;}
	.st85{fill:none;stroke:#000000;stroke-width:0.34;}
	.st86{fill:#D4451D;}
	.st87{fill:#EA7200;}
	.st88{fill:#BDBBBB;}
	.st89{fill:none;stroke:#EA7200;stroke-width:0;stroke-linecap:round;stroke-linejoin:round;}
	.st90{fill:#9C9FA1;}
	.st91{fill-rule:evenodd;clip-rule:evenodd;fill:#333290;}
	.st92{fill:#005B9B;}
	.st93{fill:#EF4043;}
	.st94{fill-rule:evenodd;clip-rule:evenodd;fill:#09A2DD;}
	.st95{fill-rule:evenodd;clip-rule:evenodd;fill:#43758E;}
	.st96{fill-rule:evenodd;clip-rule:evenodd;fill:#FCEE1E;}
	.st97{fill-rule:evenodd;clip-rule:evenodd;fill:#EE3441;}
	.st98{fill:#B89760;}
	.st99{fill:#D52D47;}
	.st100{fill-rule:evenodd;clip-rule:evenodd;fill:#0B2242;}
	.st101{fill:#F37938;}
	.st102{fill:#164883;}
	.st103{fill:#8E6D2A;}
	.st104{fill-rule:evenodd;clip-rule:evenodd;fill:#1A314F;}
	.st105{fill-rule:evenodd;clip-rule:evenodd;fill:#8F3326;}
	.st106{fill-rule:evenodd;clip-rule:evenodd;fill:#B68E64;}
	.st107{fill:#03493B;}
	.st108{fill:#FCC158;}
	.st109{fill:#BB544F;}
	.st110{fill:#D0B04A;}
	.st111{fill-rule:evenodd;clip-rule:evenodd;fill:#B6A269;}
	.st112{fill-rule:evenodd;clip-rule:evenodd;fill:#001F5B;}
	.st113{fill:#1D3665;}
	.st114{fill:#FFFFFF;stroke:#FFFFFF;stroke-width:0.16;}
	.st115{fill:#004666;}
	.st116{fill:none;stroke:#037062;stroke-width:2.8199;}
	.st117{fill:#BCCBD2;}
	.st118{fill:#037062;}
	.st119{fill:#E63248;}
	.st120{fill:none;stroke:#E63248;stroke-width:0.2826;}
	.st121{fill:none;stroke:#037062;stroke-width:1.0988;}
	.st122{fill:none;stroke:#BCCBD2;stroke-width:4.9365;}
	.st123{fill:#FCEE21;}
	.st124{fill:#FCEE23;}
	.st125{fill:#C4203B;}
	.st126{fill:#193661;}
	.st127{fill:#164884;}
	.st128{fill:#CF1F44;}
	.st129{fill:#0A2042;stroke:#010101;stroke-width:0.2131;}
	.st130{fill:#CF1F45;}
	.st131{fill:#1E3160;}
	.st132{fill:#BA202E;}
	.st133{fill:#212759;}
	.st134{fill:#BA1F31;}
	.st135{fill:#7BBCE8;}
	.st136{fill:#FED208;}
	.st137{fill:#6DB3E3;}
	.st138{fill:#FFCE04;}
	.st139{fill:#1B2F5B;}
	.st140{fill:#90BCE5;}
	.st141{fill:#D8782C;}
	.st142{fill:#C49C6F;}
	.st143{fill:#F04B23;}
	.st144{display:inline;fill-rule:evenodd;clip-rule:evenodd;fill:#F58220;}
	.st145{fill:#094F91;}
	.st146{fill:#DB2732;}
	.st147{fill:none;}
	.st148{fill:#00174A;}
	.st149{fill:none;stroke:#FFFFFF;stroke-width:3;stroke-miterlimit:10;}
	.st150{fill:none;stroke:#000000;stroke-width:0.1055;stroke-linecap:round;stroke-linejoin:round;}
	.st151{fill:#25358E;}
	.st152{fill:#ED1C2E;}
	.st153{fill:#FFFFFF;stroke:#000000;stroke-width:0.3293;stroke-linecap:round;stroke-linejoin:round;}
	.st154{display:inline;fill-rule:evenodd;clip-rule:evenodd;fill:#00174A;}
	.st155{fill:#0D2240;}
	.st156{display:inline;fill:#8EC641;}
	.st157{fill:#182D56;}
	.st158{fill:#BE323A;}
	.st159{fill:#C62034;}
	.st160{fill:#0B1437;}
	.st161{fill:#EC2135;}
	.st162{fill:#8EC641;}
	.st163{fill-rule:evenodd;clip-rule:evenodd;fill:#332312;}
	.st164{fill:#E4E5E6;}
	.st165{clip-path:url(#XMLID_4225_);}
	.st166{clip-path:url(#XMLID_4226_);fill:url(#XMLID_4227_);}
	.st167{clip-path:url(#XMLID_4228_);}
	.st168{clip-path:url(#XMLID_4229_);fill:url(#XMLID_4230_);}
	.st169{clip-path:url(#XMLID_4231_);}
	.st170{clip-path:url(#XMLID_4232_);fill:url(#XMLID_4233_);}
	.st171{clip-path:url(#XMLID_4234_);}
	.st172{clip-path:url(#XMLID_4235_);fill:url(#XMLID_4236_);}
	.st173{clip-path:url(#XMLID_4237_);}
	.st174{clip-path:url(#XMLID_4238_);fill:url(#XMLID_4239_);}
	.st175{clip-path:url(#XMLID_4240_);}
	.st176{clip-path:url(#XMLID_4241_);fill:url(#XMLID_4242_);}
	.st177{clip-path:url(#XMLID_4243_);}
	.st178{clip-path:url(#XMLID_4244_);fill:url(#XMLID_4245_);}
	.st179{clip-path:url(#XMLID_4246_);}
	.st180{clip-path:url(#XMLID_4247_);fill:url(#XMLID_4248_);}
	.st181{fill:#A4A9AD;}
	.st182{fill:#F05123;}
	.st183{fill:#8E744B;}
	.st184{fill:#EEE0C6;}
	.st185{fill:#8F182B;}
	.st186{fill:#FFC526;}
	.st187{fill:#B0B8BC;}
	.st188{fill:#FCBB30;}
	.st189{fill:#E21D38;}
	.st190{fill:#FFC759;}
	.st191{fill:#E03B3F;}
	.st192{fill:#8E8F92;}
	.st193{fill:#E13B3F;}
	.st194{fill:#FDDF0A;}
	.st195{fill:#E7AA23;}
	.st196{fill:#F37321;}
	.st197{fill:#008056;}
	.st198{fill:#E2293A;}
	.st199{fill:#1F438B;}
	.st200{fill:#005588;}
	.st201{fill:#A7B2B8;}
	.st202{fill:#8C2A43;}
	.st203{fill:#1C2D5B;}
	.st204{fill:#0C724D;}
	.st205{fill:#232020;}
	.st206{fill:#A8ABAD;}
	.st207{fill:#EB2627;}
	.st208{fill:#E56C25;}
	.st209{fill:#203C73;}
	.st210{fill:#B99758;}
	.st211{fill:#C8202F;}
	.st212{fill:#EEE3C6;}
	.st213{fill:#045937;}
	.st214{fill:#C02C38;}
	.st215{fill:#EEB41E;}
	.st216{fill:#F37E2F;}
	.st217{fill:#01549C;}
	.st218{fill:#0862AB;}
	.st219{fill:#E43B40;}
	.st220{fill:#DF1E38;}
	.st221{fill:#CD9C2B;}
	.st222{fill:#F47A3E;}
	.st223{fill:#FBB516;}
	.st224{fill:#E97424;}
	.st225{fill:#056D75;}
	.st226{fill:#142048;}
	.st227{fill:#FFC429;}
	.st228{fill:#114B9D;}
	.st229{fill:#213065;}
	.st230{fill:#1D2859;}
	.st231{fill:#A8AAAD;}
	.st232{fill:#1D427C;}
	.st233{fill:#153055;}
	.st234{fill:#AFB0B3;}
	.st235{fill:#20396F;}
	.st236{fill:#BE3138;}
	.st237{fill:#B4975A;}
	.st238{fill:#344042;}
	.st239{fill:#14244C;}
	.st240{fill:#D0202D;}
	.st241{fill:#A9A9AD;}
	.st242{fill:#1D3261;}
	.st243{fill:#811423;}
	.st244{fill:#6F6E76;}
	.st245{fill:#C62031;}
</style>
<g id="Layer_5" class="st0">
</g>
<g id="Layer_3">
</g>
<g id="Layer_4">
	<g>
		<path class="st18" d="M99.8,64.7c14.6-8.2,31.6-11.8,48.3-11.7c7.6,0.1,15.2,0.9,22.4,3.1c-2.5,2.3-4.8,4.8-6.8,7.5
			c10.9,2.3,21.4,6.7,30.6,13.1c7.8,5.4,14.6,12.2,20.2,19.9c6.5,9.1,11.2,19.6,13.6,30.5c2.5,11.4,2.5,23.4,0.1,34.8
			c-4.1,19.9-15.9,38-32.3,49.9c-8.8,6.5-19,11.2-29.7,13.7c-12.6,3-25.8,3-38.4,0c-16.1-3.8-31-12.6-42.1-24.8
			c-3.6,5.1-6.4,10.8-8.6,16.6c-1.3-3.8-3.4-7.5-6.6-10c-2.5-2-5.5-3.1-8.6-3.8c-2.4-0.6-4.8-1-7.1-2c-1.8-0.8-3.3-2.5-4-4.4
			c-0.7-1.9-0.9-4-0.9-6.1c5.8-6.2,12.6-11.3,19.8-15.8c-1.9-4.8-3.3-9.7-4.3-14.7c-1.8,1.7-3.6,3.4-5.2,5.3
			c-2.2-5.2-3.1-10.8-3.6-16.4c-0.8-11.6,0.4-23.4,3.6-34.5c2.8-9.7,7.3-19,13.3-27.2C80.5,78.3,89.5,70.4,99.8,64.7z"/>
		<path class="st220" d="M135,57.6c9.2-1,18.7-0.9,27.8,0.9c-6.4,7-10.2,16.1-11.7,25.3c-9.7-0.7-19.6,1-28.5,4.9
			c-15,6.5-27.1,19.2-32.9,34.5c-2.4,6.5-3.8,13.3-3.9,20.2c-7.2,1.8-14.2,4.7-19.9,9.5c-1.5,1.3-2.8,2.7-4,4.2
			c-0.3-2.2-0.5-4.5-0.7-6.7c4.1-3.2,8.8-5.8,13.7-7.6c1.5-0.6,3.1-0.9,4.6-1.5c-6.4,0.3-12.7,2.2-18.5,4.7c0-2.6,0-5.2,0-7.8
			c0.4-10.7,2.7-21.3,6.8-31.2C72,97.1,78.2,87.7,86.1,79.9c5.4-5.3,11.6-9.8,18.4-13.3C113.9,61.8,124.4,58.8,135,57.6z"/>
		<path class="st220" d="M166.2,68.8c0.3-0.1,0.6-0.1,0.8-0.1c18.4,4.7,34.8,16.5,45.4,32.3c5.9,8.8,10,18.8,12,29.3
			c2.2,11.7,1.7,23.9-1.4,35.4c-4.8,17.9-16.3,33.8-31.5,44.2c-9.2,6.3-19.6,10.6-30.6,12.5c-11.2,2-22.9,1.6-34-1.3
			c-12.3-3.2-23.7-9.4-33-18c-0.6-0.6-1.4-1.1-1.8-1.9c-0.5-1,0.2-2.3,1.3-2.4c0.7-0.2,1.4,0.4,1.9,0.8c7.4,7,16.3,12.5,25.8,16
			c11.1,4.1,23.1,5.4,34.8,4c9.9-1.2,19.5-4.3,28.1-9.2c17.1-9.5,30.1-26,35.4-44.8c3.7-12.9,3.9-26.8,0.5-39.9
			c-2.4-9.3-6.7-18.2-12.5-25.9c-9.8-13.1-23.9-23-39.7-27.4c-0.8-0.3-1.8-0.3-2.4-1.1C164.7,70.6,165.2,69.1,166.2,68.8z"/>
		<path class="st221" d="M159.1,85.1c0.2-3.9,3.3-7.4,7.2-8c1.9-0.4,3.8,0.1,5.5,0.8c9.5,3.5,18.3,9.1,25.5,16.3
			c6.9,6.8,12.4,15,16,24c4.4,10.9,6.1,23,4.7,34.7c-1.1,9.8-4.2,19.3-9.2,27.8c-5,8.6-11.8,16.2-19.9,22
			c-7.8,5.7-16.8,9.8-26.2,11.9c-11.4,2.6-23.4,2.3-34.6-0.7c-8.9-2.4-17.4-6.6-24.7-12.3c-2.6-2-3.7-5.6-3-8.8c1,0.5,2.1,1.1,3.3,1
			c1.3,0,2.8-0.5,3.9,0.5c-1-1.1-0.7-2.5-0.7-3.8c0-1.3-0.7-2.5-1.4-3.6c2.7-1.1,6-0.8,8.4,1c2.9,2.2,6,4.1,9.2,5.7
			c10.1,5,21.8,6.6,32.9,4.7c8.9-1.5,17.3-5.3,24.4-10.9c7.5-5.9,13.5-13.9,17-22.9c4.1-10.5,4.8-22.2,2-33.1
			c-3-11.7-10-22.3-19.6-29.6c-1.2,4.3-0.8,9.1,1.2,13.2c1.9,4.2,5.2,7.5,7.2,11.7c-3.8,0.1-7.5,1.5-10.8,3.3
			c-2.2,1.2-4.2,2.7-6.1,4.3c4.2-1.4,8.5-2.6,12.9-3.1c0.4,1,0.7,2,1,3.1c-10.3,2.7-20.6,6.1-29.6,11.8c-1.8,1-3,2.8-5,3.4
			c-0.5,0.2-1.1,0.3-1.7,0.5c1.9,0.5,3.9,0.2,5.8-0.2c0.6,2.6,2,5,4.2,6.5c2.6,1.9,6,2.7,9.2,2.7c-1.2,4.2-0.6,8.6,0.7,12.7
			c1.4,4.4,3.7,8.6,6.3,12.4c-3.5-1-7.1-1.7-10.6-2.7c-2.7-0.8-5.4-1.7-7.4-3.8c-2-2-3-4.8-3.6-7.5c-1-5.2-2.6-10.5-5.7-14.9
			c-2.2-3.1-5.4-5.7-9.2-6.4c-2.5-0.4-5.2-0.4-7.4,0.7c-2,1.1-2.9,3.6-2.8,5.8c-0.1,3.6,1.5,7,1.9,10.6c-4.8-3-10.3-5.1-15.8-6.2
			c-3.8-6.1-6.4-13.1-6-20.4c0.4-6.8,3.2-13.4,7.4-18.7c5.9-7.5,14.3-13,23.6-15c7.5-1.7,15.4-0.7,22.5,2.2
			c-6.3,6.9-11.2,14.9-15.4,23.2c-2,0-4,0.5-5.6,1.7c-2.5,1.7-4,4.7-3.9,7.7c0,2.3,0.9,4.5,2.4,6.1c1.5,1.7,3.7,2.7,5.9,3
			c-2.6-1.1-4.9-3.2-5.4-6c-0.8-3.4,0.9-7.1,4-8.7c3-1.7,7.1-1.1,9.4,1.4c1.2,1.1,1.7,2.6,2.3,4.1c0-3.7-2.3-7.2-5.6-8.6
			c2-4,4.2-7.7,6.7-11.4c3.4-5.2,7.3-10.1,11.9-14.4c2.8-2.5,5.9-4.8,9.3-6.4c1-0.5,2-0.8,3-1.3c-1.8-0.2-3.7-0.1-5.5,0.4
			c-2.7-1.6-5.4-3-8.2-4.1c-1.4-0.6-2.9-0.9-4.2-1.8C160.5,91.2,158.9,88.1,159.1,85.1z"/>
		<path class="st18" d="M167.7,85.3c2.7,0.4,5.4,0.8,7.9,1.7c1,0.4,2.1,0.9,2.8,1.8c0.6,0.9-0.1,2.2-1.1,2.3c-1.2,0.1-2.3-0.5-3.4-1
			C171.7,88.7,169.7,87,167.7,85.3z"/>
		<path class="st18" d="M180.4,86.5c1.9,1.3,3.8,2.7,4.9,4.7c0.9,1.6,0.1,3.8,1.8,5c-1.7-1.1-3.5,0.4-5.3,0.1
			c-2.3-0.3-4.3-1.6-6.2-2.9c1.3-0.9,3-0.3,4.5-0.7c0.7-0.2,1.3-0.9,1.3-1.7C181.3,89.5,180.1,88.1,180.4,86.5z"/>
		<path class="st221" d="M113.6,98.2c11.8-8.5,26.8-12.2,41.2-10.2c-0.2,1-0.3,2.1-0.4,3.1c-8.9-1.2-18.1-0.2-26.5,3
			c-9,3.3-17,9.1-23,16.6c-8.2,10-12.5,22.9-12.1,35.8c-1.1,0-2.1,0.1-3.2,0.1c-0.3-9.9,2-19.9,6.7-28.7
			C100.4,110.2,106.4,103.4,113.6,98.2z"/>
		<path class="st18" d="M189.5,93.7c0-0.3,0.1-0.6,0.3-0.8c1.6,1.6,3.3,3.3,4,5.5c0.6,1.7-0.5,3.7,0.9,5.1c-1.5-1.3-3.5-0.1-5.2-0.7
			c-1.5-0.4-2.8-1.4-4-2.4c-0.5-0.5-1.1-0.9-1.5-1.5c1.5-0.7,3.1,0.5,4.7,0.1c0.7-0.2,1.2-0.8,1.2-1.5
			C190,96.1,189.4,94.9,189.5,93.7z"/>
		<path class="st221" d="M111.1,109.7c7.8-8,18.4-13.3,29.5-14.6c-0.6,1.1-1,2.4-0.8,3.6c0,1.3,0.7,2.4,1.4,3.4
			c-9.3,1.2-18.2,5.6-24.8,12.3c-5.4,5.4-9.3,12.2-11.2,19.5c-0.9-0.9-2.1-1.7-3.4-1.9c-1.2-0.2-2.4,0-3.5,0.4
			C100.5,123.9,104.9,116,111.1,109.7z"/>
		<path class="st18" d="M196.9,104.7c0.4-1.5-0.4-3.1,0.5-4.4c1.3,1.8,2.7,3.8,3.1,6c0.4,1.8-1,3.6,0.1,5.4
			c-0.7-0.9-1.8-1.1-2.8-1.1c-1.5,0-3-0.7-4.1-1.7c-1.2-1.1-2.3-2.2-3-3.6c1.5-0.2,2.8,0.7,4.2,0.9
			C195.8,106.3,196.7,105.6,196.9,104.7z"/>
		<path class="st18" d="M202.1,113.3c1-1.4,0.3-3.5,1.5-4.8c1,2,2.1,4.1,2.1,6.4c0.1,1.2-0.6,2.3-0.9,3.4c-0.3,0.8,0.1,1.6,0.4,2.3
			c-0.4-0.6-0.8-1.4-1.6-1.6c-1.2-0.4-2.5-0.5-3.5-1.3c-1.8-1.4-3-3.4-4-5.4c1.6,0,2.7,1.1,4.2,1.5
			C201,114.1,201.7,113.8,202.1,113.3z"/>
		<path class="st18" d="M206.9,121.4c0.6-1.3,0.6-2.8,1.7-3.8c0.8,2.2,1.5,4.5,1.2,6.8c-0.2,1.8-2,3-1.6,4.9c-0.8-1.8-3.2-1.7-4.4-3
			c-1.6-1.6-2.4-3.8-3.1-5.9c1.7,0.2,2.7,1.8,4.2,2.2C205.7,122.8,206.5,122.1,206.9,121.4z"/>
		<path class="st18" d="M209.7,132.1c1-1.2,1.2-2.9,2.6-3.8c0.4,2.3,0.7,4.8-0.1,7.1c-0.5,1.5-2.3,2.4-2.3,4.2
			c-0.8-1.7-2.8-2-3.8-3.5c-1.3-1.9-1.8-4.2-2.1-6.4c1.6,0.4,2.3,2.1,3.8,2.8C208.3,132.8,209.2,132.6,209.7,132.1z"/>
		<path class="st13" d="M157.7,148.4c7.1-4.5,15.2-7.3,23.4-9.2c0.2,0.5,0.4,0.9,0.6,1.4c-0.3,0.8-0.9,1.6-1.3,2.3
			c2.1,5.1,4.1,10.2,6.2,15.2c-0.3,0.3-0.5,0.5-0.8,0.8c-2.2-0.2-4.4-0.1-6.6-0.3c-0.7,0.7-1.4,1.4-2.1,2.1c0.8-0.1,1.6-0.2,2.4-0.3
			c0.9,0.6,1.9,1.2,2.8,1.8c-0.2,0.6-0.5,1.2-0.7,1.8c-1.9-0.1-4.1,0-5.6,1.3c-0.8,0.6-1.2,1.6-1.5,2.5c2.2-1.5,5-2.2,7.6-1.6
			c0.1,0.6,0.3,1.2,0.4,1.8c-1.1,1-2.5,0.6-3.8,0.6c0.7,1.2,1.3,2.4,2,3.7c0.4,0.1,0.8,0.2,1.2,0.2c0.5,1.7,1.1,3.5,1.6,5.2
			c-0.6,0.7-1.3,1.3-1.9,2c-1.8-0.2-3.7-0.5-5.5-0.7c-4.7-6.7-5.7-15.6-3.5-23.4c-2.1,0.3-4.3,0.1-6.4-0.2c-2.3-0.4-4.7-1.1-6.5-2.7
			C158.4,151.7,157.8,150.1,157.7,148.4z"/>
		<path class="st18" d="M205.7,139.2c1.3,0.6,1.8,2,2.7,3c0.5,0.6,1.4,1,2.1,0.6c1.6-0.8,1.9-2.9,3.6-3.6c0,2.3-0.1,4.7-1.1,6.8
			c-0.7,1.6-2.9,2.2-3.1,4.1c-0.2-1.9-2.4-2.5-3.1-4.2C205.7,143.8,205.6,141.5,205.7,139.2z"/>
		<path class="st18" d="M151.2,139.6c0.8,1,1.5,2.2,1.3,3.5c-0.1,2.3-2.5,4.3-4.8,3.8c-1.5-0.1-2.7-1.2-3.4-2.5
			c0.9,0.5,1.8,1.1,2.9,1c1.9,0.1,3.7-1.5,4.1-3.3C151.5,141.3,151.3,140.5,151.2,139.6z"/>
		<path class="st18" d="M171.4,144.4c2.7-0.4,5.3-0.7,7.9-1.1c-0.6,0.6-1.3,1.2-1.9,1.8c0.3,1,0.5,2.1,0.8,3.1
			c-2.3-0.4-4.6-0.6-6.9-0.9c-2.2-0.3-4.5,0-6.7,0c1.5-0.8,3-1.6,4.5-2.4C169.9,144.5,170.6,144.5,171.4,144.4z"/>
		<path class="st18" d="M205.7,155.7c-0.6-2.2-0.3-4.6,0.1-6.8c1.4,1,1.5,2.8,2.6,4c0.6,0.6,1.6,0.6,2.3,0.1
			c1.2-0.8,1.9-2.2,3.4-2.6c-0.3,2.2-0.8,4.5-2.1,6.4c-1,1.5-3.3,1.8-3.8,3.7C208.2,158.4,206.1,157.5,205.7,155.7z"/>
		<path class="st13" d="M132.7,155.2c-0.1-1.3,1.1-2.5,2.3-2.8c2.3-0.6,4.8,0.1,6.8,1.3c2.8,1.7,4.6,4.5,5.9,7.5
			c1.9,4.2,2.2,8.9,4,13.2c1.1,2.7,2.8,5.4,5.2,7.1c2,1.5,4.4,2.3,6.8,3c-1.1,1.9-2.1,3.9-3.1,5.8c-1.7-0.1-3.2-0.9-4.6-1.7
			c-3.4-2.1-6.5-4.7-9.4-7.4c-2.5-2.4-5.1-4.9-7.4-7.6c0.3-1,0.6-1.9,0.8-2.9c1.6-0.4,3.3-1,4.2-2.4c0.5-0.7,0.6-1.6,0.7-2.5
			c-1.3,1.2-3.2,2.1-5,1.5c-2.1-0.8-3.5-2.7-4.7-4.5C133.8,160.4,132.7,157.9,132.7,155.2z"/>
		<path class="st18" d="M204.2,158.9c0.3-0.1,0.5,0.3,0.7,0.5c0.6,1.1,0.6,2.3,1.2,3.4c0.3,0.6,1.1,1.1,1.9,0.9
			c1.6-0.4,2.6-2.1,4.3-2.2c-0.7,2.2-1.6,4.3-3.2,6c-1.3,1.3-3.6,1.1-4.3,3c0.5-1.9-1.4-3.2-1.5-5.1
			C202.9,163.2,203.5,161,204.2,158.9z"/>
		<path class="st220" d="M89.2,162.4c7.8-1.5,15.9-1.4,23.7,0.3c7.4,1.7,14.5,5,20.1,10.1c-4.9-2.7-10.1-4.8-15.5-6
			c-13.6-3-28-0.7-40.5,5.2c2.2-2.3,5.1-3.7,7.9-5.1c1.4-0.8,2.8-1.4,3.9-2.6C89.3,163.7,89.2,163,89.2,162.4z"/>
		<path class="st18" d="M199.1,174.6c-0.1-2.5,1-4.8,2.3-6.8c0.9,1.3,0.5,3,1.1,4.5c0.3,0.7,1.1,1.2,1.8,1c1.6-0.2,2.8-1.6,4.4-1.5
			c-1.1,2-2.3,4-4.1,5.4c-1.4,1.1-3.6,0.6-4.8,2.2C200.5,177.6,199.1,176.2,199.1,174.6z"/>
		<path class="st220" d="M96.2,169.9c5.7-0.9,11.5-0.8,17.2,0c5,0.7,9.9,2,14.5,4.1c4.8,2.1,9.2,5,13.4,8.2
			c4.2,3.2,8.1,6.9,12.9,9.4c-4.4-1.1-7.9-3.9-11.5-6.4c-4.3-3.1-8.7-6.1-13.6-8.2c-10.2-4.4-21.8-5-32.5-2.4
			c-9.6,2.3-18.5,7.3-25.9,13.8c-3.7,3.2-7.2,6.9-10.1,10.8c-1.7-0.2-3.4-0.7-4.6-1.9c-1.3-1.2-1.9-2.9-2-4.6
			c6.5-6.5,14-12,22.2-16.1C82.4,173.2,89.2,170.9,96.2,169.9z"/>
		<path class="st18" d="M193.8,182.2c0.4-2.3,1.8-4.3,3.2-6.1c0.8,1.4,0.1,3.1,0.5,4.6c0.2,0.7,0.8,1.3,1.5,1.3
			c1.6,0.1,3-1.1,4.7-0.8c-0.8,1.2-1.8,2.3-2.9,3.3c-1.1,0.9-2.3,1.8-3.8,1.8c-1.2,0-2.5,0.1-3.4,1.1
			C194.9,185.7,193.4,183.9,193.8,182.2z"/>
		<path class="st220" d="M89.3,182c9-4.6,19.5-6.5,29.5-4.8c5.8,1,11.4,3.1,16.3,6.3c-1.8-0.4-3.6-1.1-5.4-1.6
			c-6.3-1.8-13-2.7-19.5-2c-5.5,0.5-10.8,2.2-15.6,5c-8.5,4.9-15.1,12.8-19,21.7c-2-2.7-5-4.5-8.1-5.8C73,192.9,80.6,186.3,89.3,182
			z"/>
		<path class="st18" d="M187.2,188.9c0.9-2,2.5-3.7,4.1-5.2c0.5,1.5-0.3,3-0.3,4.5c0,0.7,0.5,1.4,1.2,1.6c1.6,0.4,3.3-0.7,4.9,0.1
			c-1.7,1.5-3.5,3.2-5.8,3.8c-1.7,0.5-3.6-0.6-5.1,0.6C187.6,192.8,186.4,190.6,187.2,188.9z"/>
		<path class="st18" d="M109.8,190.6c1.4,0.8,2.7,1.8,3.8,3c0.8,0.8,1.5,1.8,1.7,3c0.2,0.8,0.1,1.6,0.4,2.4c0.3,0.6,0.8,1.1,1.3,1.5
			c-0.8-0.4-1.6-0.9-2.5-0.5c-1.3,0.4-2.7,0.8-4.1,0.4c-1.9-0.5-3.7-1.5-5.3-2.6c1.5-1,3.5-0.1,5-1c0.8-0.5,0.8-1.5,0.5-2.3
			C110.3,193.1,109.6,192,109.8,190.6z"/>
		<path class="st18" d="M179.2,195.2c1.1-2,3.1-3.3,5-4.6c0.4,1.6-0.8,2.8-1,4.3c-0.1,0.8,0.3,1.6,1,1.9c1.5,0.6,3.2,0,4.7,0.8
			c-1.9,1.3-3.9,2.5-6.2,2.8c-1.8,0.3-3.6-1.2-5.3-0.2C178.9,199,178.2,196.8,179.2,195.2z"/>
		<path class="st18" d="M118.1,196.2c2.1,0.9,4.2,1.9,5.7,3.7c1.2,1.3,0.9,3.5,2.5,4.5c-1.8-0.6-3.2,1.1-4.9,1.1
			c-2.3,0.1-4.6-0.7-6.7-1.7c1.1-1,2.7-0.8,4-1.3c0.7-0.3,1.4-1,1.2-1.8C119.6,199.1,118,198,118.1,196.2z"/>
		<path class="st18" d="M170.2,199.9c1.5-1.8,3.6-2.8,5.7-3.7c0,1.7-1.6,2.9-1.9,4.5c-0.1,0.8,0.5,1.5,1.2,1.8
			c1.3,0.5,2.9,0.4,4.1,1.3c-2.1,1-4.4,1.9-6.7,1.7c-1.8,0-3.2-1.8-5-1.1C169.4,203.5,169,201.3,170.2,199.9z"/>
		<path class="st18" d="M127.1,200.4c2.2,0.5,4.5,1.2,6.3,2.7c1.4,1.1,1.5,3.4,3.4,4c-2-0.3-3.1,1.7-4.9,2c-2.3,0.5-4.6,0-6.8-0.5
			c1-1.4,2.9-1.3,4.1-2.4c0.6-0.5,0.7-1.4,0.3-2.1C128.8,202.7,127.3,201.9,127.1,200.4z"/>
		<path class="st18" d="M160.7,203c1.8-1.4,4-2,6.2-2.6c-0.2,1.7-2,2.5-2.5,4.1c-0.3,0.7,0,1.5,0.6,1.9c1.2,0.9,3,0.9,4,2.2
			c-2.2,0.6-4.5,1-6.7,0.6c-1.8-0.3-3-2.4-5-2C159.2,206.5,159.2,204.1,160.7,203z"/>
		<path class="st18" d="M145.6,205.1c1.3-0.7,3.1-0.3,3.9,1c1.1,1.5,0.3,3.9-1.4,4.5c-1.6,0.7-3.5-0.3-3.9-2
			C143.7,207.2,144.3,205.7,145.6,205.1z"/>
	</g>
</g>
<g id="Watermark">
</g>
</svg>
