<?xml version="1.0" encoding="utf-8"?>
<!-- Generator: Adobe Illustrator 19.2.1, SVG Export Plug-In . SVG Version: 6.00 Build 0)  -->
<svg version="1.1" xmlns="http://www.w3.org/2000/svg" xmlns:xlink="http://www.w3.org/1999/xlink" x="0px" y="0px"
	 viewBox="0 0 288 288" style="enable-background:new 0 0 288 288;" xml:space="preserve">
<style type="text/css">
	.st0{display:none;}
	.st1{display:inline;}
	.st2{fill:#EF3E42;}
	.st3{fill:#004B8D;}
	.st4{fill:#D7CA9E;}
	.st5{fill:#A03123;}
	.st6{fill-rule:evenodd;clip-rule:evenodd;fill:#FFFFFF;}
	.st7{fill-rule:evenodd;clip-rule:evenodd;fill:#1E3B6E;}
	.st8{fill-rule:evenodd;clip-rule:evenodd;fill:#BE2132;}
	.st9{fill-rule:evenodd;clip-rule:evenodd;fill:#E19D26;}
	.st10{fill:#DC4329;}
	.st11{fill:#DC4A26;}
	.st12{fill:#231F20;}
	.st13{fill:#FFFFFF;}
	.st14{fill:#050404;}
	.st15{fill:#263C82;}
	.st16{fill:#CC3533;}
	.st17{fill:#E82F4D;}
	.st18{fill:#010101;}
	.st19{fill:#C1C8CF;}
	.st20{fill:#365A8B;}
	.st21{fill:#29417C;}
	.st22{fill:#F47920;}
	.st23{fill:#FAA61A;}
	.st24{fill:#CCCCCC;}
	.st25{fill:#002B54;}
	.st26{fill:#ED1C24;}
	.st27{opacity:0.3;fill:#002B54;}
	.st28{fill:#020303;}
	.st29{fill:#1B9ED8;}
	.st30{fill:#189DD8;}
	.st31{fill:#43748F;}
	.st32{fill:#EB3947;}
	.st33{fill:#EB3A47;}
	.st34{fill:#44758F;}
	.st35{fill:#1F9ED8;}
	.st36{fill:#FCFDFD;}
	.st37{fill:#020202;}
	.st38{fill:#E83543;}
	.st39{fill-rule:evenodd;clip-rule:evenodd;fill:#C1A677;}
	.st40{fill-rule:evenodd;clip-rule:evenodd;fill:#212F55;}
	.st41{fill-rule:evenodd;clip-rule:evenodd;fill:#AB285C;}
	.st42{fill-rule:evenodd;clip-rule:evenodd;fill:#014A67;}
	.st43{fill:#F47A39;}
	.st44{fill-rule:evenodd;clip-rule:evenodd;fill:#242052;}
	.st45{fill:#123B35;}
	.st46{display:inline;fill:#DB2732;}
	.st47{display:inline;fill:#1D3665;}
	.st48{fill-rule:evenodd;clip-rule:evenodd;}
	.st49{fill:#F58220;}
	.st50{fill:#1A3562;}
	.st51{fill:#036B66;}
	.st52{fill:#C4CDD3;}
	.st53{fill:#EB1F4E;}
	.st54{display:inline;fill:#C4203B;}
	.st55{display:inline;fill:#164883;}
	.st56{display:inline;fill:#90BCE5;}
	.st57{display:inline;fill:#1B2F5B;}
	.st58{fill:#144983;}
	.st59{fill:#CD1F43;}
	.st60{fill:#1A459D;}
	.st61{fill:#0A2042;}
	.st62{fill:#D92E27;}
	.st63{display:inline;fill:#CF1F45;}
	.st64{fill-rule:evenodd;clip-rule:evenodd;fill:#D7CA9E;}
	.st65{fill:#1E3B6E;}
	.st66{fill:#39B54A;}
	.st67{fill:#E19D26;}
	.st68{fill:#BE2132;}
	.st69{fill:#EF5426;}
	.st70{display:inline;fill:#FFFFFF;}
	.st71{display:inline;fill:#E31837;}
	.st72{display:inline;fill:#E21D37;}
	.st73{display:inline;fill:#005596;}
	.st74{display:inline;fill:#CC3533;}
	.st75{display:inline;fill:#E82F4D;}
	.st76{display:inline;fill:#010101;}
	.st77{display:inline;fill:#2A398B;}
	.st78{fill:#999999;}
	.st79{display:inline;fill:#999999;}
	.st80{display:inline;fill:#041E41;}
	.st81{display:inline;fill:#D4451D;}
	.st82{display:inline;fill:#EA7200;}
	.st83{display:inline;fill:#BDBBBB;}
	.st84{fill:#041E41;}
	.st85{fill:none;stroke:#000000;stroke-width:0.34;}
	.st86{fill:#D4451D;}
	.st87{fill:#EA7200;}
	.st88{fill:#BDBBBB;}
	.st89{fill:none;stroke:#EA7200;stroke-width:0;stroke-linecap:round;stroke-linejoin:round;}
	.st90{fill:#9C9FA1;}
	.st91{fill-rule:evenodd;clip-rule:evenodd;fill:#333290;}
	.st92{fill:#005B9B;}
	.st93{fill:#EF4043;}
	.st94{fill-rule:evenodd;clip-rule:evenodd;fill:#09A2DD;}
	.st95{fill-rule:evenodd;clip-rule:evenodd;fill:#43758E;}
	.st96{fill-rule:evenodd;clip-rule:evenodd;fill:#FCEE1E;}
	.st97{fill-rule:evenodd;clip-rule:evenodd;fill:#EE3441;}
	.st98{fill:#B89760;}
	.st99{fill:#D52D47;}
	.st100{fill-rule:evenodd;clip-rule:evenodd;fill:#0B2242;}
	.st101{fill:#F37938;}
	.st102{fill:#164883;}
	.st103{fill:#8E6D2A;}
	.st104{fill-rule:evenodd;clip-rule:evenodd;fill:#1A314F;}
	.st105{fill-rule:evenodd;clip-rule:evenodd;fill:#8F3326;}
	.st106{fill-rule:evenodd;clip-rule:evenodd;fill:#B68E64;}
	.st107{fill:#03493B;}
	.st108{fill:#FCC158;}
	.st109{fill:#BB544F;}
	.st110{fill:#D0B04A;}
	.st111{fill-rule:evenodd;clip-rule:evenodd;fill:#B6A269;}
	.st112{fill-rule:evenodd;clip-rule:evenodd;fill:#001F5B;}
	.st113{fill:#1D3665;}
	.st114{fill:#FFFFFF;stroke:#FFFFFF;stroke-width:0.16;}
	.st115{fill:#004666;}
	.st116{fill:none;stroke:#037062;stroke-width:2.8199;}
	.st117{fill:#BCCBD2;}
	.st118{fill:#037062;}
	.st119{fill:#E63248;}
	.st120{fill:none;stroke:#E63248;stroke-width:0.2826;}
	.st121{fill:none;stroke:#037062;stroke-width:1.0988;}
	.st122{fill:none;stroke:#BCCBD2;stroke-width:4.9365;}
	.st123{fill:#FCEE21;}
	.st124{fill:#FCEE23;}
	.st125{fill:#C4203B;}
	.st126{fill:#193661;}
	.st127{fill:#164884;}
	.st128{fill:#CF1F44;}
	.st129{fill:#0A2042;stroke:#010101;stroke-width:0.2131;}
	.st130{fill:#CF1F45;}
	.st131{fill:#1E3160;}
	.st132{fill:#BA202E;}
	.st133{fill:#212759;}
	.st134{fill:#BA1F31;}
	.st135{fill:#7BBCE8;}
	.st136{fill:#FED208;}
	.st137{fill:#6DB3E3;}
	.st138{fill:#FFCE04;}
	.st139{fill:#1B2F5B;}
	.st140{fill:#90BCE5;}
	.st141{fill:#D8782C;}
	.st142{fill:#C49C6F;}
	.st143{fill:#F04B23;}
	.st144{display:inline;fill-rule:evenodd;clip-rule:evenodd;fill:#F58220;}
	.st145{fill:#094F91;}
	.st146{fill:#DB2732;}
	.st147{fill:none;}
	.st148{fill:#00174A;}
	.st149{fill:none;stroke:#FFFFFF;stroke-width:3;stroke-miterlimit:10;}
	.st150{fill:none;stroke:#000000;stroke-width:0.1055;stroke-linecap:round;stroke-linejoin:round;}
	.st151{fill:#25358E;}
	.st152{fill:#ED1C2E;}
	.st153{fill:#FFFFFF;stroke:#000000;stroke-width:0.3293;stroke-linecap:round;stroke-linejoin:round;}
	.st154{display:inline;fill-rule:evenodd;clip-rule:evenodd;fill:#00174A;}
	.st155{fill:#0D2240;}
	.st156{display:inline;fill:#8EC641;}
	.st157{fill:#182D56;}
	.st158{fill:#BE323A;}
	.st159{fill:#C62034;}
	.st160{fill:#0B1437;}
	.st161{fill:#EC2135;}
	.st162{fill:#8EC641;}
	.st163{fill-rule:evenodd;clip-rule:evenodd;fill:#332312;}
	.st164{fill:#E4E5E6;}
	.st165{clip-path:url(#XMLID_4225_);}
	.st166{clip-path:url(#XMLID_4226_);fill:url(#XMLID_4227_);}
	.st167{clip-path:url(#XMLID_4228_);}
	.st168{clip-path:url(#XMLID_4229_);fill:url(#XMLID_4230_);}
	.st169{clip-path:url(#XMLID_4231_);}
	.st170{clip-path:url(#XMLID_4232_);fill:url(#XMLID_4233_);}
	.st171{clip-path:url(#XMLID_4234_);}
	.st172{clip-path:url(#XMLID_4235_);fill:url(#XMLID_4236_);}
	.st173{clip-path:url(#XMLID_4237_);}
	.st174{clip-path:url(#XMLID_4238_);fill:url(#XMLID_4239_);}
	.st175{clip-path:url(#XMLID_4240_);}
	.st176{clip-path:url(#XMLID_4241_);fill:url(#XMLID_4242_);}
	.st177{clip-path:url(#XMLID_4243_);}
	.st178{clip-path:url(#XMLID_4244_);fill:url(#XMLID_4245_);}
	.st179{clip-path:url(#XMLID_4246_);}
	.st180{clip-path:url(#XMLID_4247_);fill:url(#XMLID_4248_);}
	.st181{fill:#A4A9AD;}
	.st182{fill:#F05123;}
	.st183{fill:#8E744B;}
	.st184{fill:#EEE0C6;}
	.st185{fill:#8F182B;}
	.st186{fill:#FFC526;}
	.st187{fill:#B0B8BC;}
	.st188{fill:#FCBB30;}
	.st189{fill:#E21D38;}
	.st190{fill:#FFC759;}
	.st191{fill:#E03B3F;}
	.st192{fill:#8E8F92;}
	.st193{fill:#E13B3F;}
	.st194{fill:#FDDF0A;}
	.st195{fill:#E7AA23;}
	.st196{fill:#F37321;}
	.st197{fill:#008056;}
	.st198{fill:#E2293A;}
	.st199{fill:#1F438B;}
	.st200{fill:#005588;}
	.st201{fill:#A7B2B8;}
	.st202{fill:#8C2A43;}
	.st203{fill:#1C2D5B;}
	.st204{fill:#0C724D;}
	.st205{fill:#232020;}
	.st206{fill:#A8ABAD;}
	.st207{fill:#EB2627;}
	.st208{fill:#E56C25;}
	.st209{fill:#203C73;}
	.st210{fill:#B99758;}
	.st211{fill:#C8202F;}
	.st212{fill:#EEE3C6;}
	.st213{fill:#045937;}
	.st214{fill:#C02C38;}
	.st215{fill:#EEB41E;}
	.st216{fill:#F37E2F;}
	.st217{fill:#01549C;}
	.st218{fill:#0862AB;}
	.st219{fill:#E43B40;}
	.st220{fill:#DF1E38;}
	.st221{fill:#CD9C2B;}
	.st222{fill:#F47A3E;}
	.st223{fill:#FBB516;}
	.st224{fill:#E97424;}
	.st225{fill:#056D75;}
	.st226{fill:#142048;}
	.st227{fill:#FFC429;}
	.st228{fill:#114B9D;}
	.st229{fill:#213065;}
	.st230{fill:#1D2859;}
	.st231{fill:#A8AAAD;}
	.st232{fill:#1D427C;}
	.st233{fill:#153055;}
	.st234{fill:#AFB0B3;}
	.st235{fill:#20396F;}
	.st236{fill:#BE3138;}
	.st237{fill:#B4975A;}
	.st238{fill:#344042;}
	.st239{fill:#14244C;}
	.st240{fill:#D0202D;}
	.st241{fill:#A9A9AD;}
	.st242{fill:#1D3261;}
	.st243{fill:#811423;}
	.st244{fill:#6F6E76;}
	.st245{fill:#C62031;}
</style>
<g id="Layer_5" class="st0">
</g>
<g id="Layer_3">
</g>
<g id="Layer_4">
	<g id="XMLID_3881_">
		<path id="XMLID_3904_" class="st200" d="M247.8,174.9c-0.4-1-5.7-12.6-9.7-16.6c-5.1-7.4-5.3-7.1-5.1-7.4
			c8.8-12.4,12.2-25.4,8.5-37.2c-6.3-20-31.7-31.1-63.8-30.7c-1.1-1.8-2.5-3.5-4.3-5.1c-4.3-4-9.4-6.1-13.7-6.1L150,56l-22,35.7
			c-50.1,16.8-83.2,52.8-74.2,81.4c2.4,7.4,12.6,18.1,12.6,18.1l-16.5,27.7c40.7-4.9,74.7-6.7,74.7-6.7l2.2-8.8
			c12-0.9,24.7-3.3,37.5-7.4c3.5-1.1,6.9-2.3,10.3-3.6c1.6,5.1,3.4,11,3.8,11.8c6.2,14.6,26.7,19.8,45.9,11.7
			C243.4,207.9,253.9,189.5,247.8,174.9z"/>
		<path id="XMLID_3903_" class="st201" d="M178.8,182.7c-21.5-10.1-38.9-2.7-43.6-2c-1.2,0.5-2.5,0.9-3.7,1.4
			c-0.9,0.3-1.7,0.6-2.6,0.9c-23.3,7.7-39.4,3.1-47.3-7.3c-0.5-0.7-1-1.4-1.5-2.2c-9.8-15.9-3.3-42.7,21.5-62.5
			c-45.9,34.8-25.4,62.8-23.5,65c0.1,0.1,0.2,0.3,0.2,0.4c-12.8,20.9-22.3,36.7-23.1,38.5c27.5-3,66.8-6,66.8-6l8.5-24.1
			c18.2-7.3,38.6-7.2,56.9,4.6C187.5,189.4,186.8,185.8,178.8,182.7z"/>
		<path id="XMLID_3902_" class="st13" d="M229.4,147.1c1.4,0.5,6-12.1,5.7-18.8c-0.9-21.2-25.5-37.5-55.2-36.8
			c-0.3,2.9-0.8,5.3-1.6,7.1l25.7,40.1C204.1,138.7,218,139.5,229.4,147.1z"/>
		<path id="XMLID_3901_" class="st13" d="M76.4,172.9c-13.6-21.4,5.1-52.2,42.2-72.6c-92,41.1-46.5,79.2-46.5,79.2l4.6-6.3
			C76.5,173.1,76.4,173,76.4,172.9z"/>
		<path id="XMLID_3900_" class="st13" d="M130.5,193.6l2.3-6c29.2-9.7,39.3-2,39.3-2C151.3,193.6,130.5,193.6,130.5,193.6z"/>
		<path id="XMLID_3899_" class="st201" d="M101.7,111c2.7-2,5.6-4.1,8.7-6.1C107.2,106.8,104.3,108.9,101.7,111z"/>
		<path id="XMLID_3898_" class="st13" d="M113.7,107.6c-29.5,16.8-31.5,48.3-31.5,48.3s2-0.7,2,0c-0.2,5.3,0.6,9.2,2,12.2l9.5-15.7
			C91.1,143.9,91.5,129.1,113.7,107.6z"/>
		<path id="XMLID_3897_" class="st202" d="M79.8,178.6l-20.5,33.8l61.3-5.6l7.3-21.1C121.8,187.9,92.9,196.5,79.8,178.6z"/>
		<path id="XMLID_3896_" class="st18" d="M246.9,192.5c-6.1,16-35.6,32.8-56.9,21.6c-5.6-3.2-8.2-7.6-12.4-16.7
			c16.6,18.8,50.7-7.1,50.7-7.1s5.6-1.4,5.6-5.7c2.9-2.2,4.3-5,6.5-7.9C242.6,181,246.9,192.5,246.9,192.5z"/>
		<path id="XMLID_3893_" class="st201" d="M163.9,138.4c0,0-3.2,1.2-5.1,2c-0.9,0.3-8.3-19.5-8.3-19.5s-7.8,22.3-9.3,26.7
			c-0.1,0.3-5.3,2-5.3,2s-12.1,5.4-16.8,6c3,0,7-1,10.5-2c4.4-1.1,8.3-3,12.7-4c7.2-2.5,14.2-5.8,21.4-8.5l0,0.1
			c0.4-0.2,0.9-0.4,1.3-0.5c5.8-2.1,9.4-3.5,9.4-3.5s10-2.9,15.3-3.4C180.3,133.6,163.9,138.4,163.9,138.4z M145.1,145.5l5.5-16
			l4.2,12.3C152.7,142,145.1,145.5,145.1,145.5z"/>
		<path id="XMLID_3892_" class="st201" d="M199.9,138.5l-50-78.2c0,0-50.3,82.6-50.3,81.6c-1,2.2-1.4,4.3-1.3,6.2l2.4-3.9l49.3-79.9
			l46.6,72.4c0.6,0.9,1,1.7,1.3,2.3C202.4,139.2,199.9,138.5,199.9,138.5z"/>
		<path id="XMLID_3889_" class="st202" d="M196.7,136.6l-46.6-72.4l-49.3,79.9l-2.4,3.9c0.8,11.9,23.3,15.9,63.7-3.3
			c7-3.3,16.3-5.5,28.9-5.9c1.8-0.1,3.7-0.1,5.7-0.1c0.6,0,1,0.1,1.4,0.1C197.7,138.3,197.3,137.5,196.7,136.6z M174.3,137
			c0,0-3.6,1.4-9.4,3.5c-0.4,0.2-0.9,0.4-1.3,0.5l0-0.1c-7.2,2.7-14.2,6-21.4,8.5c-4.3,1-8.3,2.9-12.7,4c-3.5,1.1-7.5,2-10.5,2
			c4.7-0.7,16.8-6,16.8-6s5.1-1.7,5.3-2c1.5-4.5,9.3-26.7,9.3-26.7s7.5,19.9,8.3,19.5c1.9-0.8,5.1-2,5.1-2s16.4-4.7,25.8-4.7
			C184.3,134.1,174.3,137,174.3,137z"/>
		<path id="XMLID_3888_" class="st13" d="M176.5,96.3c4.6-25-25.7-23.1-25.7-23.1l-1.3,6.2l-4.6,1.8l-3.6,10.9l-3,1.9l-5.4,9.3
			C132.9,103.4,166.9,78.1,176.5,96.3z"/>
		<path id="XMLID_3887_" class="st200" d="M147.9,85.2c-0.9,2.7-0.9,2.7-0.9,2.7s16.6-5.8,25.9-0.9C173,87,168.9,80.3,147.9,85.2z"
			/>
		<path id="XMLID_3886_" class="st201" d="M139.9,96.8c0,0,0,0,1.3-3c24.8-13.4,32.5-4,32.5-4C160.3,83.1,139.9,96.8,139.9,96.8z"/>
		<path id="XMLID_3885_" class="st13" d="M223.7,148.5c-17.5-8.5-34.5-7.2-45.6-4.8c-7.8,1.7-12.7,4.1-12.7,4.1
			c-31.2,13.1-46,15.4-57,12.1c-0.7,0.7-0.7,1.3-2,1.3c-2.7-0.5-7.7-3.4-10.6-8.8l-9.5,15.7c2.6,5.3,7.3,7.5,12.1,9.3
			c11.5,4.5,22,2.9,32.6,0.1c15.4-4.1,30.9-10.8,49.2-4.8c11.4,4,28.9,14.4,28.9,22.8c-17.4,9.1-28.2-0.7-29.5-2
			c6,9.4,19.8,9.1,28.8,4l5-2.5l-2.3-4.9l1.3-1.3l4,3.4l-2.7-8c0-0.7,7.4,6.7,7.4,6.7c2,0-6.7-12.1-6.7-12.1s-3.4,2-4.7,2.7
			c-4-7.4-16.4-13.8-18.8-14.8c-4.7-2-20.5-6.7-35.6-4.7c9.7-3.7,18.1-4.7,26.2-4c20.1,1.3,30.9,16.1,30.9,16.1l3.4-2.7
			c0,0,14.1,14.8,16.1,24.2c0-6.7,0-13.4,0-20.1c0.7-0.7,0.7-0.7,1.3-1.3c1.3,0.7,2.7,3.4,2.7,3.4l0.7-8.7
			c5.4,5.4,8.7,12.7,10.1,20.1C247.2,172.7,237.2,157.2,223.7,148.5z"/>
		<path id="XMLID_3884_" class="st200" d="M208.3,144.2c0,0,17.8,11.6,18.3,15l-3.3,3.9l-1.1,5.3l-3.3-3.8c0,0-1.1,0.2-1.6,0.9
			c-4-5.4-10.7-8.7-16.8-12.1c-14.1-4.7-29.5-4.7-43.6,0c-14.8,6.7-29.5,13.4-45.6,13.4c-19.8-1.7-20.3-15.6-20.4-23.7l2.3-13
			c0,0-17.4,33.5,8.1,39.4c18.8,3.4,36.2-4.7,52.3-12.1c8.4-3.2,35.6-12.6,58.4,8.1c2,0.7,2.7,2.7,4.7,4c0.7-0.7,2.7-1.3,2.7-1.3
			l4.7,5.4c0,0,0.7-5.4,1.3-8.1c0.7-0.7,1.3-1.3,1.3-1.3l2-3.4c0,0,0-0.7,0-1.3c0-0.7,0-0.7,0-1.3
			C222.2,148.1,208.3,144.2,208.3,144.2z"/>
		<path id="XMLID_3883_" class="st201" d="M213.9,204.2l-1.3,2.7c-19.7,6.9-28-0.9-28.9-2.2C198,211.8,213.9,204.2,213.9,204.2z"/>
		<path id="XMLID_3882_" class="st201" d="M228.9,204.4l-0.4,2.5c-29.1,16.1-40.7,2.9-40.7,2.9S202.7,219.9,228.9,204.4z"/>
	</g>
</g>
<g id="Watermark">
</g>
</svg>
