<?xml version="1.0" encoding="utf-8"?>
<!-- Generator: Adobe Illustrator 19.2.1, SVG Export Plug-In . SVG Version: 6.00 Build 0)  -->
<svg version="1.1" xmlns="http://www.w3.org/2000/svg" xmlns:xlink="http://www.w3.org/1999/xlink" x="0px" y="0px"
	 viewBox="0 0 288 288" style="enable-background:new 0 0 288 288;" xml:space="preserve">
<style type="text/css">
	.st0{display:none;}
	.st1{display:inline;}
	.st2{fill:#EF3E42;}
	.st3{fill:#004B8D;}
	.st4{fill:#D7CA9E;}
	.st5{fill:#A03123;}
	.st6{fill-rule:evenodd;clip-rule:evenodd;fill:#FFFFFF;}
	.st7{fill-rule:evenodd;clip-rule:evenodd;fill:#1E3B6E;}
	.st8{fill-rule:evenodd;clip-rule:evenodd;fill:#BE2132;}
	.st9{fill-rule:evenodd;clip-rule:evenodd;fill:#E19D26;}
	.st10{fill:#DC4329;}
	.st11{fill:#DC4A26;}
	.st12{fill:#231F20;}
	.st13{fill:#FFFFFF;}
	.st14{fill:#050404;}
	.st15{fill:#263C82;}
	.st16{fill:#CC3533;}
	.st17{fill:#E82F4D;}
	.st18{fill:#010101;}
	.st19{fill:#C1C8CF;}
	.st20{fill:#365A8B;}
	.st21{fill:#29417C;}
	.st22{fill:#F47920;}
	.st23{fill:#FAA61A;}
	.st24{fill:#CCCCCC;}
	.st25{fill:#002B54;}
	.st26{fill:#ED1C24;}
	.st27{opacity:0.3;fill:#002B54;}
	.st28{fill:#020303;}
	.st29{fill:#1B9ED8;}
	.st30{fill:#189DD8;}
	.st31{fill:#43748F;}
	.st32{fill:#EB3947;}
	.st33{fill:#EB3A47;}
	.st34{fill:#44758F;}
	.st35{fill:#1F9ED8;}
	.st36{fill:#FCFDFD;}
	.st37{fill:#020202;}
	.st38{fill:#E83543;}
	.st39{fill-rule:evenodd;clip-rule:evenodd;fill:#C1A677;}
	.st40{fill-rule:evenodd;clip-rule:evenodd;fill:#212F55;}
	.st41{fill-rule:evenodd;clip-rule:evenodd;fill:#AB285C;}
	.st42{fill-rule:evenodd;clip-rule:evenodd;fill:#014A67;}
	.st43{fill:#F47A39;}
	.st44{fill-rule:evenodd;clip-rule:evenodd;fill:#242052;}
	.st45{fill:#123B35;}
	.st46{display:inline;fill:#DB2732;}
	.st47{display:inline;fill:#1D3665;}
	.st48{fill-rule:evenodd;clip-rule:evenodd;}
	.st49{fill:#F58220;}
	.st50{fill:#1A3562;}
	.st51{fill:#036B66;}
	.st52{fill:#C4CDD3;}
	.st53{fill:#EB1F4E;}
	.st54{display:inline;fill:#C4203B;}
	.st55{display:inline;fill:#164883;}
	.st56{display:inline;fill:#90BCE5;}
	.st57{display:inline;fill:#1B2F5B;}
	.st58{fill:#144983;}
	.st59{fill:#CD1F43;}
	.st60{fill:#1A459D;}
	.st61{fill:#0A2042;}
	.st62{fill:#D92E27;}
	.st63{display:inline;fill:#CF1F45;}
	.st64{fill-rule:evenodd;clip-rule:evenodd;fill:#D7CA9E;}
	.st65{fill:#1E3B6E;}
	.st66{fill:#39B54A;}
	.st67{fill:#E19D26;}
	.st68{fill:#BE2132;}
	.st69{fill:#EF5426;}
	.st70{display:inline;fill:#FFFFFF;}
	.st71{display:inline;fill:#E31837;}
	.st72{display:inline;fill:#E21D37;}
	.st73{display:inline;fill:#005596;}
	.st74{display:inline;fill:#CC3533;}
	.st75{display:inline;fill:#E82F4D;}
	.st76{display:inline;fill:#010101;}
	.st77{display:inline;fill:#2A398B;}
	.st78{fill:#999999;}
	.st79{display:inline;fill:#999999;}
	.st80{display:inline;fill:#041E41;}
	.st81{display:inline;fill:#D4451D;}
	.st82{display:inline;fill:#EA7200;}
	.st83{display:inline;fill:#BDBBBB;}
	.st84{fill:#041E41;}
	.st85{fill:none;stroke:#000000;stroke-width:0.34;}
	.st86{fill:#D4451D;}
	.st87{fill:#EA7200;}
	.st88{fill:#BDBBBB;}
	.st89{fill:none;stroke:#EA7200;stroke-width:0;stroke-linecap:round;stroke-linejoin:round;}
	.st90{fill:#9C9FA1;}
	.st91{fill-rule:evenodd;clip-rule:evenodd;fill:#333290;}
	.st92{fill:#005B9B;}
	.st93{fill:#EF4043;}
	.st94{fill-rule:evenodd;clip-rule:evenodd;fill:#09A2DD;}
	.st95{fill-rule:evenodd;clip-rule:evenodd;fill:#43758E;}
	.st96{fill-rule:evenodd;clip-rule:evenodd;fill:#FCEE1E;}
	.st97{fill-rule:evenodd;clip-rule:evenodd;fill:#EE3441;}
	.st98{fill:#B89760;}
	.st99{fill:#D52D47;}
	.st100{fill-rule:evenodd;clip-rule:evenodd;fill:#0B2242;}
	.st101{fill:#F37938;}
	.st102{fill:#164883;}
	.st103{fill:#8E6D2A;}
	.st104{fill-rule:evenodd;clip-rule:evenodd;fill:#1A314F;}
	.st105{fill-rule:evenodd;clip-rule:evenodd;fill:#8F3326;}
	.st106{fill-rule:evenodd;clip-rule:evenodd;fill:#B68E64;}
	.st107{fill:#03493B;}
	.st108{fill:#FCC158;}
	.st109{fill:#BB544F;}
	.st110{fill:#D0B04A;}
	.st111{fill-rule:evenodd;clip-rule:evenodd;fill:#B6A269;}
	.st112{fill-rule:evenodd;clip-rule:evenodd;fill:#001F5B;}
	.st113{fill:#1D3665;}
	.st114{fill:#FFFFFF;stroke:#FFFFFF;stroke-width:0.16;}
	.st115{fill:#004666;}
	.st116{fill:none;stroke:#037062;stroke-width:2.8199;}
	.st117{fill:#BCCBD2;}
	.st118{fill:#037062;}
	.st119{fill:#E63248;}
	.st120{fill:none;stroke:#E63248;stroke-width:0.2826;}
	.st121{fill:none;stroke:#037062;stroke-width:1.0988;}
	.st122{fill:none;stroke:#BCCBD2;stroke-width:4.9365;}
	.st123{fill:#FCEE21;}
	.st124{fill:#FCEE23;}
	.st125{fill:#C4203B;}
	.st126{fill:#193661;}
	.st127{fill:#164884;}
	.st128{fill:#CF1F44;}
	.st129{fill:#0A2042;stroke:#010101;stroke-width:0.2131;}
	.st130{fill:#CF1F45;}
	.st131{fill:#1E3160;}
	.st132{fill:#BA202E;}
	.st133{fill:#212759;}
	.st134{fill:#BA1F31;}
	.st135{fill:#7BBCE8;}
	.st136{fill:#FED208;}
	.st137{fill:#6DB3E3;}
	.st138{fill:#FFCE04;}
	.st139{fill:#1B2F5B;}
	.st140{fill:#90BCE5;}
	.st141{fill:#D8782C;}
	.st142{fill:#C49C6F;}
	.st143{fill:#F04B23;}
	.st144{display:inline;fill-rule:evenodd;clip-rule:evenodd;fill:#F58220;}
	.st145{fill:#094F91;}
	.st146{fill:#DB2732;}
	.st147{fill:none;}
	.st148{fill:#00174A;}
	.st149{fill:none;stroke:#FFFFFF;stroke-width:3;stroke-miterlimit:10;}
	.st150{fill:none;stroke:#000000;stroke-width:0.1055;stroke-linecap:round;stroke-linejoin:round;}
	.st151{fill:#25358E;}
	.st152{fill:#ED1C2E;}
	.st153{fill:#FFFFFF;stroke:#000000;stroke-width:0.3293;stroke-linecap:round;stroke-linejoin:round;}
	.st154{display:inline;fill-rule:evenodd;clip-rule:evenodd;fill:#00174A;}
	.st155{fill:#0D2240;}
	.st156{display:inline;fill:#8EC641;}
	.st157{fill:#182D56;}
	.st158{fill:#BE323A;}
	.st159{fill:#C62034;}
	.st160{fill:#0B1437;}
	.st161{fill:#EC2135;}
	.st162{fill:#8EC641;}
	.st163{fill-rule:evenodd;clip-rule:evenodd;fill:#332312;}
	.st164{fill:#E4E5E6;}
	.st165{clip-path:url(#XMLID_4225_);}
	.st166{clip-path:url(#XMLID_4226_);fill:url(#XMLID_4227_);}
	.st167{clip-path:url(#XMLID_4228_);}
	.st168{clip-path:url(#XMLID_4229_);fill:url(#XMLID_4230_);}
	.st169{clip-path:url(#XMLID_4231_);}
	.st170{clip-path:url(#XMLID_4232_);fill:url(#XMLID_4233_);}
	.st171{clip-path:url(#XMLID_4234_);}
	.st172{clip-path:url(#XMLID_4235_);fill:url(#XMLID_4236_);}
	.st173{clip-path:url(#XMLID_4237_);}
	.st174{clip-path:url(#XMLID_4238_);fill:url(#XMLID_4239_);}
	.st175{clip-path:url(#XMLID_4240_);}
	.st176{clip-path:url(#XMLID_4241_);fill:url(#XMLID_4242_);}
	.st177{clip-path:url(#XMLID_4243_);}
	.st178{clip-path:url(#XMLID_4244_);fill:url(#XMLID_4245_);}
	.st179{clip-path:url(#XMLID_4246_);}
	.st180{clip-path:url(#XMLID_4247_);fill:url(#XMLID_4248_);}
	.st181{fill:#A4A9AD;}
	.st182{fill:#F05123;}
	.st183{fill:#8E744B;}
	.st184{fill:#EEE0C6;}
	.st185{fill:#8F182B;}
	.st186{fill:#FFC526;}
	.st187{fill:#B0B8BC;}
	.st188{fill:#FCBB30;}
	.st189{fill:#E21D38;}
	.st190{fill:#FFC759;}
	.st191{fill:#E03B3F;}
	.st192{fill:#8E8F92;}
	.st193{fill:#E13B3F;}
	.st194{fill:#FDDF0A;}
	.st195{fill:#E7AA23;}
	.st196{fill:#F37321;}
	.st197{fill:#008056;}
	.st198{fill:#E2293A;}
	.st199{fill:#1F438B;}
	.st200{fill:#005588;}
	.st201{fill:#A7B2B8;}
	.st202{fill:#8C2A43;}
	.st203{fill:#1C2D5B;}
	.st204{fill:#0C724D;}
	.st205{fill:#232020;}
	.st206{fill:#A8ABAD;}
	.st207{fill:#EB2627;}
	.st208{fill:#E56C25;}
	.st209{fill:#203C73;}
	.st210{fill:#B99758;}
	.st211{fill:#C8202F;}
	.st212{fill:#EEE3C6;}
	.st213{fill:#045937;}
	.st214{fill:#C02C38;}
	.st215{fill:#EEB41E;}
	.st216{fill:#F37E2F;}
	.st217{fill:#01549C;}
	.st218{fill:#0862AB;}
	.st219{fill:#E43B40;}
	.st220{fill:#DF1E38;}
	.st221{fill:#CD9C2B;}
	.st222{fill:#F47A3E;}
	.st223{fill:#FBB516;}
	.st224{fill:#E97424;}
	.st225{fill:#056D75;}
	.st226{fill:#142048;}
	.st227{fill:#FFC429;}
	.st228{fill:#114B9D;}
	.st229{fill:#213065;}
	.st230{fill:#1D2859;}
	.st231{fill:#A8AAAD;}
	.st232{fill:#1D427C;}
	.st233{fill:#153055;}
	.st234{fill:#AFB0B3;}
	.st235{fill:#20396F;}
	.st236{fill:#BE3138;}
	.st237{fill:#B4975A;}
	.st238{fill:#344042;}
	.st239{fill:#14244C;}
	.st240{fill:#D0202D;}
	.st241{fill:#A9A9AD;}
	.st242{fill:#1D3261;}
	.st243{fill:#811423;}
	.st244{fill:#6F6E76;}
	.st245{fill:#C62031;}
</style>
<g id="Layer_5" class="st0">
</g>
<g id="Layer_3">
</g>
<g id="Layer_4">
	<g id="XMLID_3240_">
		<path id="XMLID_3294_" class="st13" d="M221.2,117.1c-6.5,5.6-13.8,9.3-21.8,11.9c-7.6,2.5-15.4,3.7-23.3,3.4
			c-1,0-1.6-1.7-2.7-2.4c-0.8-0.5-2-0.3-3.1-0.5c-0.4-0.1-0.5-0.9-0.2-0.9c1.7-0.5,3.5-0.3,5.3-0.6c0.8-0.1,0.9-1.2,1.5-1.4
			c2.4-1.1,5-0.7,7.6-0.9c0.6-0.1,0.3-1.2,0.8-1.4c0.9-0.4,1.9,0.3,3,0.6c0.9,0.2,0.9-1.2,1.4-1c1.8,0.5,2.6,0.1,3.9-1
			c0.2-0.2,0.8,0,1.2,0.1c0.4,0.1,1.1,0.4,1.3-0.2c1.4-3.4,5.1-0.1,7.2-0.8c0.6-0.2-0.3-1.1,0.1-1.4c1.5-1,3.3,0.3,4.8-0.4
			c0.6-0.3,0-1.1,0.3-1.5c0.5-0.6,1.4,0.2,2-0.1c0.5-0.2,1.3-0.5,1.6-0.5c1.7,0,2.9-0.9,4.6-1.1c0.3,0,0.4-0.5,0.7-0.6
			c1.3-0.3,3.7,0.1,3.9,0.2C221.4,116.6,221.6,116.7,221.2,117.1 M209.8,131.3c0.8,0.2,2.4,0.5,2.1,0.7c-13.2,10.8-30.2,12.9-46,13
			c-1.5-2.1-4.2-3-6.4-4.2c-0.1-0.1-0.1-0.7,0-0.8c1.9-0.9,3.9-0.6,6-0.9c0.8-0.1,1-1.2,1.7-1.4c2.4-0.7,4.7-1.6,7.2-1.5
			c2.1,0.1,4.1,0.3,6.2,0.2c0.6,0,0.4-1.3,1-1.4c2.3-0.4,4.5,0.5,6.9,0c0.5-0.1,0.6-1,0.8-1.1c2.6-1,5.6-0.2,8.3-1.1
			c-0.3-0.2-0.7-0.6-0.4-0.8c0.5-0.4,1.3-0.2,1.8-0.1c1.1,0.1,2.3,0.2,3.4-0.5c0.7-0.5,1.8,0.3,2.6,0c0.9-0.3,1.7-0.8,2.6-0.5
			C208.3,131.2,209,131.2,209.8,131.3z M175.4,153.7c-9,1.7-17.4,1.5-26.1-0.8c-0.4-0.1,0.7-1,1.4-1.2c2.1-0.7,4.3-0.9,6.4-1.6
			c0.4-0.2,0.8-0.8,1.1-1.2c0.8-0.9,2.3-1.1,3.4-1.5c3.4-1,7,0.1,10.6,0.7c1.4,0.2,2.8,0.4,4.2,0.8c0.2,0.1,0.8-0.2,0.8-0.6
			c0.1-0.5,0.1-1.1,0.5-1.1c1.1,0,2.4,0.4,3.4,0c1.3-0.5,2.8-0.2,4.2-0.4c0.4-0.1,0.1-0.6,0.5-0.7c1.4-0.3,3,0.3,4.2-0.3
			c1-0.5,3.2,0.9,3.6,1.4C188,150.6,182,152.5,175.4,153.7z M175.4,161.3c-5.7,1.8-11.5,1.7-17.4,1.7c-5.9,0-11.5-1.7-17.4-3.4
			c-0.3-0.1-0.3-0.5-0.2-0.6c0.8-0.5,1.9-0.2,2.7-0.6c0.5-0.2,0.6-0.8,1-1.1c0.5-0.3,1.7-0.3,2.3-0.6c0.8-0.4,1-1,1.7-1.4
			c0.7-0.4,1.5,0.3,2.5,0.1c2-0.4,3.4,1.3,5.3,1.9c0.7,0.2,1.4-0.4,2.1-0.3c0.8,0.1,1.3,0.8,2.1,1c0.6,0.2,1,0.2,1.7-0.1
			c0.9-0.4,1.7,0.8,2.7,0.5c0.3-0.1,0.3-0.8,0.7-0.8c1.6-0.1,2.6,1.5,4.2,1.5c0.2,0,0.3-0.3,0.5-0.4c0.8-0.3,1.6,0.4,2.6,0.1
			c1.2-0.4,2.3,0.6,3.1,1.5C176,160.9,175.9,161.1,175.4,161.3z M157.3,169.6c0.5,0.4,0.8,1.1,0.6,1.2c-3.6,1.1-9.5,0.5-13.8,0.1
			c-3.9-0.3-7.5-1.4-11.1-2.9c-2.4-1-4.7-1.9-6.9-3.3c-0.6-0.4-1.5-0.5-1.6-1.3c0-0.1,0.2-0.4,0.2-0.4c1.3-0.6,2.8,0.3,4.1-0.1
			c0.5-0.2,0.8-1,1.2-0.9c1,0,2,0.4,2.9-0.3c0.7-0.5,1.6-0.1,2.3,0.2c0.9,0.4,2.4,2.5,3.6,2.2c0.3-0.1,2.2-0.5,2.6-0.3
			c1.8,1.1,4.7,3.2,6.7,3.3c0.4,0,0.7-1.2,1.2-0.9c1.2,0.6,2,1.6,3,1.7c0.3,0.1,0.9-0.4,1.3-0.4c0.7,0.1,1.2,0.7,2,1.2
			C156,169,156.8,169.2,157.3,169.6z M142.5,177.2c-13,0.3-24.8-7.2-33.3-17.3c-0.1-0.1-0.1-0.6,0.2-0.6c1.5,0.1,2.7,1.1,4,1.7
			c1.4,0.7,3.1,2.7,4.6,1.5c0.3-0.2,0.1-0.7,0.5-0.6c2,0.5,3.3,2.2,4.7,3.6c1.2,1.2,1.9,2.9,3.4,3.7c0.7,0.3,1.2-1.2,1.7-0.8
			c1.2,1,2,2.1,3.3,3c0.5,0.4,0.8-0.8,1.1-0.9c0.6-0.3,1.8,1,2.5,1.5c0.8,0.6,1.7,1.5,2.7,2.1c0.5,0.3,0.9-0.4,1.4-0.2
			c0.8,0.3,1.5,0.8,2.3,1c0.5,0.1,1,1.2,1.4,1.7C143.5,177.2,142.8,177.2,142.5,177.2z M115,201.3c-5.9,3.4-12,5.2-18.7,5.8
			c-3.1,0.3-6.2,0.1-9.2-0.4c-21.3-3.1-38.3-22.5-38-43.8c0,0,0.3,0.7,0.7,0.9c0.5,0.2,0.7-0.2,1-0.6c0.4-0.5,0.9,0.6,1.5,0.4
			c0.2-0.1,0.3-0.4,0.5-0.4c1.1,0.3,1.2-1.1,2.1-0.9c0.6,0.1,0.4,1,0.7,1.5c0.3,0.5,0.9,0.6,1.4,0.4c1.7-0.8,1.1-2.8,2.1-4.1
			c0.5,2.4,0,4.7,0.6,7.2c0.8,3.6,1.6,6.9,3.2,10.2c2.8,5.8,7.1,10.4,12.7,13.9c15.6,9.9,36.5,4.6,46.3-10.2
			c1.4,0.3,3.2,0.9,4.9,1.1c0.9,0.1,1.8,0.1,2.8,0c0.2,0,0.7-0.2,0.7-0.3c-1.4-2-4.3-4.3-4.6-7.3c2.9,1.1,6.4,2.3,10,3.5
			C130.7,187.5,124.3,195.9,115,201.3z M51.9,143.5c2.9-5.5,6.7-10.1,11.3-14.4c6-5.4,12.7-9,20.6-10.8c9.5-2.1,18.4-1.7,27.7,2.4
			c0.4,0.2-0.8,2.6-1,2.5c-15.7-6-34.2-3.5-46.1,8.7c-4.5,4.7-9.6,9.5-10.5,16.1c-0.8-1,0.1-2.5-1-3.4c-0.5-0.4-0.9,0.7-1.3,0.3
			C51.3,144.7,51.7,144,51.9,143.5z M143.6,94c18.1-0.4,40.6,0.5,53-2.9c10.6-2.9,18.1-5.7,26.4-13.6c1.3-1.2,1.7-1,0.9,0.3
			c-5.1,8.4-13.8,14.6-25.9,17.9c-13.6,3.8-39.5,2.3-54.3,2.9c-16.6,0.6-28.9,6.9-34.1,18.1l-3.9-1.5
			C110.3,101.4,125.8,94.4,143.6,94z M104.7,167.5c-1.1-1.2-1.2-3.1-0.4-4.5c0.4-0.9,1.9-1.9,2.5-1.3c0.6,0.6,0.9,1.7,1.3,2.4
			c0.4,0.5,1,0.6,1.3,1.2c0.4,0.6,0.8,1.6,1.3,2.1c0.4,0.3,0.9,0.4,1.2,0.8c0.3,0.3,0.3,0.7,0.6,1c0.2,0.2,0.7,0.3,1,0.5
			c0.5,0.4,0.8,1.5,1.4,1.6c0.3,0.1,0.9-0.3,1.1-0.1c0.5,0.3,0.9,0.7,1.3,1.2c0.4,0.5,0.8,1,1.3,1.5c0.4,0.4,0.8,1.1,1.3,1.4
			c0.4,0.2,1-0.3,1.3-0.1c0.4,0.3,0.5,1.1,0.9,1.3c0.5,0.3,1.3,0,1.6,0.6c0.4,0.7,1,2.2,1.6,3C117.2,178.6,110.1,173.6,104.7,167.5z
			 M93.6,133.2c-15.9,0-28.8,12.9-28.8,28.8c0,15.9,12.9,28.8,28.8,28.8c9.6,0,18.1-4.7,23.3-11.9l3.8,1.4
			c-5.9,8.7-15.8,14.4-27.1,14.4c-18.1,0-32.7-14.7-32.7-32.7c0-18.1,14.7-32.7,32.7-32.7c4.8,0,10,1.2,14.6,3.3v4.5
			C103.9,134.6,98.9,133.2,93.6,133.2z M105.5,150c-1.2-1.2-2.6-2.2-4.1-3l7-5.9c0,3-0.8,6.8-2.1,9.7L105.5,150z M93.6,178.7
			c2.6,0,5-0.6,7.3-1.7l0.7,10.1c-2.5,0.8-5.2,1.2-8,1.2c-0.5,0-1,0-1.5,0l-1.5-9.9C91.6,178.6,92.6,178.7,93.6,178.7z M90.1,175.3
			l-0.6-4.1c1.1,0.5,2.2,0.8,3.5,0.9L90.1,175.3z M89.1,179l1.4,9.2c-2.7-0.3-5.2-1-7.6-2.1L89.1,179z M80.1,171.9
			c0.5,0.7,1,1.3,1.6,1.9c1.8,1.8,4,3.1,6.3,4l-6.6,7.7c-2.6-1.3-4.9-3.1-6.9-5.2L80.1,171.9z M79,170.7l-5.6,8.3
			c-1.9-2.2-3.4-4.8-4.5-7.6L79,170.7z M77,159.3c-0.1,0.9-0.2,1.7-0.2,2.6c0,2.6,0.6,5,1.6,7.2l-10.1,0.7c-0.8-2.5-1.2-5.2-1.2-7.9
			c0-0.3,0-0.5,0-0.8L77,159.3z M77,157.7l-9.7,1.9c0.3-3,1-5.8,2.2-8.4L77,157.7z M84.1,148c-2.9,2-5.1,4.9-6.3,8.2l-7.6-6.6
			c1.5-2.8,3.5-5.4,5.8-7.5L84.1,148z M86,146.9c-0.1,0.1-0.3,0.1-0.4,0.2l-8.3-6c2.6-2,5.6-3.6,8.8-4.6L86,146.9z M83.6,163.4
			c0,0.1,0,0.2,0.1,0.4l-3.4,5c-1.1-2.1-1.7-4.5-1.7-6.9c0-0.9,0.1-1.8,0.2-2.6L83.6,163.4z M85.9,155.3c-0.2,0.2-0.4,0.5-0.6,0.8
			l-6,1.1c0.7-2.2,2-4.2,3.7-6c0.8-0.8,1.7-1.5,2.7-2.1l0.3,0.2L85.9,155.3z M83.5,161.3l-3-2.6l3.9-0.7
			C83.9,158.9,83.6,160.1,83.5,161.3z M86,168.6l-3.8,0.3l2.1-3.1C84.7,166.8,85.3,167.8,86,168.6z M87.6,170.1l0.2,0.1l0.9,5.9
			c-2.1-0.7-4-1.9-5.7-3.6c-0.6-0.6-1.2-1.3-1.7-2L87.6,170.1z M90.2,152.4c-0.9,0.3-1.8,0.8-2.6,1.4l0-3.3L90.2,152.4z M98.4,153
			c-0.9-0.5-1.8-0.8-2.8-1l2.5-2.1L98.4,153z M98.1,135.9c3.5,0.6,6.7,1.9,9.6,3.7l-7.9,6.7c-0.2-0.1-0.4-0.1-0.6-0.2L98.1,135.9z
			 M97.1,171.5c1.2-0.4,2.3-1.1,3.3-1.9l0.3,4.3L97.1,171.5z M93.6,167.4c-3,0-5.5-2.4-5.5-5.5c0-3,2.4-5.5,5.5-5.5
			c3,0,5.5,2.4,5.5,5.5C99.1,164.9,96.6,167.4,93.6,167.4z M95.1,172.1l5.1,3.3c-2,1-4.2,1.6-6.6,1.6c-0.9,0-1.7-0.1-2.6-0.2
			L95.1,172.1z M87.6,146.2l0.1-10.1c1.9-0.4,3.9-0.7,5.9-0.7c1,0,1.9,0.1,2.9,0.2l1.1,9.9c-1.3-0.3-2.6-0.5-4-0.5
			C91.5,145.1,89.5,145.5,87.6,146.2z M93.6,146.9c1.4,0,2.8,0.2,4.2,0.6l0.1,0.5l-4.5,3.8c-0.4,0-0.8,0.1-1.2,0.1l-4.6-3.3v-0.5
			C89.5,147.3,91.5,146.9,93.6,146.9z M101,155c-0.3-0.3-0.6-0.6-0.9-0.9l-0.6-5.5l0.4-0.4c1.6,0.7,3.1,1.7,4.3,3l1.3,1.3l-1,2.1
			L101,155z M101.7,155.9l2.4-0.1l-1,2.3C102.8,157.3,102.3,156.7,101.7,155.9z M102.3,174.2l-0.5-6.3c0.9,1.2,1.9,2.9,3,3.8
			C104,172.7,103.4,173.4,102.3,174.2z M110.7,182.1c-2.2,1.9-4.7,3.4-7.5,4.5l-0.7-9.8L110.7,182.1z M103.4,175.6
			c0.7-0.5,1.5-1.1,2.1-1.8l1-1l7.8,5.5c-0.6,0.8-1.4,1.7-2.4,2.7L103.4,175.6z M209.9,102.8c8-2,14.7-6.1,20-12
			c0.4-0.5,1.7-2.1,2-2.6c0.3-0.5,0.5-0.5,0.3,0.1c-0.2,0.6-1.5,2.7-1.8,3.3c-3.3,5.5-8.6,8.8-14,11.6c-7.9,4-16.4,6.4-25.2,6.9
			c-15.6,0.9-31.2,0.3-46.7,0.3c-5.7,0-11.1,1.8-16.2,5c-5.4,3.4-9.2,8.1-11.7,13.6c-2.2,4.7-2,10-2.4,15.2
			c-0.6,6.9-4.1,13.1-9.1,15.9c2.2-4.1,4.5-8.7,5.3-13.5c0.8-4.8,0-8.6,0.2-12.8c0.4-9.8,6.7-18.2,15.2-23c6-3.4,12.4-5.5,19.2-5.8
			c5.3-0.2,10.6,0.2,16,0.6c6.5,0.4,13,0.4,19.4,0.2c0.8,0,1.8,0,2.6,0C191.9,105.5,200.8,105,209.9,102.8z M154.9,114
			c1.2-0.4,2.8,1.2,4.1,0.1c0.8-0.7,2.2,0.4,3.3,0.9c1.2,0.5,1.9-0.3,2.9-0.9c0.6-0.4,1.6,0.8,2.7,0.5c0.4-0.1,0.3-0.9,0.7-1
			c1.3-0.2,2.4,1.1,3.6,0.5c0.4-0.2,0.9-0.9,1.3-1.2c0.6-0.3,1.3,0.5,1.7,0.1c1.2-1.1,2.4-0.6,3.5-0.5c0.2,0,0.5,1,0.2,1.1
			c-4.7,2.9-9.4,3.7-14.8,4.3c-2.6,0.3-7.8-0.2-11-2C151.3,115,153.9,114.4,154.9,114z M157.1,138.4c-5,1.2-9.7,0.8-14.6-0.3
			c-1-0.2-1.6-1.2-2.4-1.9c-0.2-0.2-1-0.1-1-0.2c-0.3-1-0.6-1.4-1.4-2c-0.1-0.1-0.2-0.8,0.2-0.8c1.2-0.1,2.5-0.2,3.7-0.4
			c0.6-0.1,0.7-1.2,1.2-1.4c1.3-0.5,2.7-0.6,4.1-0.7c3.6-0.4,7.2-1,10.9-0.7c3.7,0.3,7.1,1.5,10.6,2.6c0.5,0.1,1.3,0.4,0.9,1
			c-0.5,0.8-1.5,0.8-2.3,1.3c-1.1,0.7-2.6,0.4-3.5,1.4c-1.4,1.3-3.2,1.4-4.9,1.6C158.1,137.8,157.7,138.3,157.1,138.4z M137.1,150.1
			c-1.6-0.4-4.1-0.9-4.5-2c0.2,0.1,0.6-0.6,0.7-0.7c0.1-0.8-1.5-0.9-2-1.5c-0.1-0.1-0.2-0.8,0.2-0.8c0.8,0,2.5,0.7,3.7,0.1
			c0.3-0.2,0.3-0.6,0.8-0.8c0.5-0.2,1.1,0.1,1.4-0.1c0.3-0.2,0.8-0.2,1-0.5c0.2-0.2-0.1-0.9,0.1-1.1c0.4-0.4,1-0.2,1.6-0.6
			c0.4-0.2,0.8-0.9,1.1-1.1c0.6-0.3,1.4-0.4,2-0.4c1.9-0.1,3.8-0.1,5.8,0.2c1.7,0.2,3.2,0.4,4.9,0.8c2.7,0.8,5.3,1.3,7.6,2.8
			c-1.4,1.9-3.8,2-5.8,3.1c-1.6,0.8-3.3,0.9-4.9,1.4C146.3,150.3,141.6,151.3,137.1,150.1z M114.8,155.8c0.7,0.1,1.3-0.3,1.8-0.1
			c0.8,0.2,1.1,0.3,1.7,0.6c0.4-0.2,1-0.3,1.2-0.4c1.1-0.3,2.3,0.3,3.5,0.2c0.6,0,0.5-1.2,0.9-1.4c1.6-0.7,3.6,0.3,5.3-0.1
			c0.2-0.1,0-0.9,0.8-1.4c0.3-0.2,1.6-0.2,2-0.4c0-0.2,0.1-0.6,0.5-0.8c1.3-0.6,3,0.4,4.8,0.7c1.2,0.2,2.5,0.6,3.7,1.1
			c1,0.3,2.4,1.2,2.1,1.5c-5,5.1-12.8,5.7-19.6,5.2c-4-0.3-8.4-0.3-11.7-3c-0.8-0.6,0.2-1.9,1.1-2.3
			C113.4,154.8,114.1,155.7,114.8,155.8z M124,147c2,0.9,4,1.7,5.6,3.2c-3.4,2.1-7.2,2.7-11.1,3.3c-1.4,0.2-2.9,0.5-4.4-0.1
			c0.8-3,1.9-5.9,3-8.8C119.5,145,121.8,145.9,124,147z M130.6,119.5c1.1-0.4,2.5-0.7,2.4-2.2c0-0.4,0.5-0.6,0.9-0.6
			c0.9-0.1,1.7-0.1,2.5-0.4c0.7-0.2,1-0.9,1.5-1.2c1.8-1.3,4.1,0,5.9-0.8c0.8-0.4,1.6-0.5,2.3-0.1c1.8,1,4.4,1.4,4.9,3.6
			c-6.3,3.7-13.8,4.7-21.1,4.6C129.9,121.4,129.5,119.9,130.6,119.5z M134.2,124.9c2.3,0.5,4.1,1.7,6.2,2.5c0.8,0.3,2.5,1.2,1.7,1.7
			c-6.6,3.8-14.2,4.2-21.6,4.2c0.1-1.1,0.6-1.9,0.9-3c0.3-1.3,2.4-1.7,2.4-3.5c0-1,2-0.8,2.6-1.7c0.3-0.4,0.5-0.9,0.8-1
			C129.6,123.8,131.9,124.4,134.2,124.9z M118.8,137.8c0.5-0.7,0.8-1.7,1.2-1.9c3-1.7,6.9-0.9,10.3,0c2.9,0.8,5.9,1.5,8.1,3.7
			c0.1,0.1,0.1,0.6,0,0.6c-6.5,3-13.6,4.2-20.5,3.4c-0.2,0,0.1-1.5-0.1-2.5c-0.1-0.7,0.6-1.1,1.1-1.7
			C119.1,139.1,118.4,138.3,118.8,137.8z M175.9,125c-9.5,3.7-19.8,3.7-29.9,3.1c-0.4,0-0.5-0.8-0.8-1.2c-0.4-0.5-1.2-0.6-1.6-1
			c-0.4-0.3-0.3-0.7-0.7-1c-0.4-0.3-1.3-0.2-1.9-0.5c-0.2-0.1-0.5-0.8-0.2-1c1.2-0.7,3.2,0.5,4-0.5c1.3-1.7,3-0.4,4.5-1
			c0.5-0.2,0.4-0.8,0.6-1c1.3-1.6,3.7-1.8,5.8-1.9c1.7,0,3.8,0,5.3,0.2c4.2,0.7,7.9,1.3,11.6,3.1c1,0.5,2.2,0.8,3.1,1.7
			C176.1,124.4,175.7,124.7,175.9,125z M233.2,88.9c-0.3,1-0.6,2-0.9,3.1c-2.8,8-9,13.2-15.7,18.1c-6.3,4.6-12.6,7.5-20.1,9.2
			c-5.7,1.3-11.1,2.5-16.9,2.1c-1.3-0.1-2.3-1-3.5-1.6c-0.5-0.3-1.4-0.2-2-0.5c-0.6-0.3-0.3-1.1,0.4-1.2c0.9-0.2,1.8,0.2,2.5-0.2
			c1.7-0.9,3.5-0.6,5.1-1.1c1-0.3,0-1.7,0.8-1.9c0.9-0.3,2-0.4,3-0.7c0.5-0.1,0.6-1.3,0.8-1.3c1.3-0.4,3.7,0.2,5.5,0.1
			c0.6,0,0.2-1,0.9-1.1c2.3,0,2.1,0.3,3.6-0.8c1.4-0.9,4.8,0.4,4.7-1.8c2.9-0.5,5.9,0.4,8.5-1.5c0.4-0.3,1.2,0,1.8-0.4
			c0.3-0.2,0.3-0.8,0.7-0.9c1.1-0.3,2.2-0.3,3.2-0.8c0.6-0.3,0.5-1.3,0.8-1.4c6.2-2.8,11.4-6.6,15-12.5c0.7-1.2,1.5-2.8,1.7-3.3
			C233.1,88.2,233.4,88.3,233.2,88.9z M225.2,114.2c-2.5-0.2-5.1,0.1-7.6-0.1c-0.4,0-0.3-0.7-0.2-0.8c10.1-8,17.6-18.8,17.7-31.6
			c0-0.2-0.3-0.4-0.4-0.2c-7,9.2-15.3,17.6-26.9,19c-0.5,0.1-0.6-0.9-0.2-1.2c10.6-6.9,18.4-16.1,21-28.6c0-0.1-0.2-0.3-0.4-0.2
			c-7.6,7.9-16.7,13.5-27.1,16.5c-18.8,5.5-38.1,3.7-57.1,3.7c-7.6,0-15.2,0.7-22.1,3.9c-8.6,4-16,10.5-20,19.3l-0.1,0.2
			c-2.7-0.5-5.4-0.7-8.3-0.7c-26.8,0-48.6,21.7-48.6,48.6c0,26.8,21.7,48.6,48.6,48.6c20.6,0,38.1-12.8,45.2-30.8l0.7,0
			c2.4,0.1,5,0.2,7.4-0.8c0.3-0.1,1.1-0.7,0.8-1.2c-0.4-0.7-1.5-2.2-1.9-3.2c-0.1-0.2-0.1-0.6,0.2-0.6c5.9,0,12.2,0.3,17.6-1.8
			c-1.4-2.3-4.5-3.9-6.2-6.2c-0.4-0.5,0.4-0.8,0.6-0.8c8.2,0,15.9,0,23.1-3.7c0.3-0.1,0.3-0.4,0.1-0.6c-1.6-1.7-3.6-3.3-5.4-4.6
			c9.2-1.8,19.2-6.4,22.1-9c0.3-0.3,0.1-0.5-0.1-0.7c-0.8-0.9-2.8-2.3-3.2-2.7c-0.1-0.1-0.1-0.6,0-0.6c8.1-3.1,16.2-6.7,22.1-13.6
			c0.3-0.3-0.1-0.8-0.4-0.8c-2.4-0.5-4.6-0.6-6.9-0.5c0-0.3-0.1-0.8,0-0.8c6.1-3.5,11.5-7.3,16.1-12.6
			C225.5,114.8,225.6,114.2,225.2,114.2z"/>
		<path id="XMLID_3291_" class="st207" d="M225.4,115c-4.6,5.4-10,9.1-16.1,12.6c-0.1,0.1,0,0.5,0,0.8c2.3,0,4.6,0.1,6.9,0.5
			c0.3,0.1,0.7,0.5,0.4,0.8c-5.9,6.9-13.9,10.5-22.1,13.6c-0.1,0-0.1,0.5,0,0.6c0.4,0.4,2.4,1.8,3.2,2.7c0.2,0.2,0.4,0.5,0.1,0.7
			c-2.9,2.6-13,7.2-22.1,9c1.9,1.3,3.8,2.9,5.4,4.6c0.2,0.2,0.2,0.5-0.1,0.6c-7.2,3.7-14.9,3.7-23.1,3.7c-0.3,0-1,0.3-0.6,0.8
			c1.7,2.2,4.9,3.9,6.2,6.2c-5.4,2.1-11.7,1.8-17.6,1.8c-0.3,0-0.3,0.4-0.2,0.6c0.4,1,1.5,2.4,1.9,3.2c0.3,0.6-0.5,1.1-0.8,1.2
			c-2.3,0.9-5,0.9-7.4,0.8l-0.7,0c-7.1,18.1-24.7,30.8-45.2,30.8c-26.8,0-48.6-21.7-48.6-48.6c0-26.8,21.7-48.6,48.6-48.6
			c2.8,0,5.6,0.2,8.3,0.7l0.1-0.2c4-8.7,11.4-15.3,20-19.3c7-3.3,14.6-3.9,22.1-3.9c19.1-0.1,38.3,1.8,57.1-3.7
			c10.5-3.1,19.6-8.6,27.1-16.5c0.1-0.1,0.4,0.1,0.4,0.2c-2.6,12.4-10.3,21.7-21,28.6c-0.4,0.3-0.4,1.2,0.2,1.2
			c11.6-1.4,19.9-9.9,26.9-19c0.1-0.2,0.4,0,0.4,0.2c-0.1,12.8-7.6,23.5-17.7,31.6c-0.1,0.1-0.2,0.8,0.2,0.8
			c2.5,0.2,5.1-0.1,7.6,0.1C225.6,114.2,225.5,114.8,225.4,115 M225.3,112.6c-1.3-0.1-2.7-0.1-4-0.1c-0.3,0-0.5,0-0.8,0
			c7.7-6.7,15.9-17.1,16.1-30.9c0-0.8-0.5-1.5-1.2-1.7c-0.7-0.2-1.5,0-1.9,0.6c-5.4,7.2-12.2,14.6-21.3,17.5
			c9.7-7.3,15.7-16.4,17.9-26.9c0.1-0.7-0.2-1.5-0.9-1.9c-0.7-0.4-1.5-0.2-2.1,0.3c-7.4,7.7-16.3,13.2-26.5,16.1
			c-14.7,4.3-30,4-44.8,3.8c-3.9-0.1-7.9-0.1-11.9-0.1c-7,0-15.2,0.5-22.8,4.1c-9.2,4.3-16.4,11.1-20.3,19.2
			c-2.4-0.4-4.9-0.6-7.4-0.6c-27.6,0-50.1,22.5-50.1,50.1c0,27.6,22.5,50.1,50.1,50.1c10.3,0,20.1-3.1,28.5-8.9
			c7.9-5.5,14-13.1,17.7-21.9c2.3,0.1,5,0.1,7.6-0.9c0.1-0.1,1.3-0.5,1.7-1.7c0.2-0.6,0.2-1.2-0.1-1.7c-0.2-0.4-0.5-0.8-0.8-1.2
			c-0.1-0.1-0.1-0.2-0.2-0.3c0.3,0,0.5,0,0.5,0c5.3,0,10.7,0,15.6-1.9c0.4-0.2,0.7-0.5,0.9-0.9c0.1-0.4,0.1-0.9-0.1-1.3
			c-0.9-1.5-2.3-2.6-3.6-3.7c-0.4-0.3-0.7-0.6-1.1-0.9c7.5-0.1,14.7-0.4,21.6-3.9c0.6-0.3,0.9-0.8,1-1.4c0.1-0.6-0.1-1.2-0.5-1.6
			c-0.9-0.9-1.9-1.8-3-2.8c8.3-2.1,16.8-6.1,19.6-8.6c0.7-0.6,1-1.8,0.1-2.8c-0.4-0.5-1.1-1.1-1.8-1.6c7.4-2.9,15-6.6,20.7-13.3
			c0.4-0.5,0.6-1.2,0.3-1.9c-0.3-0.7-0.9-1.3-1.6-1.4c-1.1-0.2-2.1-0.3-3.3-0.4c4.6-2.8,9.2-6.3,13.3-11.1c0.5-0.6,0.6-1.5,0.3-2.2
			C226.6,113.1,226,112.7,225.3,112.6z"/>
		<path id="XMLID_3290_" class="st207" d="M216.2,104.5c-0.3,0.1-0.2,1.1-0.8,1.4c-1,0.5-2.1,0.5-3.2,0.8c-0.4,0.1-0.4,0.7-0.7,0.9
			c-0.6,0.4-1.3,0.1-1.8,0.4c-2.6,1.9-5.6,1-8.5,1.5c0,2.1-3.3,0.8-4.7,1.8c-1.5,1-1.3,0.7-3.6,0.8c-0.7,0-0.3,1-0.9,1.1
			c-1.8,0-4.1-0.5-5.5-0.1c-0.2,0.1-0.3,1.2-0.8,1.3c-1,0.3-2,0.4-3,0.7c-0.7,0.2,0.2,1.6-0.8,1.9c-1.6,0.5-3.5,0.1-5.1,1.1
			c-0.7,0.4-1.6,0-2.5,0.2c-0.7,0.1-1,0.9-0.4,1.2c0.5,0.3,1.4,0.2,2,0.5c1.2,0.6,2.2,1.5,3.5,1.6c5.7,0.4,11.2-0.8,16.9-2.1
			c7.5-1.7,13.8-4.6,20.1-9.2c6.7-4.9,12.9-10,15.7-18.1c0.4-1.1,0.7-2,0.9-3.1c0.2-0.6-0.1-0.7-0.3-0.2c-0.2,0.5-1,2.1-1.7,3.3
			C227.6,97.9,222.4,101.7,216.2,104.5"/>
		<path id="XMLID_3289_" class="st207" d="M175.7,124c-0.9-0.9-2.1-1.2-3.1-1.7c-3.7-1.8-7.4-2.4-11.6-3.1c-1.5-0.2-3.6-0.2-5.3-0.2
			c-2.1,0-4.5,0.3-5.8,1.9c-0.2,0.3-0.1,0.9-0.6,1c-1.5,0.6-3.2-0.7-4.5,1c-0.8,1-2.7-0.2-4,0.5c-0.3,0.2,0,0.9,0.2,1
			c0.6,0.3,1.6,0.2,1.9,0.5c0.4,0.3,0.3,0.8,0.7,1c0.4,0.3,1.3,0.5,1.6,1c0.3,0.4,0.4,1.2,0.8,1.2c10,0.6,20.3,0.6,29.9-3.1
			C175.7,124.7,176.1,124.4,175.7,124"/>
		<path id="XMLID_3288_" class="st207" d="M117.7,141.2c0.1,1-0.1,2.5,0.1,2.5c7,0.8,14.1-0.5,20.5-3.4c0.1,0,0.1-0.5,0-0.6
			c-2.1-2.3-5.1-2.9-8.1-3.7c-3.4-0.9-7.3-1.7-10.3,0c-0.4,0.2-0.7,1.2-1.2,1.9c-0.4,0.5,0.3,1.4,0,1.7
			C118.3,140.1,117.6,140.5,117.7,141.2"/>
		<path id="XMLID_3287_" class="st207" d="M150.9,117.8c-0.5-2.2-3.1-2.6-4.9-3.6c-0.7-0.4-1.5-0.2-2.3,0.1c-1.8,0.8-4-0.5-5.9,0.8
			c-0.5,0.4-0.8,1.1-1.5,1.2c-0.8,0.2-1.7,0.2-2.5,0.4c-0.3,0-0.9,0.2-0.9,0.6c0.2,1.5-1.2,1.8-2.4,2.2c-1.1,0.4-0.7,1.8-0.7,2.9
			C137,122.5,144.5,121.5,150.9,117.8"/>
		<path id="XMLID_3286_" class="st207" d="M127.3,124.2c-0.3,0.1-0.6,0.6-0.8,1c-0.6,0.9-2.6,0.7-2.6,1.7c0,1.9-2,2.2-2.4,3.5
			c-0.3,1-0.8,1.8-0.9,3c7.4,0,15-0.4,21.6-4.2c0.8-0.5-0.9-1.4-1.7-1.7c-2.1-0.8-3.9-2-6.2-2.5
			C131.9,124.4,129.6,123.8,127.3,124.2"/>
		<path id="XMLID_3285_" class="st207" d="M114.1,153.5c1.4,0.6,2.9,0.3,4.4,0.1c3.9-0.6,7.7-1.3,11.1-3.3c-1.5-1.5-3.6-2.3-5.6-3.2
			c-2.2-1.1-4.5-1.9-6.9-2.3C116,147.6,114.9,150.5,114.1,153.5"/>
		<path id="XMLID_3284_" class="st207" d="M112.7,155.2c-0.9,0.5-1.8,1.7-1.1,2.3c3.3,2.7,7.7,2.7,11.7,3c6.9,0.5,14.7-0.1,19.6-5.2
			c0.3-0.3-1.1-1.2-2.1-1.5c-1.2-0.4-2.5-0.9-3.7-1.1c-1.8-0.3-3.5-1.3-4.8-0.7c-0.4,0.2-0.4,0.6-0.5,0.8c-0.4,0.2-1.7,0.2-2,0.4
			c-0.7,0.5-0.6,1.4-0.8,1.4c-1.7,0.4-3.7-0.6-5.3,0.1c-0.4,0.2-0.4,1.4-0.9,1.4c-1.1,0.1-2.4-0.6-3.5-0.2c-0.2,0.1-0.8,0.1-1.2,0.4
			c-0.6-0.3-0.9-0.4-1.7-0.6c-0.6-0.1-1.1,0.3-1.8,0.1C114.1,155.7,113.4,154.8,112.7,155.2"/>
		<path id="XMLID_3283_" class="st207" d="M155.8,147.5c2-1,4.3-1.1,5.8-3.1c-2.4-1.4-5-2-7.6-2.8c-1.6-0.5-3.2-0.6-4.9-0.8
			c-1.9-0.2-3.9-0.3-5.8-0.2c-0.7,0-1.5,0.1-2,0.4c-0.3,0.2-0.7,0.8-1.1,1.1c-0.6,0.4-1.2,0.2-1.6,0.6c-0.2,0.2,0,0.9-0.1,1.1
			c-0.2,0.3-0.7,0.4-1,0.5c-0.3,0.2-1-0.1-1.4,0.1c-0.5,0.2-0.5,0.7-0.8,0.8c-1.2,0.6-2.9-0.1-3.7-0.1c-0.4,0-0.3,0.7-0.2,0.8
			c0.5,0.5,2,0.7,2,1.5c0,0.2-0.4,0.8-0.7,0.7c0.4,1,2.8,1.5,4.5,2c4.5,1.1,9.2,0.1,13.7-1.2C152.5,148.4,154.2,148.3,155.8,147.5"
			/>
		<path id="XMLID_3282_" class="st207" d="M167,134.8c0.8-0.5,1.8-0.5,2.3-1.3c0.4-0.6-0.4-0.9-0.9-1c-3.5-1.1-7-2.3-10.6-2.6
			c-3.7-0.3-7.2,0.3-10.9,0.7c-1.4,0.1-2.9,0.2-4.1,0.7c-0.5,0.2-0.6,1.3-1.2,1.4c-1.2,0.2-2.4,0.3-3.7,0.4c-0.4,0-0.3,0.7-0.2,0.8
			c0.8,0.6,1.1,1,1.4,2c0,0.1,0.9,0,1,0.2c0.8,0.7,1.4,1.7,2.4,1.9c4.9,1.2,9.6,1.5,14.6,0.3c0.5-0.1,0.9-0.6,1.4-0.6
			c1.7-0.2,3.6-0.3,4.9-1.6C164.4,135.2,165.9,135.5,167,134.8"/>
		<path id="XMLID_3281_" class="st207" d="M164,118.1c5.4-0.6,10.1-1.4,14.8-4.3c0.3-0.2,0.1-1.1-0.2-1.1c-1.1-0.2-2.3-0.6-3.5,0.5
			c-0.4,0.4-1.2-0.4-1.7-0.1c-0.5,0.3-0.9,1-1.3,1.2c-1.2,0.5-2.3-0.7-3.6-0.5c-0.4,0-0.3,0.9-0.7,1c-1.1,0.3-2.1-0.9-2.7-0.5
			c-0.9,0.6-1.7,1.4-2.9,0.9c-1.1-0.5-2.6-1.5-3.3-0.9c-1.3,1.1-2.9-0.5-4.1-0.1c-1,0.4-3.6,1-1.8,2
			C156.2,117.9,161.4,118.4,164,118.1"/>
		<path id="XMLID_3280_" class="st207" d="M180.3,105.8c-6.5,0.2-12.9,0.2-19.4-0.2c-5.3-0.4-10.6-0.8-16-0.6
			c-6.8,0.3-13.1,2.4-19.2,5.8c-8.5,4.8-14.7,13.2-15.2,23c-0.2,4.2,0.6,8-0.2,12.8c-0.8,4.8-3.1,9.4-5.3,13.5
			c5-2.8,8.5-8.9,9.1-15.9c0.4-5.2,0.3-10.5,2.4-15.2c2.5-5.6,6.3-10.2,11.7-13.6c5.1-3.2,10.5-5,16.2-5c15.6-0.1,31.1,0.5,46.7-0.3
			c8.8-0.5,17.3-2.9,25.2-6.9c5.4-2.8,10.7-6.1,14-11.6c0.3-0.6,1.6-2.8,1.8-3.3c0.2-0.6-0.1-0.6-0.3-0.1c-0.3,0.5-1.6,2.1-2,2.6
			c-5.3,5.9-12,10.1-20,12c-9.1,2.2-17.9,2.7-27,3C182.1,105.8,181,105.8,180.3,105.8"/>
		<path id="XMLID_3279_" class="st207" d="M114.3,178.4l-7.8-5.5l-1,1c-0.7,0.7-1.4,1.2-2.1,1.8l8.5,5.5
			C112.9,180,113.7,179.1,114.3,178.4"/>
		<path id="XMLID_3278_" class="st207" d="M103.2,186.6c2.8-1.1,5.3-2.6,7.5-4.5l-8.2-5.3L103.2,186.6"/>
		<path id="XMLID_3277_" class="st207" d="M101.8,167.9l0.5,6.3c1.1-0.8,1.7-1.4,2.5-2.5C103.8,170.8,102.7,169.1,101.8,167.9"/>
		<path id="XMLID_3276_" class="st207" d="M101.7,155.9c0.5,0.8,1.1,1.3,1.4,2.3l1-2.3L101.7,155.9"/>
		<path id="XMLID_3275_" class="st207" d="M105.6,152.6l-1.3-1.3c-1.3-1.3-2.8-2.3-4.3-3l-0.4,0.4l0.6,5.5c0.3,0.3,0.6,0.6,0.9,0.9
			l3.5-0.3L105.6,152.6"/>
		<path id="XMLID_3274_" class="st207" d="M87.6,148.6l4.6,3.3c0.4-0.1,0.8-0.1,1.2-0.1l4.5-3.8l-0.1-0.5c-1.3-0.4-2.7-0.6-4.2-0.6
			c-2.1,0-4.2,0.4-6,1.3V148.6"/>
		<path id="XMLID_3273_" class="st207" d="M97.6,145.6l-1.1-9.9c-0.9-0.1-1.9-0.2-2.9-0.2c-2,0-4,0.2-5.9,0.7l-0.1,10.1
			c1.9-0.7,3.9-1.1,6-1.1C95,145.1,96.3,145.3,97.6,145.6"/>
		<path id="XMLID_3272_" class="st207" d="M93.6,176.9c2.4,0,4.6-0.6,6.6-1.6l-5.1-3.3l-4,4.7C91.9,176.9,92.8,176.9,93.6,176.9"/>
		<path id="XMLID_3271_" class="st207" d="M99.1,161.9c0-3-2.4-5.5-5.5-5.5c-3,0-5.5,2.4-5.5,5.5c0,3,2.4,5.5,5.5,5.5
			C96.6,167.4,99.1,164.9,99.1,161.9"/>
		<path id="XMLID_3270_" class="st207" d="M100.4,169.5c-1,0.8-2.1,1.5-3.3,1.9l3.6,2.3L100.4,169.5"/>
		<path id="XMLID_3269_" class="st207" d="M107.7,139.5c-2.9-1.8-6.1-3.1-9.6-3.7l1.1,10.2c0.2,0.1,0.4,0.1,0.6,0.2L107.7,139.5"/>
		<path id="XMLID_3268_" class="st207" d="M95.6,152c1,0.2,1.9,0.5,2.8,1l-0.3-3.1L95.6,152"/>
		<path id="XMLID_3267_" class="st207" d="M87.5,153.8c0.8-0.6,1.7-1.1,2.6-1.4l-2.6-1.9L87.5,153.8"/>
		<path id="XMLID_3266_" class="st207" d="M83,172.5c1.6,1.6,3.6,2.8,5.7,3.6l-0.9-5.9l-0.2-0.1l-6.3,0.4
			C81.8,171.2,82.4,171.9,83,172.5"/>
		<path id="XMLID_3265_" class="st207" d="M86,168.6c-0.7-0.8-1.3-1.8-1.8-2.8l-2.1,3.1L86,168.6"/>
		<path id="XMLID_3264_" class="st207" d="M83.5,161.3c0.1-1.2,0.4-2.3,0.8-3.4l-3.9,0.7L83.5,161.3"/>
		<path id="XMLID_3263_" class="st207" d="M83,151.3c-1.7,1.7-2.9,3.7-3.7,6l6-1.1c0.2-0.3,0.4-0.5,0.6-0.8l0-5.9l-0.3-0.2
			C84.7,149.7,83.8,150.4,83,151.3"/>
		<path id="XMLID_3262_" class="st207" d="M78.6,161.9c0,2.5,0.6,4.8,1.7,6.9l3.4-5c0-0.1,0-0.2-0.1-0.4l-4.8-4.2
			C78.7,160.1,78.6,161,78.6,161.9"/>
		<path id="XMLID_3261_" class="st207" d="M85.6,147.1c0.1-0.1,0.3-0.1,0.4-0.2l0.1-10.4c-3.2,1-6.2,2.5-8.8,4.6L85.6,147.1"/>
		<path id="XMLID_3260_" class="st207" d="M70.2,149.6l7.6,6.6c1.2-3.4,3.4-6.3,6.3-8.2l-8.1-5.9C73.7,144.3,71.7,146.8,70.2,149.6"
			/>
		<path id="XMLID_3259_" class="st207" d="M67.3,159.5l9.7-1.9l-7.5-6.5C68.3,153.7,67.6,156.6,67.3,159.5"/>
		<path id="XMLID_3258_" class="st207" d="M67.2,161.9c0,2.8,0.4,5.4,1.2,7.9l10.1-0.7c-1.1-2.2-1.6-4.7-1.6-7.2
			c0-0.9,0.1-1.8,0.2-2.6l-9.8,1.9C67.2,161.4,67.2,161.7,67.2,161.9"/>
		<path id="XMLID_3257_" class="st207" d="M79,170.7l-10.1,0.7c1.1,2.8,2.6,5.4,4.5,7.6L79,170.7"/>
		<path id="XMLID_3256_" class="st207" d="M88.1,177.7c-2.3-0.8-4.5-2.1-6.3-4c-0.6-0.6-1.1-1.2-1.6-1.9l-5.6,8.3
			c2,2.1,4.3,3.8,6.9,5.2L88.1,177.7"/>
		<path id="XMLID_3255_" class="st207" d="M89.1,179l-6.2,7.2c2.4,1.1,4.9,1.8,7.6,2.1L89.1,179"/>
		<path id="XMLID_3254_" class="st207" d="M89.5,171.2l0.6,4.1l2.8-3.3C91.8,172,90.6,171.7,89.5,171.2"/>
		<path id="XMLID_3253_" class="st207" d="M93.6,188.4c2.8,0,5.5-0.4,8-1.2l-0.7-10.1c-2.2,1.1-4.7,1.7-7.3,1.7c-1,0-2-0.1-3-0.3
			l1.5,9.9C92.6,188.4,93.1,188.4,93.6,188.4"/>
		<path id="XMLID_3252_" class="st207" d="M108.4,141.1l-7,5.9c1.5,0.8,2.9,1.8,4.1,3l0.8,0.8C107.6,147.8,108.4,144.1,108.4,141.1"
			/>
		<path id="XMLID_3251_" class="st207" d="M93.6,129.3c-18.1,0-32.7,14.7-32.7,32.7c0,18.1,14.7,32.7,32.7,32.7
			c11.3,0,21.3-5.7,27.1-14.4l-3.8-1.4c-5.2,7.2-13.7,11.9-23.3,11.9c-15.9,0-28.8-12.9-28.8-28.8c0-15.9,12.9-28.8,28.8-28.8
			c5.3,0,10.3,1.4,14.6,3.9v-4.5C103.6,130.5,98.4,129.3,93.6,129.3"/>
		<path id="XMLID_3250_" class="st207" d="M123.7,176.9c-0.3-0.5-1-0.2-1.6-0.6c-0.4-0.2-0.6-1-0.9-1.3c-0.3-0.2-1,0.3-1.3,0.1
			c-0.5-0.3-0.9-0.9-1.3-1.4c-0.4-0.5-0.8-1-1.3-1.5c-0.4-0.5-0.8-0.9-1.3-1.2c-0.3-0.2-0.8,0.2-1.1,0.1c-0.6-0.2-0.9-1.2-1.4-1.6
			c-0.3-0.2-0.7-0.3-1-0.5c-0.2-0.2-0.3-0.7-0.6-1c-0.3-0.4-0.9-0.5-1.2-0.8c-0.5-0.4-0.9-1.5-1.3-2.1c-0.4-0.6-1-0.6-1.3-1.2
			c-0.5-0.6-0.8-1.7-1.3-2.4c-0.6-0.7-2,0.4-2.5,1.3c-0.7,1.4-0.7,3.3,0.4,4.5c5.4,6.1,12.5,11.1,20.6,12.5
			C124.7,179.1,124,177.6,123.7,176.9"/>
		<path id="XMLID_3249_" class="st207" d="M143.6,98.6c14.9-0.6,40.8,0.9,54.3-2.9c12.1-3.4,20.8-9.5,25.9-17.9
			c0.8-1.3,0.4-1.6-0.9-0.3c-8.2,7.9-15.7,10.7-26.4,13.6c-12.4,3.4-34.8,2.5-53,2.9c-17.8,0.4-33.3,7.4-38,21.2l3.9,1.5
			C114.7,105.6,127,99.3,143.6,98.6"/>
		<path id="XMLID_3248_" class="st207" d="M52.9,144.7c1,0.9,0.2,2.4,1,3.4c1-6.6,6-11.5,10.5-16.1c11.9-12.2,30.4-14.7,46.1-8.7
			c0.3,0.1,1.5-2.3,1-2.5c-9.3-4.1-18.2-4.5-27.7-2.4c-7.9,1.8-14.6,5.4-20.6,10.8c-4.6,4.2-8.4,8.8-11.3,14.4
			c-0.2,0.4-0.6,1.1-0.2,1.5C52,145.4,52.5,144.3,52.9,144.7"/>
		<path id="XMLID_3247_" class="st207" d="M130,182.1c0.1,0.1-0.5,0.2-0.7,0.3c-0.9,0.1-1.8,0.1-2.8,0c-1.7-0.2-3.5-0.8-4.9-1.1
			c-9.8,14.8-30.6,20-46.3,10.2c-5.6-3.5-9.9-8.1-12.7-13.9c-1.6-3.3-2.4-6.6-3.2-10.2c-0.5-2.4-0.1-4.8-0.6-7.2
			c-1,1.3-0.4,3.4-2.1,4.1c-0.5,0.2-1,0.1-1.4-0.4c-0.3-0.5-0.2-1.4-0.7-1.5c-0.9-0.2-0.9,1.2-2.1,0.9c-0.1,0-0.3,0.3-0.5,0.4
			c-0.6,0.2-1.1-0.9-1.5-0.4c-0.3,0.4-0.5,0.7-1,0.6c-0.4-0.1-0.7-0.9-0.7-0.9c-0.3,21.3,16.7,40.6,38,43.8c3.1,0.5,6.1,0.7,9.2,0.4
			c6.7-0.6,12.8-2.4,18.7-5.8c9.3-5.4,15.7-13.8,20.4-23.1c-3.5-1.2-7.1-2.4-10-3.5C125.7,177.7,128.6,180.1,130,182.1"/>
		<path id="XMLID_3246_" class="st207" d="M141.6,174.9c-0.8-0.2-1.5-0.7-2.3-1c-0.5-0.2-0.9,0.5-1.4,0.2c-1-0.6-1.9-1.5-2.7-2.1
			c-0.6-0.5-1.9-1.8-2.5-1.5c-0.2,0.1-0.5,1.3-1.1,0.9c-1.3-0.9-2.1-2-3.3-3c-0.5-0.5-1.1,1.1-1.7,0.8c-1.6-0.8-2.2-2.5-3.4-3.7
			c-1.4-1.4-2.8-3-4.7-3.6c-0.3-0.1-0.1,0.4-0.5,0.6c-1.5,1.2-3.1-0.8-4.6-1.5c-1.3-0.6-2.5-1.6-4-1.7c-0.3,0-0.3,0.5-0.2,0.6
			c8.5,10.1,20.3,17.6,33.3,17.3c0.3,0,0.9,0,0.4-0.6C142.6,176.1,142.1,175,141.6,174.9"/>
		<path id="XMLID_3245_" class="st207" d="M153.6,167.5c-0.4-0.1-1,0.5-1.3,0.4c-1-0.2-1.8-1.1-3-1.7c-0.5-0.3-0.8,0.9-1.2,0.9
			c-2-0.1-4.9-2.3-6.7-3.3c-0.3-0.2-2.3,0.2-2.6,0.3c-1.2,0.2-2.6-1.8-3.6-2.2c-0.7-0.3-1.6-0.7-2.3-0.2c-0.9,0.7-2,0.3-2.9,0.3
			c-0.4,0-0.7,0.8-1.2,0.9c-1.3,0.4-2.8-0.5-4.1,0.1c0,0-0.2,0.3-0.2,0.4c0.1,0.8,1,1,1.6,1.3c2.2,1.4,4.5,2.3,6.9,3.3
			c3.6,1.4,7.2,2.5,11.1,2.9c4.4,0.4,10.2,1,13.8-0.1c0.2-0.1-0.1-0.7-0.6-1.2c-0.6-0.4-1.4-0.6-1.7-0.8
			C154.8,168.2,154.4,167.7,153.6,167.5"/>
		<path id="XMLID_3244_" class="st207" d="M172.4,158.9c-1,0.3-1.7-0.4-2.6-0.1c-0.2,0.1-0.3,0.4-0.5,0.4c-1.5,0-2.6-1.6-4.2-1.5
			c-0.4,0-0.4,0.7-0.7,0.8c-1,0.2-1.8-1-2.7-0.5c-0.6,0.3-1.1,0.3-1.7,0.1c-0.8-0.2-1.4-0.9-2.1-1c-0.7-0.1-1.3,0.5-2.1,0.3
			c-1.9-0.5-3.3-2.3-5.3-1.9c-1,0.2-1.8-0.5-2.5-0.1c-0.7,0.4-1,1-1.7,1.4c-0.5,0.3-1.7,0.3-2.3,0.6c-0.4,0.2-0.5,0.9-1,1.1
			c-0.9,0.4-1.9,0.1-2.7,0.6c-0.1,0.1-0.1,0.5,0.2,0.6c5.8,1.6,11.4,3.4,17.4,3.4c5.8,0,11.6,0,17.4-1.7c0.5-0.1,0.6-0.4,0.2-0.8
			C174.8,159.5,173.7,158.6,172.4,158.9"/>
		<path id="XMLID_3243_" class="st207" d="M190.1,146c-1.3,0.6-2.8-0.1-4.2,0.3c-0.4,0.1-0.1,0.6-0.5,0.7c-1.4,0.2-2.9-0.2-4.2,0.4
			c-1,0.4-2.3-0.1-3.4,0c-0.4,0-0.4,0.6-0.5,1.1c-0.1,0.4-0.7,0.6-0.8,0.6c-1.4-0.4-2.8-0.6-4.2-0.8c-3.6-0.5-7.2-1.7-10.6-0.7
			c-1.1,0.3-2.6,0.6-3.4,1.5c-0.3,0.3-0.7,1-1.1,1.2c-2.1,0.7-4.3,0.9-6.4,1.6c-0.6,0.2-1.8,1.1-1.4,1.2c8.7,2.2,17.1,2.4,26.1,0.8
			c6.6-1.2,12.6-3.1,18.3-6.3C193.3,146.9,191.1,145.5,190.1,146"/>
		<path id="XMLID_3242_" class="st207" d="M204.8,131.3c-0.8,0.3-1.9-0.5-2.6,0c-1,0.8-2.3,0.6-3.4,0.5c-0.5-0.1-1.3-0.2-1.8,0.1
			c-0.3,0.2,0.1,0.6,0.4,0.8c-2.7,0.9-5.7,0.1-8.3,1.1c-0.2,0.1-0.3,1-0.8,1.1c-2.4,0.5-4.6-0.4-6.9,0c-0.6,0.1-0.3,1.4-1,1.4
			c-2.1,0.1-4.1-0.1-6.2-0.2c-2.5-0.1-4.8,0.8-7.2,1.5c-0.7,0.2-0.9,1.3-1.7,1.4c-2,0.3-4.1,0-6,0.9c-0.1,0.1-0.1,0.7,0,0.8
			c2.3,1.3,4.9,2.2,6.4,4.2c15.8-0.2,32.9-2.2,46-13c0.3-0.2-1.3-0.5-2.1-0.7c-0.8-0.2-1.5-0.2-2.5-0.5
			C206.5,130.5,205.6,131.1,204.8,131.3"/>
		<path id="XMLID_3241_" class="st207" d="M221.2,116.5c-0.2-0.1-2.6-0.5-3.9-0.2c-0.3,0.1-0.4,0.5-0.7,0.6
			c-1.7,0.3-2.9,1.1-4.6,1.1c-0.4,0-1.1,0.3-1.6,0.5c-0.6,0.3-1.5-0.4-2,0.1c-0.3,0.4,0.2,1.2-0.3,1.5c-1.5,0.7-3.3-0.6-4.8,0.4
			c-0.4,0.3,0.5,1.2-0.1,1.4c-2.1,0.7-5.8-2.6-7.2,0.8c-0.2,0.5-0.9,0.3-1.3,0.2c-0.4-0.1-1-0.3-1.2-0.1c-1.3,1.1-2.1,1.5-3.9,1
			c-0.5-0.1-0.5,1.2-1.4,1c-1-0.2-2-1-3-0.6c-0.4,0.2-0.1,1.3-0.8,1.4c-2.6,0.2-5.2-0.1-7.6,0.9c-0.6,0.3-0.6,1.3-1.5,1.4
			c-1.8,0.3-3.6,0.1-5.3,0.6c-0.3,0.1-0.2,0.9,0.2,0.9c1.1,0.2,2.3,0,3.1,0.5c1,0.6,1.7,2.3,2.7,2.4c7.9,0.3,15.7-0.8,23.3-3.4
			c8-2.6,15.3-6.3,21.8-11.9C221.6,116.7,221.4,116.6,221.2,116.5"/>
	</g>
</g>
<g id="Watermark">
</g>
</svg>
