<?xml version="1.0" encoding="utf-8"?>
<!-- Generator: Adobe Illustrator 19.2.1, SVG Export Plug-In . SVG Version: 6.00 Build 0)  -->
<svg version="1.1" xmlns="http://www.w3.org/2000/svg" xmlns:xlink="http://www.w3.org/1999/xlink" x="0px" y="0px"
	 viewBox="0 0 288 288" style="enable-background:new 0 0 288 288;" xml:space="preserve">
<style type="text/css">
	.st0{display:none;}
	.st1{display:inline;}
	.st2{fill:#EF3E42;}
	.st3{fill:#004B8D;}
	.st4{fill:#D7CA9E;}
	.st5{fill:#A03123;}
	.st6{fill-rule:evenodd;clip-rule:evenodd;fill:#FFFFFF;}
	.st7{fill-rule:evenodd;clip-rule:evenodd;fill:#1E3B6E;}
	.st8{fill-rule:evenodd;clip-rule:evenodd;fill:#BE2132;}
	.st9{fill-rule:evenodd;clip-rule:evenodd;fill:#E19D26;}
	.st10{fill:#DC4329;}
	.st11{fill:#DC4A26;}
	.st12{fill:#231F20;}
	.st13{fill:#FFFFFF;}
	.st14{fill:#050404;}
	.st15{fill:#263C82;}
	.st16{fill:#CC3533;}
	.st17{fill:#E82F4D;}
	.st18{fill:#010101;}
	.st19{fill:#C1C8CF;}
	.st20{fill:#365A8B;}
	.st21{fill:#29417C;}
	.st22{fill:#F47920;}
	.st23{fill:#FAA61A;}
	.st24{fill:#CCCCCC;}
	.st25{fill:#002B54;}
	.st26{fill:#ED1C24;}
	.st27{opacity:0.3;fill:#002B54;}
	.st28{fill:#020303;}
	.st29{fill:#1B9ED8;}
	.st30{fill:#189DD8;}
	.st31{fill:#43748F;}
	.st32{fill:#EB3947;}
	.st33{fill:#EB3A47;}
	.st34{fill:#44758F;}
	.st35{fill:#1F9ED8;}
	.st36{fill:#FCFDFD;}
	.st37{fill:#020202;}
	.st38{fill:#E83543;}
	.st39{fill-rule:evenodd;clip-rule:evenodd;fill:#C1A677;}
	.st40{fill-rule:evenodd;clip-rule:evenodd;fill:#212F55;}
	.st41{fill-rule:evenodd;clip-rule:evenodd;fill:#AB285C;}
	.st42{fill-rule:evenodd;clip-rule:evenodd;fill:#014A67;}
	.st43{fill:#F47A39;}
	.st44{fill-rule:evenodd;clip-rule:evenodd;fill:#242052;}
	.st45{fill:#123B35;}
	.st46{display:inline;fill:#DB2732;}
	.st47{display:inline;fill:#1D3665;}
	.st48{fill-rule:evenodd;clip-rule:evenodd;}
	.st49{fill:#F58220;}
	.st50{fill:#1A3562;}
	.st51{fill:#036B66;}
	.st52{fill:#C4CDD3;}
	.st53{fill:#EB1F4E;}
	.st54{display:inline;fill:#C4203B;}
	.st55{display:inline;fill:#164883;}
	.st56{display:inline;fill:#90BCE5;}
	.st57{display:inline;fill:#1B2F5B;}
	.st58{fill:#144983;}
	.st59{fill:#CD1F43;}
	.st60{fill:#1A459D;}
	.st61{fill:#0A2042;}
	.st62{fill:#D92E27;}
	.st63{display:inline;fill:#CF1F45;}
	.st64{fill-rule:evenodd;clip-rule:evenodd;fill:#D7CA9E;}
	.st65{fill:#1E3B6E;}
	.st66{fill:#39B54A;}
	.st67{fill:#E19D26;}
	.st68{fill:#BE2132;}
	.st69{fill:#EF5426;}
	.st70{display:inline;fill:#FFFFFF;}
	.st71{display:inline;fill:#E31837;}
	.st72{display:inline;fill:#E21D37;}
	.st73{display:inline;fill:#005596;}
	.st74{display:inline;fill:#CC3533;}
	.st75{display:inline;fill:#E82F4D;}
	.st76{display:inline;fill:#010101;}
	.st77{display:inline;fill:#2A398B;}
	.st78{fill:#999999;}
	.st79{display:inline;fill:#999999;}
	.st80{display:inline;fill:#041E41;}
	.st81{display:inline;fill:#D4451D;}
	.st82{display:inline;fill:#EA7200;}
	.st83{display:inline;fill:#BDBBBB;}
	.st84{fill:#041E41;}
	.st85{fill:none;stroke:#000000;stroke-width:0.34;}
	.st86{fill:#D4451D;}
	.st87{fill:#EA7200;}
	.st88{fill:#BDBBBB;}
	.st89{fill:none;stroke:#EA7200;stroke-width:0;stroke-linecap:round;stroke-linejoin:round;}
	.st90{fill:#9C9FA1;}
	.st91{fill-rule:evenodd;clip-rule:evenodd;fill:#333290;}
	.st92{fill:#005B9B;}
	.st93{fill:#EF4043;}
	.st94{fill-rule:evenodd;clip-rule:evenodd;fill:#09A2DD;}
	.st95{fill-rule:evenodd;clip-rule:evenodd;fill:#43758E;}
	.st96{fill-rule:evenodd;clip-rule:evenodd;fill:#FCEE1E;}
	.st97{fill-rule:evenodd;clip-rule:evenodd;fill:#EE3441;}
	.st98{fill:#B89760;}
	.st99{fill:#D52D47;}
	.st100{fill-rule:evenodd;clip-rule:evenodd;fill:#0B2242;}
	.st101{fill:#F37938;}
	.st102{fill:#164883;}
	.st103{fill:#8E6D2A;}
	.st104{fill-rule:evenodd;clip-rule:evenodd;fill:#1A314F;}
	.st105{fill-rule:evenodd;clip-rule:evenodd;fill:#8F3326;}
	.st106{fill-rule:evenodd;clip-rule:evenodd;fill:#B68E64;}
	.st107{fill:#03493B;}
	.st108{fill:#FCC158;}
	.st109{fill:#BB544F;}
	.st110{fill:#D0B04A;}
	.st111{fill-rule:evenodd;clip-rule:evenodd;fill:#B6A269;}
	.st112{fill-rule:evenodd;clip-rule:evenodd;fill:#001F5B;}
	.st113{fill:#1D3665;}
	.st114{fill:#FFFFFF;stroke:#FFFFFF;stroke-width:0.16;}
	.st115{fill:#004666;}
	.st116{fill:none;stroke:#037062;stroke-width:2.8199;}
	.st117{fill:#BCCBD2;}
	.st118{fill:#037062;}
	.st119{fill:#E63248;}
	.st120{fill:none;stroke:#E63248;stroke-width:0.2826;}
	.st121{fill:none;stroke:#037062;stroke-width:1.0988;}
	.st122{fill:none;stroke:#BCCBD2;stroke-width:4.9365;}
	.st123{fill:#FCEE21;}
	.st124{fill:#FCEE23;}
	.st125{fill:#C4203B;}
	.st126{fill:#193661;}
	.st127{fill:#164884;}
	.st128{fill:#CF1F44;}
	.st129{fill:#0A2042;stroke:#010101;stroke-width:0.2131;}
	.st130{fill:#CF1F45;}
	.st131{fill:#1E3160;}
	.st132{fill:#BA202E;}
	.st133{fill:#212759;}
	.st134{fill:#BA1F31;}
	.st135{fill:#7BBCE8;}
	.st136{fill:#FED208;}
	.st137{fill:#6DB3E3;}
	.st138{fill:#FFCE04;}
	.st139{fill:#1B2F5B;}
	.st140{fill:#90BCE5;}
	.st141{fill:#D8782C;}
	.st142{fill:#C49C6F;}
	.st143{fill:#F04B23;}
	.st144{display:inline;fill-rule:evenodd;clip-rule:evenodd;fill:#F58220;}
	.st145{fill:#094F91;}
	.st146{fill:#DB2732;}
	.st147{fill:none;}
	.st148{fill:#00174A;}
	.st149{fill:none;stroke:#FFFFFF;stroke-width:3;stroke-miterlimit:10;}
	.st150{fill:none;stroke:#000000;stroke-width:0.1055;stroke-linecap:round;stroke-linejoin:round;}
	.st151{fill:#25358E;}
	.st152{fill:#ED1C2E;}
	.st153{fill:#FFFFFF;stroke:#000000;stroke-width:0.3293;stroke-linecap:round;stroke-linejoin:round;}
	.st154{display:inline;fill-rule:evenodd;clip-rule:evenodd;fill:#00174A;}
	.st155{fill:#0D2240;}
	.st156{display:inline;fill:#8EC641;}
	.st157{fill:#182D56;}
	.st158{fill:#BE323A;}
	.st159{fill:#C62034;}
	.st160{fill:#0B1437;}
	.st161{fill:#EC2135;}
	.st162{fill:#8EC641;}
	.st163{fill-rule:evenodd;clip-rule:evenodd;fill:#332312;}
	.st164{fill:#E4E5E6;}
	.st165{clip-path:url(#XMLID_4225_);}
	.st166{clip-path:url(#XMLID_4226_);fill:url(#XMLID_4227_);}
	.st167{clip-path:url(#XMLID_4228_);}
	.st168{clip-path:url(#XMLID_4229_);fill:url(#XMLID_4230_);}
	.st169{clip-path:url(#XMLID_4231_);}
	.st170{clip-path:url(#XMLID_4232_);fill:url(#XMLID_4233_);}
	.st171{clip-path:url(#XMLID_4234_);}
	.st172{clip-path:url(#XMLID_4235_);fill:url(#XMLID_4236_);}
	.st173{clip-path:url(#XMLID_4237_);}
	.st174{clip-path:url(#XMLID_4238_);fill:url(#XMLID_4239_);}
	.st175{clip-path:url(#XMLID_4240_);}
	.st176{clip-path:url(#XMLID_4241_);fill:url(#XMLID_4242_);}
	.st177{clip-path:url(#XMLID_4243_);}
	.st178{clip-path:url(#XMLID_4244_);fill:url(#XMLID_4245_);}
	.st179{clip-path:url(#XMLID_4246_);}
	.st180{clip-path:url(#XMLID_4247_);fill:url(#XMLID_4248_);}
	.st181{fill:#A4A9AD;}
	.st182{fill:#F05123;}
	.st183{fill:#8E744B;}
	.st184{fill:#EEE0C6;}
	.st185{fill:#8F182B;}
	.st186{fill:#FFC526;}
	.st187{fill:#B0B8BC;}
	.st188{fill:#FCBB30;}
	.st189{fill:#E21D38;}
	.st190{fill:#FFC759;}
	.st191{fill:#E03B3F;}
	.st192{fill:#8E8F92;}
	.st193{fill:#E13B3F;}
	.st194{fill:#FDDF0A;}
	.st195{fill:#E7AA23;}
	.st196{fill:#F37321;}
	.st197{fill:#008056;}
	.st198{fill:#E2293A;}
	.st199{fill:#1F438B;}
	.st200{fill:#005588;}
	.st201{fill:#A7B2B8;}
	.st202{fill:#8C2A43;}
	.st203{fill:#1C2D5B;}
	.st204{fill:#0C724D;}
	.st205{fill:#232020;}
	.st206{fill:#A8ABAD;}
	.st207{fill:#EB2627;}
	.st208{fill:#E56C25;}
	.st209{fill:#203C73;}
	.st210{fill:#B99758;}
	.st211{fill:#C8202F;}
	.st212{fill:#EEE3C6;}
	.st213{fill:#045937;}
	.st214{fill:#C02C38;}
	.st215{fill:#EEB41E;}
	.st216{fill:#F37E2F;}
	.st217{fill:#01549C;}
	.st218{fill:#0862AB;}
	.st219{fill:#E43B40;}
	.st220{fill:#DF1E38;}
	.st221{fill:#CD9C2B;}
	.st222{fill:#F47A3E;}
	.st223{fill:#FBB516;}
	.st224{fill:#E97424;}
	.st225{fill:#056D75;}
	.st226{fill:#142048;}
	.st227{fill:#FFC429;}
	.st228{fill:#114B9D;}
	.st229{fill:#213065;}
	.st230{fill:#1D2859;}
	.st231{fill:#A8AAAD;}
	.st232{fill:#1D427C;}
	.st233{fill:#153055;}
	.st234{fill:#AFB0B3;}
	.st235{fill:#20396F;}
	.st236{fill:#BE3138;}
	.st237{fill:#B4975A;}
	.st238{fill:#344042;}
	.st239{fill:#14244C;}
	.st240{fill:#D0202D;}
	.st241{fill:#A9A9AD;}
	.st242{fill:#1D3261;}
	.st243{fill:#811423;}
	.st244{fill:#6F6E76;}
	.st245{fill:#C62031;}
</style>
<g id="Layer_5" class="st0">
</g>
<g id="Layer_3">
</g>
<g id="Layer_4">
	<g id="XMLID_3208_">
		<path id="XMLID_3236_" class="st13" d="M140.4,58.9c-45.1,0-81.8,36.7-81.8,81.8c0,45.1,36.7,81.8,81.8,81.8
			c45.1,0,81.8-36.7,81.8-81.8C222.2,95.6,185.5,58.9,140.4,58.9L140.4,58.9z M153.6,91.3c0,6.3-5.2,12.5-13.2,12.5
			c-8,0-13.2-6.1-13.2-12.5c0-9.2,8-14.2,13.2-27.1C145.6,77.1,153.6,82.1,153.6,91.3L153.6,91.3z M140.4,218.7
			c-43.1,0-78-34.9-78-78c0-41.5,32.5-75.5,73.4-77.9l-9,14.3c-3.9,6.1-4.5,11.2-4.5,14c0,10.7,9.5,17.8,18.1,17.8
			c8.6,0,18.1-7.1,18.1-17.8c0-2.8-0.7-7.9-4.5-14l-9-14.3c41,2.4,73.4,36.3,73.4,77.9C218.4,183.8,183.5,218.7,140.4,218.7
			L140.4,218.7z"/>
		<path id="XMLID_3228_" class="st13" d="M158.6,72.2c3,4.2,6.9,10.2,6.9,18.6c0,13.1-11.1,25.3-25.1,25.3
			c-14.1,0-25.1-12.2-25.1-25.3c0-8.4,3.9-14.4,6.9-18.6c-30.3,8.1-52.6,35.7-52.6,68.5c0,39.2,31.7,70.9,70.9,70.9
			c39.2,0,70.9-31.7,70.9-70.9C211.3,107.9,189,80.2,158.6,72.2L158.6,72.2z M95.5,188.5c-7.8-9-12.9-19.9-13.8-33.4v-26.4
			c0-3.8,1.5-8.9,7-8.9c4.3,0,5.4,0,5.4,0c2.7,0,7.1,0.8,7.1,6.7c0,5.9,0,58.9,0,58.9C101.1,190.2,98,191.4,95.5,188.5L95.5,188.5z
			 M109.4,200.9c-4.3-2.5-8.2-5.6-11.6-9.3c0,0,1.3,0.5,2.7-0.4c1.5-0.9,2-3,2-4.1c0-1.2,0-25.5,0-26.9c1.5,0,2.6-1.6,2.6-3.1
			c0,0,0-21.9,0-23.6c0-2.2-1.3-3.1-2.6-3.1c0-0.2,0-10.5,0-10.5h11.1c0,0,0,9.7,0,10.5c-1.2,0-2.6,1.3-2.6,3.1c0,1,0,22.6,0,23.5
			c0,1.7,1,3.1,2.1,3.1c0,0.7,0,37,0,37.8C113.2,200.4,111.2,201.9,109.4,200.9L109.4,200.9z M128.3,208.1c-6.2-1-11.1-3-16.4-5.9
			c0,0,2.6-0.5,2.6-3.2c0-1.2,0-37.5,0-38.9c1.5,0,3-1.4,3-3.1c0,0,0-21.9,0-23.5c0-2.1-1.3-3.1-2.5-3.1c0-0.2,0-10.5,0-10.5h12
			c0,0,0,9.7,0,10.5c-1.3,0-3.5,1.1-3.5,3.1c0,1,0,22.3,0,23.2c0,2.1,0.1,3.5,2.3,3.5c2.1,0,2.4-1,2.4-3.3c0-3.4,0-7.6,0-7.6h5.1
			v54.5C133.4,206.7,131.1,208.5,128.3,208.1L128.3,208.1z M148.7,208.6c-3,0.5-5.6,0.6-8.5,0.6c-2.5,0-6.2-0.1-8.6-0.4
			c0,0,3-0.7,3-4.8c0-1.2,0-42.4,0-43.9c1.3,0,2-1.3,2-3.1c0,0,0.1-21.9,0-23.5c0-1.9-1.2-3.1-4.3-3.1c0-0.2,0-10.5,0-10.5h22
			c0,0,0,16.3,0,17.1h-5.6c0,0,0-1.9,0-3.5c0-1.5-0.3-3.3-2.2-3.3c-2.4,0-2.8,1.6-2.8,3.6c0,0.3,0,2.7,0,5.4h5.6v7.7h-5.6
			c0,4,0,9.2,0,9.6c0,2.2,0.1,3.7,2.3,3.7c2.1,0,2.4-1,2.4-3.7c0-3.4,0-7.3,0-7.3h5.8v53.3C154.3,205.9,151.9,208.1,148.7,208.6
			L148.7,208.6z M179.5,188.8c-0.1,4.5-0.4,5.8-1.4,6.6c-2.9,2.7-5.1,4-8.8,6.2c0.2-0.2,0.7-1,0.7-5.3c0,0,0-45.3,0-47.4
			c0-2-0.9-3.5-2.4-3.5c-1.9,0-2.4,1.6-2.4,3.1c0,1,0,7.4,0,8.3c0,1.9,1.8,3.2,3.3,3.2c0,0.7,0,36.5,0,37.3c0,2.8-0.7,5.2-2.6,6
			c-3.5,1.5-8.4,3.3-12.2,4.2c0,0,2.1-1.3,2-7.2c0-1.2,0-38.9,0-40.3c1.4,0,2.9-1.3,2.9-3.1c0,0,0-21.8,0-23.4
			c0-1.8-1.6-3.2-2.6-3.2c0-0.2,0-10.5,0-10.5h15.7c3.2,0.4,5.5,1.5,5.5,6.2c0,3.4,0,8.7,0,9.8c0,1.2,0.4,4.2-1.2,5.4
			c-1.5,1.3-1.2,1.2-1.2,1.2s2.2,1.1,2.2,3.7c0,2.6,0,9.5,0,10.9c0,1.7,1,3.2,2.5,3.2L179.5,188.8L179.5,188.8z M187.4,133
			c0,1.1,0,4.6,0,5.4c0,0.9,0.6,1.4,1.3,2.1c1.2,1,7.7,6.2,7.7,6.2c0.7,0.8,2.3,1.6,2.3,4.6c0,2.5,0.4,10.6-3.1,19
			c-3.5,8.3-7.5,14.8-14.7,22.8v-43.5h5.9v8.4c0.1,3.1,5,2.8,5,0.4c0-2.3,0-4.9,0-5.9c0-1,0-1.3-0.5-1.7c-0.5-0.4-8.3-6.7-8.9-7.1
			c-0.6-0.4-1-1.2-1-2.9c0-1.8,0-16.4,0-16.4c0.1-2.1,1.2-4.5,4.6-4.5h8.3c3.2,0.4,5,1.4,5,5.4c0,3.4,0,10.8,0,12h-6.9v-4.2
			C192.3,129.6,187.4,129.5,187.4,133L187.4,133z"/>
		<path id="XMLID_3227_" class="st13" d="M88.4,133.2c0,0,0,20.6,0,24.3c0,3.9,5.5,3.8,5.5-0.2V133
			C93.7,129.2,88.4,129.4,88.4,133.2L88.4,133.2z"/>
		<path id="XMLID_3226_" class="st13" d="M165.5,133c0,0,0,1.4,0,4.4c0,3.1,4.4,3,4.4-0.1c0-2.9,0.1-2.6,0-4.4
			C169.7,129.6,165.5,129.7,165.5,133L165.5,133z"/>
		<path id="XMLID_3225_" class="st208" d="M140.4,64.2c-5.2,12.9-13.2,17.8-13.2,27.1c0,6.3,5.2,12.5,13.2,12.5
			c8,0,13.2-6.1,13.2-12.5C153.6,82.1,145.6,77.1,140.4,64.2L140.4,64.2z"/>
		<path id="XMLID_3222_" class="st13" d="M140.4,56.5c-46.4,0-84.2,37.8-84.2,84.2s37.8,84.2,84.2,84.2c46.4,0,84.2-37.8,84.2-84.2
			S186.8,56.5,140.4,56.5z M140.4,222.5c-45.1,0-81.8-36.7-81.8-81.8c0-45.1,36.7-81.8,81.8-81.8c45.1,0,81.8,36.7,81.8,81.8
			C222.2,185.8,185.5,222.5,140.4,222.5z"/>
		<path id="XMLID_3219_" class="st209" d="M144.9,62.8l9,14.3c3.9,6.1,4.5,11.2,4.5,14c0,10.7-9.5,17.8-18.1,17.8
			c-8.6,0-18.1-7.1-18.1-17.8c0-2.8,0.7-7.9,4.5-14l9-14.3c-41,2.4-73.4,36.3-73.4,77.9c0,43.1,34.9,78,78,78c43.1,0,78-34.9,78-78
			C218.4,99.2,185.9,65.2,144.9,62.8L144.9,62.8z M140.4,211.6c-39.2,0-70.9-31.7-70.9-70.9c0-32.8,22.3-60.5,52.6-68.5
			c-3,4.2-6.9,10.2-6.9,18.6c0,13.1,11.1,25.3,25.1,25.3c14.1,0,25.1-12.2,25.1-25.3c0-8.4-3.9-14.4-6.9-18.6
			c30.3,8.1,52.6,35.7,52.6,68.5C211.3,179.9,179.5,211.6,140.4,211.6L140.4,211.6z"/>
		<path id="XMLID_3218_" class="st209" d="M113.2,197.9c0-0.8,0-37.1,0-37.8c-1.2,0-2.1-1.5-2.1-3.1c0-0.9,0-22.5,0-23.5
			c0-1.9,1.4-3.1,2.6-3.1c0-0.8,0-10.5,0-10.5h-11.1c0,0,0,10.3,0,10.5c1.3,0,2.6,1,2.6,3.1c0,1.6,0,23.6,0,23.6
			c0,1.4-1.1,3.1-2.6,3.1c0,1.4,0,25.7,0,26.9c0,1.2-0.5,3.2-2,4.1c-1.4,0.8-2.7,0.4-2.7,0.4c3.4,3.7,7.3,6.8,11.6,9.3
			C111.2,201.9,113.2,200.4,113.2,197.9L113.2,197.9z"/>
		<path id="XMLID_3217_" class="st209" d="M133.4,203.7v-54.5h-5.1c0,0,0,4.3,0,7.6c0,2.3-0.3,3.3-2.4,3.3c-2.2,0-2.3-1.4-2.3-3.5
			c0-0.9,0-22.2,0-23.2c0-2.1,2.2-3.1,3.5-3.1c0-0.8,0-10.5,0-10.5h-12c0,0,0,10.3,0,10.5c1.2,0,2.5,1.1,2.5,3.1
			c0,1.6,0,23.5,0,23.5c0,1.7-1.5,3.1-3,3.1c0,1.4,0,37.6,0,38.9c0,2.7-2.6,3.2-2.6,3.2c5.3,2.8,10.2,4.9,16.4,5.9
			C131.1,208.5,133.4,206.7,133.4,203.7L133.4,203.7z"/>
		<path id="XMLID_3216_" class="st209" d="M154.3,149.3h-5.8c0,0,0,3.9,0,7.3c0,2.7-0.3,3.7-2.4,3.7c-2.2,0-2.3-1.5-2.3-3.7
			c0-0.4,0-5.6,0-9.6h5.6v-7.7h-5.6c0-2.7,0-5.1,0-5.4c0-2.1,0.4-3.6,2.8-3.6c2,0,2.2,1.8,2.2,3.3c0,1.5,0,3.5,0,3.5h5.6
			c0-0.8,0-17.1,0-17.1h-22c0,0,0,10.3,0,10.5c3,0,4.3,1.3,4.3,3.1c0.1,1.6,0,23.5,0,23.5c0,1.8-0.7,3.1-2,3.1c0,1.4,0,42.6,0,43.9
			c0,4.1-3,4.8-3,4.8c2.4,0.3,6.1,0.4,8.6,0.4c2.9,0,5.5-0.1,8.5-0.6c3.2-0.5,5.6-2.7,5.6-6L154.3,149.3L154.3,149.3z"/>
		<path id="XMLID_3215_" class="st209" d="M199.1,137.2c0-1.2,0-8.6,0-12c0-4-1.7-5.1-5-5.4h-8.3c-3.4,0-4.5,2.3-4.6,4.5
			c0,0,0,14.6,0,16.4c0,1.8,0.4,2.5,1,2.9c0.6,0.4,8.4,6.7,8.9,7.1c0.5,0.4,0.5,0.7,0.5,1.7c0,1,0,3.6,0,5.9c0,2.3-4.9,2.7-5-0.5
			v-8.4h-5.9v43.5c7.2-8,11.2-14.5,14.7-22.8c3.5-8.4,3.1-16.5,3.1-19c0-3-1.6-3.8-2.3-4.6c0,0-6.4-5.2-7.7-6.2
			c-0.8-0.6-1.3-1.2-1.3-2.1s0-4.4,0-5.4c0-3.5,4.9-3.4,4.9,0.1v4.2L199.1,137.2L199.1,137.2z"/>
		<path id="XMLID_3212_" class="st209" d="M101.1,185.3c0,0,0-53,0-58.9c0-5.9-4.4-6.7-7.1-6.7c0,0-1.1,0-5.4,0c-5.5,0-7,5.1-7,8.9
			v26.4c1,13.5,6,24.4,13.8,33.4C98,191.4,101.1,190.2,101.1,185.3L101.1,185.3z M93.9,157.3c0,3.9-5.5,4.1-5.5,0.2
			c0-3.7,0-24.3,0-24.3c0-3.7,5.3-3.9,5.5-0.2V157.3z"/>
		<path id="XMLID_3209_" class="st209" d="M177,157c0-1.3,0-8.3,0-10.9c0-2.6-2.2-3.7-2.2-3.7s-0.3,0.1,1.2-1.2
			c1.5-1.2,1.2-4.3,1.2-5.4c0-1.2,0-6.4,0-9.8c0-4.6-2.3-5.8-5.5-6.2H156c0,0,0,10.3,0,10.5c1,0,2.6,1.4,2.6,3.2
			c0,1.6,0,23.4,0,23.4c0,1.8-1.4,3.1-2.9,3.1c0,1.4,0,39.1,0,40.3c0,5.9-2,7.2-2,7.2c3.8-0.9,8.7-2.7,12.2-4.2
			c1.9-0.8,2.6-3.2,2.6-6c0-0.8,0-36.6,0-37.3c-1.5,0-3.3-1.3-3.3-3.2c0-0.9,0-7.3,0-8.3c0-1.5,0.5-3.1,2.4-3.1
			c1.5,0,2.4,1.4,2.4,3.5c0,2.1,0,47.4,0,47.4c0.1,4.3-0.5,5.1-0.7,5.3c3.7-2.2,5.9-3.5,8.8-6.2c1-0.9,1.3-2.2,1.4-6.6v-28.7
			C178,160.1,177,158.7,177,157L177,157z M169.9,137.2c0,3.1-4.4,3.3-4.4,0.1c0-3,0-4.4,0-4.4c0-3.3,4.2-3.4,4.4-0.1
			C170,134.7,169.9,134.4,169.9,137.2L169.9,137.2z"/>
	</g>
</g>
<g id="Watermark">
</g>
</svg>
