<?xml version="1.0" encoding="utf-8"?>
<!-- Generator: Adobe Illustrator 19.2.1, SVG Export Plug-In . SVG Version: 6.00 Build 0)  -->
<svg version="1.1" xmlns="http://www.w3.org/2000/svg" xmlns:xlink="http://www.w3.org/1999/xlink" x="0px" y="0px"
	 viewBox="0 0 288 288" style="enable-background:new 0 0 288 288;" xml:space="preserve">
<style type="text/css">
	.st0{display:none;}
	.st1{display:inline;}
	.st2{fill:#EF3E42;}
	.st3{fill:#004B8D;}
	.st4{fill:#D7CA9E;}
	.st5{fill:#A03123;}
	.st6{fill-rule:evenodd;clip-rule:evenodd;fill:#FFFFFF;}
	.st7{fill-rule:evenodd;clip-rule:evenodd;fill:#1E3B6E;}
	.st8{fill-rule:evenodd;clip-rule:evenodd;fill:#BE2132;}
	.st9{fill-rule:evenodd;clip-rule:evenodd;fill:#E19D26;}
	.st10{fill:#DC4329;}
	.st11{fill:#DC4A26;}
	.st12{fill:#231F20;}
	.st13{fill:#FFFFFF;}
	.st14{fill:#050404;}
	.st15{fill:#263C82;}
	.st16{fill:#CC3533;}
	.st17{fill:#E82F4D;}
	.st18{fill:#010101;}
	.st19{fill:#C1C8CF;}
	.st20{fill:#365A8B;}
	.st21{fill:#29417C;}
	.st22{fill:#F47920;}
	.st23{fill:#FAA61A;}
	.st24{fill:#CCCCCC;}
	.st25{fill:#002B54;}
	.st26{fill:#ED1C24;}
	.st27{opacity:0.3;fill:#002B54;}
	.st28{fill:#020303;}
	.st29{fill:#1B9ED8;}
	.st30{fill:#189DD8;}
	.st31{fill:#43748F;}
	.st32{fill:#EB3947;}
	.st33{fill:#EB3A47;}
	.st34{fill:#44758F;}
	.st35{fill:#1F9ED8;}
	.st36{fill:#FCFDFD;}
	.st37{fill:#020202;}
	.st38{fill:#E83543;}
	.st39{fill-rule:evenodd;clip-rule:evenodd;fill:#C1A677;}
	.st40{fill-rule:evenodd;clip-rule:evenodd;fill:#212F55;}
	.st41{fill-rule:evenodd;clip-rule:evenodd;fill:#AB285C;}
	.st42{fill-rule:evenodd;clip-rule:evenodd;fill:#014A67;}
	.st43{fill:#F47A39;}
	.st44{fill-rule:evenodd;clip-rule:evenodd;fill:#242052;}
	.st45{fill:#123B35;}
	.st46{display:inline;fill:#DB2732;}
	.st47{display:inline;fill:#1D3665;}
	.st48{fill-rule:evenodd;clip-rule:evenodd;}
	.st49{fill:#F58220;}
	.st50{fill:#1A3562;}
	.st51{fill:#036B66;}
	.st52{fill:#C4CDD3;}
	.st53{fill:#EB1F4E;}
	.st54{display:inline;fill:#C4203B;}
	.st55{display:inline;fill:#164883;}
	.st56{display:inline;fill:#90BCE5;}
	.st57{display:inline;fill:#1B2F5B;}
	.st58{fill:#144983;}
	.st59{fill:#CD1F43;}
	.st60{fill:#1A459D;}
	.st61{fill:#0A2042;}
	.st62{fill:#D92E27;}
	.st63{display:inline;fill:#CF1F45;}
	.st64{fill-rule:evenodd;clip-rule:evenodd;fill:#D7CA9E;}
	.st65{fill:#1E3B6E;}
	.st66{fill:#39B54A;}
	.st67{fill:#E19D26;}
	.st68{fill:#BE2132;}
	.st69{fill:#EF5426;}
	.st70{display:inline;fill:#FFFFFF;}
	.st71{display:inline;fill:#E31837;}
	.st72{display:inline;fill:#E21D37;}
	.st73{display:inline;fill:#005596;}
	.st74{display:inline;fill:#CC3533;}
	.st75{display:inline;fill:#E82F4D;}
	.st76{display:inline;fill:#010101;}
	.st77{display:inline;fill:#2A398B;}
	.st78{fill:#999999;}
	.st79{display:inline;fill:#999999;}
	.st80{display:inline;fill:#041E41;}
	.st81{display:inline;fill:#D4451D;}
	.st82{display:inline;fill:#EA7200;}
	.st83{display:inline;fill:#BDBBBB;}
	.st84{fill:#041E41;}
	.st85{fill:none;stroke:#000000;stroke-width:0.34;}
	.st86{fill:#D4451D;}
	.st87{fill:#EA7200;}
	.st88{fill:#BDBBBB;}
	.st89{fill:none;stroke:#EA7200;stroke-width:0;stroke-linecap:round;stroke-linejoin:round;}
	.st90{fill:#9C9FA1;}
	.st91{fill-rule:evenodd;clip-rule:evenodd;fill:#333290;}
	.st92{fill:#005B9B;}
	.st93{fill:#EF4043;}
	.st94{fill-rule:evenodd;clip-rule:evenodd;fill:#09A2DD;}
	.st95{fill-rule:evenodd;clip-rule:evenodd;fill:#43758E;}
	.st96{fill-rule:evenodd;clip-rule:evenodd;fill:#FCEE1E;}
	.st97{fill-rule:evenodd;clip-rule:evenodd;fill:#EE3441;}
	.st98{fill:#B89760;}
	.st99{fill:#D52D47;}
	.st100{fill-rule:evenodd;clip-rule:evenodd;fill:#0B2242;}
	.st101{fill:#F37938;}
	.st102{fill:#164883;}
	.st103{fill:#8E6D2A;}
	.st104{fill-rule:evenodd;clip-rule:evenodd;fill:#1A314F;}
	.st105{fill-rule:evenodd;clip-rule:evenodd;fill:#8F3326;}
	.st106{fill-rule:evenodd;clip-rule:evenodd;fill:#B68E64;}
	.st107{fill:#03493B;}
	.st108{fill:#FCC158;}
	.st109{fill:#BB544F;}
	.st110{fill:#D0B04A;}
	.st111{fill-rule:evenodd;clip-rule:evenodd;fill:#B6A269;}
	.st112{fill-rule:evenodd;clip-rule:evenodd;fill:#001F5B;}
	.st113{fill:#1D3665;}
	.st114{fill:#FFFFFF;stroke:#FFFFFF;stroke-width:0.16;}
	.st115{fill:#004666;}
	.st116{fill:none;stroke:#037062;stroke-width:2.8199;}
	.st117{fill:#BCCBD2;}
	.st118{fill:#037062;}
	.st119{fill:#E63248;}
	.st120{fill:none;stroke:#E63248;stroke-width:0.2826;}
	.st121{fill:none;stroke:#037062;stroke-width:1.0988;}
	.st122{fill:none;stroke:#BCCBD2;stroke-width:4.9365;}
	.st123{fill:#FCEE21;}
	.st124{fill:#FCEE23;}
	.st125{fill:#C4203B;}
	.st126{fill:#193661;}
	.st127{fill:#164884;}
	.st128{fill:#CF1F44;}
	.st129{fill:#0A2042;stroke:#010101;stroke-width:0.2131;}
	.st130{fill:#CF1F45;}
	.st131{fill:#1E3160;}
	.st132{fill:#BA202E;}
	.st133{fill:#212759;}
	.st134{fill:#BA1F31;}
	.st135{fill:#7BBCE8;}
	.st136{fill:#FED208;}
	.st137{fill:#6DB3E3;}
	.st138{fill:#FFCE04;}
	.st139{fill:#1B2F5B;}
	.st140{fill:#90BCE5;}
	.st141{fill:#D8782C;}
	.st142{fill:#C49C6F;}
	.st143{fill:#F04B23;}
	.st144{display:inline;fill-rule:evenodd;clip-rule:evenodd;fill:#F58220;}
	.st145{fill:#094F91;}
	.st146{fill:#DB2732;}
	.st147{fill:none;}
	.st148{fill:#00174A;}
	.st149{fill:none;stroke:#FFFFFF;stroke-width:3;stroke-miterlimit:10;}
	.st150{fill:none;stroke:#000000;stroke-width:0.1055;stroke-linecap:round;stroke-linejoin:round;}
	.st151{fill:#25358E;}
	.st152{fill:#ED1C2E;}
	.st153{fill:#FFFFFF;stroke:#000000;stroke-width:0.3293;stroke-linecap:round;stroke-linejoin:round;}
	.st154{display:inline;fill-rule:evenodd;clip-rule:evenodd;fill:#00174A;}
	.st155{fill:#0D2240;}
	.st156{display:inline;fill:#8EC641;}
	.st157{fill:#182D56;}
	.st158{fill:#BE323A;}
	.st159{fill:#C62034;}
	.st160{fill:#0B1437;}
	.st161{fill:#EC2135;}
	.st162{fill:#8EC641;}
	.st163{fill-rule:evenodd;clip-rule:evenodd;fill:#332312;}
	.st164{fill:#E4E5E6;}
	.st165{clip-path:url(#XMLID_4225_);}
	.st166{clip-path:url(#XMLID_4226_);fill:url(#XMLID_4227_);}
	.st167{clip-path:url(#XMLID_4228_);}
	.st168{clip-path:url(#XMLID_4229_);fill:url(#XMLID_4230_);}
	.st169{clip-path:url(#XMLID_4231_);}
	.st170{clip-path:url(#XMLID_4232_);fill:url(#XMLID_4233_);}
	.st171{clip-path:url(#XMLID_4234_);}
	.st172{clip-path:url(#XMLID_4235_);fill:url(#XMLID_4236_);}
	.st173{clip-path:url(#XMLID_4237_);}
	.st174{clip-path:url(#XMLID_4238_);fill:url(#XMLID_4239_);}
	.st175{clip-path:url(#XMLID_4240_);}
	.st176{clip-path:url(#XMLID_4241_);fill:url(#XMLID_4242_);}
	.st177{clip-path:url(#XMLID_4243_);}
	.st178{clip-path:url(#XMLID_4244_);fill:url(#XMLID_4245_);}
	.st179{clip-path:url(#XMLID_4246_);}
	.st180{clip-path:url(#XMLID_4247_);fill:url(#XMLID_4248_);}
	.st181{fill:#A4A9AD;}
	.st182{fill:#F05123;}
	.st183{fill:#8E744B;}
	.st184{fill:#EEE0C6;}
	.st185{fill:#8F182B;}
	.st186{fill:#FFC526;}
	.st187{fill:#B0B8BC;}
	.st188{fill:#FCBB30;}
	.st189{fill:#E21D38;}
	.st190{fill:#FFC759;}
	.st191{fill:#E03B3F;}
	.st192{fill:#8E8F92;}
	.st193{fill:#E13B3F;}
	.st194{fill:#FDDF0A;}
	.st195{fill:#E7AA23;}
	.st196{fill:#F37321;}
	.st197{fill:#008056;}
	.st198{fill:#E2293A;}
	.st199{fill:#1F438B;}
	.st200{fill:#005588;}
	.st201{fill:#A7B2B8;}
	.st202{fill:#8C2A43;}
	.st203{fill:#1C2D5B;}
	.st204{fill:#0C724D;}
	.st205{fill:#232020;}
	.st206{fill:#A8ABAD;}
	.st207{fill:#EB2627;}
	.st208{fill:#E56C25;}
	.st209{fill:#203C73;}
	.st210{fill:#B99758;}
	.st211{fill:#C8202F;}
	.st212{fill:#EEE3C6;}
	.st213{fill:#045937;}
	.st214{fill:#C02C38;}
	.st215{fill:#EEB41E;}
	.st216{fill:#F37E2F;}
	.st217{fill:#01549C;}
	.st218{fill:#0862AB;}
	.st219{fill:#E43B40;}
	.st220{fill:#DF1E38;}
	.st221{fill:#CD9C2B;}
	.st222{fill:#F47A3E;}
	.st223{fill:#FBB516;}
	.st224{fill:#E97424;}
	.st225{fill:#056D75;}
	.st226{fill:#142048;}
	.st227{fill:#FFC429;}
	.st228{fill:#114B9D;}
	.st229{fill:#213065;}
	.st230{fill:#1D2859;}
	.st231{fill:#A8AAAD;}
	.st232{fill:#1D427C;}
	.st233{fill:#153055;}
	.st234{fill:#AFB0B3;}
	.st235{fill:#20396F;}
	.st236{fill:#BE3138;}
	.st237{fill:#B4975A;}
	.st238{fill:#344042;}
	.st239{fill:#14244C;}
	.st240{fill:#D0202D;}
	.st241{fill:#A9A9AD;}
	.st242{fill:#1D3261;}
	.st243{fill:#811423;}
	.st244{fill:#6F6E76;}
	.st245{fill:#C62031;}
</style>
<g id="Layer_5" class="st0">
</g>
<g id="Layer_3">
</g>
<g id="Layer_4">
	<g id="XMLID_2681_">
		<path id="XMLID_2738_" class="st230" d="M180.3,146.8c-0.5-0.2-1-0.5-1.5-0.8c-0.1-0.1-0.3-0.1-0.5-0.1c-0.4,0-0.8,0.2-1,0.6
			l-3.7,7c-0.1,0.3-0.2,0.6,0,0.9c0.1,0.3,0.3,0.5,0.5,0.7c0.5,0.2,1,0.5,1.5,0.8c0.2,0.1,0.4,0.1,0.5,0.1c0.4,0,0.8-0.2,1-0.6
			l3.6-7C181.1,147.8,180.9,147.1,180.3,146.8L180.3,146.8z M128.2,166h2.5l-1.2-5.5L128.2,166z M139.3,178l-1.4,5.5h2.9L139.3,178z
			 M139.1,147.1h1.8c0.6,0,1.1-0.6,1.1-1.2v-7.9c0-0.6-0.5-1.1-1.1-1.1h-1.8c-0.6,0-1.1,0.5-1.1,1.1v7.9
			C137.9,146.5,138.4,147,139.1,147.1L139.1,147.1L139.1,147.1z M125.5,143.7c0.8-0.1,1.6-0.3,2.4-0.4c0.3,0,0.6-0.2,0.7-0.4
			c0.2-0.3,0.3-0.6,0.2-0.9l-0.5-3.3c-0.1-0.6-0.7-1-1.3-0.9c-0.8,0.1-1.6,0.2-2.4,0.4h-0.2l0.9,5.6L125.5,143.7z M142.9,160.1h-2.4
			v4.5h2.4c0.4,0,0.8-0.3,0.8-0.8v0V161C143.7,160.5,143.4,160.2,142.9,160.1L142.9,160.1z"/>
		<path id="XMLID_2737_" class="st230" d="M142,222.4c-0.2,0-0.5-0.1-0.6-0.2c-1.9-2-3.4-4.3-4.6-6.8c-0.6-1.3-1.1-2.7-1.4-4.2
			c-0.4-1.5-0.7-3.1-0.7-4.7c-3.9,1.9-8,3.4-12.2,4.8c-4.5,1.4-9.1,2.6-13.8,3.5h-0.1c-0.2,0-0.5-0.1-0.6-0.3
			c-0.1-0.2-0.1-0.4-0.1-0.6c0.8-2.8,2.1-5.5,3.6-8c-4.6,0.9-9.2,1.6-13.9,2.1h-0.1c-0.2,0-0.5-0.1-0.6-0.3
			c-0.2-0.2-0.2-0.5-0.1-0.7c0.7-2.1,1.6-4.2,2.6-6.2c-5.3,1.3-10.7,2.3-16.1,2.9H83c-0.3,0-0.5-0.2-0.6-0.4c-0.1-0.2-0.1-0.5,0-0.7
			c4.2-6.1,9.2-11.6,14.9-16.4c-4.1-1.7-8-4-11.5-6.7c-0.2-0.1-0.3-0.4-0.3-0.6c0-0.2,0.1-0.5,0.3-0.6c4.8-2.7,9.8-4.9,15-6.5
			c-3.9-0.7-7.7-1.9-11.3-3.7c-0.2-0.1-0.4-0.3-0.3-0.5c-0.1-0.2,0-0.4,0.1-0.6c1.2-1.6,2.7-3,4.3-4.2c-2.3-1-4.5-2.1-6.6-3.4
			c-2.2-1.3-4.2-2.9-6.1-4.6c-0.3-0.2-0.3-0.7-0.1-1c1.5-1.7,3.1-3.2,4.9-4.6c-2.5-1.6-4.9-3.4-7.2-5.3c-2.4-1.9-4.7-3.9-6.9-6.1
			c-0.1-0.2-0.2-0.3-0.2-0.5c0-0.2,0.1-0.4,0.2-0.5c1.1-1.1,2.3-2,3.6-2.8c-1.7-1.4-3.2-3-4.6-4.8c-1.6-1.9-3-4-4.3-6.1
			c-0.1-0.2-0.1-0.4,0-0.6c0.1-0.2,0.2-0.4,0.4-0.4c2-0.8,4-1.3,6.1-1.7c-1.7-3.7-2.9-7.6-3.5-11.5c-0.1-0.2,0-0.4,0.1-0.6
			c0.1-0.2,0.3-0.3,0.5-0.3c0.1,0,0.1,0,0.2,0c4.1,1.1,8,2.6,11.8,4.5c0.5-2.5,1.3-4.9,2.5-7.2c0.1-0.2,0.4-0.4,0.6-0.4
			c0.2,0,0.3,0.1,0.4,0.1c1.9,1.4,3.8,2.9,5.5,4.5c1.7,1.5,3.2,3,4.7,4.7c0.8-1.3,1.9-2.4,3.1-3.3c0.1-0.1,0.3-0.2,0.4-0.1
			c0.2,0,0.4,0.1,0.5,0.2c4.5,5.5,11.2,13.1,18.7,18.5c-1.9-5.6-4.3-11-7-16.2c-0.1-0.2-0.1-0.4,0-0.6c0.1-0.2,0.3-0.3,0.5-0.4
			c1.2-0.2,2.5-0.4,3.8-0.4c-3.3-5.2-5.8-10.7-7.5-16.6c-0.1-0.2,0-0.5,0.1-0.6c0.1-0.2,0.3-0.3,0.5-0.3h0c3,0.2,6,0.7,8.9,1.6
			c-0.3-2.4-0.5-4.8-0.3-7.2c0.1-2.6,0.4-5.2,0.9-7.7c0.1-0.3,0.3-0.6,0.7-0.6c0.1,0,0.2,0,0.2,0c2.1,0.8,4.2,1.8,6.1,3
			c-0.1-2.2,0-4.4,0.1-6.5c0.2-2.2,0.5-4.5,1-6.6c0.1-0.3,0.4-0.5,0.7-0.5c0.1,0,0.2,0,0.2,0c1.6,0.6,3.2,1.4,4.7,2.3
			c1.6-4.7,4.2-9.1,6.6-13.2c0.2-0.4,0.7-0.5,1.1-0.2c0.1,0.1,0.2,0.1,0.2,0.2c1.6,2.6,2.8,4.7,3.8,6.6c1.1,2.1,2,4.3,2.9,6.5
			c1.5-0.9,3-1.7,4.7-2.3c0.1,0,0.2-0.1,0.2,0c0.3,0,0.6,0.2,0.7,0.5c0.5,2.2,0.9,4.4,1.1,6.6c0.2,2.2,0.2,4.4,0.1,6.5
			c2-1.2,4-2.2,6.1-3c0.1,0,0.2-0.1,0.2,0c0.4,0,0.7,0.3,0.7,0.6c0.5,2.6,0.8,5.1,0.9,7.7c0.1,2.4,0,4.8-0.3,7.2
			c2.9-0.9,5.9-1.5,8.9-1.6c0.2,0,0.5,0.1,0.6,0.3c0.2,0.2,0.2,0.4,0.1,0.6c-1.7,5.9-4.2,11.5-7.5,16.6c1.3,0,2.5,0.2,3.8,0.5
			c0.2,0,0.4,0.2,0.5,0.4c0.1,0.2,0.1,0.4,0,0.6c-2.6,5.1-5.3,10.5-7.1,16.2c8.1-5.9,14.3-13,18.7-18.5c0.2-0.2,0.4-0.2,0.6-0.2
			c0.1,0,0.3,0,0.4,0.1c1.2,0.9,2.3,2,3.1,3.3c1.5-1.7,3-3.2,4.7-4.7c1.7-1.5,3.6-3,5.5-4.5c0.1-0.1,0.3-0.1,0.4-0.1
			c0.3,0,0.5,0.1,0.6,0.3c1.2,2.3,2,4.7,2.5,7.3c3.8-1.8,7.7-3.4,11.8-4.5h0.2c0.2,0,0.4,0.1,0.5,0.2c0.1,0.2,0.2,0.4,0.2,0.6
			c-0.7,4-1.9,7.9-3.6,11.5c2.1,0.3,4.2,0.9,6.1,1.7c0.4,0.1,0.6,0.6,0.4,1l0,0.1c-1.2,2.2-2.6,4.2-4.2,6.1c-1.4,1.7-3,3.3-4.7,4.8
			c1.3,0.8,2.5,1.7,3.6,2.8c0.1,0.1,0.2,0.3,0.2,0.5c0,0.2-0.1,0.4-0.2,0.5c-2.2,2.1-4.5,4.2-6.8,6.1c-2.3,1.9-4.8,3.6-7.2,5.3
			c1.8,1.3,3.4,2.9,4.9,4.6c0.2,0.3,0.2,0.7-0.1,1c-1.9,1.7-3.9,3.2-6,4.6c-2.1,1.3-4.4,2.5-6.7,3.4c1.6,1.2,3.1,2.6,4.3,4.2
			c0.1,0.2,0.2,0.4,0.1,0.6c0,0.2-0.2,0.4-0.4,0.5c-3.6,1.8-7.4,3-11.3,3.7c5.2,1.7,10.2,3.9,14.9,6.5c0.2,0.1,0.4,0.3,0.4,0.6
			c0,0.2-0.1,0.5-0.3,0.6c-4.3,3.1-7.8,5.3-11.5,6.7c5.7,4.7,10.7,10.2,14.9,16.3c0.2,0.2,0.2,0.5,0,0.8c-0.1,0.3-0.4,0.4-0.6,0.4
			l-0.1,0c-5.4-0.6-10.8-1.6-16.1-2.9c0.9,1.9,1.8,4,2.6,6.2c0.1,0.2,0,0.5-0.1,0.7c-0.1,0.2-0.4,0.3-0.6,0.3h-0.1
			c-4.7-0.4-9.3-1.1-13.9-2.1c1.5,2.5,2.7,5.2,3.6,8c0.1,0.2,0.1,0.5-0.1,0.7c-0.2,0.2-0.4,0.3-0.6,0.3l-0.1,0
			c-5.1-1-10.1-2.3-15-3.9c-4.8-1.5-9.3-3.2-12.3-4.5l-0.1,0c-0.1,0-0.2,0.1-0.3,0.2c-0.3,1.5,0.2,3.5,1.6,5.8c0.9,1.4,1.9,2.8,3,4
			v0c0.3,0.4,0.3,0.9,0,1.2l-5.1,4.6C142.4,222.3,142.2,222.3,142,222.4z"/>
		<path id="XMLID_2734_" class="st13" d="M139.6,57.8c-0.2,0-0.4,0-0.5,0.1c-0.2,0.1-0.4,0.3-0.5,0.4c-1.6,2.7-2.8,4.7-3.8,6.7
			c-1,2-1.9,4-2.7,6c-1.4-0.8-2.8-1.5-4.3-2.1c-0.1,0-0.3-0.1-0.4,0c-0.3,0-0.5,0.1-0.7,0.2c-0.2,0.2-0.4,0.4-0.4,0.7
			c-0.5,2.2-0.9,4.4-1.1,6.7c-0.2,1.9-0.2,3.8-0.1,5.7c-1.7-1-3.6-1.9-5.4-2.6c-0.1-0.1-0.3-0.1-0.4-0.1c-0.6,0-1.1,0.4-1.2,1h0
			c-0.5,2.6-0.8,5.2-0.9,7.8c-0.1,2.2,0,4.4,0.2,6.5c-2.7-0.8-5.5-1.3-8.3-1.4h0c-0.7,0-1.2,0.6-1.2,1.3c0,0.1,0,0.2,0,0.3
			c0.9,3,2,5.8,3.2,8.7c1.1,2.5,2.4,5,3.9,7.3c-1,0.1-2,0.2-3,0.4c-0.4,0.1-0.7,0.3-0.8,0.6c-0.2,0.3-0.2,0.7,0,1
			c2.5,4.8,4.7,9.7,6.5,14.8c-6.9-5.3-13.2-12.3-17.3-17.5c-0.2-0.3-0.6-0.4-0.9-0.4c-0.3,0-0.5,0.1-0.7,0.2h0
			c-0.7,0.5-1.3,1.1-1.9,1.7c-0.4,0.4-0.7,0.8-0.9,1.2c-1.3-1.5-2.8-2.9-4.3-4.3c-1.8-1.5-3.7-3.1-5.6-4.5c-0.2-0.2-0.4-0.3-0.7-0.2
			c-0.4,0-0.8,0.2-1.1,0.6c-0.7,1.2-1.2,2.5-1.6,3.9c-0.3,1-0.6,1.9-0.8,2.9c-1.7-0.8-3.5-1.5-5.2-2.2c-2.3-0.8-4.4-1.5-6.2-2H70
			c-0.4,0-0.7,0.1-0.9,0.4c-0.2,0.3-0.3,0.7-0.2,1c0.4,2.1,0.9,4.2,1.5,6.2c0.4,1.7,1,3.3,1.8,4.8c-1.9,0.4-3.8,0.9-5.6,1.6
			c-0.3,0.2-0.6,0.4-0.7,0.7c-0.1,0.3-0.1,0.7,0.1,1c1.3,2.2,2.7,4.2,4.3,6.2c1.3,1.6,2.7,3.1,4.2,4.4c-1.1,0.7-2.2,1.6-3.1,2.5
			c-0.2,0.2-0.4,0.5-0.4,0.8c0,0.3,0.1,0.7,0.4,0.9c2.2,2.2,4.5,4.2,6.9,6.1c2.1,1.7,4.4,3.4,6.6,4.9c-0.7,0.5-1.3,1.1-1.9,1.7
			c-0.9,0.8-1.7,1.7-2.4,2.5c-0.2,0.3-0.3,0.6-0.3,0.9c0,0.3,0.2,0.6,0.4,0.8c0.9,0.8,1.9,1.6,3,2.4c1,0.8,2.1,1.5,3.2,2.2
			c1.1,0.7,2.2,1.3,3.4,1.9c0.8,0.4,1.7,0.8,2.5,1.2c-1.3,1.2-2.6,2.4-3.7,3.8c-0.2,0.3-0.3,0.6-0.2,1c0.1,0.4,0.3,0.7,0.6,0.8
			c1.9,1,3.9,1.8,6,2.4c1.1,0.3,2.4,0.6,3.7,0.9c-1.9,0.6-3.7,1.4-5.5,2.2c-2.7,1.1-5.3,2.4-7.8,3.8h0c-0.4,0.2-0.6,0.6-0.6,1
			c0,0.4,0.1,0.8,0.5,1c1.8,1.4,3.7,2.7,5.7,3.9c1.6,1,3.4,1.9,5.2,2.6c-5.4,4.7-10.3,10-14.3,16c-0.3,0.4-0.3,0.9-0.1,1.3
			c0.2,0.4,0.6,0.6,1.1,0.6h0.2c3.3-0.4,6.1-0.8,8.8-1.3c2.4-0.4,4.5-0.8,6.4-1.3c-0.7,1.6-1.5,3.4-2.2,5.3
			c-0.2,0.4-0.1,0.8,0.1,1.1c0.2,0.3,0.6,0.6,1,0.5h0.1c2.9-0.3,5.5-0.6,7.8-1c1.9-0.3,3.6-0.6,5.1-0.9c-0.5,0.9-0.9,1.8-1.4,2.7
			c-0.6,1.4-1.1,2.8-1.7,4.5c-0.1,0.4,0,0.8,0.2,1.1c0.2,0.3,0.6,0.5,1,0.5h0.2c2.4-0.5,4.8-1,7.1-1.6c2.3-0.5,4.6-1.2,6.8-1.9
			c2.2-0.7,4.4-1.5,6.4-2.3c1.8-0.7,3.5-1.5,5.2-2.2c0.2,1.4,0.4,2.7,0.7,4c0.4,1.5,0.9,2.9,1.5,4.3c1.2,2.5,2.8,4.8,4.7,6.9
			c0.3,0.3,0.6,0.4,1,0.4c0.3,0,0.7-0.1,0.9-0.3l5-4.6c0.2-0.3,0.4-0.6,0.4-0.9c0-0.3-0.1-0.7-0.3-0.9c-4.3-4.9-4.8-7.7-4.6-9.1
			c4,1.7,8,3.1,12.1,4.4c2.6,0.8,5.1,1.6,7.6,2.2c2.7,0.7,5.2,1.3,7.4,1.7h0.2c0.4,0,0.8-0.2,1-0.5c0.2-0.3,0.3-0.7,0.2-1.1
			c-0.5-1.6-1.1-3.1-1.7-4.5c-0.4-0.9-0.9-1.8-1.4-2.7c1.5,0.3,3.2,0.6,5.1,0.9c2.3,0.3,4.9,0.6,7.8,1h0.1c0.4,0,0.8-0.2,1-0.5
			c0.2-0.3,0.3-0.8,0.1-1.1c-0.7-1.9-1.4-3.7-2.2-5.3c2,0.5,4.1,0.9,6.4,1.3c2.6,0.5,5.5,0.9,8.8,1.3h0.1c0.5,0,0.9-0.2,1.1-0.6
			c0.2-0.4,0.2-0.9-0.1-1.2c-4.1-5.9-8.9-11.3-14.3-16c1.8-0.7,3.5-1.6,5.2-2.6c2-1.2,3.9-2.4,5.7-3.8c0.3-0.3,0.5-0.7,0.5-1.1
			c0-0.4-0.3-0.8-0.6-1c-2.5-1.4-5.1-2.7-7.8-3.8c-1.8-0.8-3.7-1.5-5.5-2.2c1.3-0.3,2.5-0.6,3.7-0.9c2.1-0.6,4.1-1.4,6-2.4
			c0.3-0.2,0.6-0.5,0.6-0.8c0.1-0.4-0.1-0.7-0.3-1c-1.1-1.4-2.4-2.7-3.7-3.8c0.9-0.3,1.7-0.8,2.6-1.2c1.1-0.6,2.3-1.2,3.4-1.9
			c1.1-0.7,2.2-1.4,3.2-2.2c1-0.7,2-1.5,3-2.4c0.2-0.2,0.4-0.5,0.4-0.8c0-0.3,0-0.6-0.2-0.9c-0.7-0.8-1.5-1.7-2.4-2.5
			c-0.6-0.6-1.3-1.2-2-1.7c2.3-1.5,4.5-3.2,6.7-4.9c2.4-1.9,4.7-4,6.9-6.1c0.3-0.2,0.4-0.5,0.3-0.8c0-0.3-0.1-0.7-0.3-0.9
			c-1-0.9-2-1.8-3.2-2.5c1.5-1.3,2.9-2.8,4.2-4.4c1.6-1.9,3-4,4.3-6.2c0.2-0.3,0.2-0.7,0-1c-0.1-0.4-0.3-0.6-0.7-0.7
			c-1.8-0.7-3.7-1.2-5.6-1.6c0.7-1.6,1.3-3.2,1.8-4.8c0.6-2.1,1.1-4.2,1.5-6.3c0-0.4-0.1-0.7-0.3-1c-0.2-0.3-0.6-0.4-0.9-0.4H209
			c-1.8,0.5-3.9,1.2-6.1,2c-1.7,0.7-3.4,1.4-5.2,2.2c-0.2-0.9-0.5-1.9-0.8-2.9c-0.4-1.3-1-2.6-1.6-3.9c-0.2-0.4-0.6-0.6-1-0.6
			c-0.3,0-0.5,0.1-0.7,0.2c-1.9,1.4-3.8,2.9-5.6,4.5c-1.5,1.3-3,2.8-4.3,4.3c-0.3-0.4-0.6-0.8-1-1.2c-0.6-0.7-1.2-1.2-1.9-1.7
			c-0.2-0.1-0.5-0.2-0.7-0.2c-0.4,0-0.7,0.2-0.9,0.4c-2.6,3.4-5.5,6.6-8.5,9.6c-1.7,1.7-3.4,3.3-5.1,4.8c-1.3,1.1-2.5,2.1-3.8,3.1
			c1.8-5.1,4-10,6.5-14.7c0.1-0.3,0.1-0.7,0-1c-0.1-0.4-0.5-0.6-0.8-0.6c-1-0.2-2-0.4-3-0.4c1.5-2.3,2.8-4.8,3.9-7.3
			c1.3-2.8,2.4-5.7,3.2-8.7c0.1-0.4,0.1-0.8-0.1-1.1c-0.2-0.3-0.6-0.5-1-0.5h0c-2.8,0.2-5.6,0.7-8.3,1.5c0.3-2.2,0.4-4.4,0.3-6.5
			c-0.2-2.6-0.5-5.2-0.9-7.8c-0.1-0.6-0.6-1-1.2-1c-0.1,0-0.3,0-0.4,0c-1.9,0.7-3.7,1.6-5.4,2.6c0-1.9,0-3.8-0.1-5.7
			c-0.2-2.3-0.6-4.5-1.1-6.7c-0.1-0.5-0.6-0.9-1.2-0.9c-0.1,0-0.2,0-0.3,0c-1.5,0.5-2.9,1.2-4.3,2c-0.8-2-1.7-4.1-2.7-6
			c-1-2-2.2-4-3.8-6.7c-0.1-0.2-0.3-0.3-0.4-0.4C140.1,57.9,139.8,57.8,139.6,57.8z M139.6,58.8c0.1,0,0.2,0,0.2,0.1
			c2.7,4.4,5.2,8.8,6.7,13.4c0,0.1,0.1,0.2,0.2,0.1l0.1,0c1.5-1,3.2-1.8,4.9-2.4h0c0.1,0,0.2,0.1,0.2,0.1c1,4.4,1.4,9,1.1,13.5
			c0,0.1,0.1,0.2,0.2,0.2h0h0.1c2-1.3,4.2-2.4,6.4-3.2h0c0.1,0,0.2,0,0.2,0.2c0.9,5,1.3,10.4,0.5,15.2c0,0.1,0,0.2,0.2,0.2h0.1
			c3-1,6-1.6,9.2-1.7h0c0.1,0,0.2,0.1,0.2,0.2l0,0.1c-1.7,5.9-4.3,11.6-7.7,16.8c-0.1,0.1,0,0.3,0.1,0.4l0,0c1.4,0,2.8,0.2,4.1,0.4
			c0.1,0,0.2,0.2,0.2,0.3l0,0c-2.7,5.3-5.4,11-7.3,17c0,0.1,0.1,0.3,0.2,0.3l0.1,0l0.1,0c8.1-5.8,14.4-12.8,19.4-19
			c0-0.1,0.1-0.1,0.2-0.1l0.1,0c1.3,0.9,2.3,2.1,3.1,3.4c0.1,0.1,0.2,0.1,0.2,0.1c0,0,0.1,0,0.2-0.1c3.1-3.5,6.6-6.6,10.4-9.3l0.1,0
			c0.1,0,0.1,0,0.2,0.1c1.3,2.3,2,5,2.5,7.4c0,0.1,0.1,0.2,0.2,0.2h0h0.1c3.9-1.9,7.9-3.4,12-4.6h0c0.1,0,0.3,0.1,0.3,0.2l0,0.1
			c-0.7,4.1-1.9,8-3.7,11.7c0,0.2,0,0.3,0.2,0.3l0,0c2.2,0.3,4.3,0.9,6.4,1.7c0.1,0,0.2,0.2,0.1,0.3l0,0.1c-2.3,4.2-5.4,7.9-9,11
			c-0.1,0.1-0.1,0.2-0.1,0.3l0.1,0.1c1.4,0.8,2.7,1.8,3.8,2.9c0.1,0.1,0.1,0.3,0,0.4c-4.4,4.3-9.1,8.1-14.2,11.4
			c-0.1,0.1-0.2,0.2-0.1,0.4l0,0c1.8,1.4,3.5,3,5,4.7c0.1,0.1,0.1,0.3,0,0.3c-3.8,3.4-8.2,6.1-13,8c-0.2,0-0.2,0.3,0,0.4
			c1.7,1.3,3.2,2.7,4.5,4.4c0.1,0.1,0.1,0.3,0,0.4l-0.1,0c-3.5,1.8-7.8,3-12.3,3.8c-0.1,0-0.2,0.1-0.2,0.2c0,0.1,0.1,0.1,0.1,0.2
			c5.6,1.7,10.9,4,16,6.8c0.1,0,0.2,0.2,0.1,0.3l-0.1,0.1c-3.6,2.8-7.6,5.1-11.8,6.8c-0.1,0-0.2,0.2-0.1,0.3l0.1,0.1
			c5.8,4.8,10.8,10.4,15.1,16.5c0.1,0.1,0,0.3-0.1,0.4l-0.1,0h0c-5.6-0.6-11.1-1.6-16.6-3l0,0h0c-0.2,0-0.3,0.2-0.2,0.4
			c1,2.1,2,4.3,2.9,6.6c0,0.1,0,0.3-0.2,0.3l-0.1,0h0c-4.8-0.5-9.7-1.2-14.4-2.2h0c-0.1,0-0.2,0.1-0.3,0.2c0,0.1,0,0.1,0.1,0.2
			c1.7,2.6,3,5.4,3.8,8.4c0,0.1,0,0.2-0.1,0.3l-0.1,0h0c-9.3-1.9-18.4-4.7-27.1-8.4c-0.1,0-0.2-0.1-0.3,0c-0.3,0-0.6,0.3-0.7,0.6
			c-0.8,3.9,3.7,9.1,4.7,10.3c0.1,0.1,0.1,0.3,0,0.5l0,0l-5,4.7c-0.1,0-0.2,0.1-0.2,0.1c-0.1,0-0.2-0.1-0.3-0.1
			c-4-4.2-6.4-9.7-6.6-15.5c0-0.2-0.1-0.3-0.3-0.3l-0.1,0c-8.3,3.9-17.1,6.6-26.1,8.3h0c-0.1,0-0.3-0.1-0.3-0.3l0-0.1
			c0.9-2.9,2.2-5.8,3.9-8.4c0.1-0.1,0-0.3-0.1-0.4l-0.1,0l-0.1,0c-4.8,1-9.6,1.7-14.4,2.2c-0.2,0-0.3-0.2-0.2-0.3
			c0.8-2.3,1.8-4.5,2.8-6.6c0.1-0.1,0-0.3-0.1-0.3l-0.1,0h-0.1c-5.5,1.4-11,2.4-16.6,3.1c-0.2,0-0.3-0.2-0.3-0.3l0-0.1
			c4.3-6.2,9.3-11.7,15.1-16.5c0.1-0.1,0.1-0.3-0.1-0.4c-4.2-1.7-8.2-4-11.7-6.8c-0.1-0.1-0.2-0.2-0.1-0.3l0.1-0.1
			c5.1-2.8,10.4-5.1,16-6.8c0.2,0,0.2-0.3,0-0.3c-4.5-0.8-8.8-2-12.3-3.8c-0.1-0.1-0.2-0.2-0.1-0.4l0,0c1.3-1.6,2.9-3.1,4.6-4.4
			c0.1-0.1,0.1-0.2,0-0.3l-0.1-0.1c-4.7-1.9-9.1-4.6-12.9-8c-0.1-0.1-0.1-0.2-0.1-0.3l0-0.1c1.5-1.7,3.2-3.3,5-4.7
			c0.1-0.1,0.1-0.3,0.1-0.4l-0.1-0.1c-5.1-3.3-9.9-7.2-14.3-11.4c-0.1-0.1-0.1-0.2,0-0.3l0,0c1.2-1.1,2.4-2.1,3.8-2.9
			c0.1-0.1,0.2-0.2,0.1-0.4l0,0c-3.6-3.1-6.7-6.8-9-11c-0.1-0.1,0-0.2,0.1-0.3l0.1,0c2-0.8,4.2-1.4,6.3-1.7c0.2,0,0.3-0.2,0.2-0.4
			l0,0c-1.8-3.7-3-7.6-3.7-11.7c0-0.1,0.1-0.3,0.2-0.3l0.1,0h0c4.1,1.1,8.2,2.7,12,4.6h0.1c0.1,0,0.2,0,0.2-0.2
			c0.5-2.6,1.3-5,2.5-7.4c0-0.1,0.1-0.2,0.2-0.1l0.1,0c3.8,2.7,7.3,5.8,10.4,9.3c0.1,0.1,0.1,0.1,0.2,0.1c0.1,0,0.1,0,0.2-0.1
			c0.8-1.3,1.9-2.5,3.2-3.4l0.1,0c0,0,0.1,0,0.1,0.1c5.4,6.6,12.3,14,19.5,19l0.1,0c0.1,0,0.2-0.1,0.2-0.2l0-0.1
			c-1.8-6-4.6-11.8-7.3-17c0-0.2,0-0.3,0.2-0.4c1.3-0.3,2.7-0.4,4.1-0.4c0.1,0,0.2-0.2,0.2-0.3l0-0.1c-3.4-5.2-6-10.9-7.7-16.8
			c0-0.1,0-0.2,0.1-0.3l0.1,0h0c3.1,0.1,6.2,0.7,9.2,1.7h0.1c0.1,0,0.2-0.1,0.2-0.2l0-0.1c-0.8-4.8-0.4-10.2,0.5-15.2
			c0-0.1,0.1-0.2,0.2-0.2h0c2.2,0.9,4.4,1.9,6.4,3.2l0.1,0c0.1,0,0.2-0.1,0.2-0.2v0c-0.3-4.5,0.1-9.1,1.1-13.5
			c0-0.1,0.1-0.2,0.2-0.2l0,0v0c1.7,0.6,3.3,1.4,4.9,2.4l0.1,0c0.1,0,0.2-0.1,0.2-0.2v0c1.6-4.5,4.1-8.9,6.7-13.3
			C139.5,58.8,139.5,58.8,139.6,58.8z"/>
		<path id="XMLID_2712_" class="st230" d="M185.8,133.4c0.4,0,0.8,0,1.2,0c2.9,0,5.7-0.7,8.3-1.9l0,0c-3.1,1.9-6.7,2.9-10.4,2.8
			c-0.1,0-0.2,0.1-0.3,0.1c-1.1,1.2-2.1,2.2-3,3.2l-0.1,0h0l-1-0.5l0-0.1l0-0.1c2.4-2.5,5.1-5,7.8-7.5c0.1-0.1,0.2-0.2,0.1-0.3
			c-0.3-2.7,0-5.5,0.9-8h0.1c-0.5,2.4-0.6,5-0.2,7.4h0c3.7-3.5,7.1-6.8,10.5-10.2l0.1,0c-2.8,3.3-5.9,6.7-9.2,10
			C189,130.1,187.4,131.7,185.8,133.4L185.8,133.4L185.8,133.4z M183.6,149l-4.4,8.5c-0.5,1-1.5,1.6-2.5,1.5c-0.5,0-0.9-0.1-1.3-0.3
			c-1.1-0.6-2.2-1.1-3.4-1.7c-1.4-0.8-2-2.5-1.3-3.9l4.4-8.5c0.8-1.4,2.5-2,4-1.3c1.1,0.5,2.2,1.1,3.3,1.7
			C183.8,145.8,184.4,147.6,183.6,149z M159,199.2c-1.5,0-3-0.1-4.5-0.3h0c1.4,1.3,4.1,2.7,5.6,3.3l0.7,0.3l-0.7-0.1
			c-1.8-0.3-5.5-2.1-7.6-3.9l-0.1,0c-3.3-0.7-6.2-1.8-9.1-1.8c-3.7,0-6.4,0.8-7.7,4.6c-0.1-0.7,0-1.5,0.2-2.2l0,0h0
			c-0.7-0.5-3.5-2.2-6.2-2.2c-4.1,0-9.4,4.6-13.4,5.1c1.9-0.6,4.2-2.1,6.4-3.5v0c-3.8-0.7-8.5,0-13.5,1.3c4.8-1.9,9.7-2.9,14.8-2.1
			l0.1,0c1.9-1.1,3.8-1.9,5.5-1.9c2.4,0.1,4.8,0.9,6.8,2.2h0c1.3-1.9,4-2.6,6.8-2.6c4.4,0,11.2,3.3,16.7,3.3c5.9,0,7.7-0.5,9.4-0.9
			C167.6,198.1,164.9,199.2,159,199.2L159,199.2z M109.6,139.5c1.2-0.4,2.4-0.8,3.6-1.2c0.3-0.1,0.6-0.1,0.9-0.1
			c1.3,0,2.4,0.8,2.8,2l3.1,9.1c0.2,0.7,0.2,1.5-0.1,2.2c-0.3,0.7-1,1.2-1.7,1.4c-1.2,0.4-2.4,0.8-3.6,1.2c-0.3,0.1-0.6,0.2-1,0.2
			c-1.2,0-2.3-0.8-2.7-1.9l-3.1-9.1C107.4,141.8,108.1,140.1,109.6,139.5z M105,158.5l-5.8-11.4l-0.2,0.1c-1,0.5-2,1.1-3,1.6
			l-1.2-2.2c2.9-1.6,5.8-3.1,8.8-4.6l1.1,2.3c-1,0.5-2,1-3,1.5l-0.1,0.1l5.9,11.4C106.6,157.6,105.8,158,105,158.5L105,158.5z
			 M92.4,132.8l-0.1-0.1h-0.4c-3.8,0-7.6-1-10.8-3.1v0c2.8,1.4,6,2.2,9.2,2.3c0.4,0,0.8,0,1.2,0c-0.7-0.7-1.4-1.4-2-2
			c-3.8-3.7-7.4-7.5-10.8-11.5l0,0c3.6,3.8,6.7,6.8,9.5,9.4h0c0.4-2.3,0.1-4.6-0.6-6.8l0,0c1.1,2.3,1.6,4.9,1.3,7.5
			c0,0.1,0.1,0.2,0.1,0.2c2.5,2.3,5,4.5,7.1,6.7c0-3.1-0.9-6-2.6-8.6l0,0c2.3,2.6,3.6,6,3.6,9.5c0,0.1,0,0.2,0.1,0.2
			c0.3,0.4,0.7,0.7,1,1.1v0.1l0,0.1l-0.9,0.4h0l-0.1,0C95.5,135.9,93.8,134.2,92.4,132.8z M118.4,171v-6.2l-2.4,5.4l-2.3-5.4v6.2
			H111v-13.4h2.1l2.9,6.7l2.9-6.7h2.1V171H118.4z M118.9,186v2.5H111v-13.4h2.6V186H118.9z M127.5,135.1c0.1,0,0.3-0.1,0.4,0
			c1.5,0,2.7,1.1,2.9,2.5l0.8,4.9c0.2,1.3-0.5,2.6-1.7,3.1l-0.2,0.1l0.1,0.2c0.9,1.4,1.9,2.7,2.9,4.1c-0.8,0.1-1.7,0.2-2.6,0.3
			c-0.9-1.4-1.9-2.7-2.9-4.1l-0.1-0.1l-0.1,0c-0.4,0-0.7,0.1-1.1,0.1l-0.2,0l0.7,4.6c-0.9,0.1-1.8,0.3-2.6,0.5l-2.5-15.2
			C123.3,135.8,125.4,135.4,127.5,135.1L127.5,135.1z M143.7,167.1h-3.2v3.9h-2.6v-13.4h5.8c1.4,0,2.6,1.2,2.6,2.6v0v4.2
			C146.4,165.9,145.2,167.1,143.7,167.1L143.7,167.1z M135.2,146.8v-9.6c0-1.6,1.3-2.9,2.9-3h3.8c1.6,0.1,2.9,1.4,2.9,3v9.6
			c0,1.6-1.3,2.9-2.9,2.9l0,0c-2.1,0-3.5,0-3.8,0C136.5,149.6,135.2,148.4,135.2,146.8L135.2,146.8L135.2,146.8z M137.5,175.2h3.6
			l3.6,13.4H142l-0.6-2.5h-4.2l-0.6,2.5h-2.7L137.5,175.2z M127.6,168.5l-0.5,2.5h-2.7l3.3-13.4h3.6l3.3,13.4h-2.7l-0.5-2.5H127.6z
			 M129.1,180.6v2.5H125v2.9h5.7v2.5h-8.4v-13.4h8.4v2.5H125v2.9H129.1z M124.6,108.1c3.6,5.5,8.4,10.1,14.1,13.5h0v0
			c0-4.2,0-8.4,0.1-12.5c0-0.1,0-0.3-0.1-0.4c-3.2-2.4-5.8-5.5-7.7-9.1h0c2,3.2,4.7,6,7.7,8.2l0.1,0c0-1.5,0.1-2.8,0.1-4
			c0.2-3.5,0.4-7.1,0.5-10.7c0-0.1-0.1-0.3-0.1-0.3c-2.4-2.8-4.4-5.9-6.2-9.1l0.1,0c1.8,2.8,3.9,5.5,6.2,8h0l0,0v0
			c0.1-5.6,0.2-11.2,0.2-16.7h0c0.5,5.2,0.7,16.2,0.5,25.7v0l0.1,0l0,0c2.8-1.4,5.3-3.2,7.6-5.3l0,0c-2.2,2.4-4.8,4.5-7.7,6.1
			c-0.1,0-0.1,0.1-0.1,0.2c0,0.8,0,1.6,0,2.3c-0.2,5.4-0.2,11.6,0,19.3l0.1,0c6.2-4.5,10.9-9.3,13.9-14.3h0.1
			c-2.4,5.1-7.5,10.8-14,15.7c0,0,0,0.1,0,0.2c0,1.2,0.1,2.4,0.1,3.6l0,0h0l-0.1,0H139l-0.1-0.1c0-1.7-0.1-3.5-0.1-5.4
			c0-0.1,0-0.1,0-0.1C132.8,119.2,128,114.1,124.6,108.1L124.6,108.1z M150.3,171v-13.4h2.6v10.8h4.9v2.5H150.3z M154.7,180.6v2.5
			h-4.1v5.4h-2.6v-13.4h8.4v2.5h-5.7v2.9H154.7z M155.4,144.5l1.5-8.7c0.9,0.1,1.8,0.3,2.6,0.5l-2.6,15.2c-0.7-0.1-1.4-0.3-2.1-0.4
			c-1-2.9-2-5.9-3-8.8l-0.2-0.7l-1.5,8.7c-0.9-0.1-1.8-0.2-2.7-0.3l2.6-15.2c0.7,0.1,1.4,0.2,2.1,0.3c1,2.9,2,5.8,3,8.7L155.4,144.5
			z M159.8,184.7h2.7v0.5c0,0.4,0.3,0.8,0.8,0.8h2.2c0.5,0,0.8-0.4,0.8-0.8v-0.8c0-0.3-0.2-0.6-0.4-0.7l-4.8-2.1
			c-0.8-0.5-1.4-1.4-1.3-2.3v-1.4c0-1.4,1.2-2.6,2.6-2.6l0.1,0h3.8c1.5,0,2.7,1.2,2.7,2.6v1.2h-2.6v-0.5c0-0.5-0.4-0.8-0.8-0.8h-2.2
			c-0.4,0-0.8,0.4-0.8,0.8v0.3c0,0.3,0.2,0.6,0.4,0.7l4.7,2.1c0.9,0.5,1.4,1.4,1.3,2.4v1.9c0,1.5-1.2,2.7-2.7,2.7h0h-3.8
			c-1.5,0-2.7-1.2-2.7-2.7V184.7z M161.2,157.7h7.7v2.5h-5.1v2.9h3.5v2.5h-3.5v2.9h5.1v2.5h-7.7V157.7z M166,140.8
			c-1.1-0.3-2.2-0.7-3.2-1l0.8-2.4c3.2,0.9,6.3,2,9.4,3.1l-0.8,2.4c-1-0.4-2.1-0.7-3.2-1.1l-0.2,0l-4.1,12.1
			c-0.8-0.3-1.7-0.5-2.6-0.8l4.1-12.1L166,140.8z"/>
		<path id="XMLID_2711_" class="st230" d="M114.4,151.4c0.1,0,0.3,0,0.4,0c0.5-0.2,1.1-0.4,1.6-0.6c0.3-0.1,0.5-0.3,0.7-0.5
			c0.1-0.3,0.1-0.6,0-0.9l-2.6-7.5c-0.1-0.5-0.6-0.8-1.1-0.8c-0.1,0-0.2,0-0.3,0c-0.6,0.2-1.1,0.4-1.7,0.6c-0.6,0.2-0.9,0.8-0.7,1.4
			l0,0l2.5,7.5C113.4,151.1,113.9,151.4,114.4,151.4z"/>
		<path id="XMLID_2682_" class="st13" d="M180.8,148.4l-3.6,7c-0.2,0.4-0.6,0.6-1,0.6c-0.2,0-0.4-0.1-0.5-0.1
			c-0.5-0.2-1-0.5-1.5-0.8c-0.3-0.1-0.5-0.4-0.5-0.7c-0.1-0.3-0.1-0.6,0-0.9l3.7-7c0.2-0.4,0.6-0.6,1-0.6c0.2,0,0.3,0.1,0.5,0.1
			c0.5,0.2,1,0.5,1.5,0.8C180.9,147.1,181.1,147.8,180.8,148.4L180.8,148.4z M182.4,145c-1.1-0.6-2.2-1.2-3.3-1.7
			c-0.4-0.2-0.8-0.3-1.3-0.3c-1.1,0-2.2,0.6-2.7,1.6l-4.4,8.5c-0.3,0.7-0.4,1.5-0.1,2.2c0.2,0.7,0.7,1.4,1.4,1.7
			c1.1,0.6,2.2,1.1,3.4,1.7c0.4,0.2,0.9,0.4,1.3,0.3c1.1,0,2.1-0.6,2.5-1.5l4.4-8.5C184.4,147.6,183.8,145.8,182.4,145L182.4,145z
			 M130.7,177.7v-2.5h-8.4v13.4h8.4V186H125v-2.9h4.1v-2.5H125v-2.9H130.7z M164.6,153.8l4.1-12.1l0.2,0c1,0.4,2.1,0.7,3.2,1.1
			l0.8-2.4c-3.1-1.1-6.2-2.2-9.4-3.1l-0.8,2.4c1,0.3,2.1,0.7,3.2,1l0.1,0l-4.1,12.1C162.9,153.3,163.8,153.5,164.6,153.8z
			 M157.8,168.5h-4.9v-10.8h-2.6V171h7.5V168.5z M168.9,168.5h-5.1v-2.9h3.5v-2.5h-3.5v-2.9h5.1v-2.5h-7.7V171h7.7L168.9,168.5z
			 M162.5,188.6h3.8c1.5,0,2.7-1.2,2.7-2.7v0V184c0.1-1-0.4-1.9-1.3-2.4l-4.7-2.1c-0.3-0.2-0.4-0.4-0.4-0.7v-0.3
			c0-0.4,0.3-0.8,0.8-0.8h0h2.2c0.4,0,0.8,0.3,0.8,0.8v0.5h2.6v-1.2c0-1.5-1.2-2.6-2.7-2.6h-3.8c-1.5,0-2.7,1.2-2.7,2.6v1.4
			c-0.1,1,0.4,1.9,1.3,2.4l4.8,2.1c0.2,0.2,0.4,0.4,0.4,0.7v0.8c0,0.4-0.4,0.8-0.8,0.8h-2.2c-0.4,0-0.8-0.3-0.8-0.8v0v-0.6h-2.7v1.2
			C159.8,187.4,161,188.6,162.5,188.6L162.5,188.6z M150,134.7l-2.6,15.2c0.9,0.1,1.8,0.3,2.7,0.4l1.5-8.7l0.2,0.8
			c1,2.9,2,5.8,3,8.7c0.7,0.1,1.4,0.3,2.1,0.4l2.5-15.2c-0.8-0.2-1.7-0.3-2.6-0.5l-1.5,8.7l-0.2-0.7c-1-2.9-2-5.8-3-8.8
			C151.5,134.9,150.8,134.8,150,134.7L150,134.7z M156.3,177.7v-2.5h-8.4v13.4h2.6v-5.4h4.1v-2.5h-4.1v-2.9L156.3,177.7z M128.2,166
			l1.2-5.5l1.2,5.5H128.2z M131.8,171h2.7l-3.3-13.4h-3.6l-3.3,13.4h2.7l0.5-2.5h3.6L131.8,171z M124.5,138.2
			c0.8-0.1,1.6-0.3,2.4-0.4c0.6-0.1,1.2,0.3,1.3,0.9l0.5,3.3c0,0.3,0,0.6-0.2,0.9c-0.2,0.2-0.5,0.4-0.8,0.4
			c-0.8,0.1-1.6,0.2-2.4,0.4l-0.2,0l-0.9-5.6H124.5z M126.4,150.9l-0.7-4.6l0.2,0c0.3,0,0.7-0.1,1.1-0.1l0.1,0l0,0.1
			c1,1.4,1.9,2.7,2.9,4.1c0.9-0.1,1.7-0.2,2.6-0.4c-1-1.3-1.9-2.7-2.9-4.1l-0.1-0.2l0.2-0.1c1.2-0.5,1.9-1.8,1.7-3.1l-0.8-4.9
			c-0.2-1.4-1.5-2.5-2.9-2.5c-0.2,0-0.3,0-0.4,0c-2,0.3-4.1,0.6-6.2,1l2.5,15.2C124.6,151.2,125.5,151,126.4,150.9z M121,157.7h-2.1
			l-2.9,6.7l-2.9-6.7H111V171h2.6v-6.2l2.3,5.4l2.4-5.4v6.2h2.6V157.7z M111,175.2v13.4h7.8V186h-5.2v-10.8H111z M143.7,163.8
			c0,0.4-0.3,0.8-0.8,0.8h0h-2.4v-4.5h2.4c0.4,0,0.8,0.4,0.8,0.8V163.8L143.7,163.8z M146.4,164.4v-4.2c0-1.4-1.2-2.6-2.6-2.6h0
			h-5.8V171h2.6v-3.9h3.2C145.2,167.1,146.4,165.9,146.4,164.4z M139.3,178l1.4,5.5h-2.9L139.3,178z M137.2,186h4.2l0.6,2.5h2.7
			l-3.6-13.4h-3.6l-3.7,13.4h2.7L137.2,186z M137.9,137.9c0-0.6,0.5-1.1,1.1-1.1h0h1.7c0.6,0,1.2,0.5,1.2,1.1v7.9
			c0,0.7-0.5,1.2-1.2,1.2h-1.7c-0.6,0-1.2-0.5-1.1-1.2v0V137.9z M141.8,149.6c1.6,0,2.9-1.3,2.9-2.8l0,0v-9.6c0-1.6-1.3-2.9-2.9-3
			h-3.8c-1.6,0.1-2.9,1.4-2.9,3v9.6c0,1.6,1.3,2.9,2.9,2.9C138.3,149.6,139.8,149.6,141.8,149.6L141.8,149.6z M111.4,141.7
			c0.5-0.2,1.1-0.4,1.6-0.6c0.1,0,0.2,0,0.4,0c0.5,0,0.9,0.3,1.1,0.8l2.6,7.5c0.1,0.3,0.1,0.6-0.1,0.9c-0.1,0.3-0.4,0.5-0.6,0.5
			c-0.5,0.2-1.1,0.4-1.6,0.6c-0.1,0-0.2,0-0.4,0c-0.5,0-0.9-0.3-1.1-0.8l-2.5-7.5C110.5,142.5,110.8,141.9,111.4,141.7L111.4,141.7z
			 M113.6,154.3c0.3,0,0.7-0.1,1-0.2c1.2-0.4,2.4-0.8,3.6-1.2c0.7-0.2,1.3-0.8,1.7-1.4c0.3-0.7,0.4-1.5,0.1-2.2l-3-9.1
			c-0.4-1.2-1.6-2-2.9-2c-0.3,0-0.6,0.1-0.9,0.1c-1.2,0.4-2.4,0.8-3.6,1.2c-1.5,0.6-2.3,2.2-1.8,3.8l3.1,9.1
			C111.3,153.5,112.4,154.3,113.6,154.3z M101.7,145.7c1-0.5,2-1,3.1-1.5l-1.2-2.3c-3,1.4-5.9,3-8.8,4.6l1.2,2.2c1-0.5,2-1,3-1.6
			l0.2-0.1l5.9,11.4c0.8-0.4,1.6-0.8,2.4-1.2l-5.9-11.4L101.7,145.7z M143.1,195.1c-2.8,0-5.5,0.8-6.8,2.7h0c-2-1.4-4.4-2.1-6.8-2.2
			c-1.7,0-3.7,0.8-5.5,1.9h-0.1c-5.1-0.7-10,0.2-14.8,2.1c5-1.3,9.7-2.1,13.5-1.3v0c-2.2,1.3-4.5,2.8-6.4,3.5
			c4.1-0.4,9.3-5.1,13.4-5.1c2.7,0,5.5,1.7,6.2,2.2l0,0v0c-0.2,0.7-0.3,1.5-0.2,2.2c1.3-3.7,4-4.6,7.7-4.6c2.9,0,5.7,1,9.1,1.8
			l0.1,0c2,1.7,5.7,3.5,7.6,3.8l0.7,0.1l-0.7-0.3c-1.5-0.6-4.2-1.9-5.6-3.3l0,0h0c1.5,0.3,3,0.4,4.5,0.4c5.9,0,8.6-1,10.3-1.7
			c-1.8,0.3-3.5,0.9-9.4,0.9C154.4,198.4,147.5,195.1,143.1,195.1L143.1,195.1z M190.6,128.6c3.3-3.3,6.3-6.6,9.2-10l-0.1,0
			c-3.3,3.4-6.8,6.7-10.5,10.2h0c-0.3-2.5-0.3-5,0.2-7.4h-0.1c-0.9,2.6-1.2,5.3-1,8c0.1,0.1,0,0.2-0.1,0.3l0,0
			c-2.8,2.5-5.4,5.1-7.8,7.5l0,0v0l0,0.1l0.9,0.5h0.1l0.1,0c0.9-0.9,1.9-2,3-3.2c0.1-0.1,0.2-0.2,0.3-0.1c3.7,0,7.3-0.9,10.4-2.8
			l0-0.1c-2.6,1.2-5.4,1.9-8.3,1.9c-0.4,0-0.8,0-1.1,0h0v0C187.4,131.7,189,130.1,190.6,128.6z M97.5,138L97.5,138l0.9-0.4l0.1-0.1
			l0-0.1l-1-1c-0.1-0.1-0.1-0.2-0.1-0.3c0-3.5-1.3-6.9-3.6-9.5l-0.1,0c1.7,2.5,2.7,5.5,2.6,8.6h0c-2.2-2.2-4.6-4.5-7.1-6.7
			c-0.1,0-0.2-0.1-0.1-0.2c0.3-2.6-0.2-5.2-1.3-7.5l0,0c0.7,2.2,0.9,4.5,0.6,6.8h0c-2.8-2.6-5.9-5.6-9.5-9.4l0,0
			c3.4,4,7,7.9,10.8,11.6c0.6,0.6,1.3,1.2,2,2c-0.4,0-0.8,0-1.2,0c-3.2-0.1-6.3-0.8-9.2-2.3v0.1c3.3,2,7,3.1,10.8,3.1h0.4l0.1,0
			C93.8,134.2,95.5,135.9,97.5,138L97.5,138L97.5,138z M138.7,122.9L138.7,122.9c0.1,2,0.1,3.8,0.2,5.5c0,0,0,0.1,0.1,0.1h1.3l0.1,0
			l0-0.1c0-1.2-0.1-2.4-0.1-3.6l0-0.1c6.5-4.9,11.6-10.6,14-15.7l-0.1,0c-3,5-7.7,9.8-13.9,14.3l-0.1,0c-0.2-7.6-0.2-14,0-19.3
			c0-0.7,0-1.5,0-2.3c0-0.1,0-0.1,0.1-0.2c2.9-1.6,5.4-3.7,7.7-6.1l0,0c-2.3,2.1-4.9,3.9-7.6,5.3l-0.1,0v0c0.1-9.5,0-20.5-0.5-25.7
			h0c0,5.5,0,11.1-0.2,16.7l0,0h0h0c-2.3-2.4-4.4-5.1-6.2-7.9h-0.1c1.7,3.3,3.8,6.3,6.2,9.1c0.1,0.1,0.2,0.2,0.1,0.3
			c-0.1,3.7-0.3,7.2-0.5,10.7c0,1.2-0.1,2.5-0.1,4l-0.1,0c-3-2.2-5.7-5-7.7-8.2l0,0c1.9,3.6,4.5,6.6,7.7,9.1
			c0.1,0.1,0.2,0.2,0.1,0.3c-0.1,4.2-0.1,8.3-0.1,12.5v0h0c-5.6-3.4-10.4-8-14.1-13.5l-0.1,0C128,114.1,132.9,119.2,138.7,122.9z"/>
	</g>
</g>
<g id="Watermark">
</g>
</svg>
