<?xml version="1.0" encoding="utf-8"?>
<!-- Generator: Adobe Illustrator 19.2.1, SVG Export Plug-In . SVG Version: 6.00 Build 0)  -->
<svg version="1.1" xmlns="http://www.w3.org/2000/svg" xmlns:xlink="http://www.w3.org/1999/xlink" x="0px" y="0px"
	 viewBox="0 0 288 288" style="enable-background:new 0 0 288 288;" xml:space="preserve">
<style type="text/css">
	.st0{display:none;}
	.st1{display:inline;}
	.st2{fill:#EF3E42;}
	.st3{fill:#004B8D;}
	.st4{fill:#D7CA9E;}
	.st5{fill:#A03123;}
	.st6{fill-rule:evenodd;clip-rule:evenodd;fill:#FFFFFF;}
	.st7{fill-rule:evenodd;clip-rule:evenodd;fill:#1E3B6E;}
	.st8{fill-rule:evenodd;clip-rule:evenodd;fill:#BE2132;}
	.st9{fill-rule:evenodd;clip-rule:evenodd;fill:#E19D26;}
	.st10{fill:#DC4329;}
	.st11{fill:#DC4A26;}
	.st12{fill:#231F20;}
	.st13{fill:#FFFFFF;}
	.st14{fill:#050404;}
	.st15{fill:#263C82;}
	.st16{fill:#CC3533;}
	.st17{fill:#E82F4D;}
	.st18{fill:#010101;}
	.st19{fill:#C1C8CF;}
	.st20{fill:#365A8B;}
	.st21{fill:#29417C;}
	.st22{fill:#F47920;}
	.st23{fill:#FAA61A;}
	.st24{fill:#CCCCCC;}
	.st25{fill:#002B54;}
	.st26{fill:#ED1C24;}
	.st27{opacity:0.3;fill:#002B54;}
	.st28{fill:#020303;}
	.st29{fill:#1B9ED8;}
	.st30{fill:#189DD8;}
	.st31{fill:#43748F;}
	.st32{fill:#EB3947;}
	.st33{fill:#EB3A47;}
	.st34{fill:#44758F;}
	.st35{fill:#1F9ED8;}
	.st36{fill:#FCFDFD;}
	.st37{fill:#020202;}
	.st38{fill:#E83543;}
	.st39{fill-rule:evenodd;clip-rule:evenodd;fill:#C1A677;}
	.st40{fill-rule:evenodd;clip-rule:evenodd;fill:#212F55;}
	.st41{fill-rule:evenodd;clip-rule:evenodd;fill:#AB285C;}
	.st42{fill-rule:evenodd;clip-rule:evenodd;fill:#014A67;}
	.st43{fill:#F47A39;}
	.st44{fill-rule:evenodd;clip-rule:evenodd;fill:#242052;}
	.st45{fill:#123B35;}
	.st46{display:inline;fill:#DB2732;}
	.st47{display:inline;fill:#1D3665;}
	.st48{fill-rule:evenodd;clip-rule:evenodd;}
	.st49{fill:#F58220;}
	.st50{fill:#1A3562;}
	.st51{fill:#036B66;}
	.st52{fill:#C4CDD3;}
	.st53{fill:#EB1F4E;}
	.st54{display:inline;fill:#C4203B;}
	.st55{display:inline;fill:#164883;}
	.st56{display:inline;fill:#90BCE5;}
	.st57{display:inline;fill:#1B2F5B;}
	.st58{fill:#144983;}
	.st59{fill:#CD1F43;}
	.st60{fill:#1A459D;}
	.st61{fill:#0A2042;}
	.st62{fill:#D92E27;}
	.st63{display:inline;fill:#CF1F45;}
	.st64{fill-rule:evenodd;clip-rule:evenodd;fill:#D7CA9E;}
	.st65{fill:#1E3B6E;}
	.st66{fill:#39B54A;}
	.st67{fill:#E19D26;}
	.st68{fill:#BE2132;}
	.st69{fill:#EF5426;}
	.st70{display:inline;fill:#FFFFFF;}
	.st71{display:inline;fill:#E31837;}
	.st72{display:inline;fill:#E21D37;}
	.st73{display:inline;fill:#005596;}
	.st74{display:inline;fill:#CC3533;}
	.st75{display:inline;fill:#E82F4D;}
	.st76{display:inline;fill:#010101;}
	.st77{display:inline;fill:#2A398B;}
	.st78{fill:#999999;}
	.st79{display:inline;fill:#999999;}
	.st80{display:inline;fill:#041E41;}
	.st81{display:inline;fill:#D4451D;}
	.st82{display:inline;fill:#EA7200;}
	.st83{display:inline;fill:#BDBBBB;}
	.st84{fill:#041E41;}
	.st85{fill:none;stroke:#000000;stroke-width:0.34;}
	.st86{fill:#D4451D;}
	.st87{fill:#EA7200;}
	.st88{fill:#BDBBBB;}
	.st89{fill:none;stroke:#EA7200;stroke-width:0;stroke-linecap:round;stroke-linejoin:round;}
	.st90{fill:#9C9FA1;}
	.st91{fill-rule:evenodd;clip-rule:evenodd;fill:#333290;}
	.st92{fill:#005B9B;}
	.st93{fill:#EF4043;}
	.st94{fill-rule:evenodd;clip-rule:evenodd;fill:#09A2DD;}
	.st95{fill-rule:evenodd;clip-rule:evenodd;fill:#43758E;}
	.st96{fill-rule:evenodd;clip-rule:evenodd;fill:#FCEE1E;}
	.st97{fill-rule:evenodd;clip-rule:evenodd;fill:#EE3441;}
	.st98{fill:#B89760;}
	.st99{fill:#D52D47;}
	.st100{fill-rule:evenodd;clip-rule:evenodd;fill:#0B2242;}
	.st101{fill:#F37938;}
	.st102{fill:#164883;}
	.st103{fill:#8E6D2A;}
	.st104{fill-rule:evenodd;clip-rule:evenodd;fill:#1A314F;}
	.st105{fill-rule:evenodd;clip-rule:evenodd;fill:#8F3326;}
	.st106{fill-rule:evenodd;clip-rule:evenodd;fill:#B68E64;}
	.st107{fill:#03493B;}
	.st108{fill:#FCC158;}
	.st109{fill:#BB544F;}
	.st110{fill:#D0B04A;}
	.st111{fill-rule:evenodd;clip-rule:evenodd;fill:#B6A269;}
	.st112{fill-rule:evenodd;clip-rule:evenodd;fill:#001F5B;}
	.st113{fill:#1D3665;}
	.st114{fill:#FFFFFF;stroke:#FFFFFF;stroke-width:0.16;}
	.st115{fill:#004666;}
	.st116{fill:none;stroke:#037062;stroke-width:2.8199;}
	.st117{fill:#BCCBD2;}
	.st118{fill:#037062;}
	.st119{fill:#E63248;}
	.st120{fill:none;stroke:#E63248;stroke-width:0.2826;}
	.st121{fill:none;stroke:#037062;stroke-width:1.0988;}
	.st122{fill:none;stroke:#BCCBD2;stroke-width:4.9365;}
	.st123{fill:#FCEE21;}
	.st124{fill:#FCEE23;}
	.st125{fill:#C4203B;}
	.st126{fill:#193661;}
	.st127{fill:#164884;}
	.st128{fill:#CF1F44;}
	.st129{fill:#0A2042;stroke:#010101;stroke-width:0.2131;}
	.st130{fill:#CF1F45;}
	.st131{fill:#1E3160;}
	.st132{fill:#BA202E;}
	.st133{fill:#212759;}
	.st134{fill:#BA1F31;}
	.st135{fill:#7BBCE8;}
	.st136{fill:#FED208;}
	.st137{fill:#6DB3E3;}
	.st138{fill:#FFCE04;}
	.st139{fill:#1B2F5B;}
	.st140{fill:#90BCE5;}
	.st141{fill:#D8782C;}
	.st142{fill:#C49C6F;}
	.st143{fill:#F04B23;}
	.st144{display:inline;fill-rule:evenodd;clip-rule:evenodd;fill:#F58220;}
	.st145{fill:#094F91;}
	.st146{fill:#DB2732;}
	.st147{fill:none;}
	.st148{fill:#00174A;}
	.st149{fill:none;stroke:#FFFFFF;stroke-width:3;stroke-miterlimit:10;}
	.st150{fill:none;stroke:#000000;stroke-width:0.1055;stroke-linecap:round;stroke-linejoin:round;}
	.st151{fill:#25358E;}
	.st152{fill:#ED1C2E;}
	.st153{fill:#FFFFFF;stroke:#000000;stroke-width:0.3293;stroke-linecap:round;stroke-linejoin:round;}
	.st154{display:inline;fill-rule:evenodd;clip-rule:evenodd;fill:#00174A;}
	.st155{fill:#0D2240;}
	.st156{display:inline;fill:#8EC641;}
	.st157{fill:#182D56;}
	.st158{fill:#BE323A;}
	.st159{fill:#C62034;}
	.st160{fill:#0B1437;}
	.st161{fill:#EC2135;}
	.st162{fill:#8EC641;}
	.st163{fill-rule:evenodd;clip-rule:evenodd;fill:#332312;}
	.st164{fill:#E4E5E6;}
	.st165{clip-path:url(#XMLID_4225_);}
	.st166{clip-path:url(#XMLID_4226_);fill:url(#XMLID_4227_);}
	.st167{clip-path:url(#XMLID_4228_);}
	.st168{clip-path:url(#XMLID_4229_);fill:url(#XMLID_4230_);}
	.st169{clip-path:url(#XMLID_4231_);}
	.st170{clip-path:url(#XMLID_4232_);fill:url(#XMLID_4233_);}
	.st171{clip-path:url(#XMLID_4234_);}
	.st172{clip-path:url(#XMLID_4235_);fill:url(#XMLID_4236_);}
	.st173{clip-path:url(#XMLID_4237_);}
	.st174{clip-path:url(#XMLID_4238_);fill:url(#XMLID_4239_);}
	.st175{clip-path:url(#XMLID_4240_);}
	.st176{clip-path:url(#XMLID_4241_);fill:url(#XMLID_4242_);}
	.st177{clip-path:url(#XMLID_4243_);}
	.st178{clip-path:url(#XMLID_4244_);fill:url(#XMLID_4245_);}
	.st179{clip-path:url(#XMLID_4246_);}
	.st180{clip-path:url(#XMLID_4247_);fill:url(#XMLID_4248_);}
	.st181{fill:#A4A9AD;}
	.st182{fill:#F05123;}
	.st183{fill:#8E744B;}
	.st184{fill:#EEE0C6;}
	.st185{fill:#8F182B;}
	.st186{fill:#FFC526;}
	.st187{fill:#B0B8BC;}
	.st188{fill:#FCBB30;}
	.st189{fill:#E21D38;}
	.st190{fill:#FFC759;}
	.st191{fill:#E03B3F;}
	.st192{fill:#8E8F92;}
	.st193{fill:#E13B3F;}
	.st194{fill:#FDDF0A;}
	.st195{fill:#E7AA23;}
	.st196{fill:#F37321;}
	.st197{fill:#008056;}
	.st198{fill:#E2293A;}
	.st199{fill:#1F438B;}
	.st200{fill:#005588;}
	.st201{fill:#A7B2B8;}
	.st202{fill:#8C2A43;}
	.st203{fill:#1C2D5B;}
	.st204{fill:#0C724D;}
	.st205{fill:#232020;}
	.st206{fill:#A8ABAD;}
	.st207{fill:#EB2627;}
	.st208{fill:#E56C25;}
	.st209{fill:#203C73;}
	.st210{fill:#B99758;}
	.st211{fill:#C8202F;}
	.st212{fill:#EEE3C6;}
	.st213{fill:#045937;}
	.st214{fill:#C02C38;}
	.st215{fill:#EEB41E;}
	.st216{fill:#F37E2F;}
	.st217{fill:#01549C;}
	.st218{fill:#0862AB;}
	.st219{fill:#E43B40;}
	.st220{fill:#DF1E38;}
	.st221{fill:#CD9C2B;}
	.st222{fill:#F47A3E;}
	.st223{fill:#FBB516;}
	.st224{fill:#E97424;}
	.st225{fill:#056D75;}
	.st226{fill:#142048;}
	.st227{fill:#FFC429;}
	.st228{fill:#114B9D;}
	.st229{fill:#213065;}
	.st230{fill:#1D2859;}
	.st231{fill:#A8AAAD;}
	.st232{fill:#1D427C;}
	.st233{fill:#153055;}
	.st234{fill:#AFB0B3;}
	.st235{fill:#20396F;}
	.st236{fill:#BE3138;}
	.st237{fill:#B4975A;}
	.st238{fill:#344042;}
	.st239{fill:#14244C;}
	.st240{fill:#D0202D;}
	.st241{fill:#A9A9AD;}
	.st242{fill:#1D3261;}
	.st243{fill:#811423;}
	.st244{fill:#6F6E76;}
	.st245{fill:#C62031;}
</style>
<g id="Layer_5" class="st0">
</g>
<g id="Layer_3">
</g>
<g id="Layer_4">
	<g id="XMLID_3905_">
		<path id="XMLID_4016_" class="st13" d="M89.5,123.4c1.7-0.6,1.7-0.4,0.2-1.2c-1.5-0.8-7.3-2.7-7.3-2.7s-0.4,1.7-0.2,2.3
			c0.2,0.6,0.2,2,0,2.8C82.2,124.6,87.8,124,89.5,123.4"/>
		<path id="XMLID_4015_" class="st13" d="M94.5,133c-2.2,1.4-4.4,1.8-8.4,2.1c0.4,0.8,1.3,1.5,2.6,1.4c-1.4,1.3-2,2.3-2.2,3
			c3.2-1.5,5.5-2.2,9.8-2c7,0.4,7.1-2.8,5.4-5.5C100.1,129.3,96.3,131.9,94.5,133"/>
		<path id="XMLID_4014_" class="st13" d="M152.8,128.4l-6.2,3c-0.4,0.7-0.9,1.4-1.3,2.1l6.8-3.3c-1.4,3.6-2.8,7.4-4,11
			c-2.2,1.5-6.9,3.3-8.7,3.9c-0.2,0.5-0.4,1-0.6,1.5c1.8-0.6,6.6-2.3,8.7-3.8c-2,5.9-3.4,10.8-3.9,12.7c-0.1,0.3,0.1,0.6,0.4,0.7
			c0.3,0.1,0.6-0.1,0.7-0.4c0.4-1.8,1.8-6.3,3.6-11.6c0.9,2.4,2.7,5.5,4.4,7.4c0.4-0.4,0.6-0.6,0.8-0.7c0,0,0-0.1,0-0.1
			c-1.8-2-3.7-6-4.5-8.8c1.1-3.2,2.3-6.6,3.6-9.9c0.7,1.7,2.6,4.8,3.4,6.1c0.1-0.6,0.3-1.3,0.4-1.9c-0.8-1.2-2.7-4.2-3.2-5.9
			c2-5.2,4-9.8,5.5-12.1c0.4-0.7,1.1-2.5,0.6-2.7C157.4,118.1,155.1,122.9,152.8,128.4"/>
		<path id="XMLID_4006_" class="st13" d="M222.2,164.7c-0.3-0.1-0.6-0.2-1-0.2c-2.9-0.6-6.3-1.4-11.1-7.7l2.5-7.9
			c1.8,3.2,3.2,5.7,3.7,6.8c0.1,0.3,0.5,0.4,0.8,0.3c0.3-0.1,0.4-0.5,0.3-0.8c-0.5-1.2-2-3.8-3.9-7.1l7.2,1.3
			C222.1,154.3,222.7,159.4,222.2,164.7 M200.6,140.3l2.7-7.4c3.1,5.2,6.2,10.5,8.7,14.7l-2.6,8.1
			C206.8,152.2,203.9,147.3,200.6,140.3 M193.6,124.1l1-5.7c2.3,3.8,5.1,8.4,7.9,13.2l-2.6,7.2C198,134.6,195.9,129.8,193.6,124.1
			 M185.6,103.1c-0.1-0.3,0.1-0.6,0.5-0.3c1,1,2.1,2.1,3.4,3.3c3.4,3.2,7.5,7.1,11.7,11.7l-6.7-1.7c-2.4-4-4.1-6.7-4.4-7.1
			c-0.2-0.3-0.5-0.3-0.8-0.2c-0.3,0.2-0.3,0.5-0.2,0.8c0.4,0.7,2.2,3.5,4.5,7.4l-0.9,5.1C190.6,116.5,188.2,110.2,185.6,103.1
			 M213.7,134l-10.4-3.2c-2.9-4.8-5.7-9.5-8.1-13.4l7.3,1.8C206.5,123.7,210.4,128.6,213.7,134 M214.6,135.5c2.4,4,4.3,8.3,5.7,12.7
			l-7.5-1.4c-2.4-4.2-5.5-9.3-8.5-14.4l10.2,3.1C214.5,135.5,214.6,135.5,214.6,135.5 M190.3,105.2c-2.4-2.3-4.4-4.2-5.7-5.7
			c-0.3,0.5-0.6,0.9-0.9,1.3c21.6,61.2,30.4,63.2,37.4,64.7c0.5,0.1,1.1,0.2,1.6,0.4l0.6,0.2l0.1-0.7
			C226,139.2,202.8,117.1,190.3,105.2"/>
		<path id="XMLID_4005_" class="st13" d="M74.5,175.3c-0.3-0.1-0.7-0.1-0.6,0.4c0,0,0.7,3.2,0.7,4.5c0,0.6,0,1.1-0.1,1.6
			c2.5,8.3,10.2,3.7,4.6-2.8C77.1,178.2,75.6,175.8,74.5,175.3"/>
		<path id="XMLID_4004_" class="st194" d="M190.1,169.5c-0.7-1.6-1.6-5.8-2.6-11.4l-3.9,4.9c1.2,3.7,2.5,7.3,4.2,10.6L190.1,169.5z"
			/>
		<path id="XMLID_4003_" class="st194" d="M186.6,145.5c0.6,4,1.2,7.7,1.8,11l7.8,4.3c-0.1-3-0.4-6.4-1-10.3L186.6,145.5z"/>
		<path id="XMLID_4002_" class="st194" d="M179.1,139c0.3,3.4,0.7,6.8,1.3,10.2l4.8-5c-0.5-3.1-1-6.4-1.5-9.7L179.1,139z"/>
		<path id="XMLID_4001_" class="st194" d="M182.3,101.9c-0.5,0.3-1.1,0.6-1.7,0.7c2,4.4,3.8,8.6,5.3,12.5
			C184.7,111,183.5,106.6,182.3,101.9"/>
		<path id="XMLID_4000_" class="st194" d="M181.3,110.9c0.9,5.4,1.8,11.8,2.8,18.4c0.2,1.3,0.4,2.7,0.6,4l7.6,4.4
			c-2.1-7.8-5.2-16.9-9.6-27.4C182.1,108.9,181,109.5,181.3,110.9"/>
		<path id="XMLID_3999_" class="st194" d="M184.9,134.8c0.5,3.1,1,6.2,1.4,9.3l8.5,5.1c-0.5-3-1.2-6.3-2.1-9.8L184.9,134.8z"/>
		<path id="XMLID_3998_" class="st194" d="M183.5,133.1c-0.2-1.2-0.4-2.4-0.5-3.6c-1-6.6-2-13-2.8-18.4c-0.2-1.2-1.5-1.3-1.6,0.4
			c-0.3,6.9-0.4,16.1,0.4,25.9L183.5,133.1z"/>
		<path id="XMLID_3997_" class="st194" d="M187.2,156.5c-0.6-3.3-1.2-7-1.8-10.9l-4.8,4.9c0.7,3.7,1.5,7.5,2.6,11.1L187.2,156.5z"/>
		<path id="XMLID_3996_" class="st194" d="M201,154.3c-2.1-3.3-4.6-8.2-6.4-12.3c5.6,24,1.2,34.8-0.8,39.9l-0.4,1.1l-0.4,0.9
			l-0.6-0.8c-18-22.9-15.3-65.5-14.5-79.5c0-0.3,0-0.7,0.1-1c-0.1,0-0.3-0.1-0.4-0.1l-1.1,0.3c-0.6,2.9-0.6,31.9,0.2,40.6
			c0.8,8.7,2.8,20,3,24.7c0.4,1,5,8.6,6.8,12c1.7,3.3,4.1,7.4,4.7,11.3C200.9,182.1,202.7,167,201,154.3"/>
		<path id="XMLID_3995_" class="st194" d="M196.2,162.2l-7.5-4.2c1,5.7,1.9,9.9,2.5,11.1l4.1,3.8C195.9,170,196.2,166.5,196.2,162.2
			"/>
		<path id="XMLID_3994_" class="st194" d="M192.7,181.4c0.7-1.7,1.6-4,2.3-7.2l-4.2-3.8l-2.4,4.5c1.2,2.4,2.6,4.6,4.2,6.7
			L192.7,181.4z"/>
		<path id="XMLID_3985_" class="st194" d="M174.1,181.6c-2.4-1.2-5-2.8-6.6-4.4c-0.3-3.2-0.5-8.2-0.4-14c2,1.9,5.9,4.4,7.3,5.2
			C174.7,173.3,174.5,177.7,174.1,181.6 M172.9,189.1c-1.4,1.5-4.2-1.8-5.3-3.9l-0.4,1.2c-1.7,3.6-3,3.1-4,1.9c-0.5-2.3-1-4.6-1.3-7
			c1.1-0.6,3.8-2.2,5-3.1c1.5,1.7,5.9,4.2,7,4.8C173.6,185.2,173.3,187.2,172.9,189.1 M160.7,165.9l5-3.5c0,5.8,0.2,10.9,0.6,14.5
			c-1.2,1.2-3.6,2.5-4.6,3.1C161.1,175.4,160.7,170.7,160.7,165.9 M161.6,150.2c1-0.7,3.5-2.6,4.6-3.8c-0.3,5-0.5,10-0.5,14.5
			c-1.1,1.1-3.7,2.9-5.1,3.8C160.7,160,161,155.2,161.6,150.2 M162.4,144.5c1.1-7,2.5-12.9,4.4-19.2c0.4-1.6,1.7-1.8,1.5-0.1
			c-0.8,6-1.5,12.7-1.9,19.4c-0.7,1.1-3.5,3.3-4.6,4.1C162,147.3,162.2,145.9,162.4,144.5 M171.1,125.7c0.3,8.1,0.9,17.3,1.5,24
			c-1.3-0.8-3.5-2.4-5-3.8c0.4-7.2,1-14.5,1.8-20.8C169.8,123.1,170.9,123.7,171.1,125.7 M173.4,158.1c0.5,3.1,0.8,6.1,0.9,8.9
			c-1.9-1.1-5.4-3.6-7.2-5.5c0.1-4.4,0.2-9.2,0.4-14.1c1.5,1.4,3.8,3.1,5.2,3.9C173,154.5,173.2,156.9,173.4,158.1 M172.3,106.1
			c-5,12.8-9.1,25.6-11,38.2c-3.4,22.2-1.6,41.8,5.4,58.1c0,0.3,0.6,0.9,1.1,1c0.7,0.2,0.8-0.4,1.2-1c1-1.5,9.9-15.5,5.6-44.5
			C173.7,152.2,171.2,111.1,172.3,106.1"/>
		<path id="XMLID_3982_" class="st194" d="M142.5,182.8c0-1.1,0.2-1.5,0.3-1.6c1.2-0.4,2.2,1.1,2.9,3.3c0.2,1.5,0.3,2.9,0.3,4.1
			C144.3,187.1,142.6,185.1,142.5,182.8 M161,100.4v0.2c0.6,0,1.1-0.6,1.1-1.2c0-0.6-0.5-1.1-1.2-1.1c-10.9-0.3-27.3,1.2-37,3.4
			c-0.5-4.9-2-7.9-3.7-11.2c-1-2-2.1-4.1-3-6.8c-1.2-3.4-1.1-5.8,0.1-6.8c1.5-1.3,4.8-0.7,6.9,0.6c0.4,0.2,0.8,0.5,1.2,0.8
			c4.1,2.7,10.9,7.2,18.3,1.3c2.1-1.7,3.8-2.3,5-1.9c2.3,0.7,3.6,5,4.8,9l0.1,0.3c0.8,2.6,2.3,4.5,4.4,5.6c2.9,1.5,6.8,0.5,8.7-0.6
			c0.5-0.3,0.7-0.9,0.4-1.4c-0.3-0.6-1-0.8-1.5-0.4c-1.2,0.7-4.2,1.7-6.6,0.5c-1.6-0.8-2.7-2.4-3.3-4.4l-0.1-0.3
			c-1.4-4.6-2.9-9.3-6.3-10.4c-2-0.7-4.3,0.1-7.1,2.3c-6.1,4.9-11.9,1.1-15.7-1.4c-0.5-0.3-0.9-0.6-1.3-0.8
			c-2.2-1.4-6.8-2.9-9.5-0.6c-2.1,1.7-2.3,4.9-0.8,9.4c1,2.9,2.1,5.1,3.2,7.1c2.8,5.5,5,9.9,2.5,25.3c-3.7,22-4.3,30.8,3.4,42
			c1.6,2.4,3,4.2,4.2,5.9c4.4,5.9,6.2,8.3,6.7,18.6c0.4,7.1,2.5,12.3,5.8,13.8c1.5,0.7,3.2,0.6,4.5-0.5c1.1-0.9,1.9-2.3,2.4-4.1
			c0.2,0.1,0.3,0.2,0.4,0.3c1.3,0.7,3.5-0.1,4.9-1.8c1.4-1.7,3.8-6.8-3.9-16.3c-1.9-2.3-3.9-4.4-5.9-6.5c-2.2-2.3-4.3-4.5-6.2-6.9
			c-3.5-4.5-7.8-10.2-6.5-25.2l0.8-9.1c0.5-6.4,0.6-6.8,1.1-9c0.7-3,1.7-4.4,2.2-4.5c0.2,0,0.9,0.3,1.7,1.9c1.8,3.1,3.5,4.6,5,4.2
			c1.8-0.4,2.2-3,2.4-4.9c0.5-6.8,1.6-7.1,1.6-7.1c0,0,0.6,0,2,1.9c1.8,2.5,2.9,4,4.4,3.7c1.5-0.3,2-2,3.2-6.7l0.3-1.1
			c0.2-0.6-0.2-1.3-0.8-1.4c-0.6-0.2-1.2,0.4-1.4,1l-0.3,1.1c-0.5,2.1-1.1,4.1-1.5,4.9c-0.6-0.5-1.7-2-2.1-2.6
			c-1-1.4-2.6-3.3-4.4-2.8c-1.8,0.5-2.8,3.2-3.3,9.2c-0.2,2-0.5,2.6-0.6,2.8c-0.3-0.1-1.3-0.9-2.5-3.1c-0.5-0.8-1.9-3.5-4-3.2
			c-2.2,0.3-3.4,3.6-4.1,6.2c-0.6,2.4-0.6,2.9-1.2,9.4l-0.8,9.1c-1.4,15.9,3.5,22.2,7,26.9c1.9,2.5,4.2,4.8,6.3,7.1
			c1.9,2,3.9,4.1,5.7,6.3c4.4,5.4,5.9,10.1,4.2,12.9c-0.8,1.4-2.1,1.7-2.4,1.7c-0.3-0.2-0.6-0.4-1-0.6c0.2-1.8,0.1-3.9-0.2-6.1
			c-0.4-2.6-3-5.4-5.5-5.1c-1,0.1-2.3,0.9-2.2,4c0.1,3.6,2.9,6.5,5.5,8.3c-0.4,1.8-1.1,3-1.8,3.5c-0.7,0.5-1.4,0.6-2.2,0.2
			c-1.8-0.9-4.1-4.5-4.5-11.8c-0.6-11-2.6-13.8-7.1-19.8c-1.2-1.6-2.6-3.5-4.2-5.8c-7.2-10.6-6.6-19-3-40.3c1-5.7,1.3-10,1.2-13.4
			C133.8,101.5,148.6,100,161,100.4"/>
		<path id="XMLID_3974_" class="st195" d="M119.9,185.4c-2.7-0.8-3.9-4.9-2.8-9.3c1.2-4.4,4.3-7.3,7-6.6c2.7,0.8,3.9,4.9,2.8,9.3
			C125.7,183.2,122.5,186.1,119.9,185.4 M109.2,162.3c-13.4-4.1-4.9-21.1,1.3-19.4C102.4,150.4,106.5,159.2,109.2,162.3 M93.5,139.9
			c4.8-2.3,6.2,2.5,1.7,3.9c-12.9,3.9-13.9-2.9-10.9-5.8c-7.9-4.9,2.3-8.9,6.6-10.3c4.3-1.4,4.1,2.9,1.7,3.5
			c-2.5,0.6-3.4,1.2-5.5,1.7c-1.1,0.3-1.3,1.3-0.9,2.1c4-0.2,6.1-0.6,8.4-2.1c1.8-1.2,5.6-3.8,7.3-1c1.7,2.7,1.6,5.9-5.4,5.5
			c-4.3-0.2-6.6,0.5-9.8,2C86.2,141.6,89.9,141.7,93.5,139.9 M78.4,131c-1.4,0.3-0.4-3.2-0.6-4.1c-1.6,0.3-4.6-0.1-4.9-0.8
			c-0.4-0.8,1.5-1.3,5.2-1.5c-0.3-1.8-0.9-5.2,0.2-7c-2.8-1-6-1.6-3.4-3.6c2.2-1.7,1.7-2.7,1.7-2.7c-1.4-1.1-3.1-3.6,0.5-5.1
			c3.6-1.5,8.5-0.7,11.1,1.4c3,2.4,7.1,5.2,10.4,4.7c5.2-0.7,4.1,1.8,0.9,3.1c-3.7,1.5-9.1-1.3-10.3-2.1c-1.2-0.8-4.9-2.8-5.5-1.1
			c-0.6,1.6-1.6,2.8-0.3,3.7c2.7,1.9,7.1,4.6,9.6,5.8c1.8,0.9,1.6,2.2-1.7,3.1c-3.8,1-9.7,1.9-9.7,1.9
			C81.1,128.9,79.8,130.7,78.4,131 M93.1,93.6c3-2.1,4.7-3.5,4.7-3.5c2.1-1.4,2-0.6,3.4,0.4c1.7,1.2,4.7,4.2,5.7,5.2
			c1.9,1.9,0.3,3.4-1.2,1.5c-2.6-3.6-6.2-5.7-6.2-5.7l-1.7,1.2c2.8,2.5,9.2,8.1,11.7,12.3c0.7,1.2-0.7,2.1-1.7,0.7
			C104.3,101.1,96,94.1,96,94.1l-1.7,1.2c2.1,2.1,5.1,4.3,6.2,6.3c1.1,1.9,0.3,3.4-1.3,1.3c-2-2.6-4.6-4.6-4.6-4.6
			C92.7,96.7,90.1,95.7,93.1,93.6 M79.6,179.3c-0.2-0.1-0.5-0.1-0.7-0.2c5.6,6.5-2.1,11.1-4.6,2.8c-0.8,4.4-5.2,2.9-4.6-0.2
			c0.3-1.7,0.4-4.9,0.4-6.4c0-0.6-0.9-2,0.3-2.4c1.2-0.4,2-0.6,2.8-1.2c1.2-0.8,1.8,0.4,2.2,0.7c1.6,1,3.4,1.7,5.2,2.4
			C85.6,176.4,82.5,179.9,79.6,179.3 M127,182.9c5.3-13.2-3.4-16.4-5.9-14.5c-13.6-21.9-8.4-38.8-7.3-46.7
			c4-29.7-9.1-33.7-13.6-37.2c-5.4,2.6-18.4,13.5-25.7,20.2c-7.3,6.7-5.1,9.4-4.5,13.2c0.6,3.8-1.7,7.3-3.1,9.4
			c-1.4,2-1.9,3.4-7.6,12.4c-5.7,9-0.3,11.3,2.8,11.3c3.1,0,9-1.1,14.2-1.6c1.7-0.1,3.6-1.9,2.1-4c-1.4-2.1-3.2-3.3-5.3-3.2
			c-1.8,0.1-2.5,2.5,0.2,3.1c2.3-0.5,2.7,2.7-1.4,1.4c-2.8-0.9-3.8-7.1,1.9-6.3c5.3,0.7,7.8,5.2,7.1,8.7c0.8,0.3,4.8,2.7,5.8,5.4
			c1.7,4.7-0.7,4.4-1.8,1.5c-2.6-6.8-11.2-4.3-16.6-3.8c-3.1,0.3-2.4,0.7-2.9,2.4c-1.4,4.7-2.3,9.2,0.8,10.1
			c2.5,0.7,8.4-0.5,10.6-1.1c2.3-0.6,2-2.3-0.3-2c-2.3,0.3-3.4-2,0-2.6c3.4-0.6,5.4,1.2,5.1,2.6c-0.3,1.5,0.6,2.6,1.4,2.9
			c0.8,0.3,1.5,2.3,1.7,3.5c0.6,3.8-2.5,3.2-2.3,0.6c0.1-1.2-1.7-2.9-3.4-2c-1.7,0.9-9.9,1.7-13.6,1.2c-2.5,2.6-1,5.3-0.2,6.4
			c0.8,1.2,1.3,5.2,0.2,7.7c-3.7,8.4,4.8,11.5,8.2,11.7c12.1,0.8,21.7-1.3,30.3-4.6c4.4-1.9,7.3-5.6,9.8-9c-0.8,3.6-2.6,7-5.6,9.2
			c-4.2,2.9-11.4,5.1-15.7,6.2c0,0,0.7,5.3,1.8,9c1,3.2,2.9,5.6,3.7,7.8c1.1,2.9,1.8,6,5.2,5c14-4.1,26.3-10.4,32.8-14.5
			C135.4,201.8,128.7,186.7,127,182.9"/>
		<path id="XMLID_3973_" class="st195" d="M123.3,172.4c-1.7-0.5-3.4,1.2-4.1,4c-0.7,2.8-0.3,5.6,1.4,6.1c1.7,0.5,3.2-1.6,3.9-4.4
			C125.3,175.3,125,172.9,123.3,172.4"/>
		<path id="XMLID_3972_" class="st195" d="M81.5,110.9c-1.8,0.3-3.9,1-4.3,1.5c-0.3,0.4,2.3,1.7,3.2,2.1c0.9,0.4,1-0.5,1.4-1.4
			C82.1,112.2,83.3,110.6,81.5,110.9"/>
		<polygon id="XMLID_3971_" class="st196" points="182.6,82.3 172.8,82.3 179.1,89.3 182.6,89.3 		"/>
		<path id="XMLID_3970_" class="st196" d="M211.9,147.6c-2.4-4.2-5.5-9.5-8.7-14.7l-2.7,7.4c3.4,7,6.2,11.9,8.7,15.4L211.9,147.6z"
			/>
		<path id="XMLID_3969_" class="st196" d="M193.6,124.1c2.3,5.7,4.4,10.6,6.4,14.7l2.6-7.2c-2.8-4.7-5.6-9.3-7.9-13.2L193.6,124.1z"
			/>
		<path id="XMLID_3968_" class="st196" d="M214.5,135.5l-10.2-3.1c3.1,5.1,6.1,10.3,8.5,14.4l7.5,1.4c-1.4-4.4-3.4-8.7-5.7-12.7
			C214.6,135.5,214.5,135.5,214.5,135.5"/>
		<path id="XMLID_3967_" class="st196" d="M226.9,153.7c-4.5-29.9-37.5-52.8-41.4-56.9l-0.1,0.2c-0.1,0.9-0.4,1.8-0.8,2.6
			c1.3,1.5,3.3,3.3,5.7,5.7c12.5,11.9,35.7,34,33,60.2l-0.1,0.7l-0.6-0.2c-0.5-0.1-1-0.3-1.6-0.4c-7.1-1.6-15.8-3.5-37.4-64.7
			c-0.4,0.4-0.8,0.8-1.3,1c1.2,4.7,2.4,9.1,3.6,13.2c2.8,7.2,5,13.6,6.7,19.4c15.4,37.9,31.2,36.1,34.8,35.9
			C226.3,167.7,227.9,160.1,226.9,153.7"/>
		<path id="XMLID_3966_" class="st196" d="M189.5,106.1c-1.3-1.2-2.4-2.3-3.4-3.3c-0.4-0.3-0.6-0.1-0.5,0.3c2.6,7.2,4.9,13.5,7.1,19
			l0.9-5.1c-2.4-3.9-4.1-6.7-4.5-7.4c-0.2-0.3-0.1-0.6,0.2-0.8c0.3-0.2,0.6-0.1,0.8,0.2c0.3,0.4,2,3.2,4.4,7.1l6.7,1.7
			C197,113.2,192.9,109.3,189.5,106.1"/>
		<path id="XMLID_3965_" class="st196" d="M195.3,117.5c2.3,3.8,5.2,8.6,8.1,13.4l10.4,3.2c-3.3-5.4-7.2-10.3-11.1-14.7L195.3,117.5
			z"/>
		<path id="XMLID_3964_" class="st196" d="M221.3,164.4c0.3,0.1,0.6,0.2,1,0.2c0.4-5.3-0.2-10.4-1.5-15.2l-7.2-1.3
			c1.9,3.4,3.3,5.9,3.9,7.1c0.1,0.3,0,0.6-0.3,0.8c-0.3,0.1-0.6,0-0.8-0.3c-0.5-1.1-1.9-3.6-3.7-6.8l-2.5,7.9
			C215,163,218.4,163.8,221.3,164.4"/>
		<path id="XMLID_3963_" class="st197" d="M167.1,161.4c1.9,1.9,5.3,4.4,7.2,5.5c-0.2-2.8-0.5-5.7-0.9-8.9c-0.2-1.2-0.4-3.6-0.7-6.8
			c-1.3-0.8-3.7-2.5-5.2-3.9C167.3,152.3,167.2,157.1,167.1,161.4"/>
		<path id="XMLID_3962_" class="st197" d="M167.1,163.1c0,5.9,0.1,10.8,0.4,14c1.6,1.7,4.2,3.3,6.6,4.4c0.4-3.9,0.6-8.3,0.4-13.3
			C173,167.5,169.1,165,167.1,163.1"/>
		<path id="XMLID_3959_" class="st197" d="M169,202.4c-0.4,0.6-0.6,1.2-1.2,1c-0.6-0.2-1.1-0.7-1.1-1c-7-16.4-8.8-35.9-5.4-58.1
			c1.9-12.6,6-25.4,11-38.2c-1.1,5,1.4,46.1,2.2,51.8C178.8,186.9,170,200.9,169,202.4 M174.5,103.2c0.3-0.9,0.5-1.6,0.7-2.1
			c-0.4-0.4-0.8-0.9-1.1-1.4c-7.1,10-27.8,71-7.7,105c0.8,1.5,2.3,1.7,3,0.8c3.7-3.6,10.6-22.1,8-37.1
			C174.6,152.6,173,108.3,174.5,103.2"/>
		<path id="XMLID_3958_" class="st197" d="M172.6,149.7c-0.5-6.7-1.1-15.9-1.5-24c-0.2-2-1.3-2.7-1.7-0.6
			c-0.8,6.3-1.4,13.6-1.8,20.8C169.1,147.3,171.3,148.9,172.6,149.7"/>
		<path id="XMLID_3957_" class="st197" d="M165.8,162.3l-5,3.5c0,4.8,0.3,9.5,1,14c1.1-0.6,3.4-1.9,4.6-3.1
			C165.9,173.2,165.7,168.2,165.8,162.3"/>
		<path id="XMLID_3956_" class="st197" d="M161.9,181.2c0.4,2.4,0.8,4.7,1.3,7c0.9,1.1,2.2,1.6,4-1.9l0.4-1.2
			c1.1,2.2,3.9,5.4,5.3,3.9c0.4-1.8,0.8-3.9,1.1-6.2c-1.1-0.6-5.5-3.1-7-4.8C165.7,179.1,163,180.6,161.9,181.2"/>
		<path id="XMLID_3955_" class="st197" d="M166.4,144.6c0.4-6.7,1-13.4,1.9-19.4c0.2-1.7-1.1-1.5-1.5,0.1
			c-1.9,6.2-3.3,12.2-4.4,19.2c-0.2,1.4-0.4,2.8-0.6,4.3C162.9,147.9,165.7,145.7,166.4,144.6"/>
		<path id="XMLID_3954_" class="st197" d="M166.3,146.4c-1.1,1.3-3.7,3.1-4.6,3.8c-0.6,5-0.9,9.8-0.9,14.5c1.4-1,3.9-2.8,5.1-3.8
			C165.8,156.3,166,151.4,166.3,146.4"/>
		<path id="XMLID_3951_" class="st197" d="M179.2,99.5c-1.6,0-3-1.4-3-3.1c0-1.7,1.3-3.1,3-3.1c1.6,0,3,1.4,3,3.1
			C182.2,98.1,180.9,99.5,179.2,99.5 M179.2,91.6c-2.6,0-4.7,2.2-4.7,4.8s2.1,4.8,4.7,4.8c2.6,0,4.7-2.2,4.7-4.8
			S181.8,91.6,179.2,91.6"/>
		<path id="XMLID_3950_" class="st197" d="M191.7,86.7c-2.2,0.9-4.6,2.7-6,4.7l1.5,4.2l6.6-1.6L191.7,86.7z"/>
		<path id="XMLID_3947_" class="st197" d="M156.1,138.2c-1.2,5.5-2.1,10.1-2.4,12.5c0,0,0,0.1,0,0.1c-0.2,0.2-0.4,0.4-0.8,0.7
			c-0.4,0.4-1,1-1.9,1.9c-2.3,2.3-5.3,5.4-7.4,7c-1.1-2.1-4.9-9.4-5.4-12.1c0.2-0.6,0.4-1.2,0.6-1.8c0.2-0.5,0.4-1,0.6-1.5
			c1.6-3.9,3.6-7.8,5.9-11.6c0.4-0.7,0.9-1.4,1.3-2.1c6.6-10.6,14.6-20.4,19.8-26.2c-3.9,8.1-7.5,20.9-9.8,31.1
			C156.4,137,156.2,137.6,156.1,138.2 M137.1,148.1l-0.1,0.1l0,0.2c0.6,3.2,5.7,12.8,5.9,13.2l0.3,0.5l0.5-0.3
			c2.1-1.4,5.5-4.9,8-7.5c1.2-1.2,2.4-2.4,2.7-2.6l0.2-0.1l0.1-0.3c1-7.6,8.3-41.6,15.5-51.6C165,105.1,143.8,128.7,137.1,148.1"/>
		<path id="XMLID_3944_" class="st198" d="M124.6,178.1c-0.7,2.8-2.2,4.9-3.9,4.4c-1.7-0.5-2.2-3.3-1.4-6.1c0.7-2.8,2.4-4.5,4.1-4
			C125,172.9,125.3,175.3,124.6,178.1 M124.1,169.5c-2.7-0.8-5.8,2.2-7,6.6c-1.2,4.4,0.1,8.5,2.8,9.3c2.7,0.8,5.8-2.2,7-6.6
			C128,174.4,126.8,170.3,124.1,169.5"/>
		<path id="XMLID_3943_" class="st198" d="M93.5,139.9c-3.6,1.7-7.3,1.6-6.9-0.5c0.2-0.7,0.8-1.8,2.2-3c-1.4,0.1-2.3-0.6-2.6-1.4
			c-0.4-0.8-0.1-1.8,0.9-2.1c2.1-0.6,3-1.2,5.5-1.7c2.4-0.6,2.6-4.9-1.7-3.5c-4.3,1.4-14.5,5.4-6.6,10.3c-3,2.9-2,9.7,10.9,5.8
			C99.7,142.5,98.3,137.7,93.5,139.9"/>
		<path id="XMLID_3942_" class="st198" d="M152.1,130.2l-6.8,3.3c-2.3,3.8-4.3,7.7-5.9,11.6c1.8-0.6,6.5-2.4,8.7-3.9
			C149.3,137.6,150.7,133.8,152.1,130.2"/>
		<path id="XMLID_3941_" class="st198" d="M159.4,115.7c0.5,0.2-0.1,2-0.6,2.7c-1.4,2.2-3.4,6.8-5.5,12.1c0.4,1.7,2.4,4.7,3.2,5.9
			c2.4-10.3,5.9-23,9.8-31.1c-5.1,5.8-13.2,15.6-19.8,26.2l6.2-3C155.1,122.9,157.4,118.1,159.4,115.7"/>
		<path id="XMLID_3938_" class="st198" d="M154.7,151.3l-0.1,0.3l-0.2,0.1c-0.3,0.2-1.5,1.4-2.7,2.6c-2.5,2.6-6,6.1-8,7.5l-0.5,0.3
			l-0.3-0.5c-0.2-0.4-5.3-10-5.9-13.2l0-0.2l0.1-0.1c6.7-19.4,28-43,33.2-48.4C163.1,109.7,155.7,143.7,154.7,151.3 M173.1,96.3
			c-0.3,0-0.8,0.1-1.6,0.8c-1.7,1.4-22.5,18-35.4,48.6c-1.4,3.3-1.5,1.9-0.2,5.6c1.3,3.7,4.9,10.1,5.8,11.7c0.9,1.6,0.8,2.2,2.1,1.2
			c4.7-4.1,8.5-8.2,10-9.4c1.6-1.3,2.9-3.2,3-5.4c0.2-4.3,8.4-42.4,16.5-50.7l0.1-0.1c-0.2-0.6-0.3-1.3-0.3-2.1
			C173.1,96.4,173.1,96.3,173.1,96.3"/>
		<path id="XMLID_3937_" class="st198" d="M149.2,142c0.8,2.7,2.7,6.7,4.5,8.8c0.4-2.5,1.2-7.1,2.4-12.5c-0.8-1.3-2.7-4.4-3.4-6.1
			C151.5,135.4,150.3,138.8,149.2,142"/>
		<path id="XMLID_3936_" class="st198" d="M151,153.5c0.8-0.8,1.4-1.4,1.9-1.9c-1.7-1.9-3.6-5-4.4-7.4c-1.8,5.3-3.2,9.8-3.6,11.6
			c-0.1,0.3-0.4,0.5-0.7,0.4c-0.3-0.1-0.5-0.4-0.4-0.7c0.5-1.9,1.9-6.9,3.9-12.7c-2.2,1.5-6.9,3.1-8.7,3.8c-0.2,0.6-0.4,1.2-0.7,1.8
			c0.6,2.7,4.3,10,5.4,12.1C145.7,158.9,148.7,155.8,151,153.5"/>
		<path id="XMLID_3935_" class="st198" d="M179.2,93.4c-1.6,0-3,1.4-3,3.1c0,1.7,1.3,3.1,3,3.1c1.6,0,3-1.4,3-3.1
			C182.2,94.7,180.9,93.4,179.2,93.4"/>
		<path id="XMLID_3934_" class="st198" d="M80.8,174.6c-1.9-0.7-3.6-1.3-5.2-2.4c-0.4-0.3-1-1.5-2.2-0.7c-0.8,0.6-1.6,0.7-2.8,1.2
			c-1.2,0.4-0.3,1.8-0.3,2.4c0,1.6-0.1,4.7-0.4,6.4c-0.6,3,3.8,4.6,4.6,0.2c0.1-0.5,0.1-1,0.1-1.6c0-1.4-0.7-4.5-0.7-4.5
			c-0.1-0.4,0.3-0.5,0.6-0.4c1.1,0.5,2.6,2.9,4.5,3.7c0.2,0.1,0.4,0.2,0.7,0.2C82.5,179.9,85.6,176.4,80.8,174.6"/>
		<path id="XMLID_3923_" class="st199" d="M191.2,169.1c-0.6-1.2-1.5-5.4-2.5-11.1l7.5,4.2c0.1,4.3-0.3,7.8-0.9,10.6L191.2,169.1z
			 M192.7,181.4l-0.1,0.1c-1.6-2.1-2.9-4.3-4.2-6.7l2.4-4.5l4.2,3.8C194.3,177.4,193.4,179.7,192.7,181.4 M183.6,163l3.9-5
			c1,5.7,1.9,9.9,2.6,11.4l-2.2,4.2C186.2,170.3,184.8,166.7,183.6,163 M180.7,150.6l4.8-4.9c0.6,3.9,1.2,7.6,1.8,10.9l-4,5.1
			C182.2,158,181.3,154.3,180.7,150.6 M179.1,139l4.6-4.4c0.5,3.3,1,6.5,1.5,9.7l-4.8,5C179.9,145.8,179.4,142.3,179.1,139
			 M178.6,111.6c0.1-1.7,1.4-1.7,1.6-0.4c0.9,5.3,1.8,11.8,2.8,18.4c0.2,1.2,0.4,2.4,0.5,3.6l-4.5,4.4
			C178.2,127.7,178.3,118.5,178.6,111.6 M182.7,110.3c4.4,10.6,7.5,19.6,9.6,27.4l-7.6-4.4c-0.2-1.3-0.4-2.7-0.6-4
			c-1-6.6-2-13-2.8-18.4C181,109.5,182.1,108.9,182.7,110.3 M192.7,139.3c0.9,3.5,1.6,6.8,2.1,9.8l-8.5-5.1c-0.5-3-1-6.2-1.4-9.3
			L192.7,139.3z M196.2,160.9l-7.8-4.3c-0.6-3.3-1.2-7.1-1.8-11l8.5,5.1C195.7,154.4,196,157.9,196.2,160.9 M194.6,141.9
			c-0.5-2.3-1.2-4.8-1.9-7.4c-1.7-5.8-3.9-12.2-6.7-19.4c-1.6-4-3.3-8.1-5.3-12.5c-0.4,0.1-0.9,0.2-1.4,0.2c-0.4,0-0.9,0-1.3-0.1
			c0,0.3,0,0.6-0.1,1c-0.9,14-3.5,56.6,14.5,79.5l0.6,0.8l0.4-0.9l0.4-1.1C195.8,176.8,200.2,166,194.6,141.9"/>
		<path id="XMLID_3913_" class="st18" d="M192.6,134.5c0.7,2.6,1.4,5.1,1.9,7.4c1.8,4.2,4.3,9.1,6.4,12.3
			c1.7,12.8-0.1,27.8-9.9,37.2c-0.6-3.9-3-8-4.7-11.3c-1.7-3.4-6.4-11.1-6.8-12c-0.2-4.7-2.3-15.9-3-24.7
			c-0.8-8.7-0.8-37.7-0.2-40.6l1.1-0.3c0.1,0,0.3,0.1,0.4,0.1c0.4,0.1,0.8,0.1,1.3,0.1c0.5,0,0.9-0.1,1.4-0.2
			c0.6-0.1,1.2-0.4,1.7-0.7c0.5-0.3,0.9-0.6,1.3-1c0.4-0.4,0.7-0.8,0.9-1.3c0.4-0.8,0.7-1.6,0.8-2.6l0.1-0.2
			c4,4.1,36.9,27,41.5,56.9c1,6.4-0.6,14,0.6,16.7C223.8,170.6,208,172.4,192.6,134.5 M169.3,205.6c-0.7,0.9-2.2,0.7-3-0.8
			c-20.1-34,0.6-95,7.7-105c0.3,0.5,0.7,1,1.1,1.4c-0.2,0.5-0.4,1.1-0.7,2.1c-1.5,5.1,0.1,49.4,2.8,65.3
			C180,183.5,173,202,169.3,205.6 M153.8,154.7c-1.5,1.2-5.3,5.3-10,9.4c-1.3,1-1.2,0.4-2.1-1.2c-0.9-1.6-4.5-8-5.8-11.7
			c-1.3-3.7-1.2-2.4,0.2-5.6c13-30.6,33.7-47.2,35.4-48.6c0.8-0.6,1.3-0.8,1.6-0.8c0,0.1,0,0.1,0,0.2c0,0.7,0.1,1.4,0.3,2.1
			l-0.1,0.1c-8.1,8.4-16.3,46.5-16.5,50.7C156.7,151.5,155.5,153.4,153.8,154.7 M153.1,191c-1.4,1.7-3.6,2.5-4.9,1.8
			c-0.1-0.1-0.3-0.2-0.4-0.3c-0.5,1.8-1.3,3.2-2.4,4.1c-1.3,1.1-3,1.2-4.5,0.5c-3.3-1.6-5.4-6.7-5.8-13.8
			c-0.5-10.3-2.3-12.7-6.7-18.6c-1.2-1.6-2.6-3.5-4.2-5.9c-7.7-11.3-7.1-20-3.4-42.1c2.6-15.4,0.4-19.8-2.5-25.3
			c-1-2-2.1-4.2-3.2-7.1c-1.6-4.5-1.3-7.7,0.8-9.4c2.7-2.3,7.3-0.8,9.5,0.6c0.4,0.2,0.8,0.5,1.3,0.8c3.8,2.5,9.6,6.3,15.7,1.4
			c2.7-2.2,5-2.9,7.1-2.3c3.4,1.1,4.9,5.7,6.3,10.4l0.1,0.3c0.6,2,1.7,3.6,3.3,4.4c2.4,1.2,5.4,0.2,6.6-0.5c0.5-0.3,1.2-0.1,1.5,0.4
			c0.3,0.6,0.1,1.1-0.4,1.4c-1.9,1.1-5.8,2.1-8.7,0.6c-2.1-1.1-3.6-3-4.4-5.6l-0.1-0.3c-1.2-4.1-2.5-8.3-4.8-9
			c-1.2-0.4-2.9,0.2-5,1.9c-7.4,5.9-14.2,1.4-18.3-1.3c-0.4-0.3-0.9-0.6-1.2-0.8c-2.1-1.3-5.4-1.9-6.9-0.6c-1.2,1-1.2,3.4-0.1,6.8
			c1,2.7,2,4.8,3,6.8c1.7,3.4,3.2,6.3,3.7,11.2c9.7-2.2,26.1-3.7,37-3.4c0.6,0,1.1,0.5,1.2,1.1c0,0.6-0.5,1.2-1.1,1.2v-0.2
			c-12.4-0.4-27.2,1-37,3.4c0.1,3.4-0.2,7.7-1.2,13.4c-3.6,21.3-4.2,29.7,3,40.3c1.6,2.3,3,4.2,4.2,5.8c4.5,6.1,6.6,8.9,7.1,19.8
			c0.4,7.3,2.7,10.9,4.5,11.8c0.8,0.4,1.5,0.3,2.2-0.2c0.7-0.6,1.4-1.7,1.8-3.5c-2.6-1.9-5.3-4.7-5.5-8.3c-0.1-3.1,1.2-3.9,2.2-4
			c2.5-0.3,5.1,2.5,5.5,5.1c0.4,2.2,0.4,4.3,0.2,6.1c0.4,0.2,0.7,0.5,1,0.6c0.3,0.1,1.6-0.3,2.4-1.7c1.7-2.8,0.2-7.5-4.2-12.9
			c-1.8-2.2-3.8-4.3-5.7-6.3c-2.2-2.3-4.4-4.6-6.3-7.1c-3.5-4.6-8.4-10.9-7-26.9l0.8-9.1c0.5-6.4,0.6-7,1.2-9.4
			c0.6-2.7,1.9-5.9,4.1-6.2c2.1-0.3,3.5,2.4,4,3.2c1.2,2.1,2.2,3,2.5,3.1c0.1-0.1,0.5-0.8,0.6-2.8c0.5-6,1.4-8.6,3.3-9.2
			c1.8-0.5,3.4,1.3,4.4,2.8c0.4,0.6,1.5,2.1,2.1,2.6c0.4-0.7,0.9-2.8,1.5-4.9l0.3-1.1c0.2-0.6,0.8-1.2,1.4-1c0.6,0.2,1,0.8,0.8,1.4
			l-0.3,1.1c-1.2,4.7-1.7,6.4-3.2,6.7c-1.4,0.3-2.6-1.2-4.4-3.7c-1.4-1.9-2-1.9-2-1.9c0,0-1.1,0.4-1.6,7.1c-0.2,1.9-0.6,4.5-2.4,4.9
			c-1.5,0.4-3.2-1.1-5-4.2c-0.9-1.5-1.5-1.9-1.7-1.9c-0.5,0.1-1.5,1.5-2.2,4.5c-0.5,2.2-0.6,2.6-1.1,9l-0.8,9.1
			c-1.3,15,3.1,20.7,6.5,25.2c1.8,2.4,4,4.6,6.2,6.9c2,2.1,4,4.2,5.9,6.5C156.9,184.2,154.5,189.3,153.1,191 M103.1,217.1
			c-3.5,1-4.2-2.1-5.2-5c-0.8-2.2-2.7-4.6-3.7-7.8c-1.2-3.7-1.8-9-1.8-9c4.4-1.1,11.6-3.2,15.7-6.2c3-2.3,4.8-5.6,5.6-9.2
			c-2.5,3.5-5.4,7.1-9.8,9c-8.7,3.3-18.2,5.4-30.3,4.6c-3.4-0.2-11.9-3.3-8.2-11.7c1.1-2.5,0.7-6.6-0.2-7.7
			c-0.8-1.2-2.4-3.8,0.2-6.4c3.7,0.6,11.9-0.3,13.6-1.2c1.7-0.9,3.5,0.9,3.4,2c-0.3,2.6,2.8,3.2,2.3-0.6c-0.2-1.2-0.8-3.2-1.7-3.5
			c-0.8-0.3-1.7-1.5-1.4-2.9c0.3-1.5-1.7-3.2-5.1-2.6c-3.4,0.6-2.3,2.9,0,2.6c2.3-0.3,2.5,1.5,0.3,2c-2.3,0.6-8.1,1.8-10.6,1.1
			c-3.1-0.9-2.2-5.4-0.8-10.1c0.5-1.8-0.2-2.2,2.9-2.4c5.3-0.5,14-3,16.6,3.8c1.1,2.9,3.6,3.2,1.8-1.5c-1-2.7-4.9-5.1-5.8-5.4
			c0.7-3.4-1.8-8-7.1-8.7c-5.7-0.7-4.7,5.4-1.9,6.3c4.1,1.3,3.8-2,1.4-1.4c-2.7-0.6-2-3-0.2-3.1c2.1-0.1,3.9,1.1,5.3,3.2
			c1.4,2.1-0.4,3.9-2.1,4c-5.3,0.5-11.1,1.6-14.2,1.6c-3.1,0-8.4-2.2-2.8-11.3c5.7-9,6.2-10.4,7.6-12.4c1.4-2,3.7-5.6,3.1-9.4
			c-0.6-3.8-2.8-6.5,4.5-13.2c7.3-6.7,20.3-17.6,25.7-20.2c4.5,3.5,17.5,7.5,13.6,37.2c-1.1,7.9-6.2,24.9,7.3,46.7
			c2.6-1.9,11.2,1.3,5.9,14.5c1.7,3.8,8.4,18.9,9,19.8C129.4,206.7,117.2,213.1,103.1,217.1 M183.9,96.4c0,2.7-2.1,4.8-4.7,4.8
			c-2.6,0-4.7-2.1-4.7-4.8c0-2.7,2.1-4.8,4.7-4.8C181.8,91.6,183.9,93.8,183.9,96.4 M182.6,82.3v7h-3.6l-6.3-7H182.6z M191.7,86.7
			l2,7.3l-6.6,1.6l-1.5-4.2C187.2,89.4,189.6,87.7,191.7,86.7 M228.6,165.4c3.6-33.3-27.7-57-39.5-67.6l7.7-1.8l-4-13.5
			c0,0-5.1,3.5-7.6,5.2v-8.2h-15c0,0-5.4-5-14.7-12.2c-9.3-7.3-25.9-3.1-29.3-3c-2,0.2-6.1-1.2-13.8-0.6c-13,1-15.6,12.1-13.3,17.3
			c-8.8,6.1-34.4,25.3-33,31.7c0.9,4.3,1.6,7.9-0.7,10.5c-0.8,1-2,4.7-8.8,14.9c-8.1,12.1,1.6,16,5.5,15.9c0,0,0.2,1.2-0.1,1.9
			c-0.9,2.3-1.4,8.4-0.3,9.9c0.3,0.3,0.4,0.5,0.6,0.6c-0.1,0-0.2,0.1-0.3,0.3c-0.6,0.9-2.7,3-0.3,6.7c2.9,4.4,0,6.6-0.3,9.2
			c-2.1,19.8,23,12.6,27.8,13.2c0.3,2.3,0.8,6,2.1,9.6c1.5,4.2,3.7,6.3,4.3,9.1c0.8,3.4,2.5,7,5.9,6.1c13.3-3.2,30-11.1,37.9-16.3
			c2.8,1.5,13.8,2.6,19.5,2c5.7-0.6,7,2.8,9.9,2.3c1-0.7,1.6-2.4,2.4-3.4c6.2-7.8,8.9-26.2,8.1-34.8c3.3,6.5,10.2,16.7,10.8,23.1
			c11-4.9,15-27.3,12.5-36.9c9.3,13.4,17.8,16.1,26.9,15.2C229.3,171.6,228.3,167.5,228.6,165.4"/>
		<path id="XMLID_3912_" class="st12" d="M142.8,181.2c-0.1,0.1-0.4,0.5-0.3,1.6c0.1,2.3,1.8,4.3,3.5,5.7c0-1.2-0.1-2.6-0.3-4.1
			C145,182.3,144.1,180.8,142.8,181.2"/>
		<path id="XMLID_3911_" class="st18" d="M109.2,162.3c-2.7-3-6.8-11.8,1.3-19.4C104.3,141.2,95.8,158.2,109.2,162.3"/>
		<path id="XMLID_3910_" class="st18" d="M94.6,98.3c0,0,2.6,1.9,4.6,4.6c1.6,2.1,2.5,0.6,1.3-1.3c-1.2-1.9-4.2-4.1-6.2-6.3l1.7-1.2
			c0,0,8.3,7,11.7,11.7c1,1.3,2.5,0.4,1.7-0.7c-2.5-4.2-8.9-9.7-11.7-12.3l1.7-1.2c0,0,3.6,2.1,6.2,5.7c1.4,1.9,3,0.4,1.2-1.5
			c-1-1.1-4.1-4-5.7-5.2c-1.4-1-1.3-1.7-3.4-0.4c0,0-1.7,1.4-4.7,3.5S92.7,96.7,94.6,98.3"/>
		<path id="XMLID_3906_" class="st18" d="M89.7,122.3c1.5,0.8,1.5,0.6-0.2,1.2c-1.7,0.6-7.3,1.2-7.3,1.2c0.2-0.8,0.2-2.2,0-2.8
			c-0.2-0.6,0.2-2.3,0.2-2.3S88.2,121.5,89.7,122.3 M80.4,114.6c-0.9-0.4-3.5-1.7-3.2-2.1c0.4-0.5,2.5-1.2,4.3-1.5
			c1.8-0.3,0.7,1.3,0.3,2.2C81.4,114,81.3,115,80.4,114.6 M98.4,112.3c-3.3,0.5-7.4-2.3-10.4-4.7c-2.5-2.1-7.5-2.9-11.1-1.4
			s-1.9,4-0.5,5.1c0,0,0.5,1-1.7,2.7c-2.5,1.9,0.6,2.6,3.4,3.6c-1.1,1.8-0.5,5.1-0.2,7c-3.7,0.2-5.6,0.6-5.2,1.5
			c0.3,0.7,3.3,1.1,4.9,0.8c0.1,0.9-0.9,4.4,0.6,4.1c1.5-0.3,2.7-2.1,3.2-4.3c0,0,5.8-0.9,9.7-1.9c3.4-0.8,3.5-2.1,1.7-3.1
			c-2.5-1.2-6.9-4-9.6-5.8c-1.3-0.9-0.3-2.1,0.3-3.7c0.6-1.6,4.3,0.4,5.5,1.1c1.2,0.8,6.7,3.6,10.3,2.1
			C102.5,114.2,103.7,111.6,98.4,112.3"/>
	</g>
</g>
<g id="Watermark">
</g>
</svg>
