<?xml version="1.0" encoding="utf-8"?>
<!-- Generator: Adobe Illustrator 19.2.1, SVG Export Plug-In . SVG Version: 6.00 Build 0)  -->
<svg version="1.1" xmlns="http://www.w3.org/2000/svg" xmlns:xlink="http://www.w3.org/1999/xlink" x="0px" y="0px"
	 viewBox="0 0 288 288" style="enable-background:new 0 0 288 288;" xml:space="preserve">
<style type="text/css">
	.st0{display:none;}
	.st1{display:inline;}
	.st2{fill:#EF3E42;}
	.st3{fill:#004B8D;}
	.st4{fill:#D7CA9E;}
	.st5{fill:#A03123;}
	.st6{fill-rule:evenodd;clip-rule:evenodd;fill:#FFFFFF;}
	.st7{fill-rule:evenodd;clip-rule:evenodd;fill:#1E3B6E;}
	.st8{fill-rule:evenodd;clip-rule:evenodd;fill:#BE2132;}
	.st9{fill-rule:evenodd;clip-rule:evenodd;fill:#E19D26;}
	.st10{fill:#DC4329;}
	.st11{fill:#DC4A26;}
	.st12{fill:#231F20;}
	.st13{fill:#FFFFFF;}
	.st14{fill:#050404;}
	.st15{fill:#263C82;}
	.st16{fill:#CC3533;}
	.st17{fill:#E82F4D;}
	.st18{fill:#010101;}
	.st19{fill:#C1C8CF;}
	.st20{fill:#365A8B;}
	.st21{fill:#29417C;}
	.st22{fill:#F47920;}
	.st23{fill:#FAA61A;}
	.st24{fill:#CCCCCC;}
	.st25{fill:#002B54;}
	.st26{fill:#ED1C24;}
	.st27{opacity:0.3;fill:#002B54;}
	.st28{fill:#020303;}
	.st29{fill:#1B9ED8;}
	.st30{fill:#189DD8;}
	.st31{fill:#43748F;}
	.st32{fill:#EB3947;}
	.st33{fill:#EB3A47;}
	.st34{fill:#44758F;}
	.st35{fill:#1F9ED8;}
	.st36{fill:#FCFDFD;}
	.st37{fill:#020202;}
	.st38{fill:#E83543;}
	.st39{fill-rule:evenodd;clip-rule:evenodd;fill:#C1A677;}
	.st40{fill-rule:evenodd;clip-rule:evenodd;fill:#212F55;}
	.st41{fill-rule:evenodd;clip-rule:evenodd;fill:#AB285C;}
	.st42{fill-rule:evenodd;clip-rule:evenodd;fill:#014A67;}
	.st43{fill:#F47A39;}
	.st44{fill-rule:evenodd;clip-rule:evenodd;fill:#242052;}
	.st45{fill:#123B35;}
	.st46{display:inline;fill:#DB2732;}
	.st47{display:inline;fill:#1D3665;}
	.st48{fill-rule:evenodd;clip-rule:evenodd;}
	.st49{fill:#F58220;}
	.st50{fill:#1A3562;}
	.st51{fill:#036B66;}
	.st52{fill:#C4CDD3;}
	.st53{fill:#EB1F4E;}
	.st54{display:inline;fill:#C4203B;}
	.st55{display:inline;fill:#164883;}
	.st56{display:inline;fill:#90BCE5;}
	.st57{display:inline;fill:#1B2F5B;}
	.st58{fill:#144983;}
	.st59{fill:#CD1F43;}
	.st60{fill:#1A459D;}
	.st61{fill:#0A2042;}
	.st62{fill:#D92E27;}
	.st63{display:inline;fill:#CF1F45;}
	.st64{fill-rule:evenodd;clip-rule:evenodd;fill:#D7CA9E;}
	.st65{fill:#1E3B6E;}
	.st66{fill:#39B54A;}
	.st67{fill:#E19D26;}
	.st68{fill:#BE2132;}
	.st69{fill:#EF5426;}
	.st70{display:inline;fill:#FFFFFF;}
	.st71{display:inline;fill:#E31837;}
	.st72{display:inline;fill:#E21D37;}
	.st73{display:inline;fill:#005596;}
	.st74{display:inline;fill:#CC3533;}
	.st75{display:inline;fill:#E82F4D;}
	.st76{display:inline;fill:#010101;}
	.st77{display:inline;fill:#2A398B;}
	.st78{fill:#999999;}
	.st79{display:inline;fill:#999999;}
	.st80{display:inline;fill:#041E41;}
	.st81{display:inline;fill:#D4451D;}
	.st82{display:inline;fill:#EA7200;}
	.st83{display:inline;fill:#BDBBBB;}
	.st84{fill:#041E41;}
	.st85{fill:none;stroke:#000000;stroke-width:0.34;}
	.st86{fill:#D4451D;}
	.st87{fill:#EA7200;}
	.st88{fill:#BDBBBB;}
	.st89{fill:none;stroke:#EA7200;stroke-width:0;stroke-linecap:round;stroke-linejoin:round;}
	.st90{fill:#9C9FA1;}
	.st91{fill-rule:evenodd;clip-rule:evenodd;fill:#333290;}
	.st92{fill:#005B9B;}
	.st93{fill:#EF4043;}
	.st94{fill-rule:evenodd;clip-rule:evenodd;fill:#09A2DD;}
	.st95{fill-rule:evenodd;clip-rule:evenodd;fill:#43758E;}
	.st96{fill-rule:evenodd;clip-rule:evenodd;fill:#FCEE1E;}
	.st97{fill-rule:evenodd;clip-rule:evenodd;fill:#EE3441;}
	.st98{fill:#B89760;}
	.st99{fill:#D52D47;}
	.st100{fill-rule:evenodd;clip-rule:evenodd;fill:#0B2242;}
	.st101{fill:#F37938;}
	.st102{fill:#164883;}
	.st103{fill:#8E6D2A;}
	.st104{fill-rule:evenodd;clip-rule:evenodd;fill:#1A314F;}
	.st105{fill-rule:evenodd;clip-rule:evenodd;fill:#8F3326;}
	.st106{fill-rule:evenodd;clip-rule:evenodd;fill:#B68E64;}
	.st107{fill:#03493B;}
	.st108{fill:#FCC158;}
	.st109{fill:#BB544F;}
	.st110{fill:#D0B04A;}
	.st111{fill-rule:evenodd;clip-rule:evenodd;fill:#B6A269;}
	.st112{fill-rule:evenodd;clip-rule:evenodd;fill:#001F5B;}
	.st113{fill:#1D3665;}
	.st114{fill:#FFFFFF;stroke:#FFFFFF;stroke-width:0.16;}
	.st115{fill:#004666;}
	.st116{fill:none;stroke:#037062;stroke-width:2.8199;}
	.st117{fill:#BCCBD2;}
	.st118{fill:#037062;}
	.st119{fill:#E63248;}
	.st120{fill:none;stroke:#E63248;stroke-width:0.2826;}
	.st121{fill:none;stroke:#037062;stroke-width:1.0988;}
	.st122{fill:none;stroke:#BCCBD2;stroke-width:4.9365;}
	.st123{fill:#FCEE21;}
	.st124{fill:#FCEE23;}
	.st125{fill:#C4203B;}
	.st126{fill:#193661;}
	.st127{fill:#164884;}
	.st128{fill:#CF1F44;}
	.st129{fill:#0A2042;stroke:#010101;stroke-width:0.2131;}
	.st130{fill:#CF1F45;}
	.st131{fill:#1E3160;}
	.st132{fill:#BA202E;}
	.st133{fill:#212759;}
	.st134{fill:#BA1F31;}
	.st135{fill:#7BBCE8;}
	.st136{fill:#FED208;}
	.st137{fill:#6DB3E3;}
	.st138{fill:#FFCE04;}
	.st139{fill:#1B2F5B;}
	.st140{fill:#90BCE5;}
	.st141{fill:#D8782C;}
	.st142{fill:#C49C6F;}
	.st143{fill:#F04B23;}
	.st144{display:inline;fill-rule:evenodd;clip-rule:evenodd;fill:#F58220;}
	.st145{fill:#094F91;}
	.st146{fill:#DB2732;}
	.st147{fill:none;}
	.st148{fill:#00174A;}
	.st149{fill:none;stroke:#FFFFFF;stroke-width:3;stroke-miterlimit:10;}
	.st150{fill:none;stroke:#000000;stroke-width:0.1055;stroke-linecap:round;stroke-linejoin:round;}
	.st151{fill:#25358E;}
	.st152{fill:#ED1C2E;}
	.st153{fill:#FFFFFF;stroke:#000000;stroke-width:0.3293;stroke-linecap:round;stroke-linejoin:round;}
	.st154{display:inline;fill-rule:evenodd;clip-rule:evenodd;fill:#00174A;}
	.st155{fill:#0D2240;}
	.st156{display:inline;fill:#8EC641;}
	.st157{fill:#182D56;}
	.st158{fill:#BE323A;}
	.st159{fill:#C62034;}
	.st160{fill:#0B1437;}
	.st161{fill:#EC2135;}
	.st162{fill:#8EC641;}
	.st163{fill-rule:evenodd;clip-rule:evenodd;fill:#332312;}
	.st164{fill:#E4E5E6;}
	.st165{clip-path:url(#XMLID_4225_);}
	.st166{clip-path:url(#XMLID_4226_);fill:url(#XMLID_4227_);}
	.st167{clip-path:url(#XMLID_4228_);}
	.st168{clip-path:url(#XMLID_4229_);fill:url(#XMLID_4230_);}
	.st169{clip-path:url(#XMLID_4231_);}
	.st170{clip-path:url(#XMLID_4232_);fill:url(#XMLID_4233_);}
	.st171{clip-path:url(#XMLID_4234_);}
	.st172{clip-path:url(#XMLID_4235_);fill:url(#XMLID_4236_);}
	.st173{clip-path:url(#XMLID_4237_);}
	.st174{clip-path:url(#XMLID_4238_);fill:url(#XMLID_4239_);}
	.st175{clip-path:url(#XMLID_4240_);}
	.st176{clip-path:url(#XMLID_4241_);fill:url(#XMLID_4242_);}
	.st177{clip-path:url(#XMLID_4243_);}
	.st178{clip-path:url(#XMLID_4244_);fill:url(#XMLID_4245_);}
	.st179{clip-path:url(#XMLID_4246_);}
	.st180{clip-path:url(#XMLID_4247_);fill:url(#XMLID_4248_);}
	.st181{fill:#A4A9AD;}
	.st182{fill:#F05123;}
	.st183{fill:#8E744B;}
	.st184{fill:#EEE0C6;}
	.st185{fill:#8F182B;}
	.st186{fill:#FFC526;}
	.st187{fill:#B0B8BC;}
	.st188{fill:#FCBB30;}
	.st189{fill:#E21D38;}
	.st190{fill:#FFC759;}
	.st191{fill:#E03B3F;}
	.st192{fill:#8E8F92;}
	.st193{fill:#E13B3F;}
	.st194{fill:#FDDF0A;}
	.st195{fill:#E7AA23;}
	.st196{fill:#F37321;}
	.st197{fill:#008056;}
	.st198{fill:#E2293A;}
	.st199{fill:#1F438B;}
	.st200{fill:#005588;}
	.st201{fill:#A7B2B8;}
	.st202{fill:#8C2A43;}
	.st203{fill:#1C2D5B;}
	.st204{fill:#0C724D;}
	.st205{fill:#232020;}
	.st206{fill:#A8ABAD;}
	.st207{fill:#EB2627;}
	.st208{fill:#E56C25;}
	.st209{fill:#203C73;}
	.st210{fill:#B99758;}
	.st211{fill:#C8202F;}
	.st212{fill:#EEE3C6;}
	.st213{fill:#045937;}
	.st214{fill:#C02C38;}
	.st215{fill:#EEB41E;}
	.st216{fill:#F37E2F;}
	.st217{fill:#01549C;}
	.st218{fill:#0862AB;}
	.st219{fill:#E43B40;}
	.st220{fill:#DF1E38;}
	.st221{fill:#CD9C2B;}
	.st222{fill:#F47A3E;}
	.st223{fill:#FBB516;}
	.st224{fill:#E97424;}
	.st225{fill:#056D75;}
	.st226{fill:#142048;}
	.st227{fill:#FFC429;}
	.st228{fill:#114B9D;}
	.st229{fill:#213065;}
	.st230{fill:#1D2859;}
	.st231{fill:#A8AAAD;}
	.st232{fill:#1D427C;}
	.st233{fill:#153055;}
	.st234{fill:#AFB0B3;}
	.st235{fill:#20396F;}
	.st236{fill:#BE3138;}
	.st237{fill:#B4975A;}
	.st238{fill:#344042;}
	.st239{fill:#14244C;}
	.st240{fill:#D0202D;}
	.st241{fill:#A9A9AD;}
	.st242{fill:#1D3261;}
	.st243{fill:#811423;}
	.st244{fill:#6F6E76;}
	.st245{fill:#C62031;}
</style>
<g id="Layer_5" class="st0">
</g>
<g id="Layer_3">
</g>
<g id="Layer_4">
	<g id="XMLID_2873_">
		<path id="XMLID_2908_" class="st218" d="M209.1,64.8h-28h-2.3l-1.6,1.6l-3.8,3.7l-4.4-4.1l-1.6-1.5h-0.5H165h-25.3h-25.3h-2.2
			l-1.6,1.5l-4.4,4.1l-3.8-3.7l-1.6-1.6h-2.3h-28h-9.8l12,21.1l0,102.6c0,1,0.1,2.5,0.6,4.3c0.7,2.7,2.1,6,5,8.7
			c2.9,2.7,7.3,4.6,13.6,4.5h13h18.1c3.2,0,5.8,0.8,7.9,1.9c2.1,1.1,3.6,2.4,4.6,3.4c1,1,1.8,2,2.4,2.7c0.3,0.4,0.5,0.6,0.6,0.8
			c0.1,0.1,0.1,0.2,0.2,0.2l0,0.1l0,0l0.9,1.4l1.1-1.4c0,0,0.1-0.2,0.4-0.5c0.3-0.4,0.9-1.1,1.4-1.8c0.5-0.7,1.1-1.3,1.4-1.6
			c0.4-0.4,1.9-1.8,4.1-3c2.2-1.2,5.2-2.3,8.6-2.3h31.1c3.2,0,5.9-0.4,8.3-1.2c3.6-1.1,6.4-3.1,8.2-5.7c1.8-2.6,2.7-5.7,2.7-9V85.8
			l7.1-12.6l4.8-8.4H209.1z"/>
		<path id="XMLID_2905_" class="st13" d="M166.8,65.7H165h-25.3h-25.3h-1.7l-1.3,1.2l-5.3,4.9l-4.7-4.5l-1.3-1.2h-1.8h-28h-7.7
			l11.1,19.6l0,102.9c0,3.6,1.7,16.3,18,16.3h31.1c6.8,0,11.3,3.6,13.4,5.7c2.1,2.1,3.4,4,3.4,4s2.3-3.1,3.3-4c1-1,6.2-5.7,13.6-5.7
			h31.1c12.2,0,18-6.3,18-14.7V85.5l7.3-12.9l3.7-6.6h-7.6h-28h-1.8l-1.3,1.2l-4.7,4.5l-5.3-4.9L166.8,65.7z M165,70.1l8.4,7.8
			l7.7-7.5h28l-7.9,13.9v105.8c0,6.9-5.2,10.3-13.5,10.3h-31.1c-11.5,0-16.9,7.8-16.9,7.8s-5.3-7.8-16.9-7.8H91.7
			c-8.3,0-13.5-3.4-13.5-10.3V84.3l-7.9-13.9h28l7.7,7.5l8.4-7.8h25.3H165"/>
		<path id="XMLID_2904_" class="st13" d="M81.5,134.9V189c0,4.6,3.4,8,10.9,8H122c12.3,0,17.7,7,17.7,7s5.6-7,16.6-7h11.6
			L81.5,134.9z"/>
		<rect id="XMLID_2903_" x="81.5" y="108.6" class="st13" width="116.4" height="2.8"/>
		<polygon id="XMLID_2902_" class="st13" points="197.9,173.8 197.9,170.9 120.3,115.6 116.3,115.6 		"/>
		<polygon id="XMLID_2901_" class="st13" points="81.5,126.3 81.5,129.2 175.7,197.1 179.7,197.1 		"/>
		<polygon id="XMLID_2900_" class="st219" points="197.9,165.2 197.9,115.6 128.3,115.6 		"/>
		<polygon id="XMLID_2899_" class="st13" points="95.1,105.2 91.8,105.2 86,91.6 86,105.2 82.8,105.2 82.8,84.2 86.1,84.2 
			91.8,97.4 91.8,84.2 95.1,84.2 		"/>
		<polygon id="XMLID_2898_" class="st13" points="108.1,87.6 103,87.6 103,92.9 108.1,92.9 108.1,96.2 103,96.2 103,101.8 
			108.1,101.8 108.1,105.1 99.6,105.1 99.6,84.2 108.1,84.2 		"/>
		<polygon id="XMLID_2897_" class="st13" points="122.7,105.2 120.7,94.1 118.8,105.2 114.8,105.2 111.4,84.2 114.6,84.2 
			116.9,97.3 119,84.2 122.4,84.2 124.6,97.2 126.7,84.2 130.1,84.2 126.5,105.2 		"/>
		<polygon id="XMLID_2896_" class="st13" points="146.6,105.1 143.1,105.1 143.1,96.4 138.6,84.2 142,84.2 144.9,91.9 147.7,84.2 
			151.1,84.2 146.6,96.5 		"/>
		<path id="XMLID_2893_" class="st13" d="M156.4,98.1c0,1.5,0,2.1,0.2,2.7c0.3,0.6,1,1,1.7,1c0.7,0,1.4-0.3,1.7-1
			c0.3-0.6,0.3-1.1,0.3-2.7v-6.9c0-1.6,0-2.1-0.2-2.7c-0.3-0.6-1-1-1.7-1c-0.7,0-1.4,0.4-1.7,1c-0.2,0.6-0.3,1.1-0.3,2.7V98.1z
			 M163.7,98.4c0,2.9,0,3.5-0.8,4.6c-0.7,1-2.6,2.1-4.5,2.1c-1.9,0-3.6-0.7-4.4-2c-0.8-1.2-0.9-2.5-0.9-4.7v-7.4
			c0-2.4,0.1-3.6,1-4.9c1-1.4,2.4-1.8,4.3-1.8c1.9,0,3.6,0.6,4.4,1.9c1,1.5,0.9,2.2,0.9,4.9V98.4z"/>
		<path id="XMLID_2890_" class="st13" d="M172,91.7c1.6,0,2.6,0.1,3.1-0.2c0.6-0.4,0.7-1.1,0.7-1.9c0-0.7,0-1.4-0.6-1.8
			c-0.6-0.3-1.6-0.3-3.2-0.3h-1.4v4.2H172z M170.6,105.1h-3.4V84.2h5.4c3,0,3.7,0.1,4.8,1c1.3,1,1.6,2.1,1.6,3.3l0,2.5
			c0,1.1-0.6,2.3-1.2,2.9c-0.8,0.7-1.8,1-1.9,1l3.7,10.4h-3.4l-3.6-10.3h-2.1V105.1z"/>
		<polygon id="XMLID_2889_" class="st13" points="186.8,91.3 191.2,84.2 194.6,84.2 190.5,90.9 196.9,105.1 193.5,105.1 188.5,94 
			186.8,96.6 186.8,105.1 183.5,105.1 183.5,84.2 186.8,84.2 		"/>
		<path id="XMLID_2886_" class="st13" d="M172.4,171.3c1.3,0.9,2,1.6,2.7,1.6c0.7,0,1.3-0.7,1.9-1.4c0.5-0.7,1-1.4,0.8-2.1
			c-0.2-0.7-1.1-1.2-2.4-2.2l-1.1-0.8l-3,4L172.4,171.3z M163.9,180.6l-2.7-2l12.4-16.9l4.4,3.2c2.4,1.8,3,2.3,3.3,3.7
			c0.4,1.5,0.1,2.6-0.6,3.6l-2.1,2.7c-0.6,0.9-1.8,1.5-2.7,1.6c-1.1,0.1-2.1-0.3-2.1-0.3l-2.5,9.8l-2.7-2l2.6-9.6l-1.7-1.2
			L163.9,180.6z"/>
		<path id="XMLID_2883_" class="st13" d="M124.3,133l-6.6,5.5l3.3,2.4L124.3,133z M115.4,140.3l-3.6,2.8l-2.7-2l17.1-13.6l2.6,2.1
			l-7.6,20.4l-2.7-2l1.5-4.3L115.4,140.3z"/>
		<polygon id="XMLID_2882_" class="st13" points="133.5,158.8 130.9,156.9 134,142.5 126.1,153.5 123.4,151.6 135.7,134.5 
			138.4,136.5 135.4,150.6 143.1,139.8 145.8,141.7 		"/>
		<path id="XMLID_2879_" class="st13" d="M139.5,160.5c0-1.8,1.6-3.8,2.4-4.8l3.3-4.6 M153.1,159.3l-6.5,8.8l-1.5-1.1l0.1-0.9
			c-1.2-0.1-1.7-0.1-3.4-1.4c-1.6-1.2-2.4-3.2-2.3-4.3c0.2-2.1,1.6-3.8,2.4-4.8l3.3-4.6c2.3-3.2,2.8-3.9,4.7-4.4
			c1.6-0.4,2.7,0.1,4.5,1.4c2.2,1.6,2.6,3,2.6,4.3c0,1.9-0.9,2.7-2.7,5.1l-2.7-2c1.2-1.7,2.7-3.1,0.9-4.5c-0.7-0.6-1-0.8-1.5-0.8
			c-0.8,0-1.1,0.2-2.1,1.6l-4.1,5.7c-0.9,1.2-2,2.6-2,3.1c0,0.9,0.5,1.3,1.5,2c1.5,1.1,2.2,0.2,3.9-2.2l0.5-0.7l-2.7-1.9l1.5-2.2
			L153.1,159.3z"/>
		<polygon id="XMLID_2878_" class="st13" points="167.5,161.6 163.4,158.6 160.3,162.8 164.3,165.9 162.3,168.5 158.3,165.5 
			154.9,170 159,173 157,175.7 150.3,170.6 162.7,153.9 169.5,158.9 		"/>
		<path id="XMLID_2875_" class="st13" d="M108.7,125.4c1.3,0.9,2,1.6,2.7,1.6c0.7,0,1.3-0.7,1.9-1.4c0.5-0.7,1-1.4,0.8-2.1
			c-0.2-0.7-1.1-1.2-2.4-2.2l-1.1-0.8l-3,4L108.7,125.4z M100.2,134.8l-2.7-2l12.4-16.9l4.4,3.2c2.4,1.8,3,2.3,3.3,3.7
			c0.4,1.5,0.1,2.6-0.6,3.6l-2.1,2.7c-0.6,0.8-1.8,1.5-2.7,1.6c-1.1,0.1-2.1-0.3-2.1-0.3l-2.5,9.8l-2.7-2l2.6-9.6l-1.7-1.2
			L100.2,134.8z"/>
		<path id="XMLID_2874_" class="st13" d="M188.9,180.1c1.9-1.8,1.6-3.6,0.4-4.5c-1.2-0.8-2.6-1.1-3.7,0.4c-0.4,0.6-0.6,1.4-0.5,2.2
			c0.1,0.8,0,1,1,3.8c0.8,2.2,0.9,3.3,0.9,4.4c0,0.3-0.1,2.6-1,3.6c-2.6,2.7-5.2,3.1-8.8,0.2c-5.5-4.4-0.1-8.9,0.2-9.4l2.2,1.6
			c-1.1,1.7-3.1,4,0.2,5.8c0.9,0.5,2.5,1,3.6-0.3c0.7-0.8,0.8-2.1-0.4-5.1c-1.4-3.6-1.3-3.9-1.5-5.2c-0.1-1.2,0.2-2.5,1-3.5
			c2.1-2.7,5.9-3.6,9.2-0.7c4.1,3.6,1.4,6.4,0,8.7L188.9,180.1z"/>
	</g>
</g>
<g id="Watermark">
</g>
</svg>
