<?xml version="1.0" encoding="utf-8"?>
<!-- Generator: Adobe Illustrator 19.2.1, SVG Export Plug-In . SVG Version: 6.00 Build 0)  -->
<svg version="1.1" xmlns="http://www.w3.org/2000/svg" xmlns:xlink="http://www.w3.org/1999/xlink" x="0px" y="0px"
	 viewBox="0 0 288 288" style="enable-background:new 0 0 288 288;" xml:space="preserve">
<style type="text/css">
	.st0{display:none;}
	.st1{display:inline;}
	.st2{fill:#EF3E42;}
	.st3{fill:#004B8D;}
	.st4{fill:#D7CA9E;}
	.st5{fill:#A03123;}
	.st6{fill-rule:evenodd;clip-rule:evenodd;fill:#FFFFFF;}
	.st7{fill-rule:evenodd;clip-rule:evenodd;fill:#1E3B6E;}
	.st8{fill-rule:evenodd;clip-rule:evenodd;fill:#BE2132;}
	.st9{fill-rule:evenodd;clip-rule:evenodd;fill:#E19D26;}
	.st10{fill:#DC4329;}
	.st11{fill:#DC4A26;}
	.st12{fill:#231F20;}
	.st13{fill:#FFFFFF;}
	.st14{fill:#050404;}
	.st15{fill:#263C82;}
	.st16{fill:#CC3533;}
	.st17{fill:#E82F4D;}
	.st18{fill:#010101;}
	.st19{fill:#C1C8CF;}
	.st20{fill:#365A8B;}
	.st21{fill:#29417C;}
	.st22{fill:#F47920;}
	.st23{fill:#FAA61A;}
	.st24{fill:#CCCCCC;}
	.st25{fill:#002B54;}
	.st26{fill:#ED1C24;}
	.st27{opacity:0.3;fill:#002B54;}
	.st28{fill:#020303;}
	.st29{fill:#1B9ED8;}
	.st30{fill:#189DD8;}
	.st31{fill:#43748F;}
	.st32{fill:#EB3947;}
	.st33{fill:#EB3A47;}
	.st34{fill:#44758F;}
	.st35{fill:#1F9ED8;}
	.st36{fill:#FCFDFD;}
	.st37{fill:#020202;}
	.st38{fill:#E83543;}
	.st39{fill-rule:evenodd;clip-rule:evenodd;fill:#C1A677;}
	.st40{fill-rule:evenodd;clip-rule:evenodd;fill:#212F55;}
	.st41{fill-rule:evenodd;clip-rule:evenodd;fill:#AB285C;}
	.st42{fill-rule:evenodd;clip-rule:evenodd;fill:#014A67;}
	.st43{fill:#F47A39;}
	.st44{fill-rule:evenodd;clip-rule:evenodd;fill:#242052;}
	.st45{fill:#123B35;}
	.st46{display:inline;fill:#DB2732;}
	.st47{display:inline;fill:#1D3665;}
	.st48{fill-rule:evenodd;clip-rule:evenodd;}
	.st49{fill:#F58220;}
	.st50{fill:#1A3562;}
	.st51{fill:#036B66;}
	.st52{fill:#C4CDD3;}
	.st53{fill:#EB1F4E;}
	.st54{display:inline;fill:#C4203B;}
	.st55{display:inline;fill:#164883;}
	.st56{display:inline;fill:#90BCE5;}
	.st57{display:inline;fill:#1B2F5B;}
	.st58{fill:#144983;}
	.st59{fill:#CD1F43;}
	.st60{fill:#1A459D;}
	.st61{fill:#0A2042;}
	.st62{fill:#D92E27;}
	.st63{display:inline;fill:#CF1F45;}
	.st64{fill-rule:evenodd;clip-rule:evenodd;fill:#D7CA9E;}
	.st65{fill:#1E3B6E;}
	.st66{fill:#39B54A;}
	.st67{fill:#E19D26;}
	.st68{fill:#BE2132;}
	.st69{fill:#EF5426;}
	.st70{display:inline;fill:#FFFFFF;}
	.st71{display:inline;fill:#E31837;}
	.st72{display:inline;fill:#E21D37;}
	.st73{display:inline;fill:#005596;}
	.st74{display:inline;fill:#CC3533;}
	.st75{display:inline;fill:#E82F4D;}
	.st76{display:inline;fill:#010101;}
	.st77{display:inline;fill:#2A398B;}
	.st78{fill:#999999;}
	.st79{display:inline;fill:#999999;}
	.st80{display:inline;fill:#041E41;}
	.st81{display:inline;fill:#D4451D;}
	.st82{display:inline;fill:#EA7200;}
	.st83{display:inline;fill:#BDBBBB;}
	.st84{fill:#041E41;}
	.st85{fill:none;stroke:#000000;stroke-width:0.34;}
	.st86{fill:#D4451D;}
	.st87{fill:#EA7200;}
	.st88{fill:#BDBBBB;}
	.st89{fill:none;stroke:#EA7200;stroke-width:0;stroke-linecap:round;stroke-linejoin:round;}
	.st90{fill:#9C9FA1;}
	.st91{fill-rule:evenodd;clip-rule:evenodd;fill:#333290;}
	.st92{fill:#005B9B;}
	.st93{fill:#EF4043;}
	.st94{fill-rule:evenodd;clip-rule:evenodd;fill:#09A2DD;}
	.st95{fill-rule:evenodd;clip-rule:evenodd;fill:#43758E;}
	.st96{fill-rule:evenodd;clip-rule:evenodd;fill:#FCEE1E;}
	.st97{fill-rule:evenodd;clip-rule:evenodd;fill:#EE3441;}
	.st98{fill:#B89760;}
	.st99{fill:#D52D47;}
	.st100{fill-rule:evenodd;clip-rule:evenodd;fill:#0B2242;}
	.st101{fill:#F37938;}
	.st102{fill:#164883;}
	.st103{fill:#8E6D2A;}
	.st104{fill-rule:evenodd;clip-rule:evenodd;fill:#1A314F;}
	.st105{fill-rule:evenodd;clip-rule:evenodd;fill:#8F3326;}
	.st106{fill-rule:evenodd;clip-rule:evenodd;fill:#B68E64;}
	.st107{fill:#03493B;}
	.st108{fill:#FCC158;}
	.st109{fill:#BB544F;}
	.st110{fill:#D0B04A;}
	.st111{fill-rule:evenodd;clip-rule:evenodd;fill:#B6A269;}
	.st112{fill-rule:evenodd;clip-rule:evenodd;fill:#001F5B;}
	.st113{fill:#1D3665;}
	.st114{fill:#FFFFFF;stroke:#FFFFFF;stroke-width:0.16;}
	.st115{fill:#004666;}
	.st116{fill:none;stroke:#037062;stroke-width:2.8199;}
	.st117{fill:#BCCBD2;}
	.st118{fill:#037062;}
	.st119{fill:#E63248;}
	.st120{fill:none;stroke:#E63248;stroke-width:0.2826;}
	.st121{fill:none;stroke:#037062;stroke-width:1.0988;}
	.st122{fill:none;stroke:#BCCBD2;stroke-width:4.9365;}
	.st123{fill:#FCEE21;}
	.st124{fill:#FCEE23;}
	.st125{fill:#C4203B;}
	.st126{fill:#193661;}
	.st127{fill:#164884;}
	.st128{fill:#CF1F44;}
	.st129{fill:#0A2042;stroke:#010101;stroke-width:0.2131;}
	.st130{fill:#CF1F45;}
	.st131{fill:#1E3160;}
	.st132{fill:#BA202E;}
	.st133{fill:#212759;}
	.st134{fill:#BA1F31;}
	.st135{fill:#7BBCE8;}
	.st136{fill:#FED208;}
	.st137{fill:#6DB3E3;}
	.st138{fill:#FFCE04;}
	.st139{fill:#1B2F5B;}
	.st140{fill:#90BCE5;}
	.st141{fill:#D8782C;}
	.st142{fill:#C49C6F;}
	.st143{fill:#F04B23;}
	.st144{display:inline;fill-rule:evenodd;clip-rule:evenodd;fill:#F58220;}
	.st145{fill:#094F91;}
	.st146{fill:#DB2732;}
	.st147{fill:none;}
	.st148{fill:#00174A;}
	.st149{fill:none;stroke:#FFFFFF;stroke-width:3;stroke-miterlimit:10;}
	.st150{fill:none;stroke:#000000;stroke-width:0.1055;stroke-linecap:round;stroke-linejoin:round;}
	.st151{fill:#25358E;}
	.st152{fill:#ED1C2E;}
	.st153{fill:#FFFFFF;stroke:#000000;stroke-width:0.3293;stroke-linecap:round;stroke-linejoin:round;}
	.st154{display:inline;fill-rule:evenodd;clip-rule:evenodd;fill:#00174A;}
	.st155{fill:#0D2240;}
	.st156{display:inline;fill:#8EC641;}
	.st157{fill:#182D56;}
	.st158{fill:#BE323A;}
	.st159{fill:#C62034;}
	.st160{fill:#0B1437;}
	.st161{fill:#EC2135;}
	.st162{fill:#8EC641;}
	.st163{fill-rule:evenodd;clip-rule:evenodd;fill:#332312;}
	.st164{fill:#E4E5E6;}
	.st165{clip-path:url(#XMLID_4225_);}
	.st166{clip-path:url(#XMLID_4226_);fill:url(#XMLID_4227_);}
	.st167{clip-path:url(#XMLID_4228_);}
	.st168{clip-path:url(#XMLID_4229_);fill:url(#XMLID_4230_);}
	.st169{clip-path:url(#XMLID_4231_);}
	.st170{clip-path:url(#XMLID_4232_);fill:url(#XMLID_4233_);}
	.st171{clip-path:url(#XMLID_4234_);}
	.st172{clip-path:url(#XMLID_4235_);fill:url(#XMLID_4236_);}
	.st173{clip-path:url(#XMLID_4237_);}
	.st174{clip-path:url(#XMLID_4238_);fill:url(#XMLID_4239_);}
	.st175{clip-path:url(#XMLID_4240_);}
	.st176{clip-path:url(#XMLID_4241_);fill:url(#XMLID_4242_);}
	.st177{clip-path:url(#XMLID_4243_);}
	.st178{clip-path:url(#XMLID_4244_);fill:url(#XMLID_4245_);}
	.st179{clip-path:url(#XMLID_4246_);}
	.st180{clip-path:url(#XMLID_4247_);fill:url(#XMLID_4248_);}
	.st181{fill:#A4A9AD;}
	.st182{fill:#F05123;}
	.st183{fill:#8E744B;}
	.st184{fill:#EEE0C6;}
	.st185{fill:#8F182B;}
	.st186{fill:#FFC526;}
	.st187{fill:#B0B8BC;}
	.st188{fill:#FCBB30;}
	.st189{fill:#E21D38;}
	.st190{fill:#FFC759;}
	.st191{fill:#E03B3F;}
	.st192{fill:#8E8F92;}
	.st193{fill:#E13B3F;}
	.st194{fill:#FDDF0A;}
	.st195{fill:#E7AA23;}
	.st196{fill:#F37321;}
	.st197{fill:#008056;}
	.st198{fill:#E2293A;}
	.st199{fill:#1F438B;}
	.st200{fill:#005588;}
	.st201{fill:#A7B2B8;}
	.st202{fill:#8C2A43;}
	.st203{fill:#1C2D5B;}
	.st204{fill:#0C724D;}
	.st205{fill:#232020;}
	.st206{fill:#A8ABAD;}
	.st207{fill:#EB2627;}
	.st208{fill:#E56C25;}
	.st209{fill:#203C73;}
	.st210{fill:#B99758;}
	.st211{fill:#C8202F;}
	.st212{fill:#EEE3C6;}
	.st213{fill:#045937;}
	.st214{fill:#C02C38;}
	.st215{fill:#EEB41E;}
	.st216{fill:#F37E2F;}
	.st217{fill:#01549C;}
	.st218{fill:#0862AB;}
	.st219{fill:#E43B40;}
	.st220{fill:#DF1E38;}
	.st221{fill:#CD9C2B;}
	.st222{fill:#F47A3E;}
	.st223{fill:#FBB516;}
	.st224{fill:#E97424;}
	.st225{fill:#056D75;}
	.st226{fill:#142048;}
	.st227{fill:#FFC429;}
	.st228{fill:#114B9D;}
	.st229{fill:#213065;}
	.st230{fill:#1D2859;}
	.st231{fill:#A8AAAD;}
	.st232{fill:#1D427C;}
	.st233{fill:#153055;}
	.st234{fill:#AFB0B3;}
	.st235{fill:#20396F;}
	.st236{fill:#BE3138;}
	.st237{fill:#B4975A;}
	.st238{fill:#344042;}
	.st239{fill:#14244C;}
	.st240{fill:#D0202D;}
	.st241{fill:#A9A9AD;}
	.st242{fill:#1D3261;}
	.st243{fill:#811423;}
	.st244{fill:#6F6E76;}
	.st245{fill:#C62031;}
</style>
<g id="Layer_5" class="st0">
</g>
<g id="Layer_3">
</g>
<g id="Layer_4">
	<g id="XMLID_3006_">
		<path id="XMLID_3143_" class="st13" d="M72.2,142.8h135.1v29.7l-67.5,48.8l-67.5-48.8V142.8z M72.2,59h135.1v79.7H72.2V59z
			 M67.4,175l72.3,52.3l72.3-52.3V54.2H67.4V175z"/>
		<path id="XMLID_3140_" class="st13" d="M188.6,96.3h-37.5V81.7h37.5V96.3z M142.3,75.3c1.2,2.9,3.4,9.8,3.4,22.5
			s-2.2,19.7-3.4,22.5h8.9v-17.6h37.5v17.6h8.8c-1.2-2.9-3.4-9.8-3.4-22.5s2.2-19.7,3.4-22.5H142.3z"/>
		<path id="XMLID_3139_" class="st13" d="M90.9,113.9V97.8c0-12.8,2.2-19.7,3.4-22.5H82c1.2,2.9,3.4,9.8,3.4,22.5
			c0,12.8-2.2,19.7-3.4,22.5h49.1c0.8-1.3,3.1-5.4,3.7-11.3c-2.8,1.9-8.7,4.9-18.4,4.9H90.9L90.9,113.9z"/>
		<path id="XMLID_3135_" class="st13" d="M137.3,192.5c-3.3,0-6.8-0.4-9.3-0.7c3.3,1.2,8.3,1.8,8.3,1.8c-3.7,0-7.7-0.5-10.2-0.8
			c3.6,1.4,9.8,2,9.8,2c-9-0.2-14.3-1.6-14.3-1.6l-4.1-24l4.2,5.6c1.8-3,5.4-5.4,10-6.7l-1.3-3.1l6.5,2.9v-1.6l3-5.1l3,5.1v1.6
			l6.5-2.9l-1.3,3.1c4.6,1.3,8.1,3.8,10,6.7l4.2-5.6l-4.1,24c0,0-5.3,1.3-14.3,1.6c0,0,6.1-0.6,9.7-2c-2.5,0.4-6.5,0.8-10.2,0.8
			c0,0,5-0.5,8.3-1.8c-2.5,0.3-6,0.7-9.3,0.7c0,0,4.8-0.5,8.1-1.7c-2.9-0.6-6.6-1.1-10.6-1.1c-4,0-7.6,0.5-10.6,1.1
			C132.5,192,137.3,192.5,137.3,192.5 M136.2,165.4l3.2-5.5l-1.6-2.7l-0.4-0.4l0.3-0.4l0.6,0l0.1,0.5l1.4,2.4l1.4-2.4l0.1-0.5l0.6,0
			l0.3,0.4l-0.4,0.4l-1.6,2.7l3.2,5.5h2.5l-0.3,0.6H143l-3.2-5.5l-3.2,5.5H134l-0.3-0.6H136.2L136.2,165.4z M158.8,194.2l4.7-26.9
			l-1-0.4c0,0-3.8,5.1-4.5,6.1c-1.6-1.9-4.6-4.3-8.6-5.6c0.3-0.8,1.8-4.4,1.8-4.4s-2.3,0.9-3.2,1.3c0.1-0.2,0.2-0.4,0.2-0.4
			s-3.5,0.2-4,0.2c-0.3-0.5-2.2-3.8-2.4-4.3c0.2-0.4,0.9-1.7,1-1.8c0.1-0.1,1-0.9,1-0.9l-1.2-2.2l-2.4,0.2c0,0,0,1.1-0.1,1.4
			l-0.3,0.5l-0.3-0.5c0-0.2-0.1-1.4-0.1-1.4l-2.4-0.2l-1.2,2.2c0,0,0.9,0.7,1,0.9c0.1,0.1,0.8,1.4,1,1.8c-0.3,0.5-2.1,3.8-2.4,4.3
			c-0.5,0-4-0.2-4-0.2s0.1,0.2,0.2,0.4c-1-0.4-3.2-1.3-3.2-1.3s1.5,3.6,1.8,4.4c-4.1,1.3-7,3.7-8.6,5.6c-0.7-1-4.5-6.1-4.5-6.1
			l-1,0.4l4.7,26.9c0,0,6.7,1.7,19,1.7C152.1,195.9,158.8,194.2,158.8,194.2"/>
		<path id="XMLID_3134_" class="st13" d="M122.3,175.7l1.1,1.5c2.8-5.4,8.3-6,8.3-6c-4.8,1.8-6.7,4.6-7.4,7.3l1.1,1.4
			c0,0-0.1,3.8,0.6,5.4c0.2-0.1,0.5-0.2,0.8-0.3c-2.5-10.2,5.6-12.1,5.6-12.1c-5.7,2.9-5.1,8.2-4,11.6c0.5-0.1,1-0.3,1.6-0.4
			l0.9-4.2c-0.7-0.3-1.3-1-1.3-1.8c0-1.1,0.9-2,2-2c0.6,0,1.2,0.3,1.6,0.8c0.5,0.3,0.9,0.9,0.9,1.6c0,0.7-0.4,1.3-1,1.6l1.8,3.3
			c1-0.1,1.9-0.2,2.9-0.2L132,169C127.5,170.3,123.9,172.8,122.3,175.7"/>
		<path id="XMLID_3133_" class="st13" d="M146.6,179.8c-0.6-0.3-1-1-1-1.7c0-1.1,0.9-2,2-2c0.6,0,1.2,0.3,1.6,0.8
			c0.5,0.3,0.9,0.9,0.9,1.6c0,0.9-0.6,1.6-1.4,1.8l0.8,3.9c0.6,0.1,1.1,0.3,1.6,0.4c1.2-3.4,1.7-8.7-4-11.6c0,0,8,1.9,5.6,12.1
			c0.3,0.1,0.6,0.2,0.8,0.3c0.8-1.6,0.6-5.4,0.6-5.4l1.1-1.4c-0.6-2.7-2.6-5.5-7.4-7.3c0,0,5.5,0.6,8.3,6l1.1-1.5
			c-1.6-2.9-5.2-5.4-9.7-6.7l-5.8,14.2c1,0,2,0.1,2.9,0.2L146.6,179.8L146.6,179.8z"/>
		<path id="XMLID_3130_" class="st13" d="M131.6,179.6c-0.8,0-1.5-0.7-1.5-1.5c0-0.8,0.7-1.5,1.5-1.5c0.8,0,1.5,0.7,1.5,1.5
			C133.1,178.9,132.4,179.6,131.6,179.6 M131.6,176.4c-0.9,0-1.7,0.8-1.7,1.7c0,0.9,0.7,1.7,1.7,1.7c0.9,0,1.7-0.8,1.7-1.7
			C133.3,177.2,132.5,176.4,131.6,176.4"/>
		<path id="XMLID_3127_" class="st13" d="M147.6,179.6c-0.8,0-1.5-0.7-1.5-1.5c0-0.8,0.7-1.5,1.5-1.5c0.8,0,1.5,0.7,1.5,1.5
			C149.1,178.9,148.4,179.6,147.6,179.6 M149.3,178.1c0-0.9-0.8-1.7-1.7-1.7c-0.9,0-1.7,0.8-1.7,1.7c0,0.9,0.8,1.7,1.7,1.7
			C148.5,179.8,149.3,179,149.3,178.1"/>
		<path id="XMLID_3126_" class="st13" d="M121,182.4c0-0.4-0.3-0.7-0.7-0.7c-0.1,0-0.1,0-0.2,0l0.2,1.4
			C120.7,183.1,121,182.7,121,182.4"/>
		<path id="XMLID_3125_" class="st13" d="M120.3,180.2c-0.1,0-0.3,0-0.4,0.1l0,0.3c0.1,0,0.2-0.1,0.4-0.1c0.9,0,1.7,0.8,1.7,1.8
			c0,0.9-0.6,1.7-1.5,1.8l0,0.3c0.9-0.1,1.7-1,1.7-2.1C122.3,181.2,121.4,180.2,120.3,180.2"/>
		<path id="XMLID_3124_" class="st13" d="M158.5,182.4c0,0.4,0.3,0.7,0.6,0.7l0.2-1.4c-0.1,0-0.1,0-0.2,0
			C158.8,181.6,158.5,181.9,158.5,182.4"/>
		<path id="XMLID_3123_" class="st13" d="M158.9,184.4l0-0.3c-0.8-0.1-1.5-0.9-1.5-1.8c0-1,0.8-1.8,1.7-1.8c0.1,0,0.3,0,0.4,0l0-0.3
			c-0.1,0-0.3-0.1-0.4-0.1c-1.1,0-2,0.9-2,2.1C157.3,183.4,158,184.3,158.9,184.4"/>
		<path id="XMLID_3120_" class="st13" d="M139,168c0-0.4,0.3-0.8,0.8-0.8c0.4,0,0.8,0.3,0.8,0.8c0,0.4-0.3,0.8-0.8,0.8
			C139.3,168.8,139,168.4,139,168 M140.6,168c0-0.5-0.4-0.9-0.9-0.9c-0.5,0-0.9,0.4-0.9,0.9c0,0.5,0.4,0.9,0.9,0.9
			C140.2,168.9,140.6,168.5,140.6,168"/>
		<path id="XMLID_3117_" class="st13" d="M144.5,168.9c0.4,0,0.8,0.4,0.8,0.8c0,0.4-0.3,0.8-0.8,0.8c-0.4,0-0.8-0.3-0.8-0.8
			C143.7,169.3,144,168.9,144.5,168.9 M144.5,170.6c0.5,0,0.9-0.4,0.9-0.9c0-0.5-0.4-0.9-0.9-0.9s-0.9,0.4-0.9,0.9
			C143.6,170.2,144,170.6,144.5,170.6"/>
		<path id="XMLID_3114_" class="st13" d="M134.6,168.9c0.4,0,0.8,0.4,0.8,0.8c0,0.4-0.3,0.8-0.8,0.8c-0.4,0-0.8-0.3-0.8-0.8
			C133.8,169.3,134.2,168.9,134.6,168.9 M134.6,170.6c0.5,0,0.9-0.4,0.9-0.9c0-0.5-0.4-0.9-0.9-0.9c-0.5,0-0.9,0.4-0.9,0.9
			C133.7,170.2,134.1,170.6,134.6,170.6"/>
		<path id="XMLID_3111_" class="st187" d="M76.5,150.2H203v20.2l-63.3,45.7l-63.3-45.7V150.2L76.5,150.2z M207.3,172.6v-29.7H72.2
			v29.7l67.5,48.8L207.3,172.6L207.3,172.6z"/>
		<path id="XMLID_3108_" class="st187" d="M203,132.4H76.5V63.2H203V132.4z M207.3,59H72.2v79.7h135.1L207.3,59L207.3,59z"/>
		<path id="XMLID_3105_" class="st187" d="M142.3,75.3h55.2c-1.2,2.9-3.4,9.8-3.4,22.5c0,12.8,2.2,19.7,3.4,22.5h-8.9v-17.6h-37.5
			v17.6h-8.9c1.2-2.9,3.4-9.8,3.4-22.5C145.7,85,143.6,78.1,142.3,75.3 M152.3,121.4v-17.6h35.3v17.6h11.7c0,0-4.1-6.2-4.1-23.6
			c0-17.4,4.1-23.6,4.1-23.6h-58.7c0,0,4.1,6.2,4.1,23.6c0,17.4-4.1,23.6-4.1,23.6H152.3L152.3,121.4z"/>
		<path id="XMLID_3102_" class="st187" d="M187.5,95.2h-35.3V82.8h35.3V95.2z M188.6,81.7h-37.5v14.6h37.5L188.6,81.7L188.6,81.7z"
			/>
		<path id="XMLID_3099_" class="st187" d="M82,75.3h12.2c-1.2,2.9-3.4,9.8-3.4,22.5v16.1h25.5c9.8,0,15.6-3,18.4-4.9
			c-0.5,5.9-2.8,10-3.7,11.3H82c1.2-2.9,3.4-9.8,3.4-22.5C85.4,85,83.3,78.1,82,75.3 M131.8,121.4c0,0,4.3-5.8,4.3-14.7
			c0,0-5.9,6.1-19.7,6.1H92v-15C92,80.4,96,74.2,96,74.2H80.3c0,0,4.1,6.2,4.1,23.6c0,17.4-4.1,23.6-4.1,23.6H131.8L131.8,121.4z"/>
		<path id="XMLID_3096_" class="st187" d="M134.9,170.9c-0.2,0-0.4-0.1-0.5-0.2c-0.4-0.1-0.8-0.5-0.8-1c0-0.6,0.5-1,1-1
			c0.3,0,0.6,0.2,0.8,0.4c0.3,0.2,0.5,0.5,0.5,0.8C135.9,170.4,135.4,170.9,134.9,170.9 M136.8,168.4l-5.5-2.5l5.5,13.3V168.4z"/>
		<path id="XMLID_3093_" class="st187" d="M144.8,170.9c-0.2,0-0.4-0.1-0.5-0.2c-0.4-0.1-0.8-0.5-0.8-1c0-0.6,0.5-1,1-1
			c0.3,0,0.6,0.2,0.8,0.4c0.3,0.2,0.5,0.5,0.5,0.8C145.7,170.4,145.3,170.9,144.8,170.9 M142.7,168.4v10.8l5.5-13.3L142.7,168.4z"/>
		<path id="XMLID_3090_" class="st187" d="M138.7,168c0-0.6,0.5-1,1-1c0.6,0,1,0.5,1,1c0,0.6-0.5,1-1,1
			C139.2,169,138.7,168.6,138.7,168 M142.2,168.1l-2.4-3.2l-2.4,3.2l2.4,2.9L142.2,168.1z"/>
		<path id="XMLID_3066_" class="st187" d="M156,184.5l0.8-1.1l0.5,0.8L156,184.5z M156.5,182.1l0.1,1l-1.3-0.4L156.5,182.1
			L156.5,182.1z M157,180.8l-0.4,0.9l-0.9-1L157,180.8z M158.2,179.9l-0.8,0.5l-0.3-1.3L158.2,179.9L158.2,179.9z M159,178.5
			l0.5,1.2l-1,0L159,178.5z M151.9,188.8c-0.1,0-0.3,0-0.4-0.1l0,0c0.5,0,1-0.4,1-1c0-0.2-0.1-0.4-0.2-0.6c0.3,0.1,0.5,0.4,0.5,0.8
			C152.8,188.4,152.4,188.8,151.9,188.8 M150.7,187.8c0-0.4,0.4-0.8,0.8-0.8c0.4,0,0.8,0.4,0.8,0.8c0,0.4-0.4,0.8-0.8,0.8
			C151,188.5,150.7,188.2,150.7,187.8 M144.2,187.5c-0.1,0-0.3,0-0.4-0.1h0c0.5,0,1-0.4,1-1c0-0.2-0.1-0.4-0.2-0.6
			c0.3,0.1,0.5,0.4,0.5,0.8C145.1,187.1,144.7,187.5,144.2,187.5 M143.1,186.4c0-0.4,0.4-0.8,0.8-0.8c0.4,0,0.8,0.4,0.8,0.8
			c0,0.4-0.4,0.8-0.8,0.8C143.4,187.2,143.1,186.8,143.1,186.4 M140.1,180.6c-0.1,0-0.3,0-0.4-0.1h0c0.5,0,1-0.4,1-1
			c0-0.2-0.1-0.4-0.2-0.6c0.3,0.1,0.5,0.4,0.5,0.8C141,180.2,140.6,180.6,140.1,180.6 M138.9,179.6c0-0.4,0.4-0.8,0.8-0.8
			c0.4,0,0.8,0.4,0.8,0.8c0,0.4-0.4,0.8-0.8,0.8C139.3,180.4,138.9,180,138.9,179.6 M135.5,187.5c-0.1,0-0.3,0-0.4-0.1h0
			c0.5,0,1-0.4,1-1c0-0.2-0.1-0.4-0.2-0.6c0.3,0.1,0.5,0.4,0.5,0.8C136.4,187.1,136,187.5,135.5,187.5 M134.3,186.4
			c0-0.4,0.4-0.8,0.8-0.8c0.4,0,0.8,0.4,0.8,0.8c0,0.4-0.4,0.8-0.8,0.8C134.7,187.2,134.3,186.8,134.3,186.4 M127.9,188.8
			c-0.1,0-0.3,0-0.4-0.1l0,0c0.5,0,1-0.4,1-1c0-0.2-0.1-0.4-0.2-0.6c0.3,0.1,0.5,0.4,0.5,0.8C128.8,188.4,128.4,188.8,127.9,188.8
			 M126.7,187.8c0-0.4,0.4-0.8,0.8-0.8c0.4,0,0.8,0.4,0.8,0.8c0,0.4-0.4,0.8-0.8,0.8C127.1,188.5,126.7,188.2,126.7,187.8
			 M122.9,183.1l0.1-1l1.2,0.6L122.9,183.1z M122.3,184.2l0.5-0.8l0.8,1.1L122.3,184.2L122.3,184.2z M122.5,180.8l1.3-0.1l-0.9,1
			L122.5,180.8L122.5,180.8z M122.2,180.4l-0.8-0.5l1.1-0.8L122.2,180.4z M119.9,179.7l0.5-1.2l0.4,1.2L119.9,179.7z M120.9,185
			l0.9-0.4l0,1.3L120.9,185L120.9,185z M157.7,184.6l0.9,0.4l-0.9,0.9L157.7,184.6z M158.9,184.7c-1.1-0.2-1.9-1.2-1.9-2.3
			c0-1.3,1-2.4,2.2-2.4c0.2,0,0.3,0,0.5,0l1.5-8.8l-6.6,8.8c0.1,4.2-0.9,5.9-0.9,5.9s-2.2-0.9-4.7-1.4l-0.9-4.3
			c-0.4,0-0.7-0.1-1-0.3l0,0l-2.2,4c0,0-2.7-0.3-4.1-0.3l1.2-3.8l-2.3-5.9l-2.3,5.9l1.2,3.8c-1.4,0-4.1,0.3-4.1,0.3l-2-3.7
			c-0.1,0-0.3,0-0.4,0c-0.3,0-0.5-0.1-0.8-0.2l-0.9,4.5c-2.5,0.5-4.7,1.4-4.7,1.4s-1-1.7-0.9-5.9l-6.6-8.8l1.5,8.8
			c0.1,0,0.3,0,0.5,0c1.2,0,2.2,1.1,2.2,2.4c0,1.2-0.8,2.2-1.9,2.3l1.3,7.6c2.1-0.8,9.1-3.2,17.8-3.2c8.7,0,15.7,2.4,17.8,3.2
			L158.9,184.7L158.9,184.7z"/>
		<path id="XMLID_3063_" class="st18" d="M116,167.3l1-0.4c0,0,3.8,5.1,4.5,6.1c1.6-1.9,4.6-4.3,8.6-5.6c-0.3-0.8-1.8-4.4-1.8-4.4
			s2.3,0.9,3.2,1.3c-0.1-0.2-0.2-0.4-0.2-0.4s3.5,0.2,4,0.2c0.3-0.5,2.2-3.8,2.4-4.3c-0.2-0.4-0.9-1.6-1-1.8c-0.1-0.1-1-0.9-1-0.9
			l1.1-2.2l2.4,0.2c0,0,0,1.1,0.1,1.4l0.3,0.5l0.3-0.5c0-0.2,0.1-1.4,0.1-1.4l2.4-0.2l1.2,2.2c0,0-0.9,0.8-1,0.9
			c-0.1,0.1-0.8,1.4-1,1.8c0.3,0.5,2.1,3.8,2.4,4.3c0.5,0,4-0.2,4-0.2s-0.1,0.2-0.2,0.4c1-0.4,3.2-1.3,3.2-1.3s-1.5,3.6-1.8,4.4
			c4.1,1.3,7.1,3.7,8.6,5.6c0.7-1,4.5-6.1,4.5-6.1l1,0.4l-4.7,26.9c0,0-6.7,1.7-19,1.7c-12.3,0-19-1.7-19-1.7L116,167.3z M203,170.4
			v-20.2H76.5v20.2l63.3,45.7L203,170.4z"/>
		<path id="XMLID_3059_" class="st18" d="M199.2,121.4h-11.7v-17.6h-35.3v17.6h-11.7c0,0,4.1-6.2,4.1-23.6c0-17.4-4.1-23.6-4.1-23.6
			h58.7c0,0-4.1,6.2-4.1,23.6C195.2,115.2,199.2,121.4,199.2,121.4 M131.8,121.4H80.3c0,0,4.1-6.2,4.1-23.6
			c0-17.4-4.1-23.6-4.1-23.6H96c0,0-4.1,6.2-4.1,23.6v15h24.4c13.8,0,19.7-6.1,19.7-6.1C136,115.6,131.8,121.4,131.8,121.4
			 M203,63.2H76.5v69.2H203V63.2z"/>
		<rect id="XMLID_3058_" x="152.3" y="82.8" class="st18" width="35.3" height="12.4"/>
		<path id="XMLID_3057_" class="st18" d="M131.6,176.6c-0.8,0-1.5,0.7-1.5,1.5c0,0.8,0.7,1.5,1.5,1.5c0.8,0,1.5-0.7,1.5-1.5
			C133.1,177.3,132.4,176.6,131.6,176.6"/>
		<path id="XMLID_3056_" class="st18" d="M147.6,176.6c-0.8,0-1.5,0.7-1.5,1.5c0,0.8,0.7,1.5,1.5,1.5c0.8,0,1.5-0.7,1.5-1.5
			C149.1,177.3,148.4,176.6,147.6,176.6"/>
		<path id="XMLID_3042_" class="st18" d="M122,192.3l-1.3-7.6c1.1-0.2,1.9-1.2,1.9-2.3c0-1.3-1-2.4-2.2-2.4c-0.2,0-0.3,0-0.5,0.1
			l-1.5-8.8l6.6,8.8c-0.1,4.2,0.9,5.9,0.9,5.9s2.2-0.9,4.7-1.4l0.9-4.5c0.2,0.1,0.5,0.2,0.8,0.2c0.1,0,0.3,0,0.4,0l2,3.7
			c0,0,2.7-0.3,4.1-0.3l-1.2-3.8l2.3-5.9l2.3,5.9l-1.2,3.8c1.4,0,4.1,0.3,4.1,0.3l2.2-4l0,0c0.3,0.2,0.6,0.3,1,0.3l0.9,4.3
			c2.5,0.5,4.7,1.4,4.7,1.4s1-1.7,0.9-5.9l6.6-8.8l-1.5,8.8c-0.2,0-0.3-0.1-0.5-0.1c-1.2,0-2.2,1.1-2.2,2.4c0,1.2,0.8,2.2,1.9,2.3
			l-1.3,7.6c-2.1-0.8-9.1-3.2-17.8-3.2C131,189.1,124,191.5,122,192.3 M120.5,184.2c0.8-0.1,1.5-0.9,1.5-1.8c0-1-0.8-1.8-1.7-1.8
			c-0.1,0-0.3,0-0.4,0l0-0.3c0.1,0,0.3-0.1,0.4-0.1c1.1,0,2,0.9,2,2.1c0,1.1-0.7,1.9-1.7,2.1L120.5,184.2L120.5,184.2z M120.1,181.6
			c0.1,0,0.1,0,0.2,0c0.4,0,0.7,0.3,0.7,0.7c0,0.4-0.3,0.7-0.6,0.7L120.1,181.6z M131.6,179.8c-0.9,0-1.7-0.8-1.7-1.7
			c0-0.9,0.8-1.7,1.7-1.7c0.9,0,1.7,0.7,1.7,1.7C133.3,179,132.5,179.8,131.6,179.8 M132,169l5.8,14.2c-1,0-2,0.1-2.9,0.2l-1.8-3.3
			c0.6-0.3,1-0.9,1-1.6c0-0.7-0.3-1.3-0.9-1.6c-0.4-0.5-0.9-0.8-1.6-0.8c-1.1,0-2,0.9-2,2c0,0.8,0.5,1.5,1.3,1.8l-0.9,4.2
			c-0.6,0.1-1.1,0.3-1.6,0.4c-1.2-3.4-1.7-8.7,4-11.6c0,0-8,1.9-5.6,12.1c-0.3,0.1-0.6,0.2-0.8,0.3c-0.8-1.6-0.6-5.4-0.6-5.4
			l-1.1-1.4c0.6-2.7,2.6-5.5,7.4-7.3c0,0-5.6,0.6-8.3,6l-1.1-1.5C123.9,172.8,127.5,170.3,132,169 M131.3,165.9l5.5,2.5v10.8
			L131.3,165.9z M139.8,164.9l2.4,3.2l-2.4,2.9l-2.4-2.9L139.8,164.9z M142.7,168.4l5.5-2.5l-5.5,13.3V168.4z M147.6,179.8
			c-0.9,0-1.7-0.8-1.7-1.7c0-0.9,0.8-1.7,1.7-1.7c0.9,0,1.7,0.7,1.7,1.7C149.3,179,148.5,179.8,147.6,179.8 M157.2,175.7l-1.1,1.5
			c-2.8-5.4-8.3-6-8.3-6c4.8,1.8,6.7,4.6,7.4,7.3l-1.1,1.4c0,0,0.1,3.8-0.6,5.4c-0.2-0.1-0.5-0.2-0.8-0.3
			c2.5-10.2-5.6-12.1-5.6-12.1c5.7,2.9,5.2,8.2,4,11.6c-0.5-0.1-1-0.3-1.6-0.4l-0.8-3.9c0.8-0.2,1.4-0.9,1.4-1.8
			c0-0.7-0.3-1.3-0.9-1.6c-0.4-0.5-0.9-0.8-1.6-0.8c-1.1,0-2,0.9-2,2c0,0.7,0.4,1.3,1,1.7l-2,3.6c-1-0.1-1.9-0.2-2.9-0.2l5.8-14.2
			C152,170.3,155.6,172.8,157.2,175.7 M159.6,180.6c-0.1,0-0.2,0-0.4,0c-0.9,0-1.7,0.8-1.7,1.8c0,0.9,0.6,1.7,1.5,1.8l0,0.3
			c-0.9-0.1-1.7-1-1.7-2.1c0-1.2,0.9-2.1,2-2.1c0.1,0,0.3,0,0.4,0.1L159.6,180.6L159.6,180.6z M159.2,183.1c-0.4,0-0.6-0.3-0.6-0.7
			c0-0.4,0.3-0.7,0.7-0.7c0.1,0,0.1,0,0.2,0L159.2,183.1z M150.3,190.8c-3.3,1.2-8.1,1.7-8.1,1.7c3.3,0,6.8-0.4,9.3-0.7
			c-3.3,1.2-8.3,1.8-8.3,1.8c3.7,0,7.7-0.5,10.2-0.8c-3.6,1.4-9.8,2-9.8,2c9-0.2,14.3-1.6,14.3-1.6l4.1-24l-4.2,5.6
			c-1.8-3-5.4-5.4-10-6.7l1.3-3.1l-6.5,2.9v-1.6l-3-5.1l-3,5.1v1.6l-6.5-2.9l1.3,3.1c-4.6,1.3-8.1,3.8-10,6.7l-4.2-5.6l4.1,24
			c0,0,5.3,1.3,14.3,1.6c0,0-6.1-0.6-9.8-2c2.5,0.4,6.5,0.8,10.2,0.8c0,0-5-0.5-8.3-1.8c2.5,0.3,6,0.7,9.3,0.7c0,0-4.8-0.5-8.1-1.7
			c2.9-0.6,6.6-1.1,10.6-1.1C143.8,189.7,147.4,190.2,150.3,190.8"/>
		<polygon id="XMLID_3041_" class="st18" points="138.3,156.4 137.7,156.4 137.5,156.8 137.8,157.1 139.4,159.8 136.2,165.4 
			133.7,165.4 134,166 136.5,166 139.8,160.4 143,166 145.5,166 145.9,165.4 143.3,165.4 140.1,159.8 141.7,157.1 142.1,156.8 
			141.8,156.4 141.2,156.4 141.1,156.9 139.8,159.3 138.4,156.9 		"/>
		<path id="XMLID_3040_" class="st18" d="M135.9,185.8c0.1,0.2,0.2,0.4,0.2,0.6c0,0.5-0.4,1-1,1l0,0c0.1,0.1,0.3,0.1,0.4,0.1
			c0.5,0,0.9-0.4,0.9-0.9C136.4,186.2,136.2,185.9,135.9,185.8"/>
		<path id="XMLID_3039_" class="st18" d="M128.3,187.1c0.1,0.2,0.2,0.4,0.2,0.6c0,0.5-0.4,1-1,1l0,0c0.1,0.1,0.3,0.1,0.4,0.1
			c0.5,0,0.9-0.4,0.9-0.9C128.8,187.6,128.6,187.3,128.3,187.1"/>
		<path id="XMLID_3038_" class="st18" d="M143.9,187.4L143.9,187.4c0.1,0.1,0.2,0.1,0.4,0.1c0.5,0,0.9-0.4,0.9-0.9
			c0-0.4-0.2-0.7-0.5-0.8c0.1,0.2,0.2,0.4,0.2,0.6C144.8,186.9,144.4,187.4,143.9,187.4"/>
		<path id="XMLID_3037_" class="st18" d="M151.5,188.7L151.5,188.7c0.1,0.1,0.2,0.1,0.4,0.1c0.5,0,0.9-0.4,0.9-0.9
			c0-0.4-0.2-0.7-0.5-0.8c0.1,0.2,0.2,0.4,0.2,0.6C152.5,188.3,152,188.7,151.5,188.7"/>
		<path id="XMLID_3036_" class="st18" d="M141,179.8c0-0.4-0.2-0.7-0.5-0.8c0.1,0.2,0.2,0.4,0.2,0.6c0,0.5-0.4,1-1,1h0
			c0.1,0.1,0.3,0.1,0.4,0.1C140.6,180.6,141,180.2,141,179.8"/>
		<path id="XMLID_3035_" class="st18" d="M135.9,186.4c0-0.4-0.4-0.8-0.8-0.8c-0.4,0-0.8,0.4-0.8,0.8c0,0.4,0.4,0.8,0.8,0.8
			C135.5,187.2,135.9,186.8,135.9,186.4"/>
		<path id="XMLID_3034_" class="st18" d="M128.3,187.7c0-0.4-0.4-0.8-0.8-0.8c-0.4,0-0.8,0.4-0.8,0.8c0,0.4,0.4,0.8,0.8,0.8
			C127.9,188.5,128.3,188.2,128.3,187.7"/>
		<path id="XMLID_3033_" class="st18" d="M143.9,187.2c0.4,0,0.8-0.4,0.8-0.8c0-0.4-0.4-0.8-0.8-0.8c-0.4,0-0.8,0.4-0.8,0.8
			C143.1,186.8,143.4,187.2,143.9,187.2"/>
		<path id="XMLID_3032_" class="st18" d="M151.5,188.5c0.4,0,0.8-0.4,0.8-0.8c0-0.4-0.4-0.8-0.8-0.8c-0.4,0-0.8,0.4-0.8,0.8
			C150.7,188.2,151,188.5,151.5,188.5"/>
		<path id="XMLID_3031_" class="st18" d="M140.5,179.6c0-0.4-0.4-0.8-0.8-0.8c-0.4,0-0.8,0.4-0.8,0.8c0,0.4,0.4,0.8,0.8,0.8
			C140.1,180.4,140.5,180,140.5,179.6"/>
		<polygon id="XMLID_3030_" class="st18" points="119.9,179.7 120.9,179.7 120.5,178.5 		"/>
		<polygon id="XMLID_3029_" class="st18" points="121.4,179.9 122.2,180.4 122.4,179.1 		"/>
		<polygon id="XMLID_3028_" class="st18" points="122.5,180.8 122.9,181.6 123.8,180.7 		"/>
		<polygon id="XMLID_3027_" class="st18" points="122.9,183.1 124.2,182.7 123,182.1 		"/>
		<polygon id="XMLID_3026_" class="st18" points="122.3,184.2 123.5,184.5 122.8,183.4 		"/>
		<polygon id="XMLID_3025_" class="st18" points="120.9,185 121.8,185.9 121.8,184.6 		"/>
		<polygon id="XMLID_3024_" class="st18" points="158.6,179.7 159.6,179.7 159,178.5 		"/>
		<polygon id="XMLID_3023_" class="st18" points="157.4,180.4 158.2,179.9 157.1,179.1 		"/>
		<polygon id="XMLID_3022_" class="st18" points="156.6,181.6 157,180.8 155.7,180.7 		"/>
		<polygon id="XMLID_3021_" class="st18" points="155.4,182.7 156.6,183.1 156.5,182.1 		"/>
		<polygon id="XMLID_3020_" class="st18" points="156,184.5 157.3,184.2 156.7,183.4 		"/>
		<polygon id="XMLID_3019_" class="st18" points="157.7,185.9 158.6,185 157.7,184.6 		"/>
		<path id="XMLID_3016_" class="st18" d="M138.9,168c0-0.5,0.4-0.9,0.9-0.9c0.5,0,0.9,0.4,0.9,0.9c0,0.5-0.4,0.9-0.9,0.9
			C139.3,168.9,138.9,168.5,138.9,168 M140.8,168c0-0.6-0.5-1-1-1s-1,0.5-1,1c0,0.6,0.5,1,1,1S140.8,168.6,140.8,168"/>
		<path id="XMLID_3013_" class="st18" d="M144.5,170.6c-0.5,0-0.9-0.4-0.9-0.9c0-0.5,0.4-0.9,0.9-0.9c0.5,0,0.9,0.4,0.9,0.9
			C145.3,170.2,145,170.6,144.5,170.6 M145.3,169.1c-0.2-0.2-0.5-0.4-0.8-0.4c-0.6,0-1,0.5-1,1c0,0.5,0.3,0.9,0.8,1
			c0.2,0.1,0.3,0.2,0.5,0.2c0.5,0,1-0.4,1-1C145.7,169.6,145.6,169.3,145.3,169.1"/>
		<path id="XMLID_3010_" class="st18" d="M134.6,170.6c-0.5,0-0.9-0.4-0.9-0.9c0-0.5,0.4-0.9,0.9-0.9c0.5,0,0.9,0.4,0.9,0.9
			C135.5,170.2,135.1,170.6,134.6,170.6 M135.4,169.1c-0.2-0.2-0.5-0.4-0.8-0.4c-0.6,0-1,0.5-1,1c0,0.5,0.3,0.9,0.8,1
			c0.2,0.1,0.3,0.2,0.5,0.2c0.5,0,1-0.4,1-1C135.9,169.6,135.7,169.3,135.4,169.1"/>
		<path id="XMLID_3009_" class="st18" d="M140.5,168c0-0.4-0.3-0.8-0.8-0.8c-0.4,0-0.8,0.3-0.8,0.8c0,0.4,0.3,0.8,0.8,0.8
			C140.2,168.8,140.5,168.4,140.5,168"/>
		<path id="XMLID_3008_" class="st18" d="M144.5,168.9c-0.4,0-0.8,0.3-0.8,0.8c0,0.4,0.3,0.8,0.8,0.8c0.4,0,0.8-0.3,0.8-0.8
			C145.2,169.3,144.9,168.9,144.5,168.9"/>
		<path id="XMLID_3007_" class="st18" d="M134.6,168.9c-0.4,0-0.8,0.3-0.8,0.8c0,0.4,0.3,0.8,0.8,0.8c0.4,0,0.8-0.3,0.8-0.8
			C135.4,169.3,135,168.9,134.6,168.9"/>
	</g>
</g>
<g id="Watermark">
</g>
</svg>
