<?xml version="1.0" encoding="utf-8"?>
<!-- Generator: Adobe Illustrator 19.2.1, SVG Export Plug-In . SVG Version: 6.00 Build 0)  -->
<svg version="1.1" xmlns="http://www.w3.org/2000/svg" xmlns:xlink="http://www.w3.org/1999/xlink" x="0px" y="0px"
	 viewBox="0 0 288 288" style="enable-background:new 0 0 288 288;" xml:space="preserve">
<style type="text/css">
	.st0{display:none;}
	.st1{display:inline;}
	.st2{fill:#EF3E42;}
	.st3{fill:#004B8D;}
	.st4{fill:#D7CA9E;}
	.st5{fill:#A03123;}
	.st6{fill-rule:evenodd;clip-rule:evenodd;fill:#FFFFFF;}
	.st7{fill-rule:evenodd;clip-rule:evenodd;fill:#1E3B6E;}
	.st8{fill-rule:evenodd;clip-rule:evenodd;fill:#BE2132;}
	.st9{fill-rule:evenodd;clip-rule:evenodd;fill:#E19D26;}
	.st10{fill:#DC4329;}
	.st11{fill:#DC4A26;}
	.st12{fill:#231F20;}
	.st13{fill:#FFFFFF;}
	.st14{fill:#050404;}
	.st15{fill:#263C82;}
	.st16{fill:#CC3533;}
	.st17{fill:#E82F4D;}
	.st18{fill:#010101;}
	.st19{fill:#C1C8CF;}
	.st20{fill:#365A8B;}
	.st21{fill:#29417C;}
	.st22{fill:#F47920;}
	.st23{fill:#FAA61A;}
	.st24{fill:#CCCCCC;}
	.st25{fill:#002B54;}
	.st26{fill:#ED1C24;}
	.st27{opacity:0.3;fill:#002B54;}
	.st28{fill:#020303;}
	.st29{fill:#1B9ED8;}
	.st30{fill:#189DD8;}
	.st31{fill:#43748F;}
	.st32{fill:#EB3947;}
	.st33{fill:#EB3A47;}
	.st34{fill:#44758F;}
	.st35{fill:#1F9ED8;}
	.st36{fill:#FCFDFD;}
	.st37{fill:#020202;}
	.st38{fill:#E83543;}
	.st39{fill-rule:evenodd;clip-rule:evenodd;fill:#C1A677;}
	.st40{fill-rule:evenodd;clip-rule:evenodd;fill:#212F55;}
	.st41{fill-rule:evenodd;clip-rule:evenodd;fill:#AB285C;}
	.st42{fill-rule:evenodd;clip-rule:evenodd;fill:#014A67;}
	.st43{fill:#F47A39;}
	.st44{fill-rule:evenodd;clip-rule:evenodd;fill:#242052;}
	.st45{fill:#123B35;}
	.st46{display:inline;fill:#DB2732;}
	.st47{display:inline;fill:#1D3665;}
	.st48{fill-rule:evenodd;clip-rule:evenodd;}
	.st49{fill:#F58220;}
	.st50{fill:#1A3562;}
	.st51{fill:#036B66;}
	.st52{fill:#C4CDD3;}
	.st53{fill:#EB1F4E;}
	.st54{display:inline;fill:#C4203B;}
	.st55{display:inline;fill:#164883;}
	.st56{display:inline;fill:#90BCE5;}
	.st57{display:inline;fill:#1B2F5B;}
	.st58{fill:#144983;}
	.st59{fill:#CD1F43;}
	.st60{fill:#1A459D;}
	.st61{fill:#0A2042;}
	.st62{fill:#D92E27;}
	.st63{display:inline;fill:#CF1F45;}
	.st64{fill-rule:evenodd;clip-rule:evenodd;fill:#D7CA9E;}
	.st65{fill:#1E3B6E;}
	.st66{fill:#39B54A;}
	.st67{fill:#E19D26;}
	.st68{fill:#BE2132;}
	.st69{fill:#EF5426;}
	.st70{display:inline;fill:#FFFFFF;}
	.st71{display:inline;fill:#E31837;}
	.st72{display:inline;fill:#E21D37;}
	.st73{display:inline;fill:#005596;}
	.st74{display:inline;fill:#CC3533;}
	.st75{display:inline;fill:#E82F4D;}
	.st76{display:inline;fill:#010101;}
	.st77{display:inline;fill:#2A398B;}
	.st78{fill:#999999;}
	.st79{display:inline;fill:#999999;}
	.st80{display:inline;fill:#041E41;}
	.st81{display:inline;fill:#D4451D;}
	.st82{display:inline;fill:#EA7200;}
	.st83{display:inline;fill:#BDBBBB;}
	.st84{fill:#041E41;}
	.st85{fill:none;stroke:#000000;stroke-width:0.34;}
	.st86{fill:#D4451D;}
	.st87{fill:#EA7200;}
	.st88{fill:#BDBBBB;}
	.st89{fill:none;stroke:#EA7200;stroke-width:0;stroke-linecap:round;stroke-linejoin:round;}
	.st90{fill:#9C9FA1;}
	.st91{fill-rule:evenodd;clip-rule:evenodd;fill:#333290;}
	.st92{fill:#005B9B;}
	.st93{fill:#EF4043;}
	.st94{fill-rule:evenodd;clip-rule:evenodd;fill:#09A2DD;}
	.st95{fill-rule:evenodd;clip-rule:evenodd;fill:#43758E;}
	.st96{fill-rule:evenodd;clip-rule:evenodd;fill:#FCEE1E;}
	.st97{fill-rule:evenodd;clip-rule:evenodd;fill:#EE3441;}
	.st98{fill:#B89760;}
	.st99{fill:#D52D47;}
	.st100{fill-rule:evenodd;clip-rule:evenodd;fill:#0B2242;}
	.st101{fill:#F37938;}
	.st102{fill:#164883;}
	.st103{fill:#8E6D2A;}
	.st104{fill-rule:evenodd;clip-rule:evenodd;fill:#1A314F;}
	.st105{fill-rule:evenodd;clip-rule:evenodd;fill:#8F3326;}
	.st106{fill-rule:evenodd;clip-rule:evenodd;fill:#B68E64;}
	.st107{fill:#03493B;}
	.st108{fill:#FCC158;}
	.st109{fill:#BB544F;}
	.st110{fill:#D0B04A;}
	.st111{fill-rule:evenodd;clip-rule:evenodd;fill:#B6A269;}
	.st112{fill-rule:evenodd;clip-rule:evenodd;fill:#001F5B;}
	.st113{fill:#1D3665;}
	.st114{fill:#FFFFFF;stroke:#FFFFFF;stroke-width:0.16;}
	.st115{fill:#004666;}
	.st116{fill:none;stroke:#037062;stroke-width:2.8199;}
	.st117{fill:#BCCBD2;}
	.st118{fill:#037062;}
	.st119{fill:#E63248;}
	.st120{fill:none;stroke:#E63248;stroke-width:0.2826;}
	.st121{fill:none;stroke:#037062;stroke-width:1.0988;}
	.st122{fill:none;stroke:#BCCBD2;stroke-width:4.9365;}
	.st123{fill:#FCEE21;}
	.st124{fill:#FCEE23;}
	.st125{fill:#C4203B;}
	.st126{fill:#193661;}
	.st127{fill:#164884;}
	.st128{fill:#CF1F44;}
	.st129{fill:#0A2042;stroke:#010101;stroke-width:0.2131;}
	.st130{fill:#CF1F45;}
	.st131{fill:#1E3160;}
	.st132{fill:#BA202E;}
	.st133{fill:#212759;}
	.st134{fill:#BA1F31;}
	.st135{fill:#7BBCE8;}
	.st136{fill:#FED208;}
	.st137{fill:#6DB3E3;}
	.st138{fill:#FFCE04;}
	.st139{fill:#1B2F5B;}
	.st140{fill:#90BCE5;}
	.st141{fill:#D8782C;}
	.st142{fill:#C49C6F;}
	.st143{fill:#F04B23;}
	.st144{display:inline;fill-rule:evenodd;clip-rule:evenodd;fill:#F58220;}
	.st145{fill:#094F91;}
	.st146{fill:#DB2732;}
	.st147{fill:none;}
	.st148{fill:#00174A;}
	.st149{fill:none;stroke:#FFFFFF;stroke-width:3;stroke-miterlimit:10;}
	.st150{fill:none;stroke:#000000;stroke-width:0.1055;stroke-linecap:round;stroke-linejoin:round;}
	.st151{fill:#25358E;}
	.st152{fill:#ED1C2E;}
	.st153{fill:#FFFFFF;stroke:#000000;stroke-width:0.3293;stroke-linecap:round;stroke-linejoin:round;}
	.st154{display:inline;fill-rule:evenodd;clip-rule:evenodd;fill:#00174A;}
	.st155{fill:#0D2240;}
	.st156{display:inline;fill:#8EC641;}
	.st157{fill:#182D56;}
	.st158{fill:#BE323A;}
	.st159{fill:#C62034;}
	.st160{fill:#0B1437;}
	.st161{fill:#EC2135;}
	.st162{fill:#8EC641;}
	.st163{fill-rule:evenodd;clip-rule:evenodd;fill:#332312;}
	.st164{fill:#E4E5E6;}
	.st165{clip-path:url(#XMLID_4225_);}
	.st166{clip-path:url(#XMLID_4226_);fill:url(#XMLID_4227_);}
	.st167{clip-path:url(#XMLID_4228_);}
	.st168{clip-path:url(#XMLID_4229_);fill:url(#XMLID_4230_);}
	.st169{clip-path:url(#XMLID_4231_);}
	.st170{clip-path:url(#XMLID_4232_);fill:url(#XMLID_4233_);}
	.st171{clip-path:url(#XMLID_4234_);}
	.st172{clip-path:url(#XMLID_4235_);fill:url(#XMLID_4236_);}
	.st173{clip-path:url(#XMLID_4237_);}
	.st174{clip-path:url(#XMLID_4238_);fill:url(#XMLID_4239_);}
	.st175{clip-path:url(#XMLID_4240_);}
	.st176{clip-path:url(#XMLID_4241_);fill:url(#XMLID_4242_);}
	.st177{clip-path:url(#XMLID_4243_);}
	.st178{clip-path:url(#XMLID_4244_);fill:url(#XMLID_4245_);}
	.st179{clip-path:url(#XMLID_4246_);}
	.st180{clip-path:url(#XMLID_4247_);fill:url(#XMLID_4248_);}
	.st181{fill:#A4A9AD;}
	.st182{fill:#F05123;}
	.st183{fill:#8E744B;}
	.st184{fill:#EEE0C6;}
	.st185{fill:#8F182B;}
	.st186{fill:#FFC526;}
	.st187{fill:#B0B8BC;}
	.st188{fill:#FCBB30;}
	.st189{fill:#E21D38;}
	.st190{fill:#FFC759;}
	.st191{fill:#E03B3F;}
	.st192{fill:#8E8F92;}
	.st193{fill:#E13B3F;}
	.st194{fill:#FDDF0A;}
	.st195{fill:#E7AA23;}
	.st196{fill:#F37321;}
	.st197{fill:#008056;}
	.st198{fill:#E2293A;}
	.st199{fill:#1F438B;}
	.st200{fill:#005588;}
	.st201{fill:#A7B2B8;}
	.st202{fill:#8C2A43;}
	.st203{fill:#1C2D5B;}
	.st204{fill:#0C724D;}
	.st205{fill:#232020;}
	.st206{fill:#A8ABAD;}
	.st207{fill:#EB2627;}
	.st208{fill:#E56C25;}
	.st209{fill:#203C73;}
	.st210{fill:#B99758;}
	.st211{fill:#C8202F;}
	.st212{fill:#EEE3C6;}
	.st213{fill:#045937;}
	.st214{fill:#C02C38;}
	.st215{fill:#EEB41E;}
	.st216{fill:#F37E2F;}
	.st217{fill:#01549C;}
	.st218{fill:#0862AB;}
	.st219{fill:#E43B40;}
	.st220{fill:#DF1E38;}
	.st221{fill:#CD9C2B;}
	.st222{fill:#F47A3E;}
	.st223{fill:#FBB516;}
	.st224{fill:#E97424;}
	.st225{fill:#056D75;}
	.st226{fill:#142048;}
	.st227{fill:#FFC429;}
	.st228{fill:#114B9D;}
	.st229{fill:#213065;}
	.st230{fill:#1D2859;}
	.st231{fill:#A8AAAD;}
	.st232{fill:#1D427C;}
	.st233{fill:#153055;}
	.st234{fill:#AFB0B3;}
	.st235{fill:#20396F;}
	.st236{fill:#BE3138;}
	.st237{fill:#B4975A;}
	.st238{fill:#344042;}
	.st239{fill:#14244C;}
	.st240{fill:#D0202D;}
	.st241{fill:#A9A9AD;}
	.st242{fill:#1D3261;}
	.st243{fill:#811423;}
	.st244{fill:#6F6E76;}
	.st245{fill:#C62031;}
</style>
<g id="Layer_5" class="st0">
</g>
<g id="Layer_3">
</g>
<g id="Layer_4">
	<g id="XMLID_4124_">
		<path id="XMLID_4174_" class="st13" d="M140.2,219.5c-21.1,0-41-8.2-56-23.2c-14.9-14.9-23.2-34.8-23.2-56c0-21.1,8.2-41,23.2-56
			c14.9-14.9,34.8-23.2,56-23.2c21.1,0,41,8.2,56,23.2c14.9,14.9,23.2,34.8,23.2,56c0,21.1-8.2,41-23.2,56
			C181.3,211.3,161.4,219.5,140.2,219.5z"/>
		<path id="XMLID_4171_" class="st186" d="M140.2,69.2c39.3,0,71.2,31.9,71.2,71.2c0,39.3-31.9,71.2-71.2,71.2
			c-39.3,0-71.2-31.9-71.2-71.2C69,101,100.9,69.2,140.2,69.2 M140.2,53.3c-11.7,0-23.2,2.3-33.9,6.8C96,64.5,86.7,70.8,78.7,78.8
			c-8,8-14.3,17.3-18.7,27.7c-4.5,10.7-6.8,22.1-6.8,33.9c0,11.7,2.3,23.2,6.8,33.9c4.4,10.4,10.7,19.7,18.7,27.7
			c8,8,17.3,14.3,27.7,18.7c10.7,4.5,22.1,6.8,33.9,6.8c11.7,0,23.2-2.3,33.9-6.8c10.4-4.4,19.7-10.7,27.7-18.7
			c8-8,14.3-17.3,18.7-27.7c4.5-10.7,6.8-22.1,6.8-33.9c0-11.7-2.3-23.2-6.8-33.9c-4.4-10.4-10.7-19.7-18.7-27.7
			c-8-8-17.3-14.3-27.7-18.7C163.4,55.6,152,53.3,140.2,53.3z"/>
		<rect id="XMLID_4170_" x="133.6" y="62.1" class="st186" width="13.3" height="47.4"/>
		<path id="XMLID_4167_" class="st18" d="M148.9,60.1v51.3l-17.3,0V60.1H148.9 M144.9,64.1h-9.3v43.4l9.3,0V64.1z"/>
		<rect id="XMLID_4166_" x="133.6" y="171.5" class="st186" width="13.3" height="47.3"/>
		<path id="XMLID_4163_" class="st18" d="M148.9,169.5v51.2h-17.3v-51.2H148.9 M144.9,173.5h-9.3v43.3h9.3V173.5z"/>
		<path id="XMLID_4157_" class="st186" d="M190.9,200.5l-32.6-32.6l2.7-2.7l0.6-0.6l0-0.8l0-11.5l38.7,38.7L190.9,200.5z
			 M89.6,200.5l-9.4-9.4l40.6-40.6l2.8-2.8v18.8L89.6,200.5z M218.6,147.1h-57.5h-3.8l-1.9-1.9l-0.6-0.6h-0.8l-28.3,0l-2,0v2v0.5
			h-4.2H61.9v-13.3h57.5h4.3v0.6v2h2H154h0.8l0.6-0.6l2-2h3.7h57.5V147.1z M123.7,133.3l-2.9-2.9L80.1,89.8l9.4-9.4l34.1,34.1V133.3
			z M161.6,128.4l0-11.3l0-0.8l-0.6-0.6l-2.7-2.7l32.6-32.6l9.4,9.4L161.6,128.4z"/>
		<path id="XMLID_4150_" class="st18" d="M190.9,77.5l12.2,12.2l-42,42h59.5v17.3h-59.5l42,42l-12.2,12.2l-35.4-35.4l4.1-4.1l0-11.6
			l-5.7-5.7l-28.3,0v20.7l-36,36l-12.2-12.2l42-42H59.9v-17.3h59.5l-42-42l12.2-12.2l36.1,36.1v20.8H154l5.7-5.7l0-11.6l-4.2-4.1
			L190.9,77.5 M190.9,83.1L161.1,113l1.3,1.3l1.2,1.2l0,1.6l0,6.6l33.9-33.9L190.9,83.1z M89.6,83.1L83,89.8l38.7,38.7v-13.2
			L89.6,83.1z M216.6,135.8h-55.5h-2.9l-1.4,1.4l-1.2,1.2H154h-28.3h-4v-2.6h-2.3H63.9v9.3h55.5h2.3v-2.5l4,0l28.3,0l1.6,0l1.2,1.2
			l1.3,1.3h3h55.5L216.6,135.8L216.6,135.8z M121.6,152.4L83,191.1l6.6,6.6l32.1-32.1V152.4z M163.6,157.2l0,6.7l0,1.6l-1.2,1.2
			l-1.3,1.3l29.8,29.8l6.6-6.6L163.6,157.2z"/>
		<path id="XMLID_4146_" class="st18" d="M162.1,185.4h-1.4H107h-3.4V182v-8.8v-1.5l1.1-1l5.2-4.9v-50.6l-5.2-4.9l-1.1-1v-1.5V99
			v-3.4h3.4h53.8h1.4l1,1l12.8,12.5l1,1v1.4V133v1.4l-1,1l-5.3,5l5.3,5.1l1,1v1.4v21.5v1.4l-1,1l-12.8,12.5L162.1,185.4z M129,166.1
			h23.5l3.7-3.7l0-8.8l-3.7-3.7l-23.5,0V166.1z M129,131h23.5l3.7-3.7l0-8.8l-3.7-3.7l-23.5,0V131z"/>
		<path id="XMLID_4139_" class="st18" d="M160.8,99l12.8,12.5V133l-7.8,7.5l7.8,7.5v21.5L160.8,182H107v-8.8l6.2-5.9v-53.5l-6.2-5.9
			V99H160.8 M125.6,134.4H154l5.7-5.7l0-11.6l-5.7-5.7l-28.3,0V134.4 M125.6,169.5h28.3l5.7-5.7l0-11.6l-5.7-5.7l-28.3,0V169.5
			 M163.5,92.2h-2.8H107h-6.8V99v8.8v2.9l2.1,2l4.1,3.9v47.7l-4.1,3.9l-2.1,2v2.9v8.8v6.8h6.8h53.8h2.8l2-1.9l12.8-12.5l2-2v-2.9
			V148v-2.9l-2.1-2l-2.7-2.6l2.7-2.6l2.1-2V133v-21.5v-2.9l-2-2l-12.8-12.5L163.5,92.2z M132.4,127.6v-9.3l18.7,0l1.7,1.7l0,6
			l-1.7,1.7L132.4,127.6L132.4,127.6z M132.4,162.7v-9.3l18.7,0l1.7,1.7l0,6l-1.7,1.7L132.4,162.7L132.4,162.7z"/>
		<path id="XMLID_4135_" class="st18" d="M161.4,183.5h-0.6H107h-1.6V182v-8.8v-0.7l0.5-0.5l5.7-5.5v-52.2l-5.7-5.5l-0.5-0.5v-0.7
			V99v-1.6h1.6h53.8h0.6l0.5,0.4l12.8,12.5l0.5,0.5v0.7V133v0.7l-0.5,0.5l-6.6,6.4l6.6,6.4l0.5,0.5v0.7v21.5v0.7l-0.5,0.5
			l-12.8,12.5L161.4,183.5z M127.2,168h26.1l4.8-4.8l0-10.3l-4.7-4.7l-26.1,0L127.2,168L127.2,168z M127.2,132.8h26.1l4.8-4.8
			l0-10.3l-4.7-4.7l-26.1,0V132.8z"/>
		<path id="XMLID_4128_" class="st186" d="M160.8,99l12.8,12.5V133l-7.8,7.5l7.8,7.5v21.5L160.8,182H107v-8.8l6.2-5.9v-53.5
			l-6.2-5.9V99H160.8 M125.6,134.4H154l5.7-5.7l0-11.6l-5.7-5.7l-28.3,0V134.4 M125.6,169.5h28.3l5.7-5.7l0-11.6l-5.7-5.7l-28.3,0
			V169.5 M162,95.9h-1.3H107h-3.1V99v8.8v1.3l1,0.9l5.3,5v50.9l-5.3,5l-1,0.9v1.3v8.8v3.1h3.1h53.8h1.3l0.9-0.9l12.8-12.5l0.9-0.9
			v-1.3V148v-1.3l-1-0.9l-5.5-5.3l5.5-5.3l1-0.9V133v-21.5v-1.3l-0.9-0.9l-12.8-12.5L162,95.9z M128.8,131.3v-16.7l23.9,0l3.8,3.8
			l0,9l-3.8,3.8L128.8,131.3L128.8,131.3z M128.7,166.4v-16.7l23.9,0l3.8,3.8l0,9l-3.8,3.8L128.7,166.4L128.7,166.4z"/>
		<path id="XMLID_4125_" class="st18" d="M140.2,69.2c39.3,0,71.2,31.9,71.2,71.2c0,39.3-31.9,71.2-71.2,71.2
			c-39.3,0-71.2-31.9-71.2-71.2C69,101,100.9,69.2,140.2,69.2 M140.2,56.7c-11.3,0-22.2,2.2-32.6,6.6c-10,4.2-18.9,10.2-26.6,17.9
			c-7.7,7.7-13.7,16.6-17.9,26.6c-4.4,10.3-6.6,21.3-6.6,32.6c0,11.3,2.2,22.2,6.6,32.6c4.2,10,10.2,18.9,17.9,26.6
			c7.7,7.7,16.6,13.7,26.6,17.9c10.3,4.4,21.3,6.6,32.6,6.6c11.3,0,22.2-2.2,32.6-6.6c10-4.2,18.9-10.2,26.6-17.9
			c7.7-7.7,13.7-16.6,17.9-26.6c4.4-10.3,6.6-21.3,6.6-32.6c0-11.3-2.2-22.2-6.6-32.6c-4.2-10-10.2-18.9-17.9-26.6
			c-7.7-7.7-16.6-13.7-26.6-17.9C162.5,58.9,151.5,56.7,140.2,56.7z"/>
	</g>
</g>
<g id="Watermark">
</g>
</svg>
