<?xml version="1.0" encoding="utf-8"?>
<!-- Generator: Adobe Illustrator 19.2.1, SVG Export Plug-In . SVG Version: 6.00 Build 0)  -->
<svg version="1.1" xmlns="http://www.w3.org/2000/svg" xmlns:xlink="http://www.w3.org/1999/xlink" x="0px" y="0px"
	 viewBox="0 0 288 288" style="enable-background:new 0 0 288 288;" xml:space="preserve">
<style type="text/css">
	.st0{display:none;}
	.st1{display:inline;}
	.st2{fill:#EF3E42;}
	.st3{fill:#004B8D;}
	.st4{fill:#D7CA9E;}
	.st5{fill:#A03123;}
	.st6{fill-rule:evenodd;clip-rule:evenodd;fill:#FFFFFF;}
	.st7{fill-rule:evenodd;clip-rule:evenodd;fill:#1E3B6E;}
	.st8{fill-rule:evenodd;clip-rule:evenodd;fill:#BE2132;}
	.st9{fill-rule:evenodd;clip-rule:evenodd;fill:#E19D26;}
	.st10{fill:#DC4329;}
	.st11{fill:#DC4A26;}
	.st12{fill:#231F20;}
	.st13{fill:#FFFFFF;}
	.st14{fill:#050404;}
	.st15{fill:#263C82;}
	.st16{fill:#CC3533;}
	.st17{fill:#E82F4D;}
	.st18{fill:#010101;}
	.st19{fill:#C1C8CF;}
	.st20{fill:#365A8B;}
	.st21{fill:#29417C;}
	.st22{fill:#F47920;}
	.st23{fill:#FAA61A;}
	.st24{fill:#CCCCCC;}
	.st25{fill:#002B54;}
	.st26{fill:#ED1C24;}
	.st27{opacity:0.3;fill:#002B54;}
	.st28{fill:#020303;}
	.st29{fill:#1B9ED8;}
	.st30{fill:#189DD8;}
	.st31{fill:#43748F;}
	.st32{fill:#EB3947;}
	.st33{fill:#EB3A47;}
	.st34{fill:#44758F;}
	.st35{fill:#1F9ED8;}
	.st36{fill:#FCFDFD;}
	.st37{fill:#020202;}
	.st38{fill:#E83543;}
	.st39{fill-rule:evenodd;clip-rule:evenodd;fill:#C1A677;}
	.st40{fill-rule:evenodd;clip-rule:evenodd;fill:#212F55;}
	.st41{fill-rule:evenodd;clip-rule:evenodd;fill:#AB285C;}
	.st42{fill-rule:evenodd;clip-rule:evenodd;fill:#014A67;}
	.st43{fill:#F47A39;}
	.st44{fill-rule:evenodd;clip-rule:evenodd;fill:#242052;}
	.st45{fill:#123B35;}
	.st46{display:inline;fill:#DB2732;}
	.st47{display:inline;fill:#1D3665;}
	.st48{fill-rule:evenodd;clip-rule:evenodd;}
	.st49{fill:#F58220;}
	.st50{fill:#1A3562;}
	.st51{fill:#036B66;}
	.st52{fill:#C4CDD3;}
	.st53{fill:#EB1F4E;}
	.st54{display:inline;fill:#C4203B;}
	.st55{display:inline;fill:#164883;}
	.st56{display:inline;fill:#90BCE5;}
	.st57{display:inline;fill:#1B2F5B;}
	.st58{fill:#144983;}
	.st59{fill:#CD1F43;}
	.st60{fill:#1A459D;}
	.st61{fill:#0A2042;}
	.st62{fill:#D92E27;}
	.st63{display:inline;fill:#CF1F45;}
	.st64{fill-rule:evenodd;clip-rule:evenodd;fill:#D7CA9E;}
	.st65{fill:#1E3B6E;}
	.st66{fill:#39B54A;}
	.st67{fill:#E19D26;}
	.st68{fill:#BE2132;}
	.st69{fill:#EF5426;}
	.st70{display:inline;fill:#FFFFFF;}
	.st71{display:inline;fill:#E31837;}
	.st72{display:inline;fill:#E21D37;}
	.st73{display:inline;fill:#005596;}
	.st74{display:inline;fill:#CC3533;}
	.st75{display:inline;fill:#E82F4D;}
	.st76{display:inline;fill:#010101;}
	.st77{display:inline;fill:#2A398B;}
	.st78{fill:#999999;}
	.st79{display:inline;fill:#999999;}
	.st80{display:inline;fill:#041E41;}
	.st81{display:inline;fill:#D4451D;}
	.st82{display:inline;fill:#EA7200;}
	.st83{display:inline;fill:#BDBBBB;}
	.st84{fill:#041E41;}
	.st85{fill:none;stroke:#000000;stroke-width:0.34;}
	.st86{fill:#D4451D;}
	.st87{fill:#EA7200;}
	.st88{fill:#BDBBBB;}
	.st89{fill:none;stroke:#EA7200;stroke-width:0;stroke-linecap:round;stroke-linejoin:round;}
	.st90{fill:#9C9FA1;}
	.st91{fill-rule:evenodd;clip-rule:evenodd;fill:#333290;}
	.st92{fill:#005B9B;}
	.st93{fill:#EF4043;}
	.st94{fill-rule:evenodd;clip-rule:evenodd;fill:#09A2DD;}
	.st95{fill-rule:evenodd;clip-rule:evenodd;fill:#43758E;}
	.st96{fill-rule:evenodd;clip-rule:evenodd;fill:#FCEE1E;}
	.st97{fill-rule:evenodd;clip-rule:evenodd;fill:#EE3441;}
	.st98{fill:#B89760;}
	.st99{fill:#D52D47;}
	.st100{fill-rule:evenodd;clip-rule:evenodd;fill:#0B2242;}
	.st101{fill:#F37938;}
	.st102{fill:#164883;}
	.st103{fill:#8E6D2A;}
	.st104{fill-rule:evenodd;clip-rule:evenodd;fill:#1A314F;}
	.st105{fill-rule:evenodd;clip-rule:evenodd;fill:#8F3326;}
	.st106{fill-rule:evenodd;clip-rule:evenodd;fill:#B68E64;}
	.st107{fill:#03493B;}
	.st108{fill:#FCC158;}
	.st109{fill:#BB544F;}
	.st110{fill:#D0B04A;}
	.st111{fill-rule:evenodd;clip-rule:evenodd;fill:#B6A269;}
	.st112{fill-rule:evenodd;clip-rule:evenodd;fill:#001F5B;}
	.st113{fill:#1D3665;}
	.st114{fill:#FFFFFF;stroke:#FFFFFF;stroke-width:0.16;}
	.st115{fill:#004666;}
	.st116{fill:none;stroke:#037062;stroke-width:2.8199;}
	.st117{fill:#BCCBD2;}
	.st118{fill:#037062;}
	.st119{fill:#E63248;}
	.st120{fill:none;stroke:#E63248;stroke-width:0.2826;}
	.st121{fill:none;stroke:#037062;stroke-width:1.0988;}
	.st122{fill:none;stroke:#BCCBD2;stroke-width:4.9365;}
	.st123{fill:#FCEE21;}
	.st124{fill:#FCEE23;}
	.st125{fill:#C4203B;}
	.st126{fill:#193661;}
	.st127{fill:#164884;}
	.st128{fill:#CF1F44;}
	.st129{fill:#0A2042;stroke:#010101;stroke-width:0.2131;}
	.st130{fill:#CF1F45;}
	.st131{fill:#1E3160;}
	.st132{fill:#BA202E;}
	.st133{fill:#212759;}
	.st134{fill:#BA1F31;}
	.st135{fill:#7BBCE8;}
	.st136{fill:#FED208;}
	.st137{fill:#6DB3E3;}
	.st138{fill:#FFCE04;}
	.st139{fill:#1B2F5B;}
	.st140{fill:#90BCE5;}
	.st141{fill:#D8782C;}
	.st142{fill:#C49C6F;}
	.st143{fill:#F04B23;}
	.st144{display:inline;fill-rule:evenodd;clip-rule:evenodd;fill:#F58220;}
	.st145{fill:#094F91;}
	.st146{fill:#DB2732;}
	.st147{fill:none;}
	.st148{fill:#00174A;}
	.st149{fill:none;stroke:#FFFFFF;stroke-width:3;stroke-miterlimit:10;}
	.st150{fill:none;stroke:#000000;stroke-width:0.1055;stroke-linecap:round;stroke-linejoin:round;}
	.st151{fill:#25358E;}
	.st152{fill:#ED1C2E;}
	.st153{fill:#FFFFFF;stroke:#000000;stroke-width:0.3293;stroke-linecap:round;stroke-linejoin:round;}
	.st154{display:inline;fill-rule:evenodd;clip-rule:evenodd;fill:#00174A;}
	.st155{fill:#0D2240;}
	.st156{display:inline;fill:#8EC641;}
	.st157{fill:#182D56;}
	.st158{fill:#BE323A;}
	.st159{fill:#C62034;}
	.st160{fill:#0B1437;}
	.st161{fill:#EC2135;}
	.st162{fill:#8EC641;}
	.st163{fill-rule:evenodd;clip-rule:evenodd;fill:#332312;}
	.st164{fill:#E4E5E6;}
	.st165{clip-path:url(#XMLID_4225_);}
	.st166{clip-path:url(#XMLID_4226_);fill:url(#XMLID_4227_);}
	.st167{clip-path:url(#XMLID_4228_);}
	.st168{clip-path:url(#XMLID_4229_);fill:url(#XMLID_4230_);}
	.st169{clip-path:url(#XMLID_4231_);}
	.st170{clip-path:url(#XMLID_4232_);fill:url(#XMLID_4233_);}
	.st171{clip-path:url(#XMLID_4234_);}
	.st172{clip-path:url(#XMLID_4235_);fill:url(#XMLID_4236_);}
	.st173{clip-path:url(#XMLID_4237_);}
	.st174{clip-path:url(#XMLID_4238_);fill:url(#XMLID_4239_);}
	.st175{clip-path:url(#XMLID_4240_);}
	.st176{clip-path:url(#XMLID_4241_);fill:url(#XMLID_4242_);}
	.st177{clip-path:url(#XMLID_4243_);}
	.st178{clip-path:url(#XMLID_4244_);fill:url(#XMLID_4245_);}
	.st179{clip-path:url(#XMLID_4246_);}
	.st180{clip-path:url(#XMLID_4247_);fill:url(#XMLID_4248_);}
	.st181{fill:#A4A9AD;}
	.st182{fill:#F05123;}
	.st183{fill:#8E744B;}
	.st184{fill:#EEE0C6;}
	.st185{fill:#8F182B;}
	.st186{fill:#FFC526;}
	.st187{fill:#B0B8BC;}
	.st188{fill:#FCBB30;}
	.st189{fill:#E21D38;}
	.st190{fill:#FFC759;}
	.st191{fill:#E03B3F;}
	.st192{fill:#8E8F92;}
	.st193{fill:#E13B3F;}
	.st194{fill:#FDDF0A;}
	.st195{fill:#E7AA23;}
	.st196{fill:#F37321;}
	.st197{fill:#008056;}
	.st198{fill:#E2293A;}
	.st199{fill:#1F438B;}
	.st200{fill:#005588;}
	.st201{fill:#A7B2B8;}
	.st202{fill:#8C2A43;}
	.st203{fill:#1C2D5B;}
	.st204{fill:#0C724D;}
	.st205{fill:#232020;}
	.st206{fill:#A8ABAD;}
	.st207{fill:#EB2627;}
	.st208{fill:#E56C25;}
	.st209{fill:#203C73;}
	.st210{fill:#B99758;}
	.st211{fill:#C8202F;}
	.st212{fill:#EEE3C6;}
	.st213{fill:#045937;}
	.st214{fill:#C02C38;}
	.st215{fill:#EEB41E;}
	.st216{fill:#F37E2F;}
	.st217{fill:#01549C;}
	.st218{fill:#0862AB;}
	.st219{fill:#E43B40;}
	.st220{fill:#DF1E38;}
	.st221{fill:#CD9C2B;}
	.st222{fill:#F47A3E;}
	.st223{fill:#FBB516;}
	.st224{fill:#E97424;}
	.st225{fill:#056D75;}
	.st226{fill:#142048;}
	.st227{fill:#FFC429;}
	.st228{fill:#114B9D;}
	.st229{fill:#213065;}
	.st230{fill:#1D2859;}
	.st231{fill:#A8AAAD;}
	.st232{fill:#1D427C;}
	.st233{fill:#153055;}
	.st234{fill:#AFB0B3;}
	.st235{fill:#20396F;}
	.st236{fill:#BE3138;}
	.st237{fill:#B4975A;}
	.st238{fill:#344042;}
	.st239{fill:#14244C;}
	.st240{fill:#D0202D;}
	.st241{fill:#A9A9AD;}
	.st242{fill:#1D3261;}
	.st243{fill:#811423;}
	.st244{fill:#6F6E76;}
	.st245{fill:#C62031;}
</style>
<g id="Layer_5" class="st0">
</g>
<g id="Layer_3">
</g>
<g id="Layer_4">
	<g id="XMLID_4175_">
		<path id="XMLID_4189_" class="st13" d="M231.4,135.7l-4.8-2.1c0.1-0.9,0.2-2.1,0.1-3.4c-0.2-4.4-1.9-8.4-5-11.8l-4.9-5.5l0.2,7.3
			c0,0.2-0.1,1.1-0.6,2.5c-0.4,1.1-1.3,2.8-2.8,4.7l-1.1-0.5l-2.7-6.9L221,96.6l0.8,4l3.5-5.8c0.1-0.1,0.9-1.5,1.6-3.8
			c0.8-2.8,1.1-5.8,0.9-8.8l2.4-4.9l0.3-0.7l-0.1-0.7c0-0.2-1.3-19-1.5-22.2c-0.1-1.6-1.5-4-3.4-5.9c-1.9-1.8-5-4-9.6-4
			c-1.7,0-3.3,0.3-4.8,0.8c-1.1,0.4-1.9,0.9-2.3,1.2c-0.4,0.3-4.7,3.6-10.7,8.3c-17.5,13.5-34.7,26.9-38.6,29.9c-0.1,0-0.2,0-0.3,0
			c-1.6,0-5.1,0.1-9.5,0.8c-5.1,0.8-10.2,2.1-14.9,4c-6.2,2.4-11.8,5.7-16.8,9.7c-5.9,4.7-10.8,10.6-14.7,17.4l-54.2,43.6l-2.1,1.7
			l1.7,2.1c0.2,0.2,0.5,0.6,0.8,1c1.7,2.3,4.8,6.6,9.7,10.2c6.1,4.6,13.1,6.9,20.9,6.9c2.1,0,4.3-0.2,6.6-0.5l0,0l0,0l10.5-2
			c0.4,1.4,0.9,3.5,1.7,5.9c2.2,7.2,6.3,17.8,13.3,27.6c3.9,5.4,8.3,10,13.2,13.7c5.7,4.3,11.9,7.4,18.7,9.3l6.3,1.7l-3.2-5.6
			c0-0.1-3.8-6.8-6.4-15.8c-1.8-6.2-3.2-14.4-1.9-22.4c1,2.4,2.2,5.1,3.7,7.8c2.5,4.7,5.3,8.5,8.2,11.3c3.9,3.7,8.1,5.8,12.4,6.2
			l6.7,0.5l-4.4-5c-0.1-0.1-3.3-3.9-5.1-10.4c-2.1-7.4-1.8-15.3,1-23.5c0.8,1,1.8,2.1,2.9,3.2c2.3,2.3,4.7,4.1,7.2,5.4
			c3.2,1.7,6.7,2.5,10.2,2.5l5.6,0l-3.5-4.4c-0.9-1.2-1.7-2.7-2.6-4.6c-3-6.7-3.8-14.4-2.2-21.2l28.8,1.1l0.6,0l0.6-0.2l13.9-5.8
			l0.9-0.4l0.5-0.8l8.6-15.5l1.4-2.6L231.4,135.7z"/>
		<path id="XMLID_4188_" class="st18" d="M50.9,161.6c2.7,3.5,12.7,20.2,35.4,16.6c13-2.4,13-2.4,13-2.4s0.7,3.2,2.2,8.2
			c4.2,13.9,15.8,41.3,43.3,48.8c0,0-15.7-27.4-6.1-48.1c0,0,8.3,29.9,24.7,31.2c0,0-14-16.1-2.7-41.4c0,0,7.4,14.2,20.9,14.2
			c-1.1-1.4-2-3.2-2.9-5.2c-3-6.7-4.6-16.1-1.8-25.1l31,1.2l13.9-5.8l8.6-15.5l-6.8-3c0,0,2.6-7.8-3.8-15c0,0,0,4.7-5.5,10.5l-3.9-2
			l-3.5-9l14.5-30.4c0,0,1.3,2.5,1.6,4.1c0,0,2.8-4.6,2-11.7l2.7-5.6c0,0-1.3-19-1.5-22.3c-0.1-1.1-3.5-7.3-10.3-7.3
			c-3.3,0-5.3,1.3-5.4,1.4c-1.2,1-48.6,37.6-50,38.8c-3.3-0.2-37.4-0.4-55,30.9L50.9,161.6z"/>
		<path id="XMLID_4187_" class="st184" d="M79.8,171c2.9-0.6-3-2.7-4.1-8.2c1.6,1.3,7.8,3.6,9.2,2.4c1.1-1.1-2.3-4.6-1-12.5
			c1.3-8.2,6-9.5,3.7-10.9c-2.6-0.4-26.6,19.4-26.6,19.4l3.8,6.2C64.8,167.4,77.5,172.1,79.8,171z"/>
		<polygon id="XMLID_4186_" class="st185" points="212.3,153.1 220,149.8 217.7,144.6 		"/>
		<path id="XMLID_4185_" class="st185" d="M154.8,178.5c-0.2,1.2,1.4,1.8,2,0.5c0.6-1.4,3.7-10.4,5-10.5c0.5,0,1,2.6,2.7,5.2
			c2.6,4.3,7.6,9.5,10.3,9.5c1.2,0,1.4-0.2,1.4-0.2l-3-4.4l-8.8-24.3l-5.4,8.1L154.8,178.5z"/>
		<path id="XMLID_4184_" class="st185" d="M143.1,161.6c0,0,11.9,44.5,11.1,43.6c-12.6-14.8-13.2-31.2-13.2-31.2s-8.1,9.7-8.4,25.7
			l-2.9-0.2l6-24.4L143.1,161.6z"/>
		<path id="XMLID_4181_" class="st184" d="M220.8,135.9c0,0,1.8-6.4-0.2-10.9c-1.1,3.9-3.4,6.5-5.4,8.2l-7-3.4l14.1,9.1l-8.5,2
			l-7.8-2.8c0,0,1.5-8.3-0.5-11.1c-0.1,0.6-0.6,1.6-0.8,2.2c-1.5,3.6-4.8,6.6-4.8,6.6l-7.5-2.7l-6.2-16.2l22.6-36.5
			c0,0,2.5,2.5,3.7,5.6c1.5-4.7-0.7-10.6-0.7-10.6l2.7-4.3l6.6-4.8l1.2,6l-10.8,29.9l8.5-18.4c0,0,0.4,0.4,1,1.2
			c0.6,0.9,1.4,2.3,1.8,3.4c1-2.6-0.4-9.4-0.4-9.4l2.5-4.6l-3-11.1l-11.4,7.9l-33.8,38.5c0,0-7.7,3-13,7c-1.1,0.9-2.1,1.8-2.9,2.7
			c0,0,8.9,1.7,9.7,7.7c0,0-2.9,1.7-7.1,4.9c-15.5,11.7-50.1,42.6-36.5,76.5c2.5,6.2,6.6,12.3,12.7,18.6c0,0-17.2-29,3.5-62
			c0,0.8-0.1,31,13.5,42.8c-9.7-23,7.2-50.3,7.2-50.3c-3.1,14.1,12.3,25.4,12.3,25.4c-7.2-15.2-1.1-29.3-1.1-29.3l32.7,1.3l4.5-1.9
			l5.6-5.5l2.1,2.3l6.3-11.4L220.8,135.9z M181.4,116.5l10.3-12.6l-7.4,12.6l6.1,16.6L181.4,116.5z"/>
		<path id="XMLID_4178_" class="st185" d="M223.8,55.9c-1,1.2-2.5,6.4-2.5,6.4s-0.2-4.3-2.2-7c-1.9-2.5-4.3-0.3-5.9-2.7
			c-0.8-1.1-0.7-2.6-0.7-2.6l-4.6,3.4c0,0-1.2,5-1,11c0,0-2.7-2.2-4.3-6.4c0,0-1.1,2.5-1.1,11.6c0,0-3-2.7-4.7-7.1
			c0,0-1.3,5.7-1.2,12.7c0,0-2.6-1.9-5.2-7.8c0,0-1.3,6.8-1.2,14c0,0-4.2-3.8-5.8-9c0,0-20.1,15.4-21.5,16.5
			c-1.4,1.1-10.1,10.6-12.3,20.8c0,0-0.2-5,0.5-9.8c0,0-8.6,6.1-13.4,11.3c0,0-0.1-6.5,3.5-11.9c0,0-1.3,0.8-2.9,2.1
			c-1,0.8-2,1.7-3.4,2.9c-3.4,3.1-7.7,7.1-10.3,9.8c0,0,7.2-13.6,18.1-21.3c0,0-28.1,6.3-38,37.2c-0.3-0.3,0.5-7.1,0.5-7.1
			l-48.2,38.2c11,15.2,29.1,13.1,31.1,12.7c6-1.1,24.6-4,24.6-4s-3-7.7-2.4-12.8c0,0,2,9.9,9.1,16.1l-15.4,2.1c0,0,0.8,3.1,2.2,7.8
			c3.5,11.7,12.3,33.7,34.4,43.9c0,0-1.9-1.9-4.5-5.1c-7.6-9-20.5-29.7-7.3-56.7c-10.6,2.5-12.1-4.7-12.1-4.7
			c14.1,9.8,44.8-31.3,37.3-41c0,0,12.9-10.4,22-11.7l35.6-36.6l10.8-6l3.7,9.2L223.8,55.9z M85.7,170.2c-1.3,0.2-3.2,0.4-4,0.4
			c-4.6,0-15.1-1.6-19-8.5l37.6-30.1c-25.6,25.3,2.3,33.5,5.9,34.7C106.2,166.7,89.9,169.4,85.7,170.2z"/>
		<polygon id="XMLID_4177_" class="st185" points="200.6,118.1 205.3,111.1 202.7,118.1 205.3,124.7 		"/>
		<path id="XMLID_4176_" class="st184" d="M143.6,96.7c0,0,3.6-0.9,8.7-0.6c0.3-1-1.3-1.2-2.6-1.2c2.1-1.5,5.3-2.5,5.3-2.5l1.8-2.1
			C151.5,90.7,143.6,96.7,143.6,96.7z"/>
	</g>
</g>
<g id="Watermark">
</g>
</svg>
