<?xml version="1.0" encoding="utf-8"?>
<!-- Generator: Adobe Illustrator 19.2.1, SVG Export Plug-In . SVG Version: 6.00 Build 0)  -->
<svg version="1.1" xmlns="http://www.w3.org/2000/svg" xmlns:xlink="http://www.w3.org/1999/xlink" x="0px" y="0px"
	 viewBox="0 0 288 288" style="enable-background:new 0 0 288 288;" xml:space="preserve">
<style type="text/css">
	.st0{display:none;}
	.st1{display:inline;}
	.st2{fill:#EF3E42;}
	.st3{fill:#004B8D;}
	.st4{fill:#D7CA9E;}
	.st5{fill:#A03123;}
	.st6{fill-rule:evenodd;clip-rule:evenodd;fill:#FFFFFF;}
	.st7{fill-rule:evenodd;clip-rule:evenodd;fill:#1E3B6E;}
	.st8{fill-rule:evenodd;clip-rule:evenodd;fill:#BE2132;}
	.st9{fill-rule:evenodd;clip-rule:evenodd;fill:#E19D26;}
	.st10{fill:#DC4329;}
	.st11{fill:#DC4A26;}
	.st12{fill:#231F20;}
	.st13{fill:#FFFFFF;}
	.st14{fill:#050404;}
	.st15{fill:#263C82;}
	.st16{fill:#CC3533;}
	.st17{fill:#E82F4D;}
	.st18{fill:#010101;}
	.st19{fill:#C1C8CF;}
	.st20{fill:#365A8B;}
	.st21{fill:#29417C;}
	.st22{fill:#F47920;}
	.st23{fill:#FAA61A;}
	.st24{fill:#CCCCCC;}
	.st25{fill:#002B54;}
	.st26{fill:#ED1C24;}
	.st27{opacity:0.3;fill:#002B54;}
	.st28{fill:#020303;}
	.st29{fill:#1B9ED8;}
	.st30{fill:#189DD8;}
	.st31{fill:#43748F;}
	.st32{fill:#EB3947;}
	.st33{fill:#EB3A47;}
	.st34{fill:#44758F;}
	.st35{fill:#1F9ED8;}
	.st36{fill:#FCFDFD;}
	.st37{fill:#020202;}
	.st38{fill:#E83543;}
	.st39{fill-rule:evenodd;clip-rule:evenodd;fill:#C1A677;}
	.st40{fill-rule:evenodd;clip-rule:evenodd;fill:#212F55;}
	.st41{fill-rule:evenodd;clip-rule:evenodd;fill:#AB285C;}
	.st42{fill-rule:evenodd;clip-rule:evenodd;fill:#014A67;}
	.st43{fill:#F47A39;}
	.st44{fill-rule:evenodd;clip-rule:evenodd;fill:#242052;}
	.st45{fill:#123B35;}
	.st46{display:inline;fill:#DB2732;}
	.st47{display:inline;fill:#1D3665;}
	.st48{fill-rule:evenodd;clip-rule:evenodd;}
	.st49{fill:#F58220;}
	.st50{fill:#1A3562;}
	.st51{fill:#036B66;}
	.st52{fill:#C4CDD3;}
	.st53{fill:#EB1F4E;}
	.st54{display:inline;fill:#C4203B;}
	.st55{display:inline;fill:#164883;}
	.st56{display:inline;fill:#90BCE5;}
	.st57{display:inline;fill:#1B2F5B;}
	.st58{fill:#144983;}
	.st59{fill:#CD1F43;}
	.st60{fill:#1A459D;}
	.st61{fill:#0A2042;}
	.st62{fill:#D92E27;}
	.st63{display:inline;fill:#CF1F45;}
	.st64{fill-rule:evenodd;clip-rule:evenodd;fill:#D7CA9E;}
	.st65{fill:#1E3B6E;}
	.st66{fill:#39B54A;}
	.st67{fill:#E19D26;}
	.st68{fill:#BE2132;}
	.st69{fill:#EF5426;}
	.st70{display:inline;fill:#FFFFFF;}
	.st71{display:inline;fill:#E31837;}
	.st72{display:inline;fill:#E21D37;}
	.st73{display:inline;fill:#005596;}
	.st74{display:inline;fill:#CC3533;}
	.st75{display:inline;fill:#E82F4D;}
	.st76{display:inline;fill:#010101;}
	.st77{display:inline;fill:#2A398B;}
	.st78{fill:#999999;}
	.st79{display:inline;fill:#999999;}
	.st80{display:inline;fill:#041E41;}
	.st81{display:inline;fill:#D4451D;}
	.st82{display:inline;fill:#EA7200;}
	.st83{display:inline;fill:#BDBBBB;}
	.st84{fill:#041E41;}
	.st85{fill:none;stroke:#000000;stroke-width:0.34;}
	.st86{fill:#D4451D;}
	.st87{fill:#EA7200;}
	.st88{fill:#BDBBBB;}
	.st89{fill:none;stroke:#EA7200;stroke-width:0;stroke-linecap:round;stroke-linejoin:round;}
	.st90{fill:#9C9FA1;}
	.st91{fill-rule:evenodd;clip-rule:evenodd;fill:#333290;}
	.st92{fill:#005B9B;}
	.st93{fill:#EF4043;}
	.st94{fill-rule:evenodd;clip-rule:evenodd;fill:#09A2DD;}
	.st95{fill-rule:evenodd;clip-rule:evenodd;fill:#43758E;}
	.st96{fill-rule:evenodd;clip-rule:evenodd;fill:#FCEE1E;}
	.st97{fill-rule:evenodd;clip-rule:evenodd;fill:#EE3441;}
	.st98{fill:#B89760;}
	.st99{fill:#D52D47;}
	.st100{fill-rule:evenodd;clip-rule:evenodd;fill:#0B2242;}
	.st101{fill:#F37938;}
	.st102{fill:#164883;}
	.st103{fill:#8E6D2A;}
	.st104{fill-rule:evenodd;clip-rule:evenodd;fill:#1A314F;}
	.st105{fill-rule:evenodd;clip-rule:evenodd;fill:#8F3326;}
	.st106{fill-rule:evenodd;clip-rule:evenodd;fill:#B68E64;}
	.st107{fill:#03493B;}
	.st108{fill:#FCC158;}
	.st109{fill:#BB544F;}
	.st110{fill:#D0B04A;}
	.st111{fill-rule:evenodd;clip-rule:evenodd;fill:#B6A269;}
	.st112{fill-rule:evenodd;clip-rule:evenodd;fill:#001F5B;}
	.st113{fill:#1D3665;}
	.st114{fill:#FFFFFF;stroke:#FFFFFF;stroke-width:0.16;}
	.st115{fill:#004666;}
	.st116{fill:none;stroke:#037062;stroke-width:2.8199;}
	.st117{fill:#BCCBD2;}
	.st118{fill:#037062;}
	.st119{fill:#E63248;}
	.st120{fill:none;stroke:#E63248;stroke-width:0.2826;}
	.st121{fill:none;stroke:#037062;stroke-width:1.0988;}
	.st122{fill:none;stroke:#BCCBD2;stroke-width:4.9365;}
	.st123{fill:#FCEE21;}
	.st124{fill:#FCEE23;}
	.st125{fill:#C4203B;}
	.st126{fill:#193661;}
	.st127{fill:#164884;}
	.st128{fill:#CF1F44;}
	.st129{fill:#0A2042;stroke:#010101;stroke-width:0.2131;}
	.st130{fill:#CF1F45;}
	.st131{fill:#1E3160;}
	.st132{fill:#BA202E;}
	.st133{fill:#212759;}
	.st134{fill:#BA1F31;}
	.st135{fill:#7BBCE8;}
	.st136{fill:#FED208;}
	.st137{fill:#6DB3E3;}
	.st138{fill:#FFCE04;}
	.st139{fill:#1B2F5B;}
	.st140{fill:#90BCE5;}
	.st141{fill:#D8782C;}
	.st142{fill:#C49C6F;}
	.st143{fill:#F04B23;}
	.st144{display:inline;fill-rule:evenodd;clip-rule:evenodd;fill:#F58220;}
	.st145{fill:#094F91;}
	.st146{fill:#DB2732;}
	.st147{fill:none;}
	.st148{fill:#00174A;}
	.st149{fill:none;stroke:#FFFFFF;stroke-width:3;stroke-miterlimit:10;}
	.st150{fill:none;stroke:#000000;stroke-width:0.1055;stroke-linecap:round;stroke-linejoin:round;}
	.st151{fill:#25358E;}
	.st152{fill:#ED1C2E;}
	.st153{fill:#FFFFFF;stroke:#000000;stroke-width:0.3293;stroke-linecap:round;stroke-linejoin:round;}
	.st154{display:inline;fill-rule:evenodd;clip-rule:evenodd;fill:#00174A;}
	.st155{fill:#0D2240;}
	.st156{display:inline;fill:#8EC641;}
	.st157{fill:#182D56;}
	.st158{fill:#BE323A;}
	.st159{fill:#C62034;}
	.st160{fill:#0B1437;}
	.st161{fill:#EC2135;}
	.st162{fill:#8EC641;}
	.st163{fill-rule:evenodd;clip-rule:evenodd;fill:#332312;}
	.st164{fill:#E4E5E6;}
	.st165{clip-path:url(#XMLID_4225_);}
	.st166{clip-path:url(#XMLID_4226_);fill:url(#XMLID_4227_);}
	.st167{clip-path:url(#XMLID_4228_);}
	.st168{clip-path:url(#XMLID_4229_);fill:url(#XMLID_4230_);}
	.st169{clip-path:url(#XMLID_4231_);}
	.st170{clip-path:url(#XMLID_4232_);fill:url(#XMLID_4233_);}
	.st171{clip-path:url(#XMLID_4234_);}
	.st172{clip-path:url(#XMLID_4235_);fill:url(#XMLID_4236_);}
	.st173{clip-path:url(#XMLID_4237_);}
	.st174{clip-path:url(#XMLID_4238_);fill:url(#XMLID_4239_);}
	.st175{clip-path:url(#XMLID_4240_);}
	.st176{clip-path:url(#XMLID_4241_);fill:url(#XMLID_4242_);}
	.st177{clip-path:url(#XMLID_4243_);}
	.st178{clip-path:url(#XMLID_4244_);fill:url(#XMLID_4245_);}
	.st179{clip-path:url(#XMLID_4246_);}
	.st180{clip-path:url(#XMLID_4247_);fill:url(#XMLID_4248_);}
	.st181{fill:#A4A9AD;}
	.st182{fill:#F05123;}
	.st183{fill:#8E744B;}
	.st184{fill:#EEE0C6;}
	.st185{fill:#8F182B;}
	.st186{fill:#FFC526;}
	.st187{fill:#B0B8BC;}
	.st188{fill:#FCBB30;}
	.st189{fill:#E21D38;}
	.st190{fill:#FFC759;}
	.st191{fill:#E03B3F;}
	.st192{fill:#8E8F92;}
	.st193{fill:#E13B3F;}
	.st194{fill:#FDDF0A;}
	.st195{fill:#E7AA23;}
	.st196{fill:#F37321;}
	.st197{fill:#008056;}
	.st198{fill:#E2293A;}
	.st199{fill:#1F438B;}
	.st200{fill:#005588;}
	.st201{fill:#A7B2B8;}
	.st202{fill:#8C2A43;}
	.st203{fill:#1C2D5B;}
	.st204{fill:#0C724D;}
	.st205{fill:#232020;}
	.st206{fill:#A8ABAD;}
	.st207{fill:#EB2627;}
	.st208{fill:#E56C25;}
	.st209{fill:#203C73;}
	.st210{fill:#B99758;}
	.st211{fill:#C8202F;}
	.st212{fill:#EEE3C6;}
	.st213{fill:#045937;}
	.st214{fill:#C02C38;}
	.st215{fill:#EEB41E;}
	.st216{fill:#F37E2F;}
	.st217{fill:#01549C;}
	.st218{fill:#0862AB;}
	.st219{fill:#E43B40;}
	.st220{fill:#DF1E38;}
	.st221{fill:#CD9C2B;}
	.st222{fill:#F47A3E;}
	.st223{fill:#FBB516;}
	.st224{fill:#E97424;}
	.st225{fill:#056D75;}
	.st226{fill:#142048;}
	.st227{fill:#FFC429;}
	.st228{fill:#114B9D;}
	.st229{fill:#213065;}
	.st230{fill:#1D2859;}
	.st231{fill:#A8AAAD;}
	.st232{fill:#1D427C;}
	.st233{fill:#153055;}
	.st234{fill:#AFB0B3;}
	.st235{fill:#20396F;}
	.st236{fill:#BE3138;}
	.st237{fill:#B4975A;}
	.st238{fill:#344042;}
	.st239{fill:#14244C;}
	.st240{fill:#D0202D;}
	.st241{fill:#A9A9AD;}
	.st242{fill:#1D3261;}
	.st243{fill:#811423;}
	.st244{fill:#6F6E76;}
	.st245{fill:#C62031;}
</style>
<g id="Layer_5" class="st0">
</g>
<g id="Layer_3">
</g>
<g id="Layer_4">
	<g id="XMLID_4037_">
		<path id="XMLID_4123_" class="st13" d="M206.6,106.3c-0.1-0.8-0.7-0.2-0.7-0.2s-25.1,27.9-65.8,58.6
			c-40.7-30.7-65.8-58.6-65.8-58.6s-0.6-0.6-0.7,0.2c0,0-0.9,4.6,2.7,8.4c0,0,24.9,27.7,59.2,53.5c-3.2,2.4-6.5,4.7-9.9,7.1l1.1,5.8
			c4.6-3,9.1-6.2,13.5-9.4c4.4,3.2,8.9,6.3,13.5,9.4l1.1-5.8c-3.4-2.4-6.7-4.7-9.9-7.1c34.2-25.9,59.2-53.5,59.2-53.5
			C207.6,110.9,206.6,106.3,206.6,106.3"/>
		<path id="XMLID_4117_" class="st13" d="M88,110.5c5.1,4.1,6.7,6.7,7.8,7.9c1,1,2,1.1,3.1,2.2c1.6,1.6,2.1,3.6,3.7,3.6
			c1.6,0,3.3-3.5,6.7-3.5c2.3,0-1.4,1.5-1.4,3c0,1.3,2.8-0.5,3.4-0.5c1,0,5,1.8,7.3-1.4c-1.1-1.1-4.2-0.6-4.2-4.8
			c0-1.1,1-3.4,3.5-3.4c2,0,3.5,1.8,2.9,3.8c-0.2,0.6,0.9,1.4,0.9,2.5c0,3.5-2.4,3.9-2.4,5.4c0,3.1,2.2,2.8,3.4,2.8
			c2.8,0,7.1,2.3,8.6,2.3c1.8,0,3.2-0.8,3.2-1.7c0-0.9-2.1-4.8-3.3-4.8c-0.7,0-1.4,1.3-2.4,1.3c-1.1,0-1.8-0.7-1.4-1.4
			c0.2-0.4-0.4-1-0.4-2.1c0-1.3,1.7-4,5.1-4c2.8,0,5.7,2.4,5.7,6.4c0,3.3-0.9,5.2-0.9,5.8c0,1.2,2.3,2.6,3.8,2.6
			c1.5,0,7-2.1,8.7-2.1c1.8,0,3.8,0.1,3.8-1.5c0-1.6-1.1-4.8-2.3-4.8c-1.2,0-3.9,3.8-7.4,3.8c-0.4,0-0.9-0.1-0.9-0.7
			c0-0.6,0.9-1.9,1.4-2.2c0.5-0.3,3-1.4,3-2.3c0-0.5-2.3-1.2-2.3-2.2c0-1.1,2.3-0.2,2.3-1.2c0-0.9-2.1-1.8-2.1-4.2
			c0-1.8,1.2-3.6,3.5-3.6c4.4,0,7.2,3.3,11.4,3.3c3.5,0,7.4-1.9,9.1-1.9c5.2,0,5,5.8,10.1,5.8c2.4,0,3.2-0.9,3.2-3.7
			c0-1.5-0.7-1.4-1.6-1.4c-0.9,0-1-0.7-2.3-0.7c-1.9,0-4.1-1-4.1-2c0-1,7.2-3.3,8.3-3.3c3.7,0,4.1,7.4,10,7.4c1.5,0,2.6-0.3,2.6-3
			c0-2.6-0.4-2.4-0.9-2.3c-0.5,0.1-2.9,0.7-2.9,0c0-0.8,1.1-1.5-0.2-1.7c-6.3-1-4.5-7-6.9-7c-1.2,0-5.3,2.2-5.3-0.3
			c0-1.4,1-3.3,1-6.4c0-3.3-1.9-5.3-0.1-5.3c4,0,11.1,2.1,11.1,3c0,0.7-4,0.3-4,2.1c0,1,2.3,2.3,5.7,2.3c3.5,0,4.9-1.1,3.1-1.1
			c-1.7,0-4.4,0-4.4-1.2c0-1.2,3.1-0.7,3.1-1.9c0-1.9-3.1-1.7-8.8-3.3c-28.5-8.1-38.4-18.7-56.3-18.7c-22,0-18.5,15-31.9,18.4
			c-10.6,2.7-11.6,8.1-11.6,14.5C86.1,107,87.4,110,88,110.5 M98.1,116.1c-1.2,0-0.9-0.8-0.9-0.8c1.5-2.1,0.7-7,2.6-7
			c1.1,0-0.5,1.1-0.5,2.4c0,1.4,2.1,1,2.1,2.7C101.6,114.4,99.8,116.1,98.1,116.1 M102.7,123.1c0,0-0.9-0.6-0.9-1.1
			c0-1,1.8-1.4,1.8-1C103.6,121.9,102.7,123.1,102.7,123.1 M104.1,104.1c0,0.7-1.5,2.5-2.4,2.5c-0.7,0-1.9-2.8-1.9-3
			c0-0.2,0.3-0.7,1.4-0.7C102.3,102.8,104.1,103.3,104.1,104.1 M95.6,93c4.2,0,6.4,2.5,6.4,5.2c0,2.7-2.3,4.7-4.8,4.7
			c-1.6,0-2.1-1.4-2.1-2c0-0.9,1.4-1.8,1.4-2.9c0-1.4-1.7-2.3-3.4-2.3c-2.9,0-4.8,2.5-4.8,1.2C88.3,95.5,91.2,93,95.6,93"/>
		<path id="XMLID_4116_" class="st13" d="M146.7,138.5c-7.2,2.7-10.2,3.8-9.8,4.9c0.2,0.6,1.7,2.4,11.6-1.2
			c9.8-3.6,29.1-12.5,28.4-14.3C176.6,126.9,162.9,132.5,146.7,138.5"/>
		<path id="XMLID_4115_" class="st13" d="M162.5,74.9c11.9,3.3,18.8,6.3,19.1,5.2c0.3-1.1-9.2-4.5-18-6.9
			c-8.8-2.4-17.9-3.6-17.6-3.3C147,70.7,150.6,71.6,162.5,74.9"/>
		<path id="XMLID_4112_" class="st187" d="M140.1,54.3c-47.3,0-85.7,38.5-85.7,85.7c0,47.3,38.4,85.7,85.7,85.7
			c47.3,0,85.7-38.4,85.7-85.7C225.8,92.8,187.4,54.3,140.1,54.3 M140.1,224.7c-46.7,0-84.6-38-84.6-84.6c0-46.7,38-84.6,84.6-84.6
			c46.7,0,84.6,38,84.6,84.6C224.7,186.7,186.8,224.7,140.1,224.7"/>
		<path id="XMLID_4099_" class="st187" d="M140.1,63.5c-42.2,0-76.5,34.3-76.5,76.5c0,42.2,34.3,76.5,76.5,76.5
			c42.2,0,76.5-34.3,76.5-76.5C216.6,97.8,182.3,63.5,140.1,63.5 M160.9,179.8c0.6,0.1,1.1,0.6,1.4,1.4c0,0,1.2-0.5,1.9,1.3
			c0,0,1.3-0.4,1.9,1.3c0,0,1.2-0.4,1.9,1.3c0,0,1.2-0.4,1.9,1.3c0,0,1.3-0.4,1.9,1.3c0,0,1.2-0.4,1.9,1.3c0,0,1.3-0.4,1.9,1.3
			c0,0,1.2-0.4,1.9,1.3c0.2,0,0.3-0.1,0.5,0c1.2,0.2,1.9,1.8,1.6,3.8c0,0.1,0,0.2-0.1,0.3c2-2.1,3.8-3.8,6-2.3
			c1.9,1.2,2.3,3.9,0.9,6.2c-1.8,2.9-4.1,1.4-5.2,0.5c-2.3,1.8-8.3,8.8-19.2,1.9c-14.4-9.1-4.5-24.8-6.4-27.2
			c-0.5-0.6-1.7-1.5-1.1-2.5c0.5-0.8,2.1-1.1,3.6-0.2c2.8,1.8,2.5,4.7,1.8,8.2C160.1,179.8,160.5,179.7,160.9,179.8 M155.5,174.9
			l-1.4,7.5c-4.5-2.9-9.8-6.7-14.1-9.7c-4.2,3.1-9.6,6.8-14.1,9.7l-1.4-7.5c3.1-2.2,6.5-4.6,9.4-6.7c-33.5-25.5-58.1-52.7-58.4-53
			c-3.9-4-2.9-8.9-2.9-9c0.1-1.1,1.2-1.6,2.1-0.6c0.3,0.3,25.3,28,65.2,58.1c39.9-30.2,64.9-57.8,65.2-58.1c0.9-1,2-0.4,2.1,0.6
			c0,0.2,1,5-2.9,9c-0.3,0.3-24.9,27.5-58.4,53C149.1,170.3,152.5,172.8,155.5,174.9 M93.9,199.4c-1.4-2.3-1-4.9,0.9-6.2
			c2.3-1.4,4,0.2,6,2.3c0-0.1,0-0.2-0.1-0.3c-0.3-1.9,0.3-3.6,1.6-3.8c0.2,0,0.3,0,0.5,0c0.7-1.7,1.9-1.3,1.9-1.3
			c0.6-1.7,1.9-1.3,1.9-1.3c0.7-1.7,1.9-1.3,1.9-1.3c0.6-1.7,1.9-1.3,1.9-1.3c0.7-1.7,1.9-1.3,1.9-1.3c0.6-1.7,1.9-1.3,1.9-1.3
			c0.6-1.7,1.9-1.3,1.9-1.3c0.7-1.8,1.9-1.3,1.9-1.3c0.3-0.7,0.8-1.2,1.4-1.4c0.4-0.1,0.8,0,1.2,0.3c-0.7-3.5-1-6.4,1.8-8.2
			c1.5-0.9,3.1-0.6,3.6,0.2c0.6,1-0.6,1.9-1.1,2.5c-1.9,2.4,8,18.1-6.4,27.2c-11,6.9-16.9-0.2-19.2-1.9
			C98.1,200.7,95.7,202.2,93.9,199.4 M148.1,119.5c0,1-0.7,1.3-2.1,1.4c0.8,0.6,2.1,1,2.1,2c0,1.2-1.4,2-3.4,3
			c-0.3,0.2-0.8,0.9-1,1.4c3.2,0,5.7-3.8,7.4-3.8c1.9,0,3.1,3.9,3.1,5.6c0,1.9-1.6,2.3-4.3,2.3c-2.5,0-7.2,2.1-9.1,2.1
			c-1.7,0-4.6-1.6-4.6-3.4c0-0.7,0.9-2.8,0.9-5.8c0-3.4-2.6-5.6-4.9-5.6c-3,0-4.3,2.4-4.3,3.2c0,1,0.9,1.6,0.3,2.5
			c0,0.1,0.2,0.2,0.7,0.2c0.6,0,1.4-1.3,2.4-1.3c1.8,0,4.1,4.5,4.1,5.6c0,1.4-1.7,2.5-4,2.5c-1.8,0-6-2.3-8.5-2.3
			c-1.6,0.1-4.2,0.1-4.2-3.6c0-2,2.4-2.2,2.4-5.4c0-0.9-1.2-1.7-0.8-2.8c0.5-1.8-1-2.7-2.1-2.7c-2,0-2.6,1.9-2.6,2.6
			c0,3.6,2.4,2.7,3.9,4.2c0.3,0.3,0.3,0.7,0.1,1.1c-1.3,1.6-3.1,3-7.9,1.7c-2.2,1-4.3,1.5-4.3-0.3c0-0.8,0.6-1.5,1.1-2.1
			c-2.5,0.7-3.8,3.3-5.7,3.3c-2.1,0-2.7-2.3-4.2-3.8c-0.7-0.7-2.5-1.5-3.1-2.2c-3.4-4.1-5.2-5.6-7.8-7.8c-1-0.8-2.2-4.4-2.2-7.8
			c0-6.4,0.9-12.5,12.2-15.3c12.7-3.2,9.8-18.4,32.1-18.4c18.3,0,29.8,11.4,56.5,18.7c6,1.6,9.4,1.5,9.4,4.1c0,1.6-1.9,1.6-2.9,2
			c0.3,0.2,1.1,0.4,3.4,0.4c2.2,0,2.8,2.7-3.1,2.7c-3.7,0-6.5-1.4-6.5-3.1c0-1.7,1.8-2.1,3.1-2.3c-2-0.8-6.3-2-9.3-2
			c0,0,0.8,2.4,0.8,4.5c0,3.2-1,5.1-1,6.3c0,1.2,3.3-0.5,4.5-0.5c3.5,0,1.1,6.1,7.1,7c1.4,0.3,1.6,1.1,1.1,2c0,0,0.9-0.1,1.8-0.3
			c1.3-0.2,1.7,0.6,1.7,3.1c0,3.3-1.7,3.8-3.4,3.8c-6.3,0-7-7.4-10-7.4c-1,0-6.2,1.8-7.4,2.6c0.3,0.4,1.6,1.1,3.1,1.1
			c1.3,0,1.9,0.7,2.3,0.7c1.2,0,2.4,0.1,2.4,2.2c0,3.2-1.2,4.5-4,4.5c-5.6,0-5.5-5.8-10.1-5.8c-1.5,0-5.4,1.9-9.1,1.9
			c-4.4,0-7.2-3.3-11.4-3.3c-1.8,0-2.7,1.4-2.7,2.8C146,117.4,148.1,118.1,148.1,119.5 M135.9,127.9c-0.6-1.9-2.5-5.5-4.7-5.5
			c-1.1,0-2.1,1-2.1,1c0-0.6-0.4-1.2-0.4-1.6c0-0.4,1-2.4,3.5-2.4c2,0,4.1,1.8,4.1,4.7C136.3,125.7,136.1,127,135.9,127.9 M120,121
			c-1.4-1.9-3.9-0.7-3.9-3.8c0-0.4,0.4-1.8,1.8-1.8c0.7,0,1.4,0.5,1.4,1.2c0,0.3-0.2,0.6-0.2,1C119.2,119.1,120.5,119.7,120,121
			 M140.1,64.6c28.6,0,53.6,16,66.4,39.6c-0.6,0-1.2,0.2-1.7,0.8c-0.1,0.1-2.8,3.1-7.7,8.1c0-0.2,0-0.5,0-0.7c0-4-1.4-4.2-3.4-3.8
			c0,0,0.1-1.5-2-1.9c-5.3-0.6-2.9-7-7.2-7c-1,0-2.3,0.6-3.6,0.8c0.2-1.7,0.9-3,0.9-5.9c0-1.5-0.3-2.7-0.6-3.6
			c1.9,0.1,4,0.6,5.7,1.1c-0.8,0.5-1.4,1.2-1.4,2.3c0,2.3,3.1,3.9,7.4,3.9c7.5,0,6.3-4.6,2.8-4.3c0.4-0.4,0.7-0.8,0.7-1.5
			c0-3.2-3.9-3.3-10-4.9c-17.5-5-27.7-10.7-37.1-14.5c3,1,7.4,2,12.8,3.4c13.5,3.7,20.2,7.6,21.1,4.1c0.8-3-7.9-5.9-19.1-8.9
			c-18.5-5.1-19.3-3.2-19.5-2.2c-0.3,1,0.4,1.8,1.8,2.6c-5.3-1.9-10.5-3.1-16.8-3.1c-22.5,0-20.2,15.4-32.3,18.5
			c-11.8,3-12.8,9.6-12.8,16.1c0,3.5,1.2,7.4,2.5,8.5c4.9,3.9,6.3,6.3,7.7,7.8c0.8,0.9,2.5,1.6,3.1,2.2c1.5,1.4,2.2,4.1,4.8,4.1
			c1.6,0,2.8-1.4,3.7-2.1c0,0.9,0.6,3.4,5.1,1.2c0,0,3.7,1.2,6.3-0.2c-0.1,0.2-0.1,0.4-0.1,0.7c0,4.3,3.3,4.5,5.1,4.4
			c2.3,0,6.4,2.3,8.5,2.3c1.9,0,3.4-0.7,4.2-1.8c0.3,2.2,3.3,3.9,5.3,3.9c2,0,6.9-2.1,9.1-2.1c2.4,0,5.1-0.3,5.1-3.1
			c0-1.8-1.2-6.4-3.9-6.4c-0.8,0-1.6,0.5-2.4,1.1c0.1-0.3,0.2-0.6,0.2-0.9c0-0.8-0.5-1.3-1-1.7c0.8-0.5,1-1.1,1-1.7
			c0-1.9-2.1-2.5-2.1-4.2c0-0.7,0.4-2,1.9-2c3.9,0,6.8,3.3,11.4,3.3c3.6,0,7.9-1.9,9.1-1.9c4.1,0,4.2,5.8,10.1,5.8
			c4.4,0,4.9-3,4.9-5.3c0-2.3-1.4-3.2-3.2-3c-1.4-0.9-2.6-0.5-3.8-0.9c1.8-0.8,4.9-1.8,5.7-1.8c2,0,3.5,7.4,10,7.4
			c0.1,0,0.3,0,0.4,0c-11,10.8-29.4,27.8-53,45.8c-39.5-30-64.3-57.4-64.6-57.7c-0.5-0.6-1.2-0.8-1.7-0.8
			C86.5,80.7,111.5,64.6,140.1,64.6 M145.3,69.6c0-0.6,4.9-1,18.5,2.8c10,2.7,19.1,5.9,18.5,7.9c-0.6,2.3-7.4-1.1-20.1-4.7
			C150.6,72.4,145.4,71.5,145.3,69.6 M64.7,140c0-11.4,2.6-22.2,7.1-32c0.1,1.9,0.6,5,3.2,7.7c0.3,0.3,24.5,27.1,57.7,52.4
			c-1.7,1.3-3.8,2.8-5.9,4.2c0-0.2-0.1-0.5-0.3-0.8c-0.7-1.2-2.8-1.6-4.7-0.4c-2.9,1.8-3,4.6-2.5,7.8c-0.1,0-0.2,0-0.3,0
			c-0.8,0.1-1.3,0.6-1.7,1.3c0,0-1-0.1-1.9,1.3c0,0-1-0.1-1.9,1.3c0,0-1-0.1-1.9,1.3c0,0-1-0.1-1.9,1.3c0,0-1-0.1-1.9,1.3
			c0,0-1-0.1-1.9,1.3c0,0-1-0.1-1.9,1.3c0,0-1-0.1-1.9,1.3l-0.1,0c-1.3,0.2-2.1,1.4-2.3,2.9c-1.7-1.6-3.4-2.4-5.5-1.1
			c-1.5,1-2.8,3.3-1.8,6C75.6,184.7,64.7,163.6,64.7,140 M140.1,215.4c-16,0-30.9-5-43.2-13.6c0.9-0.1,1.6-0.6,2.2-0.9
			c2.2,1.8,8.8,8.4,19.7,1.6c8.9-5.6,8.9-13.4,7.9-19.5c4.2-2.8,9.7-6.6,13.4-9.3c3.7,2.7,9.2,6.5,13.4,9.3c-1,6.1-1,13.9,7.9,19.5
			c10.9,6.9,17.5,0.2,19.7-1.6c0.6,0.4,1.3,0.8,2.2,0.9C171,210.4,156.1,215.4,140.1,215.4 M187.6,198.5c1.1-2.8-0.3-5.1-1.8-6
			c-2.2-1.4-3.9-0.5-5.5,1.1c-0.2-1.6-1-2.7-2.3-2.9l-0.1,0c-0.9-1.4-1.9-1.3-1.9-1.3c-0.9-1.4-1.9-1.3-1.9-1.3
			c-0.9-1.4-1.9-1.3-1.9-1.3c-0.8-1.4-1.9-1.3-1.9-1.3c-0.8-1.4-1.9-1.3-1.9-1.3c-0.9-1.4-1.9-1.3-1.9-1.3c-0.8-1.4-1.9-1.3-1.9-1.3
			c-0.9-1.4-1.9-1.3-1.9-1.3c-0.4-0.7-1-1.2-1.7-1.3c-0.1,0-0.2,0-0.3,0c0.6-3.2,0.5-5.9-2.5-7.8c-1.9-1.2-4-0.7-4.7,0.4
			c-0.2,0.3-0.3,0.5-0.3,0.8c-2-1.4-4.1-3-5.9-4.2c33.1-25.3,57.4-52.1,57.7-52.4c2.6-2.7,3.2-5.7,3.2-7.7c4.6,9.7,7.1,20.5,7.1,32
			C215.5,163.6,204.6,184.7,187.6,198.5"/>
		<path id="XMLID_4096_" class="st187" d="M158.7,185.9c-0.5,4.3,0.3,8.8,6.1,12.5c5.5,3.5,9,2.1,11.8-0.1c-0.6-0.1-1.1-0.6-1.3-1.3
			c0,0-1.2,0.5-1.9-1.3c0,0-1.3,0.4-1.9-1.3c0,0-1.2,0.4-1.9-1.3c0,0-1.2,0.4-1.9-1.3c0,0-1.3,0.4-1.9-1.3c0,0-1.2,0.4-1.9-1.3
			c0,0-1.3,0.4-1.9-1.3c0,0-1.2,0.4-1.9-1.3c-0.2,0-0.3,0.1-0.4,0C159.3,186.5,158.9,186.3,158.7,185.9 M159.4,187.3
			c0.1,0,0.2,0,0.3,0.1l0.1,0c0.9,1.4,1.9,1.3,1.9,1.3c0.9,1.4,1.9,1.3,1.9,1.3c0.9,1.4,1.9,1.3,1.9,1.3c0.8,1.4,1.9,1.3,1.9,1.3
			c0.8,1.4,1.9,1.3,1.9,1.3c0.9,1.4,1.9,1.3,1.9,1.3c0.8,1.4,1.9,1.3,1.9,1.3c0.9,1.4,1.9,1.3,1.9,1.3c0.1,0.2,0.3,0.4,0.4,0.6
			c-2.4,1.6-5.5,2.2-10-0.6C160.3,194.6,159.2,191,159.4,187.3"/>
		<path id="XMLID_4093_" class="st187" d="M115.4,198.4c5.8-3.7,6.6-8.2,6.1-12.5c-0.3,0.4-0.7,0.7-1.1,0.7c-0.2,0-0.3,0-0.4,0
			c-0.7,1.7-1.9,1.3-1.9,1.3c-0.6,1.7-1.9,1.3-1.9,1.3c-0.7,1.7-1.9,1.3-1.9,1.3c-0.6,1.7-1.9,1.3-1.9,1.3c-0.7,1.7-1.9,1.3-1.9,1.3
			c-0.6,1.7-1.9,1.3-1.9,1.3c-0.6,1.7-1.9,1.3-1.9,1.3c-0.7,1.8-1.9,1.3-1.9,1.3c-0.3,0.7-0.7,1.2-1.3,1.3
			C106.4,200.5,109.9,201.8,115.4,198.4 M105.5,197.7c0,0,1,0.1,1.9-1.3c0,0,1,0.1,1.9-1.3c0,0,1,0.1,1.9-1.3c0,0,1,0.1,1.9-1.3
			c0,0,1,0.1,1.9-1.3c0,0,1,0.1,1.9-1.3c0,0,1,0.1,1.9-1.3c0,0,1,0.1,1.9-1.3l0.1,0c0.1,0,0.2,0,0.3-0.1c0.1,3.7-1,7.3-5.8,10.4
			c-4.4,2.8-7.5,2.2-9.9,0.6C105.2,198.1,105.3,197.9,105.5,197.7"/>
		<path id="XMLID_4090_" class="st187" d="M149,143.6c18.5-6.8,30.5-13.3,29.4-16.3c-1.2-3.1-9.8,1.3-32.3,9.7
			c-10.8,4-11.5,5-10.7,7C136,145.5,137.9,147.7,149,143.6 M146.4,137.7c19.4-7.2,30.5-12.1,31.2-10.1c0.9,2.4-14.8,10.1-28.9,15.3
			c-10.5,3.9-12.2,1.9-12.6,0.8C135.6,142.1,137.4,141,146.4,137.7"/>
		<path id="XMLID_4087_" class="st188" d="M140.1,56.5c-46.2,0-83.6,37.4-83.6,83.6c0,46.2,37.4,83.6,83.6,83.6
			c46.2,0,83.6-37.4,83.6-83.6C223.7,93.9,186.2,56.5,140.1,56.5 M140.1,217.6c-42.8,0-77.6-34.7-77.6-77.6
			c0-42.8,34.7-77.6,77.6-77.6c42.8,0,77.6,34.7,77.6,77.6C217.6,182.8,182.9,217.6,140.1,217.6"/>
		<path id="XMLID_4086_" class="st188" d="M159.9,185.8c0.3,0.1,0.6-0.1,0.9-0.4c0.2,2.1,1.4,1.8,1.9,1.3c0.2,2.1,1.4,1.8,1.9,1.3
			c0.2,2.1,1.5,1.8,1.9,1.3c0.2,2.1,1.5,1.8,1.9,1.3c0.2,2.1,1.4,1.8,1.9,1.3c0.2,2.1,1.5,1.8,1.9,1.3c0.2,2.1,1.4,1.8,1.9,1.3
			c0.2,2.1,1.4,1.8,1.9,1.3c0.1,0.9,0.4,1.6,1,1.7c0.8,0.1,1.6-0.9,1.8-2.4c0.2-1.4-0.2-2.7-0.9-2.8c-0.3,0-0.6,0.1-0.9,0.4
			c-0.2-2.1-1.4-1.8-1.9-1.3c-0.2-2.1-1.4-1.8-1.9-1.3c-0.2-2.1-1.4-1.8-1.9-1.3c-0.2-2.1-1.5-1.8-1.9-1.3c-0.2-2.1-1.4-1.8-1.9-1.3
			c-0.2-2.1-1.4-1.8-1.9-1.3c-0.2-2.1-1.4-1.8-1.9-1.3c-0.2-2.1-1.4-1.8-1.9-1.3c-0.1-0.9-0.4-1.6-1-1.7c-0.7-0.1-1.6,0.9-1.8,2.4
			S159.1,185.7,159.9,185.8"/>
		<path id="XMLID_4085_" class="st188" d="M103.4,197.4c0.5-0.1,0.9-0.8,1-1.7c0.4,0.5,1.6,0.8,1.9-1.3c0.4,0.5,1.6,0.8,1.9-1.3
			c0.4,0.5,1.6,0.8,1.9-1.3c0.4,0.5,1.6,0.8,1.9-1.3c0.4,0.5,1.6,0.8,1.9-1.3c0.4,0.5,1.6,0.8,1.9-1.3c0.4,0.5,1.6,0.8,1.9-1.3
			c0.4,0.5,1.6,0.8,1.9-1.3c0.3,0.3,0.6,0.4,0.9,0.4c0.8-0.1,1.2-1.4,0.9-2.8c-0.2-1.4-1.1-2.5-1.8-2.4c-0.5,0.1-0.9,0.8-1,1.7
			c-0.4-0.5-1.6-0.8-1.9,1.3c-0.4-0.5-1.6-0.8-1.9,1.3c-0.4-0.5-1.6-0.8-1.9,1.3c-0.4-0.5-1.6-0.8-1.9,1.3c-0.4-0.5-1.6-0.8-1.9,1.3
			c-0.4-0.5-1.6-0.8-1.9,1.3c-0.4-0.5-1.6-0.8-1.9,1.3c-0.4-0.5-1.6-0.8-1.9,1.3c-0.3-0.3-0.6-0.4-0.9-0.4c-0.8,0.1-1.2,1.4-0.9,2.8
			C101.9,196.5,102.7,197.6,103.4,197.4"/>
		<path id="XMLID_4084_" class="st188" d="M184.9,193.9c-4.7-3-7.9,13.2-20.6,5.2c-14-8.8-0.3-22.3-6.9-26.5
			c-1.1-0.7-2.2-0.4-2.4-0.1c-0.2,0.4,0.5,0.9,1,1.6c2.4,3.1-7.9,18.1,6.2,27c12.1,7.6,17.9-2.7,18.9-2.1c0.8,0.5,2.8,2.6,4.4,0
			C187,196.6,186.1,194.6,184.9,193.9"/>
		<path id="XMLID_4083_" class="st188" d="M124.1,174.1c0.6-0.7,1.3-1.2,1.1-1.6c-0.2-0.4-1.3-0.6-2.5,0.1
			c-6.6,4.2,7.2,17.7-6.9,26.5c-12.7,8-15.9-8.1-20.6-5.2c-1.1,0.7-2.1,2.7-0.6,5c1.6,2.6,3.6,0.5,4.4,0c1-0.6,6.9,9.7,18.9,2.1
			C132.1,192.2,121.7,177.2,124.1,174.1"/>
		<path id="XMLID_4082_" class="st189" d="M99.5,112.9c-0.3,0-0.6,0.5-0.6,0.7c0,0.2,0.5,0.8,0.8,0.8c0.2,0,0.4-0.1,0.4-0.3
			C100.2,113.4,100.1,112.9,99.5,112.9"/>
		<path id="XMLID_4079_" class="st131" d="M140.1,55.4c-46.7,0-84.6,38-84.6,84.6c0,46.7,38,84.6,84.6,84.6
			c46.7,0,84.6-38,84.6-84.6C224.7,93.3,186.8,55.4,140.1,55.4 M140.1,223.6c-46.2,0-83.6-37.4-83.6-83.6
			c0-46.2,37.4-83.6,83.6-83.6c46.2,0,83.6,37.4,83.6,83.6C223.7,186.2,186.2,223.6,140.1,223.6"/>
		<path id="XMLID_4076_" class="st131" d="M140.1,62.5c-42.8,0-77.6,34.7-77.6,77.6c0,42.8,34.7,77.6,77.6,77.6
			c42.8,0,77.6-34.7,77.6-77.6C217.6,97.2,182.9,62.5,140.1,62.5 M140.1,216.5c-42.2,0-76.5-34.3-76.5-76.5
			c0-42.2,34.3-76.5,76.5-76.5c42.2,0,76.5,34.3,76.5,76.5C216.6,182.2,182.3,216.5,140.1,216.5"/>
		<path id="XMLID_4075_" class="st131" d="M208.4,108.1c-0.1,1.9-0.6,5-3.2,7.7c-0.3,0.3-24.6,27.1-57.7,52.4
			c1.7,1.3,3.8,2.8,5.9,4.2c0-0.2,0.1-0.5,0.3-0.8c0.7-1.2,2.8-1.6,4.7-0.4c2.9,1.8,3,4.6,2.5,7.8c0.1,0,0.2,0,0.3,0
			c0.7,0.1,1.3,0.6,1.8,1.3c0,0,1-0.1,1.9,1.3c0,0,1-0.1,1.9,1.3c0,0,1-0.1,1.9,1.3c0,0,1-0.1,1.9,1.3c0,0,1-0.1,1.9,1.3
			c0,0,1-0.1,1.9,1.3c0,0,1-0.1,1.9,1.3c0,0,1-0.1,1.9,1.3l0.1,0c1.3,0.2,2.1,1.4,2.3,2.9c1.7-1.6,3.4-2.4,5.5-1.1
			c1.5,1,2.9,3.3,1.8,6c17-13.8,27.9-34.9,27.9-58.5C215.5,128.6,212.9,117.8,208.4,108.1"/>
		<path id="XMLID_4074_" class="st131" d="M132.2,119.4c-2.5,0-3.5,2-3.5,2.4c0,0.4,0.4,1,0.4,1.6c0,0,1-1,2.1-1
			c2.2,0,4.1,3.6,4.7,5.5c0.2-0.9,0.4-2.1,0.4-3.7C136.4,121.2,134.2,119.4,132.2,119.4"/>
		<path id="XMLID_4073_" class="st131" d="M161.4,202.4c-8.9-5.6-8.9-13.4-7.9-19.5c-4.2-2.8-9.7-6.6-13.4-9.3
			c-3.7,2.7-9.2,6.5-13.4,9.3c1,6.1,1,13.9-7.9,19.5c-10.9,6.9-17.5,0.2-19.7-1.6c-0.5,0.4-1.3,0.8-2.2,0.9
			c12.2,8.6,27.1,13.6,43.2,13.6c16,0,30.9-5,43.2-13.6c-0.9-0.1-1.6-0.5-2.2-0.9C178.9,202.7,172.2,209.3,161.4,202.4"/>
		<path id="XMLID_4072_" class="st131" d="M118,115.4c-1.4,0-1.8,1.3-1.8,1.8c0,3.2,2.4,1.9,3.9,3.8c0.5-1.3-0.8-1.9-0.8-3.3
			c0-0.4,0.2-0.8,0.2-1.1C119.4,115.8,118.7,115.4,118,115.4"/>
		<path id="XMLID_4071_" class="st131" d="M94.4,192.5c2.2-1.4,3.9-0.5,5.5,1.1c0.2-1.6,1-2.7,2.3-2.9l0.1,0
			c0.9-1.4,1.9-1.3,1.9-1.3c0.9-1.4,1.9-1.3,1.9-1.3c0.9-1.4,1.9-1.3,1.9-1.3c0.8-1.4,1.9-1.3,1.9-1.3c0.8-1.4,1.9-1.3,1.9-1.3
			c0.9-1.4,1.9-1.3,1.9-1.3c0.8-1.4,1.9-1.3,1.9-1.3c0.9-1.4,1.9-1.3,1.9-1.3c0.4-0.7,1-1.2,1.7-1.3c0.1,0,0.2,0,0.3,0
			c-0.6-3.2-0.5-5.9,2.5-7.8c1.9-1.2,4-0.7,4.7,0.4c0.2,0.3,0.3,0.5,0.3,0.8c2-1.4,4.1-3,5.9-4.2c-33.1-25.3-57.4-52.1-57.7-52.4
			c-2.6-2.7-3.2-5.7-3.2-7.7c-4.6,9.7-7.1,20.5-7.1,32c0,23.6,10.9,44.7,27.9,58.5C91.6,195.8,92.9,193.5,94.4,192.5"/>
		<path id="XMLID_4068_" class="st131" d="M140.1,162.6c23.7-17.9,42-35,53-45.8c-0.1,0-0.2,0-0.4,0c-6.5,0-8-7.4-10-7.4
			c-0.8,0.1-3.9,1-5.7,1.8c1.2,0.4,2.4,0,3.8,0.9c1.8-0.2,3.2,0.7,3.2,3c0,2.3-0.5,5.3-4.9,5.3c-5.9,0-6.1-5.8-10.1-5.8
			c-1.2,0-5.5,1.9-9.1,1.9c-4.6,0-7.5-3.3-11.4-3.3c-1.5,0-1.9,1.3-1.9,2c0,1.7,2.1,2.3,2.1,4.2c0,0.6-0.3,1.3-1,1.7
			c0.5,0.4,1,0.9,1,1.7c0,0.3-0.1,0.6-0.2,0.9c0.8-0.7,1.6-1.1,2.4-1.1c2.7,0,3.9,4.6,3.9,6.4c0,2.9-2.7,3.1-5.1,3.1
			c-2.2,0-7.1,2.1-9.1,2.1c-2,0-5-1.7-5.3-3.9c-0.8,1-2.3,1.7-4.2,1.7c-2.1,0-6.1-2.3-8.5-2.3c-1.8,0.2-5.1-0.1-5.1-4.4
			c0-0.3,0-0.5,0.1-0.7c-2.7,1.4-6.3,0.2-6.3,0.2c-4.5,2.2-5.2-0.3-5.1-1.2c-0.9,0.7-2.1,2.1-3.7,2.1c-2.6,0-3.3-2.6-4.8-4
			c-0.6-0.6-2.2-1.2-3.1-2.2c-1.4-1.5-2.8-3.9-7.7-7.8c-1.4-1.1-2.5-5-2.5-8.5c0-6.5,1-13.1,12.8-16.1c12.1-3,9.8-18.5,32.3-18.5
			c6.3,0,11.5,1.2,16.8,3.1c-1.4-0.7-2.1-1.5-1.8-2.6c0.3-1,1.1-2.8,19.5,2.2c11.2,3.1,19.9,6,19.1,8.9c-1,3.5-7.6-0.4-21.1-4.1
			c-5.4-1.5-9.8-2.5-12.8-3.4c9.4,3.8,19.6,9.5,37.1,14.5c6.1,1.6,10,1.7,10,4.9c0,0.7-0.3,1.2-0.7,1.5c3.5-0.2,4.7,4.3-2.8,4.3
			c-4.3,0-7.3-1.7-7.3-3.9c0-1.2,0.6-1.9,1.4-2.3c-1.7-0.5-3.9-0.9-5.7-1.1c0.3,0.9,0.6,2.1,0.6,3.6c0,2.9-0.7,4.3-0.9,5.9
			c1.3-0.2,2.6-0.9,3.6-0.9c4.3,0,1.9,6.3,7.2,7c2.1,0.4,2,1.9,2,1.9c2-0.4,3.4-0.2,3.4,3.8c0,0.3,0,0.5,0,0.7c5-5,7.6-8,7.7-8.1
			c0.5-0.6,1.2-0.8,1.8-0.8c-12.8-23.6-37.7-39.6-66.4-39.6c-28.6,0-53.6,16-66.4,39.6c0.6,0,1.2,0.2,1.8,0.8
			C75.8,105.3,100.6,132.7,140.1,162.6 M146.1,136.9c22.5-8.3,31.1-12.8,32.3-9.7c1.1,3.1-10.9,9.5-29.4,16.3
			c-11.1,4.1-13.1,1.9-13.6,0.3C134.7,141.9,135.3,140.9,146.1,136.9"/>
		<path id="XMLID_4067_" class="st131" d="M172.9,196.4c0,0-1,0.1-1.9-1.3c0,0-1,0.1-1.9-1.3c0,0-1,0.1-1.9-1.3c0,0-1,0.1-1.9-1.3
			c0,0-1,0.1-1.9-1.3c0,0-1,0.1-1.9-1.3c0,0-1,0.1-1.9-1.3l-0.1,0c-0.1,0-0.2,0-0.3-0.1c-0.1,3.6,1,7.3,5.8,10.4
			c4.4,2.8,7.5,2.2,10,0.6c-0.2-0.2-0.3-0.3-0.4-0.6C174.7,197.7,173.7,197.8,172.9,196.4"/>
		<path id="XMLID_4066_" class="st131" d="M118.6,188.7c-0.9,1.4-1.9,1.3-1.9,1.3c-0.9,1.4-1.9,1.3-1.9,1.3
			c-0.8,1.4-1.9,1.3-1.9,1.3c-0.8,1.4-1.9,1.3-1.9,1.3c-0.9,1.4-1.9,1.3-1.9,1.3c-0.8,1.4-1.9,1.3-1.9,1.3c-0.9,1.4-1.9,1.3-1.9,1.3
			c-0.1,0.2-0.3,0.4-0.4,0.6c2.5,1.6,5.5,2.2,10-0.6c4.9-3.1,6-6.7,5.8-10.4c-0.1,0-0.2,0-0.3,0.1h-0.1
			C119.5,188.8,118.6,188.7,118.6,188.7"/>
		<path id="XMLID_4065_" class="st131" d="M101.2,102.8c-1,0-1.4,0.5-1.4,0.7c0,0.2,1.1,3,1.9,3c0.9,0,2.4-1.7,2.4-2.5
			C104.1,103.3,102.3,102.8,101.2,102.8"/>
		<path id="XMLID_4064_" class="st131" d="M101.8,122c0,0.5,0.9,1.1,0.9,1.1s0.9-1.2,0.9-2.1C103.6,120.7,101.8,121,101.8,122"/>
		<path id="XMLID_4063_" class="st131" d="M102,98.2c0-2.7-2.2-5.2-6.4-5.2c-4.4,0-7.3,2.5-7.3,3.9c0,1.2,1.9-1.2,4.8-1.2
			c1.7,0,3.4,1,3.4,2.3c0,1.1-1.4,1.9-1.4,2.9c0,0.7,0.5,2,2.1,2C99.7,102.9,102,101,102,98.2"/>
		<path id="XMLID_4060_" class="st131" d="M148.7,112.5c4.1,0,7,3.3,11.4,3.3c3.6,0,7.6-1.9,9.1-1.9c4.6,0,4.6,5.8,10.2,5.8
			c2.9,0,4-1.3,4-4.5c0-2.1-1.3-2.2-2.4-2.2c-0.4,0-1-0.7-2.3-0.7c-1.5,0-2.8-0.7-3.1-1.1c1.1-0.9,6.4-2.6,7.4-2.6
			c3,0,3.7,7.4,10,7.4c1.7,0,3.4-0.5,3.4-3.8c0-2.5-0.5-3.3-1.8-3.1c-1,0.2-1.8,0.3-1.8,0.3c0.5-0.9,0.3-1.8-1.1-2
			c-5.9-0.9-3.6-7-7.1-7c-1.2,0-4.5,1.7-4.5,0.5c0-1.2,1-3.2,1-6.3c0-2.1-0.8-4.5-0.8-4.5c3,0,7.3,1.1,9.3,2
			c-1.2,0.2-3.1,0.7-3.1,2.3c0,1.8,2.9,3.1,6.5,3.1c6,0,5.3-2.7,3.1-2.7c-2.3,0-3.1-0.2-3.4-0.4c1-0.4,2.9-0.4,2.9-2
			c0-2.6-3.5-2.5-9.4-4.1c-26.7-7.3-38.2-18.7-56.5-18.7c-22.2,0-19.4,15.2-32.1,18.4c-11.2,2.9-12.2,8.9-12.2,15.3
			c0,3.5,1.2,7,2.2,7.8c2.6,2.2,4.4,3.7,7.8,7.8c0.6,0.7,2.3,1.4,3.1,2.2c1.5,1.5,2.1,3.8,4.2,3.8c1.8,0,3.2-2.6,5.7-3.3
			c-0.6,0.6-1.1,1.2-1.1,2.1c0,1.8,2.1,1.4,4.3,0.3c4.9,1.3,6.6-0.1,7.9-1.7c0.3-0.3,0.2-0.8-0.1-1.1c-1.6-1.5-3.9-0.6-3.9-4.2
			c0-0.7,0.6-2.6,2.6-2.6c1.1,0,2.6,0.9,2.1,2.7c-0.3,1.1,0.8,1.9,0.8,2.8c0,3.2-2.4,3.4-2.4,5.4c0,3.6,2.7,3.7,4.2,3.6
			c2.5,0,6.7,2.3,8.5,2.3c2.3,0,4-1.1,4-2.5c0-1.1-2.2-5.6-4.1-5.6c-1,0-1.8,1.2-2.4,1.2c-0.4,0-0.6-0.1-0.7-0.2
			c0.6-0.9-0.3-1.4-0.3-2.5c0-0.7,1.3-3.2,4.3-3.2c2.4,0,4.9,2.1,4.9,5.6c0,3-0.9,5.1-0.9,5.8c0,1.8,2.9,3.4,4.6,3.4
			c1.9,0,6.6-2.1,9.1-2.1c2.7,0,4.3-0.4,4.3-2.3c0-1.7-1.2-5.6-3.1-5.6c-1.7,0-4.2,3.8-7.4,3.8c0.2-0.4,0.7-1.2,1-1.4
			c2-1,3.4-1.9,3.4-3c0-1-1.4-1.4-2.1-2c1.4-0.1,2.1-0.4,2.1-1.4c0-1.4-2.1-2.1-2.1-4.2C146,113.9,146.9,112.5,148.7,112.5
			 M145.2,115.3c0,2.5,2.1,3.3,2.1,4.2c0,1-2.3,0.2-2.3,1.2c0,1,2.3,1.7,2.3,2.2c0,0.9-2.6,2-3,2.3c-0.5,0.3-1.4,1.6-1.4,2.2
			c0,0.6,0.5,0.7,0.9,0.7c3.5,0,6.2-3.8,7.4-3.8c1.2,0,2.3,3.1,2.3,4.8c0,1.6-2,1.5-3.8,1.5c-1.8,0-7.3,2.1-8.7,2.1
			c-1.5,0-3.8-1.4-3.8-2.6c0-0.6,0.9-2.5,0.9-5.8c0-3.9-2.9-6.4-5.8-6.4c-3.4,0-5.1,2.7-5.1,4c0,1,0.7,1.7,0.4,2.1
			c-0.4,0.7,0.2,1.4,1.4,1.4c1,0,1.7-1.3,2.4-1.3c1.2,0,3.2,3.9,3.2,4.8c0,0.9-1.4,1.7-3.2,1.7c-1.5,0-5.8-2.3-8.6-2.3
			c-1.2,0.1-3.4,0.3-3.4-2.7c0-1.5,2.4-1.9,2.4-5.4c0-1.2-1.1-1.9-0.9-2.5c0.6-2-0.9-3.8-2.9-3.8c-2.5,0-3.4,2.3-3.4,3.4
			c0,4.1,3.1,3.7,4.2,4.8c-2.3,3.2-6.3,1.4-7.3,1.4c-0.6,0-3.4,1.8-3.4,0.5c0-1.5,3.7-3,1.4-3c-3.4,0-5.2,3.5-6.8,3.5
			c-1.5,0-2-1.9-3.7-3.6c-1.1-1.1-2.1-1.2-3.1-2.2c-1.2-1.2-2.7-3.8-7.9-7.9c-0.7-0.5-1.9-3.6-1.9-7.2c0-6.4,1-11.8,11.6-14.5
			c13.4-3.4,9.8-18.4,31.9-18.4c17.9,0,27.8,10.6,56.3,18.7c5.7,1.6,8.9,1.5,8.9,3.3c0,1.3-3.1,0.7-3.1,1.9s2.6,1.2,4.4,1.2
			c1.7,0,0.3,1.1-3.1,1.1c-3.5,0-5.7-1.3-5.7-2.3c0-1.8,4-1.4,4-2.1c0-1-7-3-11.1-3c-1.8,0,0.1,2,0.1,5.3c0,3-1,4.9-1,6.3
			c0,2.5,4.1,0.3,5.3,0.3c2.5,0,0.6,5.9,6.9,7c1.4,0.2,0.2,1,0.2,1.7c0,0.8,2.4,0.1,2.9,0c0.5-0.1,0.9-0.3,0.9,2.3
			c0,2.6-1.1,3-2.6,3c-5.9,0-6.3-7.4-10-7.4c-1.1,0-8.3,2.3-8.3,3.3c0,1,2.1,2,4.1,2c1.3,0,1.4,0.7,2.3,0.7c0.9,0,1.6-0.1,1.6,1.4
			c0,2.8-0.8,3.7-3.2,3.7c-5.1,0-5-5.8-10.2-5.8c-1.7,0-5.6,1.9-9.1,1.9c-4.2,0-6.9-3.3-11.4-3.3
			C146.4,111.7,145.2,113.5,145.2,115.3"/>
		<path id="XMLID_4057_" class="st131" d="M99.5,110.7c0-1.3,1.5-2.4,0.5-2.4c-1.9,0-1.1,4.9-2.6,7c0,0-0.3,0.8,0.9,0.8
			c1.7,0,3.4-1.7,3.4-2.8C101.6,111.7,99.5,112.1,99.5,110.7 M99.7,114.3c-0.3,0-0.8-0.6-0.8-0.8c0-0.2,0.3-0.7,0.6-0.7
			c0.6,0,0.7,0.5,0.7,1.2C100.2,114.3,99.9,114.3,99.7,114.3"/>
		<path id="XMLID_4052_" class="st131" d="M185.4,193.2c-2.3-1.4-4,0.2-6,2.3c0-0.1,0-0.2,0.1-0.3c0.3-1.9-0.3-3.6-1.6-3.8
			c-0.1,0-0.3,0-0.5,0c-0.6-1.7-1.9-1.3-1.9-1.3c-0.6-1.7-1.9-1.3-1.9-1.3c-0.7-1.7-1.9-1.3-1.9-1.3c-0.6-1.7-1.9-1.3-1.9-1.3
			c-0.7-1.7-1.9-1.3-1.9-1.3c-0.6-1.7-1.9-1.3-1.9-1.3c-0.6-1.7-1.9-1.3-1.9-1.3c-0.7-1.8-1.9-1.3-1.9-1.3c-0.3-0.7-0.8-1.2-1.4-1.4
			c-0.4-0.1-0.8,0-1.2,0.3c0.7-3.5,1-6.4-1.8-8.2c-1.5-0.9-3.1-0.6-3.6,0.2c-0.6,1,0.6,1.9,1.1,2.5c1.9,2.4-8,18.1,6.4,27.2
			c11,6.9,16.9-0.2,19.2-1.9c1.1,0.9,3.4,2.4,5.2-0.5C187.7,197.1,187.3,194.4,185.4,193.2 M160.8,180.6c0.5,0.1,0.9,0.8,1,1.7
			c0.4-0.5,1.6-0.8,1.9,1.3c0.4-0.5,1.6-0.8,1.9,1.3c0.4-0.5,1.6-0.8,1.9,1.3c0.4-0.5,1.6-0.8,1.9,1.3c0.4-0.5,1.6-0.8,1.9,1.3
			c0.4-0.5,1.6-0.8,1.9,1.3c0.4-0.5,1.6-0.8,1.9,1.3c0.4-0.5,1.6-0.8,1.9,1.3c0.3-0.3,0.6-0.4,0.9-0.4c0.8,0.1,1.2,1.4,0.9,2.8
			c-0.2,1.4-1.1,2.5-1.8,2.4c-0.5-0.1-0.9-0.8-1-1.7c-0.4,0.5-1.6,0.8-1.9-1.3c-0.4,0.5-1.6,0.8-1.9-1.3c-0.4,0.5-1.6,0.8-1.9-1.3
			c-0.4,0.5-1.6,0.8-1.9-1.3c-0.4,0.5-1.6,0.8-1.9-1.3c-0.4,0.5-1.6,0.8-1.9-1.3c-0.4,0.5-1.6,0.8-1.9-1.3c-0.4,0.5-1.6,0.8-1.9-1.3
			c-0.3,0.3-0.6,0.4-0.9,0.4c-0.8-0.1-1.2-1.4-0.9-2.8C159.2,181.5,160,180.5,160.8,180.6 M176.5,198.2c-2.7,2.3-6.3,3.6-11.8,0.2
			c-5.8-3.7-6.6-8.2-6.1-12.5c0.3,0.4,0.7,0.7,1.1,0.7c0.2,0,0.3,0,0.5,0c0.7,1.7,1.9,1.3,1.9,1.3c0.6,1.7,1.9,1.3,1.9,1.3
			c0.7,1.7,1.9,1.3,1.9,1.3c0.6,1.7,1.9,1.3,1.9,1.3c0.7,1.7,1.9,1.3,1.9,1.3c0.6,1.7,1.9,1.3,1.9,1.3c0.6,1.7,1.9,1.3,1.9,1.3
			c0.7,1.8,1.9,1.3,1.9,1.3C175.5,197.6,175.9,198.1,176.5,198.2 M185.6,198.9c-1.6,2.6-3.6,0.5-4.4,0c-1-0.6-6.9,9.7-18.9,2.1
			c-14.1-8.9-3.7-23.9-6.2-27c-0.6-0.7-1.3-1.2-1.1-1.6c0.2-0.4,1.3-0.6,2.5,0.1c6.6,4.2-7.2,17.7,6.8,26.5
			c12.7,8,15.9-8.1,20.6-5.2C186,194.6,187,196.6,185.6,198.9"/>
		<path id="XMLID_4047_" class="st131" d="M118.4,201.8c14.4-9.1,4.5-24.8,6.4-27.2c0.5-0.6,1.7-1.5,1.1-2.5
			c-0.5-0.8-2.1-1.1-3.6-0.2c-2.8,1.8-2.5,4.7-1.8,8.2c-0.4-0.2-0.8-0.3-1.2-0.3c-0.6,0.1-1.1,0.6-1.4,1.3c0,0-1.2-0.5-1.9,1.3
			c0,0-1.3-0.4-1.9,1.3c0,0-1.2-0.4-1.9,1.3c0,0-1.2-0.4-1.9,1.3c0,0-1.3-0.4-1.9,1.3c0,0-1.2-0.4-1.9,1.3c0,0-1.3-0.4-1.9,1.3
			c0,0-1.2-0.4-1.9,1.3c-0.2,0-0.3-0.1-0.5,0c-1.2,0.2-1.9,1.8-1.6,3.8c0,0.1,0,0.2,0.1,0.3c-2-2.1-3.8-3.8-6-2.3
			c-1.9,1.2-2.3,3.9-0.9,6.2c1.8,2.9,4.1,1.4,5.2,0.5C101.5,201.6,107.4,208.7,118.4,201.8 M102.5,192.3c0.3-0.1,0.6,0.1,0.9,0.4
			c0.2-2.1,1.5-1.8,1.9-1.3c0.2-2.1,1.4-1.8,1.9-1.3c0.2-2.1,1.4-1.8,1.9-1.3c0.2-2.1,1.5-1.8,1.9-1.3c0.2-2.1,1.5-1.8,1.9-1.3
			c0.2-2.1,1.4-1.8,1.9-1.3c0.2-2.1,1.5-1.8,1.9-1.3c0.2-2.1,1.5-1.8,1.9-1.3c0.1-0.9,0.4-1.6,1-1.7c0.8-0.1,1.6,0.9,1.8,2.4
			c0.2,1.4-0.2,2.7-0.9,2.8c-0.3,0.1-0.6-0.1-0.9-0.4c-0.2,2.1-1.4,1.8-1.9,1.3c-0.2,2.1-1.5,1.8-1.9,1.3c-0.2,2.1-1.4,1.8-1.9,1.3
			c-0.2,2.1-1.4,1.8-1.9,1.3c-0.2,2.1-1.4,1.8-1.9,1.3c-0.2,2.1-1.5,1.8-1.9,1.3c-0.2,2.1-1.5,1.8-1.9,1.3c-0.2,2.1-1.4,1.8-1.9,1.3
			c-0.1,0.9-0.4,1.6-1,1.7c-0.8,0.1-1.6-0.9-1.8-2.4C101.4,193.7,101.8,192.4,102.5,192.3 M121.5,185.9c0.5,4.3-0.3,8.8-6.1,12.5
			c-5.5,3.5-9,2.1-11.8-0.1c0.6-0.1,1.1-0.6,1.3-1.3c0,0,1.2,0.5,1.9-1.3c0,0,1.3,0.4,1.9-1.3c0,0,1.2,0.4,1.9-1.3
			c0,0,1.2,0.4,1.9-1.3c0,0,1.3,0.4,1.9-1.3c0,0,1.2,0.4,1.9-1.3c0,0,1.3,0.4,1.9-1.3c0,0,1.2,0.4,1.9-1.3c0.1,0,0.3,0.1,0.4,0
			C120.9,186.5,121.3,186.3,121.5,185.9 M99,199c-0.8,0.5-2.8,2.6-4.4,0c-1.5-2.3-0.5-4.3,0.6-5c4.7-3,7.9,13.2,20.6,5.2
			c14-8.8,0.3-22.4,6.8-26.5c1.1-0.7,2.2-0.4,2.5-0.1c0.2,0.4-0.5,0.9-1,1.6c-2.4,3.1,7.9,18.1-6.2,27C105.9,208.7,100,198.3,99,199
			"/>
		<path id="XMLID_4044_" class="st131" d="M134.1,168.2c-2.9,2.2-6.3,4.6-9.4,6.8l1.4,7.5c4.4-2.9,9.8-6.7,14.1-9.7
			c4.2,3.1,9.6,6.8,14.1,9.7l1.4-7.5c-3.1-2.2-6.5-4.6-9.4-6.8c33.5-25.5,58.1-52.6,58.4-53c3.9-4,2.9-8.9,2.9-9
			c-0.1-1-1.2-1.6-2.1-0.6c-0.3,0.3-25.3,28-65.2,58.1c-39.9-30.2-64.9-57.8-65.2-58.1c-0.9-1-2-0.4-2.1,0.6c0,0.2-1,5,2.9,9
			C75.9,115.5,100.6,142.7,134.1,168.2 M73.5,106.3c0.1-0.8,0.7-0.2,0.7-0.2s25.1,27.9,65.8,58.6c40.7-30.7,65.8-58.6,65.8-58.6
			s0.6-0.6,0.7,0.2c0,0,0.9,4.6-2.7,8.4c0,0-24.9,27.7-59.2,53.5c3.2,2.4,6.5,4.7,9.9,7.1l-1.1,5.8c-4.6-3-9.1-6.2-13.5-9.4
			c-4.4,3.2-8.9,6.3-13.5,9.4l-1.1-5.8c3.4-2.4,6.7-4.7,9.9-7.1c-34.2-25.9-59.2-53.5-59.2-53.5C72.6,110.9,73.5,106.3,73.5,106.3"
			/>
		<path id="XMLID_4041_" class="st131" d="M148.7,142.9c14.2-5.2,29.8-12.9,28.9-15.3c-0.7-2-11.9,3-31.2,10.1
			c-9,3.3-10.8,4.4-10.3,5.9C136.6,144.7,138.3,146.7,148.7,142.9 M146.7,138.5c16.2-6,29.9-11.5,30.2-10.6
			c0.7,1.8-18.6,10.6-28.4,14.3c-9.8,3.6-11.3,1.9-11.6,1.2C136.5,142.3,139.5,141.1,146.7,138.5"/>
		<path id="XMLID_4038_" class="st131" d="M182.4,80.3c0.6-2-8.6-5.2-18.5-7.9c-13.6-3.7-18.6-3.4-18.5-2.8c0,1.9,5.2,2.9,16.9,6.1
			C175,79.2,181.8,82.6,182.4,80.3 M163.7,73.1c8.8,2.4,18.3,5.8,18,6.9c-0.3,1.1-7.2-1.9-19.1-5.2c-12-3.3-15.5-4.2-16.4-5
			C145.8,69.5,154.9,70.7,163.7,73.1"/>
	</g>
</g>
<g id="Watermark">
</g>
</svg>
