<?xml version="1.0" encoding="utf-8"?>
<!-- Generator: Adobe Illustrator 19.2.1, SVG Export Plug-In . SVG Version: 6.00 Build 0)  -->
<svg version="1.1" xmlns="http://www.w3.org/2000/svg" xmlns:xlink="http://www.w3.org/1999/xlink" x="0px" y="0px"
	 viewBox="0 0 288 288" style="enable-background:new 0 0 288 288;" xml:space="preserve">
<style type="text/css">
	.st0{display:none;}
	.st1{display:inline;}
	.st2{fill:#EF3E42;}
	.st3{fill:#004B8D;}
	.st4{fill:#D7CA9E;}
	.st5{fill:#A03123;}
	.st6{fill-rule:evenodd;clip-rule:evenodd;fill:#FFFFFF;}
	.st7{fill-rule:evenodd;clip-rule:evenodd;fill:#1E3B6E;}
	.st8{fill-rule:evenodd;clip-rule:evenodd;fill:#BE2132;}
	.st9{fill-rule:evenodd;clip-rule:evenodd;fill:#E19D26;}
	.st10{fill:#DC4329;}
	.st11{fill:#DC4A26;}
	.st12{fill:#231F20;}
	.st13{fill:#FFFFFF;}
	.st14{fill:#050404;}
	.st15{fill:#263C82;}
	.st16{fill:#CC3533;}
	.st17{fill:#E82F4D;}
	.st18{fill:#010101;}
	.st19{fill:#C1C8CF;}
	.st20{fill:#365A8B;}
	.st21{fill:#29417C;}
	.st22{fill:#F47920;}
	.st23{fill:#FAA61A;}
	.st24{fill:#CCCCCC;}
	.st25{fill:#002B54;}
	.st26{fill:#ED1C24;}
	.st27{opacity:0.3;fill:#002B54;}
	.st28{fill:#020303;}
	.st29{fill:#1B9ED8;}
	.st30{fill:#189DD8;}
	.st31{fill:#43748F;}
	.st32{fill:#EB3947;}
	.st33{fill:#EB3A47;}
	.st34{fill:#44758F;}
	.st35{fill:#1F9ED8;}
	.st36{fill:#FCFDFD;}
	.st37{fill:#020202;}
	.st38{fill:#E83543;}
	.st39{fill-rule:evenodd;clip-rule:evenodd;fill:#C1A677;}
	.st40{fill-rule:evenodd;clip-rule:evenodd;fill:#212F55;}
	.st41{fill-rule:evenodd;clip-rule:evenodd;fill:#AB285C;}
	.st42{fill-rule:evenodd;clip-rule:evenodd;fill:#014A67;}
	.st43{fill:#F47A39;}
	.st44{fill-rule:evenodd;clip-rule:evenodd;fill:#242052;}
	.st45{fill:#123B35;}
	.st46{display:inline;fill:#DB2732;}
	.st47{display:inline;fill:#1D3665;}
	.st48{fill-rule:evenodd;clip-rule:evenodd;}
	.st49{fill:#F58220;}
	.st50{fill:#1A3562;}
	.st51{fill:#036B66;}
	.st52{fill:#C4CDD3;}
	.st53{fill:#EB1F4E;}
	.st54{display:inline;fill:#C4203B;}
	.st55{display:inline;fill:#164883;}
	.st56{display:inline;fill:#90BCE5;}
	.st57{display:inline;fill:#1B2F5B;}
	.st58{fill:#144983;}
	.st59{fill:#CD1F43;}
	.st60{fill:#1A459D;}
	.st61{fill:#0A2042;}
	.st62{fill:#D92E27;}
	.st63{display:inline;fill:#CF1F45;}
	.st64{fill-rule:evenodd;clip-rule:evenodd;fill:#D7CA9E;}
	.st65{fill:#1E3B6E;}
	.st66{fill:#39B54A;}
	.st67{fill:#E19D26;}
	.st68{fill:#BE2132;}
	.st69{fill:#EF5426;}
	.st70{display:inline;fill:#FFFFFF;}
	.st71{display:inline;fill:#E31837;}
	.st72{display:inline;fill:#E21D37;}
	.st73{display:inline;fill:#005596;}
	.st74{display:inline;fill:#CC3533;}
	.st75{display:inline;fill:#E82F4D;}
	.st76{display:inline;fill:#010101;}
	.st77{display:inline;fill:#2A398B;}
	.st78{fill:#999999;}
	.st79{display:inline;fill:#999999;}
	.st80{display:inline;fill:#041E41;}
	.st81{display:inline;fill:#D4451D;}
	.st82{display:inline;fill:#EA7200;}
	.st83{display:inline;fill:#BDBBBB;}
	.st84{fill:#041E41;}
	.st85{fill:none;stroke:#000000;stroke-width:0.34;}
	.st86{fill:#D4451D;}
	.st87{fill:#EA7200;}
	.st88{fill:#BDBBBB;}
	.st89{fill:none;stroke:#EA7200;stroke-width:0;stroke-linecap:round;stroke-linejoin:round;}
	.st90{fill:#9C9FA1;}
	.st91{fill-rule:evenodd;clip-rule:evenodd;fill:#333290;}
	.st92{fill:#005B9B;}
	.st93{fill:#EF4043;}
	.st94{fill-rule:evenodd;clip-rule:evenodd;fill:#09A2DD;}
	.st95{fill-rule:evenodd;clip-rule:evenodd;fill:#43758E;}
	.st96{fill-rule:evenodd;clip-rule:evenodd;fill:#FCEE1E;}
	.st97{fill-rule:evenodd;clip-rule:evenodd;fill:#EE3441;}
	.st98{fill:#B89760;}
	.st99{fill:#D52D47;}
	.st100{fill-rule:evenodd;clip-rule:evenodd;fill:#0B2242;}
	.st101{fill:#F37938;}
	.st102{fill:#164883;}
	.st103{fill:#8E6D2A;}
	.st104{fill-rule:evenodd;clip-rule:evenodd;fill:#1A314F;}
	.st105{fill-rule:evenodd;clip-rule:evenodd;fill:#8F3326;}
	.st106{fill-rule:evenodd;clip-rule:evenodd;fill:#B68E64;}
	.st107{fill:#03493B;}
	.st108{fill:#FCC158;}
	.st109{fill:#BB544F;}
	.st110{fill:#D0B04A;}
	.st111{fill-rule:evenodd;clip-rule:evenodd;fill:#B6A269;}
	.st112{fill-rule:evenodd;clip-rule:evenodd;fill:#001F5B;}
	.st113{fill:#1D3665;}
	.st114{fill:#FFFFFF;stroke:#FFFFFF;stroke-width:0.16;}
	.st115{fill:#004666;}
	.st116{fill:none;stroke:#037062;stroke-width:2.8199;}
	.st117{fill:#BCCBD2;}
	.st118{fill:#037062;}
	.st119{fill:#E63248;}
	.st120{fill:none;stroke:#E63248;stroke-width:0.2826;}
	.st121{fill:none;stroke:#037062;stroke-width:1.0988;}
	.st122{fill:none;stroke:#BCCBD2;stroke-width:4.9365;}
	.st123{fill:#FCEE21;}
	.st124{fill:#FCEE23;}
	.st125{fill:#C4203B;}
	.st126{fill:#193661;}
	.st127{fill:#164884;}
	.st128{fill:#CF1F44;}
	.st129{fill:#0A2042;stroke:#010101;stroke-width:0.2131;}
	.st130{fill:#CF1F45;}
	.st131{fill:#1E3160;}
	.st132{fill:#BA202E;}
	.st133{fill:#212759;}
	.st134{fill:#BA1F31;}
	.st135{fill:#7BBCE8;}
	.st136{fill:#FED208;}
	.st137{fill:#6DB3E3;}
	.st138{fill:#FFCE04;}
	.st139{fill:#1B2F5B;}
	.st140{fill:#90BCE5;}
	.st141{fill:#D8782C;}
	.st142{fill:#C49C6F;}
	.st143{fill:#F04B23;}
	.st144{display:inline;fill-rule:evenodd;clip-rule:evenodd;fill:#F58220;}
	.st145{fill:#094F91;}
	.st146{fill:#DB2732;}
	.st147{fill:none;}
	.st148{fill:#00174A;}
	.st149{fill:none;stroke:#FFFFFF;stroke-width:3;stroke-miterlimit:10;}
	.st150{fill:none;stroke:#000000;stroke-width:0.1055;stroke-linecap:round;stroke-linejoin:round;}
	.st151{fill:#25358E;}
	.st152{fill:#ED1C2E;}
	.st153{fill:#FFFFFF;stroke:#000000;stroke-width:0.3293;stroke-linecap:round;stroke-linejoin:round;}
	.st154{display:inline;fill-rule:evenodd;clip-rule:evenodd;fill:#00174A;}
	.st155{fill:#0D2240;}
	.st156{display:inline;fill:#8EC641;}
	.st157{fill:#182D56;}
	.st158{fill:#BE323A;}
	.st159{fill:#C62034;}
	.st160{fill:#0B1437;}
	.st161{fill:#EC2135;}
	.st162{fill:#8EC641;}
	.st163{fill-rule:evenodd;clip-rule:evenodd;fill:#332312;}
	.st164{fill:#E4E5E6;}
	.st165{clip-path:url(#XMLID_4225_);}
	.st166{clip-path:url(#XMLID_4226_);fill:url(#XMLID_4227_);}
	.st167{clip-path:url(#XMLID_4228_);}
	.st168{clip-path:url(#XMLID_4229_);fill:url(#XMLID_4230_);}
	.st169{clip-path:url(#XMLID_4231_);}
	.st170{clip-path:url(#XMLID_4232_);fill:url(#XMLID_4233_);}
	.st171{clip-path:url(#XMLID_4234_);}
	.st172{clip-path:url(#XMLID_4235_);fill:url(#XMLID_4236_);}
	.st173{clip-path:url(#XMLID_4237_);}
	.st174{clip-path:url(#XMLID_4238_);fill:url(#XMLID_4239_);}
	.st175{clip-path:url(#XMLID_4240_);}
	.st176{clip-path:url(#XMLID_4241_);fill:url(#XMLID_4242_);}
	.st177{clip-path:url(#XMLID_4243_);}
	.st178{clip-path:url(#XMLID_4244_);fill:url(#XMLID_4245_);}
	.st179{clip-path:url(#XMLID_4246_);}
	.st180{clip-path:url(#XMLID_4247_);fill:url(#XMLID_4248_);}
	.st181{fill:#A4A9AD;}
	.st182{fill:#F05123;}
	.st183{fill:#8E744B;}
	.st184{fill:#EEE0C6;}
	.st185{fill:#8F182B;}
	.st186{fill:#FFC526;}
	.st187{fill:#B0B8BC;}
	.st188{fill:#FCBB30;}
	.st189{fill:#E21D38;}
	.st190{fill:#FFC759;}
	.st191{fill:#E03B3F;}
	.st192{fill:#8E8F92;}
	.st193{fill:#E13B3F;}
	.st194{fill:#FDDF0A;}
	.st195{fill:#E7AA23;}
	.st196{fill:#F37321;}
	.st197{fill:#008056;}
	.st198{fill:#E2293A;}
	.st199{fill:#1F438B;}
	.st200{fill:#005588;}
	.st201{fill:#A7B2B8;}
	.st202{fill:#8C2A43;}
	.st203{fill:#1C2D5B;}
	.st204{fill:#0C724D;}
	.st205{fill:#232020;}
	.st206{fill:#A8ABAD;}
	.st207{fill:#EB2627;}
	.st208{fill:#E56C25;}
	.st209{fill:#203C73;}
	.st210{fill:#B99758;}
	.st211{fill:#C8202F;}
	.st212{fill:#EEE3C6;}
	.st213{fill:#045937;}
	.st214{fill:#C02C38;}
	.st215{fill:#EEB41E;}
	.st216{fill:#F37E2F;}
	.st217{fill:#01549C;}
	.st218{fill:#0862AB;}
	.st219{fill:#E43B40;}
	.st220{fill:#DF1E38;}
	.st221{fill:#CD9C2B;}
	.st222{fill:#F47A3E;}
	.st223{fill:#FBB516;}
	.st224{fill:#E97424;}
	.st225{fill:#056D75;}
	.st226{fill:#142048;}
	.st227{fill:#FFC429;}
	.st228{fill:#114B9D;}
	.st229{fill:#213065;}
	.st230{fill:#1D2859;}
	.st231{fill:#A8AAAD;}
	.st232{fill:#1D427C;}
	.st233{fill:#153055;}
	.st234{fill:#AFB0B3;}
	.st235{fill:#20396F;}
	.st236{fill:#BE3138;}
	.st237{fill:#B4975A;}
	.st238{fill:#344042;}
	.st239{fill:#14244C;}
	.st240{fill:#D0202D;}
	.st241{fill:#A9A9AD;}
	.st242{fill:#1D3261;}
	.st243{fill:#811423;}
	.st244{fill:#6F6E76;}
	.st245{fill:#C62031;}
</style>
<g id="Layer_5" class="st0">
</g>
<g id="Layer_3">
</g>
<g id="Layer_4">
	<g id="XMLID_3848_">
		<path id="XMLID_3880_" class="st201" d="M139.7,53.8l-8.9,18.5c-13.2,1.2-32.2,6.1-49.3,15.1c-22.2,11.8-41.2,30.9-41.2,54
			c0,32.9,31.5,42,34.7,43.7l-14.5,35.7l38.3-30.3c20.6,2.9,47.1,1.5,60.7-0.9l41.9,36.8l-14.3-43c0,0,10.3-3.5,14-5.5L240,88.5
			c-31.7,18.5-60.1,29.4-60.1,29.4L235,76.9l-34.9,5.9c0,0-19.5-12.8-54.6-11.8L139.7,53.8z"/>
		<path id="XMLID_3877_" class="st203" d="M232.8,96.6c-28.9,16.1-48.8,24.3-69.2,31.7l-1.2-3.6l62.4-43.4l-69.3,17.7l38.7-15.6
			c0,0-18.7-10.7-51.1-9l-4-11.8l-21.6,44.8l-32.8,9.3l30.3-12.4l14-28.5c-3.9,0.6-8,1.3-12.3,2.3c-41.3,9.5-73.2,35.6-73.2,63.1
			c0,29.1,25.7,38.3,36,41.9l-13.5,29.7L97.9,187c21.9,3.3,48.4,2.1,62.9-0.9l35.2,31.3l-13.2-36.3c0,0,7.8-2,15.8-5.7L232.8,96.6
			L232.8,96.6z M100.2,138.5c-10.6-1.4-13.8-5.1-13.8-8c0-1.1,0.5-2.3,0.5-2.3l16,4.5L100.2,138.5z"/>
		<path id="XMLID_3876_" class="st193" d="M198.2,118.4c-36,18.7-67.5,26.1-87.7,26.1c-26.7,0-38.7-12.7-38.7-20.7
			c0-19.1,28.5-34,53.2-40l2-4.1c-20.7,3.8-44,12.4-57.3,24.6c-13,8.7-21.2,21.8-21.2,36.8c0,22.1,18.4,42.9,75.1,42.9
			c36.2,0,61.2-7.7,69.7-11.9c-35.6-0.2-72-10.8-72-10.8S167.8,143.4,198.2,118.4z"/>
		<path id="XMLID_3875_" class="st193" d="M145.4,81L145.4,81c3.7-0.3,7.4-0.5,11.1-0.5c15.8,0,26.2,2.5,26.2,2.5
			s-11.2-5.6-34.1-5.6c-1.4,0-2.9,0-4.4,0.1L145.4,81z"/>
		<path id="XMLID_3874_" class="st13" d="M145.6,166.8L145.6,166.8c0,0-12.8,2-28.6,2c-62.1,0-66.4-31.2-66.4-40.5
			c-1.3,4-2.1,8.3-2.1,12.7c0,0.6,2.4,36.2,71,36.2c28.2,0,51.7-6.6,51.7-6.6C162,169.7,153.2,168.3,145.6,166.8z"/>
		<path id="XMLID_3873_" class="st13" d="M171.2,137c-0.2,0.1-37.8,14.9-63.9,14.9c-30,0-43.7-17.1-43.7-30.6
			c0-9.3,6.2-17.1,6.2-17.1c-0.2,0.1-0.4,0.3-0.6,0.4c-0.1,0.1-10.9,8.3-10.9,21.2c0,21,20.7,32.6,44.9,32.6
			c13.7,0,27.5-2.4,35.6-4.6C147.8,149.6,159.4,143.9,171.2,137z"/>
		<path id="XMLID_3872_" class="st201" d="M172,191L172,191l11.7,9.2l-6-15.8C171.8,185.9,172,191,172,191L172,191z"/>
		<path id="XMLID_3871_" class="st201" d="M107,139.1c1,0,2.1,0.1,3.3,0.1c17.1,0,37.2-5.6,47.1-8.7l-2.9-7.8l43.2-28.4l-50.8,12.3
			l-8.9-28l-14.2,33.8l-38.6,9.7l27,6.6L107,139.1L107,139.1z"/>
		<path id="XMLID_3870_" class="st201" d="M84.1,184.7L84.1,184.7l-6.4,12.8l12-9C89.7,188.6,88.5,184.7,84.1,184.7z"/>
		<polygon id="XMLID_3869_" class="st13" points="137.9,83.3 144.9,107.1 130.6,116.3 		"/>
		<polygon id="XMLID_3868_" class="st13" points="93,121.5 124.4,113 130.6,116.3 		"/>
		<path id="XMLID_3867_" class="st13" d="M85.1,184.8l-4.8,9.4l5.9-9.2C85.9,184.9,85.5,184.8,85.1,184.8z"/>
		<path id="XMLID_3866_" class="st13" d="M110.3,139.1c1.9,0,3.8-0.1,5.7-0.2l14.6-22.6l-17,12.6l-5.2,10.2
			C109,139.1,109.6,139.1,110.3,139.1z"/>
		<path id="XMLID_3865_" class="st13" d="M180.2,195.4l-5.8-9.3c-1.1,1-1.7,2.1-2,3L180.2,195.4z"/>
		<path id="XMLID_3864_" class="st13" d="M142.1,134.6l-11.5-18.3v20.8C134.6,136.4,138.5,135.5,142.1,134.6z"/>
		<polygon id="XMLID_3863_" class="st13" points="130.6,116.3 153.3,121.1 189.8,98.4 		"/>
		<polygon id="XMLID_3862_" class="st13" points="141.5,156.5 140.1,158.1 138,158.4 139.4,159 138.1,160.8 140.4,159.6 
			141.9,160.8 141.6,159 143.6,157.8 141.5,158 		"/>
		<polygon id="XMLID_3861_" class="st13" points="153,159 151.8,160.4 149.8,160.6 151,161.4 149.8,162.9 151.8,161.9 153.3,163 
			153.1,161.3 155,160.2 153,160.3 		"/>
		<polygon id="XMLID_3860_" class="st13" points="157.4,148.9 156,150.6 153.9,150.9 155.2,151.6 153.9,153.3 156.2,152.2 
			157.7,153.3 157.4,151.4 159.5,150.3 157.4,150.5 		"/>
		<polygon id="XMLID_3859_" class="st13" points="168.9,150.2 167.6,151.8 165.7,152 166.9,152.8 165.7,154.3 167.8,153.2 
			169.3,154.3 169,152.6 170.9,151.5 169,151.7 		"/>
		<polygon id="XMLID_3858_" class="st13" points="164.4,160.6 163.1,162.1 161.3,162.2 162.4,163 161.1,164.5 163.2,163.4 
			164.7,164.6 164.4,162.9 166.3,161.8 164.5,161.9 		"/>
		<polygon id="XMLID_3857_" class="st13" points="178.9,161.8 177.4,163.5 175.2,163.8 176.6,164.6 175.2,166.3 177.5,165.1 
			179.2,166.3 178.9,164.4 181.1,163.2 178.9,163.3 		"/>
		<polygon id="XMLID_3856_" class="st13" points="173.8,138.8 172.3,140.7 169.8,141 171.3,141.9 169.8,143.9 172.4,142.4 
			174.3,143.8 173.9,141.6 176.3,140.3 173.9,140.5 		"/>
		<polygon id="XMLID_3855_" class="st13" points="194.9,161.2 192.8,163.5 189.8,163.9 191.7,164.8 189.8,167.3 193,165.6 
			195.2,167.3 194.8,164.7 197.9,163.1 194.8,163.2 		"/>
		<polygon id="XMLID_3854_" class="st13" points="200.6,147.1 198.8,149.4 196,149.7 197.8,150.6 196,152.9 199,151.3 201,152.8 
			200.6,150.4 203.5,148.8 200.6,149.1 		"/>
		<polygon id="XMLID_3853_" class="st13" points="205.4,133.1 203.6,135.4 200.5,135.8 202.4,136.8 200.5,139.2 203.7,137.5 
			206,139.2 205.5,136.5 208.4,134.9 205.5,135.1 		"/>
		<polygon id="XMLID_3852_" class="st13" points="191.8,127.2 190.4,129.8 187.3,130.4 189.4,131.4 188,133.9 191,131.9 
			193.8,133.4 192.8,130.8 195.3,128.8 192.3,129.4 		"/>
		<polygon id="XMLID_3851_" class="st13" points="210.3,116.2 208.1,119.2 204.3,119.7 206.9,121 204.7,124.1 208.6,121.9 
			211.5,123.9 210.8,120.6 214.3,118.5 210.6,119 		"/>
		<path id="XMLID_3850_" class="st13" d="M174.6,151.2c0,1.7,1.3,6.7,7.2,6.7c6.5,0,13.3-6.3,13.3-12.6c0-3.9-2.7-7-7-7
			C179.8,138.3,174.6,146.3,174.6,151.2z"/>
		<path id="XMLID_3849_" class="st193" d="M176.5,150.4c0,2.9,1.9,5.7,5.5,5.7c5.7,0,11-5.4,11-10.6c0-2.8-2.1-5.5-5.6-5.5
			C181.3,139.9,176.5,146.3,176.5,150.4L176.5,150.4z"/>
	</g>
</g>
<g id="Watermark">
</g>
</svg>
