<?xml version="1.0" encoding="utf-8"?>
<!-- Generator: Adobe Illustrator 19.2.1, SVG Export Plug-In . SVG Version: 6.00 Build 0)  -->
<svg version="1.1" xmlns="http://www.w3.org/2000/svg" xmlns:xlink="http://www.w3.org/1999/xlink" x="0px" y="0px"
	 viewBox="0 0 288 288" style="enable-background:new 0 0 288 288;" xml:space="preserve">
<style type="text/css">
	.st0{display:none;}
	.st1{display:inline;}
	.st2{fill:#EF3E42;}
	.st3{fill:#004B8D;}
	.st4{fill:#D7CA9E;}
	.st5{fill:#A03123;}
	.st6{fill-rule:evenodd;clip-rule:evenodd;fill:#FFFFFF;}
	.st7{fill-rule:evenodd;clip-rule:evenodd;fill:#1E3B6E;}
	.st8{fill-rule:evenodd;clip-rule:evenodd;fill:#BE2132;}
	.st9{fill-rule:evenodd;clip-rule:evenodd;fill:#E19D26;}
	.st10{fill:#DC4329;}
	.st11{fill:#DC4A26;}
	.st12{fill:#231F20;}
	.st13{fill:#FFFFFF;}
	.st14{fill:#050404;}
	.st15{fill:#263C82;}
	.st16{fill:#CC3533;}
	.st17{fill:#E82F4D;}
	.st18{fill:#010101;}
	.st19{fill:#C1C8CF;}
	.st20{fill:#365A8B;}
	.st21{fill:#29417C;}
	.st22{fill:#F47920;}
	.st23{fill:#FAA61A;}
	.st24{fill:#CCCCCC;}
	.st25{fill:#002B54;}
	.st26{fill:#ED1C24;}
	.st27{opacity:0.3;fill:#002B54;}
	.st28{fill:#020303;}
	.st29{fill:#1B9ED8;}
	.st30{fill:#189DD8;}
	.st31{fill:#43748F;}
	.st32{fill:#EB3947;}
	.st33{fill:#EB3A47;}
	.st34{fill:#44758F;}
	.st35{fill:#1F9ED8;}
	.st36{fill:#FCFDFD;}
	.st37{fill:#020202;}
	.st38{fill:#E83543;}
	.st39{fill-rule:evenodd;clip-rule:evenodd;fill:#C1A677;}
	.st40{fill-rule:evenodd;clip-rule:evenodd;fill:#212F55;}
	.st41{fill-rule:evenodd;clip-rule:evenodd;fill:#AB285C;}
	.st42{fill-rule:evenodd;clip-rule:evenodd;fill:#014A67;}
	.st43{fill:#F47A39;}
	.st44{fill-rule:evenodd;clip-rule:evenodd;fill:#242052;}
	.st45{fill:#123B35;}
	.st46{display:inline;fill:#DB2732;}
	.st47{display:inline;fill:#1D3665;}
	.st48{fill-rule:evenodd;clip-rule:evenodd;}
	.st49{fill:#F58220;}
	.st50{fill:#1A3562;}
	.st51{fill:#036B66;}
	.st52{fill:#C4CDD3;}
	.st53{fill:#EB1F4E;}
	.st54{display:inline;fill:#C4203B;}
	.st55{display:inline;fill:#164883;}
	.st56{display:inline;fill:#90BCE5;}
	.st57{display:inline;fill:#1B2F5B;}
	.st58{fill:#144983;}
	.st59{fill:#CD1F43;}
	.st60{fill:#1A459D;}
	.st61{fill:#0A2042;}
	.st62{fill:#D92E27;}
	.st63{display:inline;fill:#CF1F45;}
	.st64{fill-rule:evenodd;clip-rule:evenodd;fill:#D7CA9E;}
	.st65{fill:#1E3B6E;}
	.st66{fill:#39B54A;}
	.st67{fill:#E19D26;}
	.st68{fill:#BE2132;}
	.st69{fill:#EF5426;}
	.st70{display:inline;fill:#FFFFFF;}
	.st71{display:inline;fill:#E31837;}
	.st72{display:inline;fill:#E21D37;}
	.st73{display:inline;fill:#005596;}
	.st74{display:inline;fill:#CC3533;}
	.st75{display:inline;fill:#E82F4D;}
	.st76{display:inline;fill:#010101;}
	.st77{display:inline;fill:#2A398B;}
	.st78{fill:#999999;}
	.st79{display:inline;fill:#999999;}
	.st80{display:inline;fill:#041E41;}
	.st81{display:inline;fill:#D4451D;}
	.st82{display:inline;fill:#EA7200;}
	.st83{display:inline;fill:#BDBBBB;}
	.st84{fill:#041E41;}
	.st85{fill:none;stroke:#000000;stroke-width:0.34;}
	.st86{fill:#D4451D;}
	.st87{fill:#EA7200;}
	.st88{fill:#BDBBBB;}
	.st89{fill:none;stroke:#EA7200;stroke-width:0;stroke-linecap:round;stroke-linejoin:round;}
	.st90{fill:#9C9FA1;}
	.st91{fill-rule:evenodd;clip-rule:evenodd;fill:#333290;}
	.st92{fill:#005B9B;}
	.st93{fill:#EF4043;}
	.st94{fill-rule:evenodd;clip-rule:evenodd;fill:#09A2DD;}
	.st95{fill-rule:evenodd;clip-rule:evenodd;fill:#43758E;}
	.st96{fill-rule:evenodd;clip-rule:evenodd;fill:#FCEE1E;}
	.st97{fill-rule:evenodd;clip-rule:evenodd;fill:#EE3441;}
	.st98{fill:#B89760;}
	.st99{fill:#D52D47;}
	.st100{fill-rule:evenodd;clip-rule:evenodd;fill:#0B2242;}
	.st101{fill:#F37938;}
	.st102{fill:#164883;}
	.st103{fill:#8E6D2A;}
	.st104{fill-rule:evenodd;clip-rule:evenodd;fill:#1A314F;}
	.st105{fill-rule:evenodd;clip-rule:evenodd;fill:#8F3326;}
	.st106{fill-rule:evenodd;clip-rule:evenodd;fill:#B68E64;}
	.st107{fill:#03493B;}
	.st108{fill:#FCC158;}
	.st109{fill:#BB544F;}
	.st110{fill:#D0B04A;}
	.st111{fill-rule:evenodd;clip-rule:evenodd;fill:#B6A269;}
	.st112{fill-rule:evenodd;clip-rule:evenodd;fill:#001F5B;}
	.st113{fill:#1D3665;}
	.st114{fill:#FFFFFF;stroke:#FFFFFF;stroke-width:0.16;}
	.st115{fill:#004666;}
	.st116{fill:none;stroke:#037062;stroke-width:2.8199;}
	.st117{fill:#BCCBD2;}
	.st118{fill:#037062;}
	.st119{fill:#E63248;}
	.st120{fill:none;stroke:#E63248;stroke-width:0.2826;}
	.st121{fill:none;stroke:#037062;stroke-width:1.0988;}
	.st122{fill:none;stroke:#BCCBD2;stroke-width:4.9365;}
	.st123{fill:#FCEE21;}
	.st124{fill:#FCEE23;}
	.st125{fill:#C4203B;}
	.st126{fill:#193661;}
	.st127{fill:#164884;}
	.st128{fill:#CF1F44;}
	.st129{fill:#0A2042;stroke:#010101;stroke-width:0.2131;}
	.st130{fill:#CF1F45;}
	.st131{fill:#1E3160;}
	.st132{fill:#BA202E;}
	.st133{fill:#212759;}
	.st134{fill:#BA1F31;}
	.st135{fill:#7BBCE8;}
	.st136{fill:#FED208;}
	.st137{fill:#6DB3E3;}
	.st138{fill:#FFCE04;}
	.st139{fill:#1B2F5B;}
	.st140{fill:#90BCE5;}
	.st141{fill:#D8782C;}
	.st142{fill:#C49C6F;}
	.st143{fill:#F04B23;}
	.st144{display:inline;fill-rule:evenodd;clip-rule:evenodd;fill:#F58220;}
	.st145{fill:#094F91;}
	.st146{fill:#DB2732;}
	.st147{fill:none;}
	.st148{fill:#00174A;}
	.st149{fill:none;stroke:#FFFFFF;stroke-width:3;stroke-miterlimit:10;}
	.st150{fill:none;stroke:#000000;stroke-width:0.1055;stroke-linecap:round;stroke-linejoin:round;}
	.st151{fill:#25358E;}
	.st152{fill:#ED1C2E;}
	.st153{fill:#FFFFFF;stroke:#000000;stroke-width:0.3293;stroke-linecap:round;stroke-linejoin:round;}
	.st154{display:inline;fill-rule:evenodd;clip-rule:evenodd;fill:#00174A;}
	.st155{fill:#0D2240;}
	.st156{display:inline;fill:#8EC641;}
	.st157{fill:#182D56;}
	.st158{fill:#BE323A;}
	.st159{fill:#C62034;}
	.st160{fill:#0B1437;}
	.st161{fill:#EC2135;}
	.st162{fill:#8EC641;}
	.st163{fill-rule:evenodd;clip-rule:evenodd;fill:#332312;}
	.st164{fill:#E4E5E6;}
	.st165{clip-path:url(#XMLID_4225_);}
	.st166{clip-path:url(#XMLID_4226_);fill:url(#XMLID_4227_);}
	.st167{clip-path:url(#XMLID_4228_);}
	.st168{clip-path:url(#XMLID_4229_);fill:url(#XMLID_4230_);}
	.st169{clip-path:url(#XMLID_4231_);}
	.st170{clip-path:url(#XMLID_4232_);fill:url(#XMLID_4233_);}
	.st171{clip-path:url(#XMLID_4234_);}
	.st172{clip-path:url(#XMLID_4235_);fill:url(#XMLID_4236_);}
	.st173{clip-path:url(#XMLID_4237_);}
	.st174{clip-path:url(#XMLID_4238_);fill:url(#XMLID_4239_);}
	.st175{clip-path:url(#XMLID_4240_);}
	.st176{clip-path:url(#XMLID_4241_);fill:url(#XMLID_4242_);}
	.st177{clip-path:url(#XMLID_4243_);}
	.st178{clip-path:url(#XMLID_4244_);fill:url(#XMLID_4245_);}
	.st179{clip-path:url(#XMLID_4246_);}
	.st180{clip-path:url(#XMLID_4247_);fill:url(#XMLID_4248_);}
	.st181{fill:#A4A9AD;}
	.st182{fill:#F05123;}
	.st183{fill:#8E744B;}
	.st184{fill:#EEE0C6;}
	.st185{fill:#8F182B;}
	.st186{fill:#FFC526;}
	.st187{fill:#B0B8BC;}
	.st188{fill:#FCBB30;}
	.st189{fill:#E21D38;}
	.st190{fill:#FFC759;}
	.st191{fill:#E03B3F;}
	.st192{fill:#8E8F92;}
	.st193{fill:#E13B3F;}
	.st194{fill:#FDDF0A;}
	.st195{fill:#E7AA23;}
	.st196{fill:#F37321;}
	.st197{fill:#008056;}
	.st198{fill:#E2293A;}
	.st199{fill:#1F438B;}
	.st200{fill:#005588;}
	.st201{fill:#A7B2B8;}
	.st202{fill:#8C2A43;}
	.st203{fill:#1C2D5B;}
	.st204{fill:#0C724D;}
	.st205{fill:#232020;}
	.st206{fill:#A8ABAD;}
	.st207{fill:#EB2627;}
	.st208{fill:#E56C25;}
	.st209{fill:#203C73;}
	.st210{fill:#B99758;}
	.st211{fill:#C8202F;}
	.st212{fill:#EEE3C6;}
	.st213{fill:#045937;}
	.st214{fill:#C02C38;}
	.st215{fill:#EEB41E;}
	.st216{fill:#F37E2F;}
	.st217{fill:#01549C;}
	.st218{fill:#0862AB;}
	.st219{fill:#E43B40;}
	.st220{fill:#DF1E38;}
	.st221{fill:#CD9C2B;}
	.st222{fill:#F47A3E;}
	.st223{fill:#FBB516;}
	.st224{fill:#E97424;}
	.st225{fill:#056D75;}
	.st226{fill:#142048;}
	.st227{fill:#FFC429;}
	.st228{fill:#114B9D;}
	.st229{fill:#213065;}
	.st230{fill:#1D2859;}
	.st231{fill:#A8AAAD;}
	.st232{fill:#1D427C;}
	.st233{fill:#153055;}
	.st234{fill:#AFB0B3;}
	.st235{fill:#20396F;}
	.st236{fill:#BE3138;}
	.st237{fill:#B4975A;}
	.st238{fill:#344042;}
	.st239{fill:#14244C;}
	.st240{fill:#D0202D;}
	.st241{fill:#A9A9AD;}
	.st242{fill:#1D3261;}
	.st243{fill:#811423;}
	.st244{fill:#6F6E76;}
	.st245{fill:#C62031;}
</style>
<g id="Layer_5" class="st0">
</g>
<g id="Layer_3">
</g>
<g id="Layer_4">
	<g id="XMLID_3147_">
		<path id="XMLID_3205_" class="st13" d="M212.7,106.6c0,8.4-1.2,30.4-12.3,54.4c-13.6,29.4-33.6,46.6-60,60.3
			c-26.7-13.8-46.5-31-60-60.3c-11.1-24-12.3-46-12.3-54.4V76c22.5-11.7,48.1-16.5,72.3-16.5c24.4,0,49.9,4.8,72.2,16.5V106.6z
			 M213.6,74.1c-21-10.9-46.3-16.7-73.2-16.7c-27,0-52.3,5.8-73.3,16.7L66,74.6v31.9c0,8.5,1.3,30.9,12.5,55.3
			c12.6,27.3,30.8,45.7,60.9,61.3l1,0.5l1-0.5c30.1-15.6,48.3-34,60.9-61.3c11.3-24.4,12.5-46.8,12.5-55.3V74.6L213.6,74.1z"/>
		<path id="XMLID_3201_" class="st18" d="M138.5,121.2c-0.3,0-0.6,0-0.9,0.1C137.9,121.2,138.2,121.2,138.5,121.2z M123.8,124.6
			l0.5,0.9L123.8,124.6z M137.1,121.3c-0.4,0.1-0.9,0.2-1.4,0.3C136.3,121.5,136.7,121.4,137.1,121.3L137.1,121.3z"/>
		<path id="XMLID_3190_" class="st61" d="M208.7,106.6c0,8.1-1.2,29.5-11.9,52.8c-12.5,27.1-31.5,44.6-56.5,57.6
			C115.6,204,96.5,186.6,84,159.4C73.2,136.1,72,114.7,72,106.6V78.3c19.8-10.3,45.6-14.9,68.4-14.9c22.6,0,48.6,4.6,68.3,14.9
			V106.6z M68.1,76v30.6c0,8.4,1.2,30.4,12.3,54.4c13.5,29.2,33.4,46.4,60,60.3c26.4-13.7,46.4-30.8,60-60.3
			c11.1-24,12.3-46,12.3-54.4V76c-22.3-11.7-47.9-16.5-72.2-16.5C116.3,59.5,90.6,64.2,68.1,76z M129.5,129.3c-2,1-4.3,1.1-6.3,0.3
			c0,0,0.4-0.7,0.8-1.4c0.8,0.7,1.9,1,2.9,0.7c0.8-0.4,1.4-1.1,1.6-2c1.2-0.3,2.4-0.4,3.7-0.5C131.7,127.7,130.8,128.7,129.5,129.3
			L129.5,129.3z M142.9,122.9c-0.5-0.2-1.1-0.4-1.6-0.6c-1.5-0.6-2.8-1.1-2.8-1.1c-0.3,0-0.6,0-0.9,0.1c-0.2,0-0.4,0.1-0.5,0.1
			c-0.4,0.1-0.9,0.2-1.4,0.3c-4,0.9-7.9,2.2-11.6,3.9l-0.5-0.9l-0.6-1.3l-6.1,8.4c2,0.4,4.1,0.5,6.2,0.5c2.6,0,5.2-0.2,7.8-0.7
			c2-1.7,3.9-3.5,5.6-5.4c0.5-0.5,0.9-1,1.2-1.3c0.4-0.5,0.7-0.8,0.8-0.9C140,123.4,141.1,123.2,142.9,122.9L142.9,122.9z
			 M140.4,211.5c3.5-1.8,6.8-3.8,10-5.8C147.2,207.7,143.9,209.7,140.4,211.5L140.4,211.5z M96.7,141.8c0.4,0.6,0.9,1.4,1.5,2.2
			c0.7,0.8,1.4,1.6,2.2,2.3l2.1,5.9c-1.3,1.4-2.4,2.9-3.5,4.5c-1.7-3-3.1-6.2-4.3-9.5L96.7,141.8z M105.1,144c0.6-0.4,1.3-1,1.8-1.4
			c0,0,2.9-0.4,6-0.6c1.5-0.1,3.1-0.2,4.6-0.1l2,2.4c-1.5,0.1-3,0.5-4.5,1c2.4,0.7,4.6,1.7,6.7,3l-0.2,1.1c-2-0.2-3.9-0.1-5.9,0.1
			c1.8,0.9,3.5,1.9,5.1,3.1c-0.2,0.4-0.3,0.8-0.5,1.2c-1.7-0.3-3.5-0.5-5.2-0.5c1.4,0.9,2.8,2,4.1,3.1c-0.5,1-0.9,1.5-0.9,1.5
			c-5.9-1.8-13.1-5.1-15-5.9l-0.1-5.8C103.8,145.4,104.4,144.7,105.1,144L105.1,144z M106.6,166.8c-2.2-1.8-3.9-4.3-4.8-7
			c0-1.7,0.6-3.3,1.5-4.7c6.5,4.6,16.7,8.8,16.7,8.8C115.4,164.2,110.9,165.2,106.6,166.8L106.6,166.8z M77,111.6
			c1.2,23,10.7,64.7,50.1,91.9c5.2-2.8,8.8-7.5,10.9-11.3c4.1,5,4.6,12,4.6,12c4.4-20.8-15-36.8-15-36.8s14,6.8,23.7,18
			c0.1-1.6,0-3.3-0.3-4.9c-0.4-2.1-1-4.1-1.8-6c0,0,10.1,8.2,15.6,20.4c0.1-0.1,0.3-0.2,0.4-0.3c13.9-14.4,14.3-35.9,14.3-35.9
			c-3-12.5-8.4-16.9-8.4-16.9c1.1,5.7,1.7,12.1,1.7,12.1c-2.3,4.7-5.5,9-9.4,12.4c-5.4,0.6-9.8,0.1-17.4-2.5
			c-4-1.4-7.9-3.3-11.4-5.7c-1.8-0.1-3.6,0-5.3,0.2c-2.5,0.3-5.4,0.9-5.4,0.9c3.3-5.7,5.2-11.6,5.5-14.2c-2.1-2.3-4.5-4.4-7-6.3
			c-5.4,0.3-9.7,0.6-9.7,0.6l1.8-7.3c0,0-1.2,1-2.6,2.4c-1.5,1.5-3.1,3.3-3.1,3.3c-2.5,0.9-5.1,1.6-7.7,2c-1.6-0.5-3.2-1.2-4.6-2.1
			c5.5-8.1,14.3-11.3,14.3-11.3c-1.6-1.9-1.5-3.4-1.5-3.4c2.3-1.5,4.3-2.7,6.2-3.7c-0.3,0.6-0.4,1.3-0.6,2c1.6-1.3,3.3-2.5,5-3.6
			c2.1-1.3,4.2-2.4,4.2-2.4c1.4-4.4,3.7-8,4.3-8.5c0.6-0.1,1.2-0.2,1.9-0.2c0.2,1.5,1.8,3.8,2.5,4.6c-2.3,0.8-4.4,2-6.4,3.4
			c0,0,7.5-2,14.2-2.2c9-0.3,14.6,1.7,14.6,1.7c-1,1.4-2.1,2.7-3.2,4c14.9-5.1,16.5-9,24.6-10.7c1.9,0.3,3.8,0.8,5.6,1.4
			c1.1,1.2,1.9,2.6,2.4,4.1c-1.1,8.6-4.6,18.3-4.6,18.3c-2.7,3.3-7.4,6.3-7.4,6.3c4.7-0.6,11.7-2.7,11.7-2.7c4.3,3.1,10,10,12.4,13
			c4.2-11.6,6.6-23.7,7.3-36c-2-1-26.5-13-63.4-13C103.4,98.6,78.9,110.6,77,111.6z M169.8,135.7c3.2-1.8,7.6-5.9,7.6-5.9
			c2.3-6.8,4.3-16,4.3-16c0-0.9-1.1-2.4-1.1-2.4c-1.2-0.4-2.4-0.8-3.7-1c-3.7,0.6-8.6,4.3-12.5,7.3c1.9-0.1,3.7-0.3,5.5-0.7
			c-0.7,1.8-3.2,6.5-3.2,6.5c1.6,0,3.2-0.2,4.7-0.6c-1,2.8-2.2,5.6-3.5,8.3L169.8,135.7z"/>
		<path id="XMLID_3189_" class="st210" d="M136.7,126c-1.8,1.9-3.6,3.7-5.6,5.4c-2.6,0.5-5.2,0.7-7.8,0.7c2.6,0,5.2-0.2,7.8-0.7
			C133,129.8,134.9,127.9,136.7,126z"/>
		<path id="XMLID_3182_" class="st210" d="M203.9,81.2v25.3c-19.1-8.7-42.7-12.6-63.5-12.6c-21,0-44.5,3.9-63.6,12.6V81.2
			c0,0,25.1-13,63.6-13C178.9,68.2,203.9,81.2,203.9,81.2z M146.4,130.1c0.3-1.3,0.1-5.1,0.1-5.1s2.2,0.8,5.6,3.5
			c0,0-0.5,2.5-1.1,5.1l-11.9,5.4C141.7,136.1,144.1,133.2,146.4,130.1L146.4,130.1z M138.6,123.8c0,0.5,0,1.1,0,1.6
			c-1.6,2.6-4.4,5.7-6.2,7.5c-3.6,0.8-7.2,1-10.8,0.8l-4.5-2.1l6.1-8.4c0,0,8.4-3.3,15.4-2.1c0,0,1.3,0.5,2.8,1.1
			c0.5,0.2,1.1,0.4,1.6,0.6C141.1,123.2,140,123.4,138.6,123.8c-0.1,0.1-0.4,0.4-0.8,0.9C138.2,124.3,138.5,123.9,138.6,123.8
			L138.6,123.8z M166.8,123.6c0,0,2.5-4.7,3.2-6.5c-1.8,0.3-3.7,0.6-5.5,0.7c3.9-3.1,8.8-6.7,12.5-7.3c1.3,0.2,2.5,0.5,3.7,1
			c0,0,1.1,1.5,1.1,2.4c0,0-2,9.2-4.3,16c0,0-4.4,4.1-7.6,5.9l-1.8-4.4c1.4-2.7,2.5-5.4,3.5-8.3C170,123.4,168.4,123.6,166.8,123.6
			L166.8,123.6z M196.5,147.6c-2.4-3-8-9.9-12.4-13c0,0-6.9,2.1-11.7,2.7c0,0,4.7-3,7.4-6.3c0,0,3.5-9.7,4.6-18.4
			c-0.4-1.5-1.2-2.9-2.4-4.1c-1.8-0.6-3.7-1.1-5.6-1.4c-8.1,1.7-9.7,5.6-24.6,10.7c1.1-1.3,2.2-2.6,3.2-4c0,0-5.6-2.1-14.6-1.8
			c-6.7,0.3-14.2,2.3-14.2,2.3c2-1.4,4.1-2.5,6.4-3.4c-0.7-0.9-2.3-3.2-2.5-4.6c-0.6,0-1.2,0-1.9,0.2c-0.6,0.5-3,4.1-4.3,8.5
			c0,0-2.1,1.1-4.2,2.4c-1.7,1.1-3.4,2.3-5,3.6c0.1-0.7,0.3-1.4,0.5-2c-1.8,1-3.9,2.2-6.1,3.7c0,0-0.1,1.5,1.5,3.4
			c0,0-8.9,3.2-14.3,11.3c1.4,0.9,3,1.6,4.6,2.1c2.6-0.4,5.2-1.1,7.7-2c0,0,1.7-1.9,3.1-3.3c1.4-1.4,2.6-2.5,2.6-2.5l-1.8,7.4
			c0,0,4.3-0.3,9.7-0.6c2.6,1.9,4.9,4,7.1,6.3c-0.4,2.6-2.3,8.5-5.5,14.2c0,0,2.9-0.7,5.4-0.9c1.8-0.2,3.6-0.2,5.3-0.2
			c3.6,2.4,7.4,4.3,11.4,5.7c7.6,2.5,11.9,3.1,17.4,2.5c4-3.5,7.2-7.7,9.4-12.5c0,0-0.7-6.3-1.7-12c0,0,5.3,4.4,8.4,16.9
			c0,0-0.4,21.5-14.3,35.9c-0.1,0.1-0.3,0.2-0.4,0.3c-4.5,4-9.3,7.6-14.3,10.9c-3.2,2-6.5,4-10,5.8c0,0,1.8-3.8,2.1-7.2
			c0,0-0.5-7-4.6-12c-2.1,3.7-5.6,8.5-10.9,11.3c-39.4-27.2-49-68.8-50.1-91.9c2-1,26.5-13,63.4-13s61.4,12,63.4,13
			C203.1,123.9,200.7,136,196.5,147.6L196.5,147.6z M72,78.3v28.3c0,8.1,1.2,29.5,11.9,52.8c12.5,27.2,31.6,44.6,56.5,57.6
			c25-13,43.9-30.4,56.5-57.6c10.7-23.3,11.9-44.7,11.9-52.8V78.3C189,68,163,63.4,140.4,63.4C117.7,63.4,91.8,68,72,78.3z"/>
		<path id="XMLID_3168_" class="st211" d="M125.9,76.8c-1.3,0.1-2.5,0.3-3.7,0.4V87c1.2-0.2,2.4-0.3,3.7-0.4V76.8z M191.5,84.5
			c-1.2-0.4-2.4-0.8-3.6-1.2v3.3c1.2,0.4,2.4,0.8,3.6,1.2V84.5z M86,82.2c2.8-1,5.7-1.9,8.6-2.8v3.3c-1.8,0.5-3.5,1.1-5.3,1.7v3.3
			c1.3-0.5,2.5-0.9,3.8-1.2v3.3c-1.3,0.4-2.5,0.8-3.8,1.2v6.6c-1.1,0.4-2.2,0.7-3.3,1.1V82.2z M102.3,77.4c1.1-0.3,2.2-0.5,3.3-0.8
			v13.1c1.8-0.4,3.6-0.8,5.4-1.1V92c-2.9,0.5-5.8,1.2-8.7,1.9V77.4z M118.8,77.1c0.5-1,1.1-2,1.6-3c2.4-0.3,4.8-0.6,7.3-0.8
			c0.5,0.9,1,1.8,1.6,2.7v10.8c-0.6,1-1.1,2-1.6,3c-2.5,0.2-4.9,0.4-7.3,0.8c-0.5-0.9-1.1-1.8-1.6-2.7V77.1z M137.1,72.8
			c3-0.1,5.9-0.1,8.9,0.1c0.6,1,1.1,1.9,1.6,2.9V80c-0.5,1-1,1.9-1.6,2.8c-0.4,0-0.7-0.1-1.1-0.1c0.9,2.2,1.8,4.4,2.7,6.7
			c-1.2-0.1-2.4-0.1-3.6-0.2c-0.9-2.2-1.8-4.4-2.7-6.6h-0.8v6.6h-3.4V72.8z M155.4,73.5c1.2,0.1,2.3,0.2,3.4,0.4v16.5
			c-1.1-0.2-2.2-0.3-3.4-0.4V73.5z M166.7,74.9c2.9,0.5,5.8,1.1,8.8,1.7c0.5,1.1,1.1,2.1,1.6,3.2v10.8c-0.5,0.8-1.1,1.7-1.6,2.5
			c-2.9-0.7-5.8-1.3-8.8-1.7V74.9z M184.7,81.8c0.5-0.8,1-1.6,1.5-2.4c2.4,0.7,4.7,1.5,7,2.3c0.5,1.1,1,2.3,1.5,3.4v13.6
			c-1.1-0.4-2.2-0.8-3.2-1.1V91c-1.2-0.4-2.4-0.8-3.6-1.2v6.6c-1.1-0.4-2.2-0.7-3.3-1V81.8z M76.8,106.5
			c19.1-8.7,42.6-12.6,63.6-12.6c20.9,0,44.5,3.9,63.5,12.6V81.2c0,0-25-13-63.5-13c-38.5,0-63.6,13-63.6,13V106.5z M170,88.7
			l3.6,0.8v-9.9c-1.2-0.3-2.4-0.5-3.6-0.7L170,88.7z M144.2,76.2c-1.2-0.1-2.5-0.1-3.7-0.1v3.3c1.2,0,2.5,0,3.7,0.1V76.2z
			 M126.9,128.9c-1,0.3-2.1,0.1-2.9-0.7c-0.4,0.7-0.8,1.4-0.8,1.4c2.1,0.8,4.4,0.7,6.3-0.3c1.2-0.6,2.2-1.6,2.6-2.9
			c-1.2,0.1-2.5,0.3-3.7,0.5C128.3,127.8,127.7,128.5,126.9,128.9z"/>
		<path id="XMLID_3152_" class="st13" d="M118.3,157.9c0,0,0.4-0.6,0.8-1.5c-1.2-1.2-2.6-2.2-4-3.1c1.8,0,3.5,0.1,5.2,0.5
			c0.2-0.4,0.3-0.8,0.5-1.2c-1.6-1.2-3.3-2.2-5.1-3.1c2-0.3,3.9-0.3,5.9-0.1l0.2-1.1c-2.1-1.3-4.3-2.3-6.7-3c1.5-0.5,3-0.8,4.5-1
			l-2-2.4c-1.5-0.1-3.1,0-4.6,0.1c-3.1,0.2-6,0.6-6,0.6c-0.5,0.4-1.2,1-1.8,1.4c-0.7,0.6-1.3,1.3-1.9,2.1l0.1,5.8
			C105.2,152.8,112.4,156.1,118.3,157.9z M131,131.4c-2.6,0.5-5.2,0.7-7.8,0.7c-2.1,0-4.1-0.1-6.2-0.5l4.5,2.1
			c3.6,0.2,7.3,0,10.8-0.9c2.4-2.2,4.5-4.7,6.2-7.4c0-0.5,0-1.1,0-1.6c-0.1,0.1-0.4,0.4-0.8,0.9c-0.3,0.4-0.7,0.8-1.2,1.3
			C134.9,127.9,133.1,129.8,131,131.4L131,131.4z M101.8,159.8c0.9,2.8,2.6,5.2,4.8,7c4.3-1.6,8.8-2.6,13.3-3c0,0-10.1-4.1-16.7-8.8
			C102.3,156.4,101.8,158.1,101.8,159.8z M98.9,156.7c1-1.6,2.1-3.1,3.4-4.5l-2.1-5.9c-0.8-0.7-1.5-1.4-2.1-2.3
			c-0.6-0.8-1.1-1.6-1.5-2.2l-2.1,5.4C95.8,150.4,97.2,153.6,98.9,156.7z M173.7,89.4l-3.6-0.8v-9.8c1.2,0.2,2.4,0.5,3.6,0.7V89.4z
			 M177,90.6V79.8c-0.5-1.1-1.1-2.1-1.6-3.2c-2.9-0.7-5.8-1.2-8.8-1.7v16.5c2.9,0.5,5.8,1.1,8.8,1.7C175.9,92.3,176.5,91.4,177,90.6
			L177,90.6z M158.8,73.8c-1.1-0.2-2.2-0.3-3.4-0.4V90c1.2,0.1,2.3,0.2,3.4,0.4V73.8z M122.2,77.2c1.2-0.2,2.4-0.3,3.7-0.4v9.9
			c-1.3,0.1-2.5,0.2-3.7,0.4V77.2z M127.7,89.8c0.5-1,1-2,1.6-3V76c-0.6-0.9-1.1-1.8-1.6-2.7c-2.5,0.2-4.9,0.5-7.3,0.8
			c-0.5,1-1.1,2-1.6,3v10.8c0.5,0.9,1.1,1.8,1.6,2.6C122.8,90.2,125.2,89.9,127.7,89.8L127.7,89.8z M188,83.3
			c1.2,0.4,2.4,0.8,3.6,1.2v3.3c-1.2-0.4-2.4-0.8-3.6-1.2V83.3z M188,89.9c1.2,0.4,2.4,0.8,3.6,1.2v6.6c1.1,0.4,2.2,0.7,3.2,1.1
			V85.1c-0.5-1.1-1-2.3-1.5-3.4c-2.3-0.8-4.7-1.6-7-2.3c-0.5,0.8-1,1.6-1.5,2.4v13.7c1.1,0.3,2.2,0.6,3.3,1V89.9z M89.3,91
			c1.3-0.4,2.5-0.9,3.8-1.2v-3.3c-1.3,0.4-2.5,0.8-3.8,1.2v-3.3c1.8-0.6,3.5-1.2,5.3-1.7v-3.3c-2.9,0.9-5.7,1.8-8.6,2.8v16.5
			c1.1-0.4,2.2-0.8,3.3-1.1V91z M140.5,76.1c1.2,0,2.5,0,3.7,0.1v3.3c-1.2-0.1-2.5-0.1-3.7-0.1V76.1z M140.5,82.7h0.8
			c0.9,2.2,1.8,4.4,2.7,6.6c1.2,0.1,2.4,0.1,3.6,0.2c-0.9-2.3-1.8-4.5-2.7-6.7c0.4,0,0.7,0,1.1,0.1c0.6-1,1.1-1.9,1.6-2.8v-4.2
			c-0.5-1-1-2-1.6-2.9c-3-0.1-5.9-0.2-8.9-0.1v16.5h3.4V82.7z M111,88.6c-1.8,0.4-3.6,0.7-5.4,1.1V76.6l-3.3,0.8v16.5
			c2.9-0.7,5.8-1.4,8.7-1.9V88.6z"/>
		<path id="XMLID_3151_" class="st61" d="M152.1,128.4c-3.4-2.7-5.6-3.5-5.6-3.5s0.2,3.9-0.1,5.1c-2.3,3.1-4.7,6-7.3,8.9l11.9-5.4
			C151.7,130.9,152.1,128.4,152.1,128.4z"/>
		<path id="XMLID_3148_" class="st13" d="M124.2,125.5c3.7-1.7,7.6-3,11.6-3.9c0.5-0.1,1-0.2,1.4-0.3c0.2,0,0.4-0.1,0.5-0.1
			c0.3-0.1,0.6-0.1,0.9-0.1c-7-1.2-15.4,2.1-15.4,2.1l0.6,1.3L124.2,125.5z M149.2,174.4c0.8,2,1.4,4,1.8,6c0.3,1.6,0.4,3.3,0.3,4.9
			c-9.7-11.1-23.7-18-23.7-18s19.5,16,15,36.8c-0.3,3.4-2.1,7.2-2.1,7.2c3.5-1.8,6.8-3.8,10-5.8c5.1-3.2,9.9-6.9,14.3-10.9
			C159.3,182.6,149.2,174.4,149.2,174.4L149.2,174.4z"/>
	</g>
</g>
<g id="Watermark">
</g>
</svg>
