<?xml version="1.0" encoding="utf-8"?>
<!-- Generator: Adobe Illustrator 19.2.1, SVG Export Plug-In . SVG Version: 6.00 Build 0)  -->
<svg version="1.1" xmlns="http://www.w3.org/2000/svg" xmlns:xlink="http://www.w3.org/1999/xlink" x="0px" y="0px"
	 viewBox="0 0 288 288" style="enable-background:new 0 0 288 288;" xml:space="preserve">
<style type="text/css">
	.st0{display:none;}
	.st1{display:inline;}
	.st2{fill:#EF3E42;}
	.st3{fill:#004B8D;}
	.st4{fill:#D7CA9E;}
	.st5{fill:#A03123;}
	.st6{fill-rule:evenodd;clip-rule:evenodd;fill:#FFFFFF;}
	.st7{fill-rule:evenodd;clip-rule:evenodd;fill:#1E3B6E;}
	.st8{fill-rule:evenodd;clip-rule:evenodd;fill:#BE2132;}
	.st9{fill-rule:evenodd;clip-rule:evenodd;fill:#E19D26;}
	.st10{fill:#DC4329;}
	.st11{fill:#DC4A26;}
	.st12{fill:#231F20;}
	.st13{fill:#FFFFFF;}
	.st14{fill:#050404;}
	.st15{fill:#263C82;}
	.st16{fill:#CC3533;}
	.st17{fill:#E82F4D;}
	.st18{fill:#010101;}
	.st19{fill:#C1C8CF;}
	.st20{fill:#365A8B;}
	.st21{fill:#29417C;}
	.st22{fill:#F47920;}
	.st23{fill:#FAA61A;}
	.st24{fill:#CCCCCC;}
	.st25{fill:#002B54;}
	.st26{fill:#ED1C24;}
	.st27{opacity:0.3;fill:#002B54;}
	.st28{fill:#020303;}
	.st29{fill:#1B9ED8;}
	.st30{fill:#189DD8;}
	.st31{fill:#43748F;}
	.st32{fill:#EB3947;}
	.st33{fill:#EB3A47;}
	.st34{fill:#44758F;}
	.st35{fill:#1F9ED8;}
	.st36{fill:#FCFDFD;}
	.st37{fill:#020202;}
	.st38{fill:#E83543;}
	.st39{fill-rule:evenodd;clip-rule:evenodd;fill:#C1A677;}
	.st40{fill-rule:evenodd;clip-rule:evenodd;fill:#212F55;}
	.st41{fill-rule:evenodd;clip-rule:evenodd;fill:#AB285C;}
	.st42{fill-rule:evenodd;clip-rule:evenodd;fill:#014A67;}
	.st43{fill:#F47A39;}
	.st44{fill-rule:evenodd;clip-rule:evenodd;fill:#242052;}
	.st45{fill:#123B35;}
	.st46{display:inline;fill:#DB2732;}
	.st47{display:inline;fill:#1D3665;}
	.st48{fill-rule:evenodd;clip-rule:evenodd;}
	.st49{fill:#F58220;}
	.st50{fill:#1A3562;}
	.st51{fill:#036B66;}
	.st52{fill:#C4CDD3;}
	.st53{fill:#EB1F4E;}
	.st54{display:inline;fill:#C4203B;}
	.st55{display:inline;fill:#164883;}
	.st56{display:inline;fill:#90BCE5;}
	.st57{display:inline;fill:#1B2F5B;}
	.st58{fill:#144983;}
	.st59{fill:#CD1F43;}
	.st60{fill:#1A459D;}
	.st61{fill:#0A2042;}
	.st62{fill:#D92E27;}
	.st63{display:inline;fill:#CF1F45;}
	.st64{fill-rule:evenodd;clip-rule:evenodd;fill:#D7CA9E;}
	.st65{fill:#1E3B6E;}
	.st66{fill:#39B54A;}
	.st67{fill:#E19D26;}
	.st68{fill:#BE2132;}
	.st69{fill:#EF5426;}
	.st70{display:inline;fill:#FFFFFF;}
	.st71{display:inline;fill:#E31837;}
	.st72{display:inline;fill:#E21D37;}
	.st73{display:inline;fill:#005596;}
	.st74{display:inline;fill:#CC3533;}
	.st75{display:inline;fill:#E82F4D;}
	.st76{display:inline;fill:#010101;}
	.st77{display:inline;fill:#2A398B;}
	.st78{fill:#999999;}
	.st79{display:inline;fill:#999999;}
	.st80{display:inline;fill:#041E41;}
	.st81{display:inline;fill:#D4451D;}
	.st82{display:inline;fill:#EA7200;}
	.st83{display:inline;fill:#BDBBBB;}
	.st84{fill:#041E41;}
	.st85{fill:none;stroke:#000000;stroke-width:0.34;}
	.st86{fill:#D4451D;}
	.st87{fill:#EA7200;}
	.st88{fill:#BDBBBB;}
	.st89{fill:none;stroke:#EA7200;stroke-width:0;stroke-linecap:round;stroke-linejoin:round;}
	.st90{fill:#9C9FA1;}
	.st91{fill-rule:evenodd;clip-rule:evenodd;fill:#333290;}
	.st92{fill:#005B9B;}
	.st93{fill:#EF4043;}
	.st94{fill-rule:evenodd;clip-rule:evenodd;fill:#09A2DD;}
	.st95{fill-rule:evenodd;clip-rule:evenodd;fill:#43758E;}
	.st96{fill-rule:evenodd;clip-rule:evenodd;fill:#FCEE1E;}
	.st97{fill-rule:evenodd;clip-rule:evenodd;fill:#EE3441;}
	.st98{fill:#B89760;}
	.st99{fill:#D52D47;}
	.st100{fill-rule:evenodd;clip-rule:evenodd;fill:#0B2242;}
	.st101{fill:#F37938;}
	.st102{fill:#164883;}
	.st103{fill:#8E6D2A;}
	.st104{fill-rule:evenodd;clip-rule:evenodd;fill:#1A314F;}
	.st105{fill-rule:evenodd;clip-rule:evenodd;fill:#8F3326;}
	.st106{fill-rule:evenodd;clip-rule:evenodd;fill:#B68E64;}
	.st107{fill:#03493B;}
	.st108{fill:#FCC158;}
	.st109{fill:#BB544F;}
	.st110{fill:#D0B04A;}
	.st111{fill-rule:evenodd;clip-rule:evenodd;fill:#B6A269;}
	.st112{fill-rule:evenodd;clip-rule:evenodd;fill:#001F5B;}
	.st113{fill:#1D3665;}
	.st114{fill:#FFFFFF;stroke:#FFFFFF;stroke-width:0.16;}
	.st115{fill:#004666;}
	.st116{fill:none;stroke:#037062;stroke-width:2.8199;}
	.st117{fill:#BCCBD2;}
	.st118{fill:#037062;}
	.st119{fill:#E63248;}
	.st120{fill:none;stroke:#E63248;stroke-width:0.2826;}
	.st121{fill:none;stroke:#037062;stroke-width:1.0988;}
	.st122{fill:none;stroke:#BCCBD2;stroke-width:4.9365;}
	.st123{fill:#FCEE21;}
	.st124{fill:#FCEE23;}
	.st125{fill:#C4203B;}
	.st126{fill:#193661;}
	.st127{fill:#164884;}
	.st128{fill:#CF1F44;}
	.st129{fill:#0A2042;stroke:#010101;stroke-width:0.2131;}
	.st130{fill:#CF1F45;}
	.st131{fill:#1E3160;}
	.st132{fill:#BA202E;}
	.st133{fill:#212759;}
	.st134{fill:#BA1F31;}
	.st135{fill:#7BBCE8;}
	.st136{fill:#FED208;}
	.st137{fill:#6DB3E3;}
	.st138{fill:#FFCE04;}
	.st139{fill:#1B2F5B;}
	.st140{fill:#90BCE5;}
	.st141{fill:#D8782C;}
	.st142{fill:#C49C6F;}
	.st143{fill:#F04B23;}
	.st144{display:inline;fill-rule:evenodd;clip-rule:evenodd;fill:#F58220;}
	.st145{fill:#094F91;}
	.st146{fill:#DB2732;}
	.st147{fill:none;}
	.st148{fill:#00174A;}
	.st149{fill:none;stroke:#FFFFFF;stroke-width:3;stroke-miterlimit:10;}
	.st150{fill:none;stroke:#000000;stroke-width:0.1055;stroke-linecap:round;stroke-linejoin:round;}
	.st151{fill:#25358E;}
	.st152{fill:#ED1C2E;}
	.st153{fill:#FFFFFF;stroke:#000000;stroke-width:0.3293;stroke-linecap:round;stroke-linejoin:round;}
	.st154{display:inline;fill-rule:evenodd;clip-rule:evenodd;fill:#00174A;}
	.st155{fill:#0D2240;}
	.st156{display:inline;fill:#8EC641;}
	.st157{fill:#182D56;}
	.st158{fill:#BE323A;}
	.st159{fill:#C62034;}
	.st160{fill:#0B1437;}
	.st161{fill:#EC2135;}
	.st162{fill:#8EC641;}
	.st163{fill-rule:evenodd;clip-rule:evenodd;fill:#332312;}
	.st164{fill:#E4E5E6;}
	.st165{clip-path:url(#XMLID_4225_);}
	.st166{clip-path:url(#XMLID_4226_);fill:url(#XMLID_4227_);}
	.st167{clip-path:url(#XMLID_4228_);}
	.st168{clip-path:url(#XMLID_4229_);fill:url(#XMLID_4230_);}
	.st169{clip-path:url(#XMLID_4231_);}
	.st170{clip-path:url(#XMLID_4232_);fill:url(#XMLID_4233_);}
	.st171{clip-path:url(#XMLID_4234_);}
	.st172{clip-path:url(#XMLID_4235_);fill:url(#XMLID_4236_);}
	.st173{clip-path:url(#XMLID_4237_);}
	.st174{clip-path:url(#XMLID_4238_);fill:url(#XMLID_4239_);}
	.st175{clip-path:url(#XMLID_4240_);}
	.st176{clip-path:url(#XMLID_4241_);fill:url(#XMLID_4242_);}
	.st177{clip-path:url(#XMLID_4243_);}
	.st178{clip-path:url(#XMLID_4244_);fill:url(#XMLID_4245_);}
	.st179{clip-path:url(#XMLID_4246_);}
	.st180{clip-path:url(#XMLID_4247_);fill:url(#XMLID_4248_);}
	.st181{fill:#A4A9AD;}
	.st182{fill:#F05123;}
	.st183{fill:#8E744B;}
	.st184{fill:#EEE0C6;}
	.st185{fill:#8F182B;}
	.st186{fill:#FFC526;}
	.st187{fill:#B0B8BC;}
	.st188{fill:#FCBB30;}
	.st189{fill:#E21D38;}
	.st190{fill:#FFC759;}
	.st191{fill:#E03B3F;}
	.st192{fill:#8E8F92;}
	.st193{fill:#E13B3F;}
	.st194{fill:#FDDF0A;}
	.st195{fill:#E7AA23;}
	.st196{fill:#F37321;}
	.st197{fill:#008056;}
	.st198{fill:#E2293A;}
	.st199{fill:#1F438B;}
	.st200{fill:#005588;}
	.st201{fill:#A7B2B8;}
	.st202{fill:#8C2A43;}
	.st203{fill:#1C2D5B;}
	.st204{fill:#0C724D;}
	.st205{fill:#232020;}
	.st206{fill:#A8ABAD;}
	.st207{fill:#EB2627;}
	.st208{fill:#E56C25;}
	.st209{fill:#203C73;}
	.st210{fill:#B99758;}
	.st211{fill:#C8202F;}
	.st212{fill:#EEE3C6;}
	.st213{fill:#045937;}
	.st214{fill:#C02C38;}
	.st215{fill:#EEB41E;}
	.st216{fill:#F37E2F;}
	.st217{fill:#01549C;}
	.st218{fill:#0862AB;}
	.st219{fill:#E43B40;}
	.st220{fill:#DF1E38;}
	.st221{fill:#CD9C2B;}
	.st222{fill:#F47A3E;}
	.st223{fill:#FBB516;}
	.st224{fill:#E97424;}
	.st225{fill:#056D75;}
	.st226{fill:#142048;}
	.st227{fill:#FFC429;}
	.st228{fill:#114B9D;}
	.st229{fill:#213065;}
	.st230{fill:#1D2859;}
	.st231{fill:#A8AAAD;}
	.st232{fill:#1D427C;}
	.st233{fill:#153055;}
	.st234{fill:#AFB0B3;}
	.st235{fill:#20396F;}
	.st236{fill:#BE3138;}
	.st237{fill:#B4975A;}
	.st238{fill:#344042;}
	.st239{fill:#14244C;}
	.st240{fill:#D0202D;}
	.st241{fill:#A9A9AD;}
	.st242{fill:#1D3261;}
	.st243{fill:#811423;}
	.st244{fill:#6F6E76;}
	.st245{fill:#C62031;}
</style>
<g id="Layer_5" class="st0">
</g>
<g id="Layer_3">
</g>
<g id="Layer_4">
	<g id="XMLID_2647_">
		<path id="XMLID_2680_" class="st231" d="M139.8,160.6l36.4-18.1c24.9,7,32.3,16.4,32.3,16.4l14.3-16.1c0.8-0.8,3.1-3.7,3.1-9
			c0-5.7-6-10.2-10.2-13.2c-7.1-18.6-46.4-24-49.3-30.5c-1-2.2-6.7-21.6-6.7-21.6c-3.4-10-13.5-10-17.3-10c-3.8,0-12,1.3-12,1.3
			c0,14-1.9,31-3.9,34.1c0,0-7.1,3.7-15.4,6.7L91.3,87.2l5.2,18c-33.5,18.4-41.7,50.5-41.7,50.5s8.6,67.6,93.4,67.6
			c44.8,0,70.7-21.7,70.7-21.7l-14.4-32.3c0,0-22,11.5-50.2,11.5c-26,0-36.1-12.1-39.9-19.2C136.3,162.4,139.8,160.6,139.8,160.6z"
			/>
		<polygon id="XMLID_2679_" class="st231" points="89.3,140.1 111.3,125.3 109.7,137.1 		"/>
		<polygon id="XMLID_2678_" class="st231" points="116.4,123.3 112.3,113.4 128.2,104.5 		"/>
		<polygon id="XMLID_2677_" class="st231" points="122,122.2 131.4,130 112.4,127.5 		"/>
		<path id="XMLID_2676_" class="st232" d="M212.7,123.1c-6.9-18.7-45.1-22.1-49.4-30.9c-1.7-3.6-3.9-12-7-22.3
			c-2.5-7.5-10-7.5-13.7-7.5c-3.6,0-8.2,0.8-8.2,0.8c0,7.6-1.4,29.7-5,33.6c-0.9,1.1-7.4,3.7-14.5,6.5l2.1,1.4l-2.2,2.2
			c7.1-3.7,12.9-5,16.5-7.9c5.1-5.3,69.3,31.6,65.7,31.6c-1.6,0-7.5,2.3-12.5,4.2c16.5,5.4,24.9,11.2,26,12l-2.4,2.7
			c0,0-9.8-7.9-32.6-14c-9.8,4.9-38.6,0.5-38.6,0.5c-15.9,3.3-31,18.3-31.8,19.1c2.2,10.6,12.5,32.5,49.1,32.5
			c26.5,0,46.9-9.2,46.9-9.2l9.5,21.2c0,0-24.8,17.2-62.4,17.2c-76.8,0-86.6-60.4-86.6-60.4c10.6-28.3,28.4-40.8,39.8-46l-3.6-0.4
			l-0.3-1.1c-29.9,16.6-38.8,47.2-38.8,47.2s9.1,63.6,89.5,63.6c41.1,0,66-19.1,66-19.1l-11.6-26c0,0-21.7,10.2-48.4,10.2
			c-39.7,0-45.5-27.1-45.5-27.1s22.6,1.4,29.8-0.6l37.3-18.7c25.3,7.1,32.6,14.9,32.6,14.9l11.6-13c0,0,2.1-2,2.1-6.5
			C222.3,129.7,216,125.5,212.7,123.1"/>
		<path id="XMLID_2675_" class="st233" d="M203.3,124.4c-15.8-1.3-22-6.5-22-10.6c0-2,1.8-2.3,3-2.3c6.5,0,16.5,5.1,18.1,9.5
			c-2.8-3-7.8-5.7-11.6-5.7c-0.8,0-1.6,0.2-1.6,1.2c0,2.6,4.6,6.6,21.2,8.4c-6.4-18.3-41.4-19.6-49.3-31.1
			c-2.2-3.2-5.8-23.7-9.5-26.5c-4-3.1-14.3-1.7-14.3-1.7c0,2.8-0.7,28-5.9,33.2c-3.5,2.9-9.4,4.2-16.5,7.9l-4.1,4.1l-4.5,14l-5.8-3
			l2.1,5.2l-10.4,1.7l5.9,2l-17,13l4.6,0.3l-6,10.9c8.7-3.9,11.4-4.7,11.4-4.7l-2.5-2.6l17.6-7.1c0,0-1.3,3.5-1.3,10.3
			c0,1,0.1,2.4,0.5,4.1c0.8-1.4,14.6-26.9,44.2-28.6l-37,28.6c0,0,20.3,0.9,25.2-0.5c15.6-7.3,28.2-14.1,38-19
			c9.4-4.7,16.4-7.7,21.2-7.7c5.9,0,14.2,5.7,21.2,10.6c0,0,0.4-0.4,0.8-1.1C220.6,131.1,211.8,126.4,203.3,124.4"/>
		<path id="XMLID_2674_" class="st13" d="M105.2,155.1L105.2,155.1c0.8-0.7,15.9-15.8,31.8-19.1l12.4-9.6
			C119.8,128.2,106,153.7,105.2,155.1"/>
		<path id="XMLID_2673_" class="st13" d="M219.5,134.6c0-3.8-5-6.3-9.2-9.7c-16.6-1.8-21.2-5.9-21.2-8.4c0-1,0.9-1.2,1.6-1.2
			c3.8,0,8.8,2.7,11.6,5.7c-1.6-4.3-11.6-9.5-18.1-9.5c-1.2,0-3,0.4-3,2.3c0,4.1,6.2,9.3,22,10.6c8.5,2,17.3,6.7,15.6,12.9
			C219.2,136.7,219.5,135.8,219.5,134.6"/>
		<path id="XMLID_2672_" class="st13" d="M188.3,134.6l6.2,2.2c1.1-0.5,2.4-1.1,2.5-1.2c0.1-0.2,0.1-0.3-0.2-0.5
			c-0.2-0.2-2.9-1.2-4.7-1.8L188.3,134.6z"/>
		<path id="XMLID_2671_" class="st13" d="M193.5,132.6c1.6,0.7,3.9,1.6,4.1,1.6c0.3,0,0.7,0.1,1,0c0.2-0.1,1.5-0.8,2.5-1.2
			c-1-0.5-2.9-1.4-4.2-1.4C195.7,131.6,193.5,132.6,193.5,132.6"/>
		<path id="XMLID_2670_" class="st13" d="M199.6,134.8c-0.1,0.1,0,0.2,0.2,0.4c0.2,0.2,3.5,1.8,3.7,1.8c0.2,0,0.5,0,0.7,0
			c0.2,0,1.3-0.8,2.1-1.3l-4.3-2.3C200.9,134,199.7,134.6,199.6,134.8"/>
		<path id="XMLID_2669_" class="st13" d="M202.7,138.2c0.1-0.2,0.1-0.3,0.1-0.4c-0.2-0.2-3.4-1.9-3.7-1.9c-0.4,0-0.6,0-0.9,0.1
			c-0.3,0.1-1.9,1-2.5,1.3l5,2.3C201.6,138.9,202.6,138.3,202.7,138.2"/>
		<path id="XMLID_2668_" class="st13" d="M208.8,139.9c0.1,0,0.4-0.1,0.8-0.2c0.2-0.1,0.9-0.7,1.4-1.1l-3.8-2.4
			c-0.9,0.6-1.9,1.2-2,1.4c0,0,0,0.1,0.2,0.4L208.8,139.9z"/>
		<path id="XMLID_2667_" class="st13" d="M210.3,140.3c-0.1,0.2-0.1,0.3-0.1,0.4c0.1,0.1,2.1,1.4,3.5,2.3l1.5-1.5l-3.5-2.3
			C211.1,139.6,210.4,140.2,210.3,140.3"/>
		<path id="XMLID_2666_" class="st13" d="M208.1,140.9c0.1-0.1,0-0.3-0.1-0.4c-0.2-0.2-3.3-1.8-3.5-1.9c-0.3-0.1-0.7,0-1,0.1
			c-0.1,0-1,0.7-1.8,1.3l4.7,2.2C207.2,141.6,208.1,141.1,208.1,140.9"/>
		<path id="XMLID_2665_" class="st13" d="M209,141.5c-0.1,0-1,0.7-1.7,1.2l4.2,2.6l1.6-1.7c-1.3-0.9-3.1-2.2-3.3-2.2
			C209.6,141.4,209.2,141.5,209,141.5"/>
		<path id="XMLID_2662_" class="st234" d="M120.8,124.3l7.3,4.2l-12.4-1.5L120.8,124.3z M122,122.2l-9.5,5.3l18.9,2.6L122,122.2z"/>
		<path id="XMLID_2659_" class="st234" d="M108.2,135.9L94.7,138l14.9-10.1L108.2,135.9z M109.7,137.1l1.7-11.7l-22,14.8
			L109.7,137.1z"/>
		<path id="XMLID_2656_" class="st234" d="M114.7,114l10.1-5.7l-8.7,11.8L114.7,114z M128.2,104.5l-15.9,8.9l4.1,9.9L128.2,104.5z"
			/>
		<path id="XMLID_2655_" class="st232" d="M199.7,182.4c-6.6,2.6-24,8.4-45.3,8.4c-42.1,0-52.7-28.9-52.7-39.7
			c0-2.4,0.2-4.4,0.4-6.1l-9.7,3.2l1.3,2.7l-7.6,2.7l-6.5,4.3l13.2,2.5l-2.7,9.4l5.7-1.7l5.4,13.9l6.5-0.9l2.2,9.8
			c0,0,12.3,8.5,33.1,10.4c27.4,2.5,52.1-6.9,52.1-6.9s-29.3,11.5-56,8.7c-20.4-2.2-33.6-10.4-33.6-10.4l-0.2-8.8l-8,0.1l-3.8-13.5
			l-7.2,3.4l3.1-12l-13.7-1.7l2.8-8.4l3.3-6.6l-4.4,0.1l18.3-13.7l-8-3.1l13-2.5l-4.6-9.1l8,4.6l3.2-10c-9.7,3.4-30.4,14-42.4,45.4
			c1.5,7.2,14,57,83.4,57c29.9,0,51.8-11.4,58.5-15.3L199.7,182.4z"/>
		<polygon id="XMLID_2654_" class="st232" points="109.9,110.8 113.9,105.5 94.5,92.1 100.1,108.4 		"/>
		<path id="XMLID_2653_" class="st13" d="M155.7,97.4c0,0-5.4-2.3-6.8-4.1c-1.4-1.8-3.1-20.1-3.1-20.1s-0.3,18.6-1.4,20.3
			c-1.1,1.6-6.4,4.7-6.4,4.7s5.9-2,8.8-2.1C148.9,96,155.7,97.4,155.7,97.4"/>
		<path id="XMLID_2652_" class="st13" d="M146.8,96.1c-2.9,0.2-8.8,2.1-8.8,2.1s5.3-3.1,6.4-4.7c1.1-1.6,1.4-20.3,1.4-20.3
			s1.7,18.2,3.1,20.1c1.5,1.8,6.8,4.1,6.8,4.1S148.9,96,146.8,96.1"/>
		<path id="XMLID_2651_" class="st13" d="M175.7,135.5c22.8,6.1,32.6,14,32.6,14l2.4-2.7c-1.1-0.8-9.5-6.6-26-12
			c4.9-2,10.8-4.2,12.5-4.2c3.6,0,11.1,4.8,19.2,10l1.8-2.1c-7-4.9-15.3-10.6-21.2-10.6C192.1,127.8,185.1,130.8,175.7,135.5"/>
		<polygon id="XMLID_2650_" class="st232" points="128,128.5 120.8,124.3 115.6,127 		"/>
		<polygon id="XMLID_2649_" class="st232" points="114.7,114 116.1,120 124.8,108.3 		"/>
		<polygon id="XMLID_2648_" class="st232" points="109.6,128 94.7,138.1 108.2,135.9 		"/>
	</g>
</g>
<g id="Watermark">
</g>
</svg>
