<?xml version="1.0" encoding="utf-8"?>
<!-- Generator: Adobe Illustrator 19.2.1, SVG Export Plug-In . SVG Version: 6.00 Build 0)  -->
<svg version="1.1" xmlns="http://www.w3.org/2000/svg" xmlns:xlink="http://www.w3.org/1999/xlink" x="0px" y="0px"
	 viewBox="0 0 288 288" style="enable-background:new 0 0 288 288;" xml:space="preserve">
<style type="text/css">
	.st0{display:none;}
	.st1{display:inline;}
	.st2{fill:#EF3E42;}
	.st3{fill:#004B8D;}
	.st4{fill:#D7CA9E;}
	.st5{fill:#A03123;}
	.st6{fill-rule:evenodd;clip-rule:evenodd;fill:#FFFFFF;}
	.st7{fill-rule:evenodd;clip-rule:evenodd;fill:#1E3B6E;}
	.st8{fill-rule:evenodd;clip-rule:evenodd;fill:#BE2132;}
	.st9{fill-rule:evenodd;clip-rule:evenodd;fill:#E19D26;}
	.st10{fill:#DC4329;}
	.st11{fill:#DC4A26;}
	.st12{fill:#231F20;}
	.st13{fill:#FFFFFF;}
	.st14{fill:#050404;}
	.st15{fill:#263C82;}
	.st16{fill:#CC3533;}
	.st17{fill:#E82F4D;}
	.st18{fill:#010101;}
	.st19{fill:#C1C8CF;}
	.st20{fill:#365A8B;}
	.st21{fill:#29417C;}
	.st22{fill:#F47920;}
	.st23{fill:#FAA61A;}
	.st24{fill:#CCCCCC;}
	.st25{fill:#002B54;}
	.st26{fill:#ED1C24;}
	.st27{opacity:0.3;fill:#002B54;}
	.st28{fill:#020303;}
	.st29{fill:#1B9ED8;}
	.st30{fill:#189DD8;}
	.st31{fill:#43748F;}
	.st32{fill:#EB3947;}
	.st33{fill:#EB3A47;}
	.st34{fill:#44758F;}
	.st35{fill:#1F9ED8;}
	.st36{fill:#FCFDFD;}
	.st37{fill:#020202;}
	.st38{fill:#E83543;}
	.st39{fill-rule:evenodd;clip-rule:evenodd;fill:#C1A677;}
	.st40{fill-rule:evenodd;clip-rule:evenodd;fill:#212F55;}
	.st41{fill-rule:evenodd;clip-rule:evenodd;fill:#AB285C;}
	.st42{fill-rule:evenodd;clip-rule:evenodd;fill:#014A67;}
	.st43{fill:#F47A39;}
	.st44{fill-rule:evenodd;clip-rule:evenodd;fill:#242052;}
	.st45{fill:#123B35;}
	.st46{display:inline;fill:#DB2732;}
	.st47{display:inline;fill:#1D3665;}
	.st48{fill-rule:evenodd;clip-rule:evenodd;}
	.st49{fill:#F58220;}
	.st50{fill:#1A3562;}
	.st51{fill:#036B66;}
	.st52{fill:#C4CDD3;}
	.st53{fill:#EB1F4E;}
	.st54{display:inline;fill:#C4203B;}
	.st55{display:inline;fill:#164883;}
	.st56{display:inline;fill:#90BCE5;}
	.st57{display:inline;fill:#1B2F5B;}
	.st58{fill:#144983;}
	.st59{fill:#CD1F43;}
	.st60{fill:#1A459D;}
	.st61{fill:#0A2042;}
	.st62{fill:#D92E27;}
	.st63{display:inline;fill:#CF1F45;}
	.st64{fill-rule:evenodd;clip-rule:evenodd;fill:#D7CA9E;}
	.st65{fill:#1E3B6E;}
	.st66{fill:#39B54A;}
	.st67{fill:#E19D26;}
	.st68{fill:#BE2132;}
	.st69{fill:#EF5426;}
	.st70{display:inline;fill:#FFFFFF;}
	.st71{display:inline;fill:#E31837;}
	.st72{display:inline;fill:#E21D37;}
	.st73{display:inline;fill:#005596;}
	.st74{display:inline;fill:#CC3533;}
	.st75{display:inline;fill:#E82F4D;}
	.st76{display:inline;fill:#010101;}
	.st77{display:inline;fill:#2A398B;}
	.st78{fill:#999999;}
	.st79{display:inline;fill:#999999;}
	.st80{display:inline;fill:#041E41;}
	.st81{display:inline;fill:#D4451D;}
	.st82{display:inline;fill:#EA7200;}
	.st83{display:inline;fill:#BDBBBB;}
	.st84{fill:#041E41;}
	.st85{fill:none;stroke:#000000;stroke-width:0.34;}
	.st86{fill:#D4451D;}
	.st87{fill:#EA7200;}
	.st88{fill:#BDBBBB;}
	.st89{fill:none;stroke:#EA7200;stroke-width:0;stroke-linecap:round;stroke-linejoin:round;}
	.st90{fill:#9C9FA1;}
	.st91{fill-rule:evenodd;clip-rule:evenodd;fill:#333290;}
	.st92{fill:#005B9B;}
	.st93{fill:#EF4043;}
	.st94{fill-rule:evenodd;clip-rule:evenodd;fill:#09A2DD;}
	.st95{fill-rule:evenodd;clip-rule:evenodd;fill:#43758E;}
	.st96{fill-rule:evenodd;clip-rule:evenodd;fill:#FCEE1E;}
	.st97{fill-rule:evenodd;clip-rule:evenodd;fill:#EE3441;}
	.st98{fill:#B89760;}
	.st99{fill:#D52D47;}
	.st100{fill-rule:evenodd;clip-rule:evenodd;fill:#0B2242;}
	.st101{fill:#F37938;}
	.st102{fill:#164883;}
	.st103{fill:#8E6D2A;}
	.st104{fill-rule:evenodd;clip-rule:evenodd;fill:#1A314F;}
	.st105{fill-rule:evenodd;clip-rule:evenodd;fill:#8F3326;}
	.st106{fill-rule:evenodd;clip-rule:evenodd;fill:#B68E64;}
	.st107{fill:#03493B;}
	.st108{fill:#FCC158;}
	.st109{fill:#BB544F;}
	.st110{fill:#D0B04A;}
	.st111{fill-rule:evenodd;clip-rule:evenodd;fill:#B6A269;}
	.st112{fill-rule:evenodd;clip-rule:evenodd;fill:#001F5B;}
	.st113{fill:#1D3665;}
	.st114{fill:#FFFFFF;stroke:#FFFFFF;stroke-width:0.16;}
	.st115{fill:#004666;}
	.st116{fill:none;stroke:#037062;stroke-width:2.8199;}
	.st117{fill:#BCCBD2;}
	.st118{fill:#037062;}
	.st119{fill:#E63248;}
	.st120{fill:none;stroke:#E63248;stroke-width:0.2826;}
	.st121{fill:none;stroke:#037062;stroke-width:1.0988;}
	.st122{fill:none;stroke:#BCCBD2;stroke-width:4.9365;}
	.st123{fill:#FCEE21;}
	.st124{fill:#FCEE23;}
	.st125{fill:#C4203B;}
	.st126{fill:#193661;}
	.st127{fill:#164884;}
	.st128{fill:#CF1F44;}
	.st129{fill:#0A2042;stroke:#010101;stroke-width:0.2131;}
	.st130{fill:#CF1F45;}
	.st131{fill:#1E3160;}
	.st132{fill:#BA202E;}
	.st133{fill:#212759;}
	.st134{fill:#BA1F31;}
	.st135{fill:#7BBCE8;}
	.st136{fill:#FED208;}
	.st137{fill:#6DB3E3;}
	.st138{fill:#FFCE04;}
	.st139{fill:#1B2F5B;}
	.st140{fill:#90BCE5;}
	.st141{fill:#D8782C;}
	.st142{fill:#C49C6F;}
	.st143{fill:#F04B23;}
	.st144{display:inline;fill-rule:evenodd;clip-rule:evenodd;fill:#F58220;}
	.st145{fill:#094F91;}
	.st146{fill:#DB2732;}
	.st147{fill:none;}
	.st148{fill:#00174A;}
	.st149{fill:none;stroke:#FFFFFF;stroke-width:3;stroke-miterlimit:10;}
	.st150{fill:none;stroke:#000000;stroke-width:0.1055;stroke-linecap:round;stroke-linejoin:round;}
	.st151{fill:#25358E;}
	.st152{fill:#ED1C2E;}
	.st153{fill:#FFFFFF;stroke:#000000;stroke-width:0.3293;stroke-linecap:round;stroke-linejoin:round;}
	.st154{display:inline;fill-rule:evenodd;clip-rule:evenodd;fill:#00174A;}
	.st155{fill:#0D2240;}
	.st156{display:inline;fill:#8EC641;}
	.st157{fill:#182D56;}
	.st158{fill:#BE323A;}
	.st159{fill:#C62034;}
	.st160{fill:#0B1437;}
	.st161{fill:#EC2135;}
	.st162{fill:#8EC641;}
	.st163{fill-rule:evenodd;clip-rule:evenodd;fill:#332312;}
	.st164{fill:#E4E5E6;}
	.st165{clip-path:url(#XMLID_4225_);}
	.st166{clip-path:url(#XMLID_4226_);fill:url(#XMLID_4227_);}
	.st167{clip-path:url(#XMLID_4228_);}
	.st168{clip-path:url(#XMLID_4229_);fill:url(#XMLID_4230_);}
	.st169{clip-path:url(#XMLID_4231_);}
	.st170{clip-path:url(#XMLID_4232_);fill:url(#XMLID_4233_);}
	.st171{clip-path:url(#XMLID_4234_);}
	.st172{clip-path:url(#XMLID_4235_);fill:url(#XMLID_4236_);}
	.st173{clip-path:url(#XMLID_4237_);}
	.st174{clip-path:url(#XMLID_4238_);fill:url(#XMLID_4239_);}
	.st175{clip-path:url(#XMLID_4240_);}
	.st176{clip-path:url(#XMLID_4241_);fill:url(#XMLID_4242_);}
	.st177{clip-path:url(#XMLID_4243_);}
	.st178{clip-path:url(#XMLID_4244_);fill:url(#XMLID_4245_);}
	.st179{clip-path:url(#XMLID_4246_);}
	.st180{clip-path:url(#XMLID_4247_);fill:url(#XMLID_4248_);}
	.st181{fill:#A4A9AD;}
	.st182{fill:#F05123;}
	.st183{fill:#8E744B;}
	.st184{fill:#EEE0C6;}
	.st185{fill:#8F182B;}
	.st186{fill:#FFC526;}
	.st187{fill:#B0B8BC;}
	.st188{fill:#FCBB30;}
	.st189{fill:#E21D38;}
	.st190{fill:#FFC759;}
	.st191{fill:#E03B3F;}
	.st192{fill:#8E8F92;}
	.st193{fill:#E13B3F;}
	.st194{fill:#FDDF0A;}
	.st195{fill:#E7AA23;}
	.st196{fill:#F37321;}
	.st197{fill:#008056;}
	.st198{fill:#E2293A;}
	.st199{fill:#1F438B;}
	.st200{fill:#005588;}
	.st201{fill:#A7B2B8;}
	.st202{fill:#8C2A43;}
	.st203{fill:#1C2D5B;}
	.st204{fill:#0C724D;}
	.st205{fill:#232020;}
	.st206{fill:#A8ABAD;}
	.st207{fill:#EB2627;}
	.st208{fill:#E56C25;}
	.st209{fill:#203C73;}
	.st210{fill:#B99758;}
	.st211{fill:#C8202F;}
	.st212{fill:#EEE3C6;}
	.st213{fill:#045937;}
	.st214{fill:#C02C38;}
	.st215{fill:#EEB41E;}
	.st216{fill:#F37E2F;}
	.st217{fill:#01549C;}
	.st218{fill:#0862AB;}
	.st219{fill:#E43B40;}
	.st220{fill:#DF1E38;}
	.st221{fill:#CD9C2B;}
	.st222{fill:#F47A3E;}
	.st223{fill:#FBB516;}
	.st224{fill:#E97424;}
	.st225{fill:#056D75;}
	.st226{fill:#142048;}
	.st227{fill:#FFC429;}
	.st228{fill:#114B9D;}
	.st229{fill:#213065;}
	.st230{fill:#1D2859;}
	.st231{fill:#A8AAAD;}
	.st232{fill:#1D427C;}
	.st233{fill:#153055;}
	.st234{fill:#AFB0B3;}
	.st235{fill:#20396F;}
	.st236{fill:#BE3138;}
	.st237{fill:#B4975A;}
	.st238{fill:#344042;}
	.st239{fill:#14244C;}
	.st240{fill:#D0202D;}
	.st241{fill:#A9A9AD;}
	.st242{fill:#1D3261;}
	.st243{fill:#811423;}
	.st244{fill:#6F6E76;}
	.st245{fill:#C62031;}
</style>
<g id="Layer_5" class="st0">
</g>
<g id="Layer_3">
</g>
<g id="Layer_4">
	<g id="XMLID_2909_">
		<path id="XMLID_2955_" class="st13" d="M140.6,52.2c-50.5,0-91.4,39.5-91.4,88.2c0,48.7,40.9,88.2,91.4,88.2
			c50.5,0,91.4-39.5,91.4-88.2C232,91.7,191.1,52.2,140.6,52.2 M140.6,222.1c-46.9,0-84.9-36.6-84.9-81.7c0-45.1,38-81.7,84.9-81.7
			c46.9,0,84.9,36.6,84.9,81.7C225.5,185.5,187.5,222.1,140.6,222.1"/>
		<path id="XMLID_2954_" class="st13" d="M143.2,165.9c-0.5,1-1.4,1.6-2.5,1.8l-36.6,5c-0.3,0-0.6,0.2-0.8,0.5
			c-0.2,0.3-0.3,0.6-0.2,0.9l2.2,14.6c0.1,0.3,0.2,0.6,0.5,0.8c0.3,0.2,0.6,0.3,1,0.2l3.6-0.9l2.2-8.4c0.1-0.3,0.4-0.5,0.7-0.4
			l7.1,1.7c0.2,0,0.4,0.2,0.4,0.4l0.6,4l4.6-1.1v-1.8c0-0.2,0.1-0.4,0.2-0.5c0.1-0.1,0.3-0.2,0.5-0.2l5.7,0.7c0.2,0,0.3,0.1,0.4,0.2
			l10.9-2.6c1-0.2,1.8-0.9,2.2-1.8l6.8-14.4l-7.1-3.6L143.2,165.9L143.2,165.9z"/>
		<polygon id="XMLID_2953_" class="st13" points="146.9,158.3 146.4,159.5 153.4,163.1 154,161.9 		"/>
		<polygon id="XMLID_2952_" class="st13" points="149.5,153.1 149.3,153.5 156.2,157.1 156.8,155.9 149.8,152.4 		"/>
		<polygon id="XMLID_2951_" class="st13" points="148.4,155.3 147.8,156.5 154.8,160.1 155.4,158.9 		"/>
		<path id="XMLID_2950_" class="st13" d="M172.4,106.6l-16.9-36.5c-0.2-0.4-0.6-0.7-1.1-0.7h-29.4c-0.7,0-1.2,0.5-1.2,1.2v23.9
			l-12.9-25c-7.7,3-14.8,7.1-21.1,12.1v44.5c0,0.7,0.5,1.2,1.2,1.2h16.7c0.7,0,1.2-0.6,1.2-1.2v-19.9l12.3,20.5
			c0.2,0.4,0.6,0.6,1.1,0.6h18.7c0.7,0,1.2-0.6,1.2-1.2V87.5l19.3,41.5l-2.3,4.7l-8.3,16.9l6.9,3.5l0.9-2l4.2-9l2.1-4.4l4.3-9.1
			l22.5-48c-1.7-1.3-3.4-2.6-5.2-3.8L172.4,106.6L172.4,106.6z"/>
		<path id="XMLID_2949_" class="st13" d="M167.4,158.2c-6.2,0-11.2,1.7-11.2,3.8c0,2.1,5,3.8,11.2,3.8c6.2,0,11.2-1.7,11.2-3.8
			C178.6,159.9,173.6,158.2,167.4,158.2"/>
		<polygon id="XMLID_2948_" class="st216" points="152.6,164.9 153.4,163.1 146.4,159.5 145.5,161.2 		"/>
		<path id="XMLID_2947_" class="st216" d="M109.5,157.6c2.9-3.3,7.1,0.6,10.6-1.5c2.7-1.4,5,1,7.9,0.6c1.8,0,4.6-2,6.1,0.4
			c1.3,0.6,3.2,0.4,4.3-0.4c0.7-2.5,3.6-1.6,5.6-2.1c1.3-0.3,3.8-1.6,5.5-1.5l0.4-0.7l7,3.5l0.8-1.8l-6.9-3.5l8.3-16.9
			c-4.9-0.8-11,2.5-15.3,0.2c-4.9-0.2-10.7,0.2-15.1-2.1c-2.8-0.5-5.9-0.4-8.5-1.5c-1.4,2.6-2.9-0.8-4.6-0.3c-1,0.3-1.8,1.4-1.6,2.6
			c-0.5,2.7-3.8,1.1-5.5,2.3c-3.1,1.8-4.8-2.7-7.8-2.6c-2-0.5-4.4-0.3-5.5,1.8c-1.7,0.4-2.6-1.8-4.6-1.1c-1.4-0.8,0.6-1.4,0.1-2.5
			c-1.1-1.2-3.2-2.1-4.8-1.1c-0.3,2.1,2,3.9,0.8,6.1c-1.2,0.2-1.1-1.5-2.1-1.9c-1.1-0.5-1.2,0.8-1.8,1.4c-2.2-0.1-1.7-2.6-2.4-3.9
			c-2.6-0.4-4.6,1.2-6.7,2.1c-1.5,1.1-0.5,3.5-1.8,4.7c-1-0.7-0.9-2.2-1.9-3.1c-0.8-0.5-1.8-0.9-2.8-0.6c-0.9,0.2-1.2,1-1.4,1.8
			c0,0.5,0.5,0.9,1.1,0.7c0.6,0.1,1.1,0.9,0.8,1.5c-0.3,0.4-0.5,1.3-1.3,1.2c-0.8-0.8-2-1.9-3.2-1.4c-0.5,0.4,0,1,0,1.5
			c-0.5,1.8,0.8,2.9,1.8,4.1c0.3,1.4,0.5,3.5-0.6,4.5c-1.5,0.3-1.8,1.9-2,3.1c0.3,1.2,1.7,1.1,2.2,2.2c0.3,0.8-0.7,1.5-1.4,2
			c0.3,1.4,0.6,2.8,1,4.2c0.9-0.4,1.9-0.7,2.5-0.6c0.5,0.2,0.8,0.7,0.8,1.2c0.5,0.9,1.5,1.9,2.6,1.3c1.1-0.5,2.2-2,3.4-1.4v-10.3
			l5.3,4.6v5.3c2,0,4.2,0.2,6-0.6c3.6,0.3,7.9,1.3,11-0.8c2.8-0.5,5.3-1.4,8.3-1.4C105.8,156.9,107.6,157.8,109.5,157.6"/>
		<path id="XMLID_2946_" class="st216" d="M170.8,135.4c2-2.6,7,0.5,7.7-3.5c0.8-2.1,3.1-1.3,4.6-2.4c0.4-0.8-0.3-1.3-0.5-2
			c1.9-2.1,4.5-3.6,6.6-5.7c1.5-1.5,3.8-1.1,5.7-1.2c0.9-0.5,2.2-1.3,2.4-2.4l-0.2-0.4c-2.7-0.4-5.6,0.1-8.2,0.9
			c-2.8,2.5-5.9,4.4-9.3,5.4c-2.3,2.9-7.1,4.3-10.5,5.5l-4.3,9.1C167,138.2,169.9,136.7,170.8,135.4"/>
		<polygon id="XMLID_2945_" class="st216" points="155.4,158.9 156.2,157.1 149.3,153.5 148.4,155.3 		"/>
		<polygon id="XMLID_2944_" class="st216" points="147.8,156.5 146.9,158.3 154,161.9 154.8,160.1 		"/>
		<path id="XMLID_2941_" class="st216" d="M140.6,58.7c-46.9,0-84.9,36.6-84.9,81.7c0,45.1,38,81.7,84.9,81.7
			c46.9,0,84.9-36.6,84.9-81.7C225.5,95.3,187.5,58.7,140.6,58.7 M140.6,216.9c-44,0-79.7-34.2-79.7-76.5
			c0-23.6,11.2-44.7,28.7-58.8c6.3-5,13.4-9.1,21.1-12.1c9.2-3.6,19.3-5.6,29.8-5.6c17.1,0,32.9,5.2,45.9,14
			c1.8,1.2,3.5,2.5,5.2,3.8c15.3,12.2,25.7,29.9,28.1,49.8l-1.7,0.6c-1,3.8-5.4,1.3-7.2,4c-2.3,0.1-4.9,0.3-6.1,2.7
			c-0.7,0.2-1.8,0.2-2.1-0.7c0.5-2.2-3-2.9-1.4-5.2c-0.1-1-1.3-1.1-2-0.8c-1.6,0.6-1.7,2.3-1.9,3.6c-2.1,0.4-2.3-3.3-4.6-2.5
			c-2.4,2.3-5.4,3.3-8.8,2.7c-6-0.5-8,7.4-13.2,9c-2.2,0.3-5.5-0.9-8-1.8l-4.2,9l2.5-0.6c1.6-0.4,2.9-1.5,4.4-2.2
			c2.4,1.8,2.8-1.7,4.7-1.9c1.2-0.3,2.3,0.8,3,1.7c2.9,1.2,6.4,0.4,8.8-1.5c2.5-1.1,5.8-0.6,8.3-1.7c1.7-1.1,3.4-2.5,5.8-2.1
			c7.2-2.5,16.5-5.5,24-8.2c0.1,1.6,0.2,3.2,0.2,4.9C220.3,182.6,184.6,216.9,140.6,216.9"/>
		<path id="XMLID_2940_" class="st216" d="M92.9,169.4l-7.6-6.9c-2.9-2.6-5-0.3-5,1.4v7.1c0,1.4,0.5,2.2,1.1,3l6.9,9
			c0.4,0.5,0.5,1,0.5,1.6v1c0,0.8-0.7,0.7-1.3,0.2l-1.5-1.3c-0.5-0.4-0.5-1.3-0.5-2v-0.9c0-0.5-0.5-1.4-1-1.8l-3.4-3.1
			c-0.5-0.5-0.8-0.1-0.8,1.3v4.1c0,1.1,0.7,3.2,2.3,4.7l7.9,7.1c1.9,1.7,3.6,0.1,3.6-3.9v-4.5c0-2.2-1-4.5-2.2-6l-5.8-7.5
			c0,0-0.5-0.7-0.5-1.6v-0.8c0,0,0.2-1.1,1.1-0.3l1.5,1.3c0.4,0.4,0.6,0.9,0.6,1.5v1.1c0,0.6,0.2,1.1,0.7,1.6l2.8,2.5
			c1.2,1.1,1.7,0.3,1.7-0.6v-4.3C94,170.8,93.3,169.8,92.9,169.4"/>
		<path id="XMLID_2939_" class="st216" d="M105.7,198.7l-4.2-2.5v-20.8c0-0.2-0.1-0.5-0.3-0.6l-3.9-2.3c-0.2-0.1-0.5-0.1-0.7,0
			c-0.2,0.1-0.3,0.3-0.3,0.6v24.6c0,0.2,0.1,0.5,0.3,0.6l8.4,5c0.2,0.1,0.5,0.1,0.7,0c0.2-0.1,0.3-0.3,0.3-0.6v-3.4
			C106.1,199.1,105.9,198.9,105.7,198.7"/>
		<path id="XMLID_2936_" class="st216" d="M121.4,186.3l-0.6-4c0-0.2-0.2-0.4-0.4-0.4l-7.1-1.7c-0.3-0.1-0.6,0.1-0.7,0.4l-2.2,8.4
			l-3.7,14.6c-0.1,0.3,0.1,0.6,0.4,0.7l4.2,1.4c0.1,0,0.3,0,0.4,0c0.1-0.1,0.2-0.2,0.3-0.3l1.1-4.3l5.7,1.9l0.8,5.2
			c0,0.2,0.2,0.4,0.4,0.4l4.4,1.4c0.2,0.1,0.4,0,0.5-0.1c0.1-0.1,0.2-0.3,0.2-0.5L121.4,186.3L121.4,186.3z M114.1,196.3l2.2-8.6
			l1.6,9.8L114.1,196.3z"/>
		<path id="XMLID_2935_" class="st216" d="M144.8,184.9l-3.9-0.5c-0.2,0-0.4,0-0.5,0.2c-0.1,0.1-0.2,0.3-0.2,0.5v13.7l-7.2-15
			c0-0.1-0.1-0.1-0.1-0.2c-0.1-0.1-0.2-0.2-0.4-0.2l-5.7-0.7c-0.2,0-0.4,0-0.5,0.2c-0.1,0.1-0.2,0.3-0.2,0.5v1.8v24.2
			c0,0.3,0.3,0.6,0.6,0.7l3.9,0.5c0.2,0,0.4,0,0.5-0.2c0.1-0.1,0.2-0.3,0.2-0.5v-15.8l8.5,16.6c0.1,0.2,0.4,0.4,0.6,0.4l4.4-0.3
			c0.4,0,0.6-0.3,0.6-0.7v-24.7C145.4,185.2,145.1,184.9,144.8,184.9"/>
		<path id="XMLID_2932_" class="st216" d="M159.8,182.4l-10.9,2.2c-0.3,0.1-0.5,0.3-0.5,0.7v24.6c0,0.2,0.1,0.4,0.2,0.5
			c0.2,0.1,0.4,0.2,0.6,0.1l10.7-1.9c5.3-0.9,5.3-4.1,5.3-4.8v-19.3C165.1,184.5,165.1,181.4,159.8,182.4 M159.8,201.8
			c0,0,0,2.3-2.1,2.7l-4.2,0.7v-16.5l3.9-0.8c2.3-0.5,2.3,1.7,2.3,1.7L159.8,201.8L159.8,201.8z"/>
		<path id="XMLID_2931_" class="st216" d="M178.6,175.1c-0.2-0.1-0.4-0.1-0.5,0l-9.9,4.8c-0.2,0.1-0.3,0.3-0.3,0.5v24.8
			c0,0.2,0.1,0.4,0.2,0.5c0.2,0.1,0.4,0.1,0.5,0l9.9-4.4c0.2-0.1,0.3-0.3,0.3-0.5v-3.5c0-0.2-0.1-0.4-0.3-0.4
			c-0.2-0.1-0.3-0.1-0.5,0l-4.1,1.9c-0.2,0.1-0.4,0.1-0.5,0c-0.2-0.1-0.2-0.3-0.2-0.5v-4.7c0-0.2,0.1-0.4,0.3-0.5l5-2.3
			c0.2-0.1,0.3-0.3,0.3-0.5v-3.5c0-0.2-0.1-0.4-0.3-0.5c-0.2-0.1-0.4-0.1-0.5,0l-4.1,2c-0.2,0.1-0.4,0.1-0.5,0
			c-0.2-0.1-0.3-0.3-0.3-0.5v-5c0-0.2,0.1-0.4,0.3-0.5l5.1-2.5c0.2-0.1,0.3-0.3,0.3-0.5v-3.6C178.9,175.4,178.8,175.2,178.6,175.1"
			/>
		<path id="XMLID_2928_" class="st216" d="M190.5,183.1c0,0,3.1-2.3,3.1-6.5v-6.5c0-3.4-2.2-3.8-4.7-2l-8.2,5.7
			c-0.1,0.1-0.2,0.3-0.2,0.5v24.5c0,0.2,0.1,0.4,0.3,0.5c0.2,0.1,0.4,0.1,0.6,0l4.2-2.8c0.1-0.1,0.2-0.3,0.2-0.4v-9.4l0.9-0.6l4.6,6
			c0.2,0.2,0.5,0.3,0.7,0.1l3.1-2.1c0.1-0.1,0.2-0.2,0.2-0.4c0-0.2,0-0.3-0.1-0.4L190.5,183.1L190.5,183.1z M188.9,177.5
			c0,0.9-0.5,1.9-1.2,2.4l-1.2,0.8c-0.2,0.1-0.4,0.1-0.6,0c-0.2-0.1-0.3-0.3-0.3-0.5v-4.3c0-0.2,0.1-0.3,0.2-0.4l1.7-1.2
			c0.7-0.5,1.2,0,1.2,0.7V177.5z"/>
		<path id="XMLID_2927_" class="st216" d="M202,154.8l-5.3,5.9c-1.4,1.5-1.7,3.2-1.7,5v2.5c0,1.7,0.4,3.3,2.6,3.8l2.9,0.7
			c0.9,0.2,1.5,0.5,1.5,1.1v0.6c0,1-0.2,1.3-0.7,1.7c-0.4,0.4-1.4,1.4-1.4,0.2v-1.1c0-0.9-0.4-0.9-1-0.3l-3.3,3.4
			c-0.4,0.4-0.6,0.8-0.6,1.5v2.2c0,3.9,2,4.7,4.1,2l5-6.6c2.1-2.7,2.1-5.4,2.1-7c0-1.9-1.6-2.6-2.8-2.9l-2.4-0.4
			c-0.9-0.2-1.1-0.8-1.1-1.6v-1.3c0-0.4,0-1.5,0.7-2.2l0.5-0.5c0.5-0.5,0.9-0.5,0.9,0.4v1.9c0,0.4,0.2,0.6,0.6,0.3l3.1-3.2
			c0.5-0.5,0.6-1.4,0.6-1.9v-3.2C206.3,152.4,204,152.7,202,154.8"/>
		<path id="XMLID_2926_" class="st216" d="M73.3,160.1v14.1l3.7,5.4c0.9,1.3,1.5,1,1.5-0.1v-19.7C76.9,160.3,74.9,159.7,73.3,160.1"
			/>
		<path id="XMLID_2925_" class="st216" d="M178.6,168.2v-6.2c0,2.1-5,3.8-11.2,3.8c-6.2,0-11.2-1.7-11.2-3.8v6.2
			c0,2.1,5,3.8,11.2,3.8C173.6,171.9,178.6,170.2,178.6,168.2"/>
		<path id="XMLID_2924_" class="st217" d="M78.6,159.8v-5.3l-5.3-4.6v10.3C74.9,159.7,76.9,160.3,78.6,159.8"/>
		<path id="XMLID_2915_" class="st217" d="M220.1,135.6c-7.5,2.6-16.8,5.7-24,8.2c-2.4-0.4-4.1,1-5.8,2.1c-2.6,1.1-5.8,0.7-8.3,1.7
			c-2.4,2-5.9,2.8-8.8,1.5c-0.8-0.9-1.8-2-3-1.7c-1.9,0.2-2.3,3.7-4.7,1.9c-1.5,0.8-2.8,1.9-4.4,2.2l-2.5,0.6l-0.9,2l-0.8,1.8
			l-0.6,1.2l-0.8,1.8l-0.6,1.2l-0.8,1.8l-0.6,1.2l-0.8,1.8l-6.8,14.4c-0.4,0.9-1.2,1.6-2.2,1.8l-10.9,2.6c0.1,0.1,0.1,0.1,0.1,0.2
			l7.2,15v-13.7c0-0.2,0.1-0.4,0.2-0.5c0.1-0.1,0.3-0.2,0.5-0.2l3.9,0.5c0.3,0,0.6,0.3,0.6,0.7v24.7c0,0.4-0.3,0.7-0.6,0.7l-4.4,0.3
			c-0.3,0-0.5-0.1-0.6-0.4l-8.5-16.6V210c0,0.2-0.1,0.4-0.2,0.5c-0.1,0.1-0.3,0.2-0.5,0.2l-3.9-0.5c-0.3,0-0.6-0.3-0.6-0.7v-24.2
			l-4.6,1.1l3.6,22.9c0,0.2,0,0.4-0.2,0.5c-0.1,0.1-0.3,0.2-0.5,0.1l-4.4-1.4c-0.2-0.1-0.3-0.2-0.4-0.4l-0.8-5.2l-5.7-1.9l-1.1,4.3
			c0,0.1-0.1,0.3-0.3,0.3c-0.1,0.1-0.3,0.1-0.4,0l-4.2-1.4c-0.3-0.1-0.4-0.4-0.4-0.7l3.8-14.6l-3.6,0.9c-0.3,0.1-0.7,0-1-0.2
			c-0.3-0.2-0.5-0.5-0.5-0.8l-2.2-14.6c-0.1-0.3,0-0.7,0.2-0.9c0.2-0.3,0.5-0.4,0.8-0.5l36.6-5c1.1-0.1,2-0.8,2.5-1.8l2.3-4.7
			l0.9-1.8l0.6-1.2l0.9-1.8l0.6-1.2l0.9-1.8l0.2-0.5c-1.7-0.1-4.2,1.2-5.5,1.5c-1.9,0.6-4.9-0.4-5.6,2.1c-1.1,0.8-3,1.1-4.3,0.4
			c-1.6-2.4-4.3-0.4-6.1-0.4c-2.9,0.4-5.2-2-7.9-0.6c-3.5,2.1-7.7-1.8-10.6,1.5c-1.9,0.1-3.6-0.7-5.7-0.6c-3,0-5.5,0.9-8.3,1.4
			c-3.1,2-7.4,1.1-11,0.8c-1.8,0.7-4,0.5-6,0.6v19.7c0,1.2-0.6,1.5-1.5,0.1l-3.7-5.4v-14.1c-1.2-0.6-2.2,0.9-3.4,1.4
			c-1.1,0.5-2.1-0.4-2.6-1.3c0-0.5-0.3-0.9-0.8-1.2c-0.6-0.1-1.6,0.2-2.5,0.6c-0.4-1.4-0.7-2.8-1-4.2c0.8-0.5,1.7-1.1,1.4-2
			c-0.5-1-1.9-0.9-2.2-2.2c0.1-1.2,0.5-2.8,2-3.1c1.1-1,0.9-3.1,0.6-4.5c-1-1.3-2.3-2.3-1.8-4.1c0-0.5-0.5-1.1,0-1.5
			c1.2-0.5,2.4,0.6,3.2,1.4c0.8,0.2,1-0.7,1.3-1.2c0.3-0.6-0.2-1.4-0.8-1.5c-0.5,0.1-1-0.3-1.1-0.7c0.2-0.8,0.5-1.6,1.4-1.8
			c1-0.4,2,0,2.8,0.6c1,0.9,0.9,2.3,1.9,3.1c1.3-1.2,0.3-3.6,1.8-4.7c2.1-0.9,4.2-2.5,6.7-2.1c0.7,1.3,0.2,3.8,2.4,3.9
			c0.6-0.5,0.7-1.9,1.8-1.4c1,0.4,0.9,2.1,2.1,1.9c1.2-2.2-1.1-4-0.8-6.1c1.6-1,3.7-0.1,4.8,1.1c0.5,1-1.5,1.6-0.1,2.5
			c2-0.7,2.9,1.5,4.6,1.1c1.1-2.1,3.5-2.3,5.5-1.8c3,0,4.7,4.4,7.8,2.6c1.7-1.1,5,0.4,5.5-2.3c-0.2-1.2,0.6-2.3,1.6-2.6
			c1.7-0.5,3.2,2.9,4.6,0.3c2.6,1,5.6,1,8.5,1.5c4.4,2.3,10.1,2,15.1,2.1c4.3,2.3,10.4-1,15.3-0.2l2.3-4.7l-19.3-41.5v38.6
			c0,0.7-0.5,1.2-1.2,1.2h-18.7c-0.4,0-0.8-0.2-1-0.6l-12.3-20.5v19.9c0,0.7-0.5,1.2-1.2,1.2H90.8c-0.7,0-1.2-0.5-1.2-1.2V81.6
			c-17.5,14-28.7,35.1-28.7,58.8c0,42.2,35.7,76.5,79.7,76.5c44,0,79.7-34.2,79.7-76.5C220.3,138.8,220.2,137.2,220.1,135.6
			 M94,176.6c0,0.9-0.6,1.7-1.8,0.6l-2.8-2.5c-0.6-0.5-0.7-1-0.7-1.6V172c0-0.6-0.3-1.2-0.6-1.5l-1.5-1.3c-0.9-0.8-1.1,0.3-1.1,0.3
			v0.8c0,0.9,0.5,1.6,0.5,1.6l5.8,7.5c1.2,1.5,2.2,3.8,2.2,6v4.5c0,3.9-1.7,5.6-3.6,3.9l-7.9-7.1c-1.6-1.5-2.3-3.6-2.3-4.7V178
			c0-1.3,0.3-1.8,0.8-1.3l3.4,3.1c0.5,0.4,1,1.3,1,1.8v0.9c0,0.7-0.1,1.6,0.5,2l1.5,1.3c0.5,0.5,1.3,0.6,1.3-0.2v-1
			c0-0.6-0.1-1.1-0.5-1.6l-6.9-9c-0.6-0.8-1.1-1.6-1.1-3v-7.1c0-1.7,2.1-4,5-1.4l7.6,6.8c0.5,0.4,1.2,1.4,1.2,2.9L94,176.6L94,176.6
			z M106.1,202.7c0,0.2-0.1,0.5-0.3,0.6c-0.2,0.1-0.5,0.1-0.7,0l-8.4-5c-0.2-0.1-0.3-0.3-0.3-0.6v-24.6c0-0.2,0.1-0.5,0.3-0.6
			c0.2-0.1,0.5-0.1,0.7,0l3.9,2.3c0.2,0.1,0.3,0.3,0.3,0.6v20.8l4.2,2.5c0.2,0.1,0.3,0.3,0.3,0.6L106.1,202.7z M165.1,203.8
			c0,0.7,0,3.8-5.3,4.8l-10.7,1.9c-0.2,0-0.4,0-0.6-0.1c-0.2-0.1-0.2-0.3-0.2-0.5v-24.6c0-0.3,0.2-0.6,0.5-0.7l10.9-2.2
			c5.3-1,5.3,2.1,5.3,2.1V203.8L165.1,203.8z M156.2,168.2v-6.2c0-2.1,5-3.8,11.2-3.8c6.2,0,11.2,1.7,11.2,3.8v6.2
			c0,2.1-5,3.8-11.2,3.8C161.2,171.9,156.2,170.2,156.2,168.2 M178.9,179.2c0,0.2-0.1,0.4-0.3,0.5l-5.1,2.5
			c-0.2,0.1-0.3,0.3-0.3,0.5v5c0,0.2,0.1,0.4,0.3,0.5c0.2,0.1,0.4,0.1,0.5,0l4.1-2c0.2-0.1,0.4-0.1,0.5,0c0.2,0.1,0.3,0.3,0.3,0.5
			v3.5c0,0.2-0.1,0.4-0.3,0.5l-5,2.3c-0.2,0.1-0.3,0.3-0.3,0.5v4.7c0,0.2,0.1,0.4,0.2,0.5c0.2,0.1,0.4,0.1,0.5,0l4.1-1.9
			c0.2-0.1,0.4-0.1,0.5,0c0.2,0.1,0.3,0.3,0.3,0.5v3.5c0,0.2-0.1,0.4-0.3,0.5l-9.8,4.4c-0.2,0.1-0.4,0.1-0.5,0
			c-0.2-0.1-0.3-0.3-0.3-0.5v-24.7c0-0.2,0.1-0.4,0.3-0.5l9.9-4.8c0.2-0.1,0.4-0.1,0.5,0c0.2,0.1,0.3,0.3,0.3,0.5L178.9,179.2
			L178.9,179.2L178.9,179.2z M195,189.9l-3.1,2.1c-0.2,0.2-0.6,0.1-0.7-0.1l-4.6-6l-0.9,0.6v9.4c0,0.2-0.1,0.3-0.2,0.5l-4.2,2.8
			c-0.2,0.1-0.4,0.1-0.6,0c-0.2-0.1-0.3-0.3-0.3-0.5v-24.5c0-0.2,0.1-0.3,0.2-0.4l8.2-5.7c2.5-1.7,4.7-1.4,4.7,2v6.5
			c0,4.2-3.1,6.5-3.1,6.5l4.6,6c0.1,0.1,0.1,0.3,0.1,0.4C195.2,189.7,195.1,189.8,195,189.9 M206.3,158.9c0,0.6-0.1,1.4-0.6,1.9
			l-3.1,3.2c-0.4,0.4-0.6,0.1-0.6-0.3v-1.9c0-1-0.4-1-0.9-0.4l-0.5,0.5c-0.7,0.7-0.7,1.8-0.7,2.2v1.3c0,0.8,0.2,1.4,1.1,1.6l2.4,0.4
			c1.2,0.2,2.8,1,2.8,2.8c0,1.6,0,4.3-2.1,7l-5,6.6c-2.1,2.7-4.1,2-4.1-2v-2.2c0-0.7,0.2-1.1,0.6-1.5l3.4-3.4c0.6-0.6,1-0.6,1,0.3
			v1.1c0,1.3,1,0.3,1.4-0.2c0.4-0.4,0.7-0.7,0.7-1.7v-0.6c0-0.7-0.5-0.9-1.5-1.1l-2.9-0.7c-2.3-0.5-2.6-2-2.6-3.8v-2.5
			c0-1.9,0.3-3.5,1.7-5l5.3-5.9c1.9-2.1,4.2-2.5,4.2,0.9L206.3,158.9L206.3,158.9z"/>
		<polygon id="XMLID_2914_" class="st217" points="117.9,197.5 116.3,187.7 114.1,196.3 		"/>
		<path id="XMLID_2913_" class="st217" d="M123.7,70.6c0-0.7,0.5-1.2,1.2-1.2h29.4c0.5,0,0.9,0.3,1.1,0.7l16.9,36.5l14.1-28.7
			c-13-8.8-28.8-14-45.9-14c-10.6,0-20.6,2-29.9,5.6l12.9,25L123.7,70.6z"/>
		<path id="XMLID_2912_" class="st217" d="M179.6,124.2c3.4-1,6.5-2.8,9.3-5.4c2.5-0.8,5.4-1.3,8.2-0.9l0.3,0.4
			c-0.2,1-1.5,1.8-2.4,2.3c-1.9,0-4.2-0.3-5.7,1.2c-2.1,2.2-4.7,3.6-6.6,5.7c0.2,0.7,0.9,1.2,0.5,2c-1.5,1-3.8,0.3-4.6,2.4
			c-0.6,4-5.7,0.9-7.7,3.5c-1,1.3-3.8,2.8-6,3.4l-2.1,4.4c2.4,0.9,5.7,2.1,8,1.8c5.2-1.7,7.2-9.5,13.2-9c3.4,0.6,6.4-0.4,8.8-2.7
			c2.3-0.9,2.5,2.9,4.6,2.5c0.2-1.4,0.3-3,1.9-3.6c0.7-0.3,1.9-0.2,2,0.8c-1.6,2.3,1.9,3.1,1.4,5.2c0.3,0.9,1.4,0.9,2.1,0.7
			c1.2-2.4,3.8-2.6,6.1-2.7c1.8-2.7,6.2-0.2,7.2-4l1.7-0.6c-2.4-20-12.8-37.6-28.1-49.8l-22.5,48
			C172.5,128.5,177.3,127.1,179.6,124.2"/>
		<path id="XMLID_2911_" class="st217" d="M187.7,174.3l-1.7,1.2c-0.1,0.1-0.2,0.3-0.2,0.5v4.3c0,0.2,0.1,0.4,0.3,0.5
			c0.2,0.1,0.4,0.1,0.6,0l1.2-0.8c0.6-0.4,1.1-1.5,1.1-2.4V175C188.9,174.2,188.4,173.8,187.7,174.3"/>
		<path id="XMLID_2910_" class="st217" d="M157.5,187.9l-3.9,0.8v16.5l4.2-0.7c2-0.4,2-2.7,2-2.7v-12.2
			C159.8,189.6,159.8,187.4,157.5,187.9"/>
	</g>
</g>
<g id="Watermark">
</g>
</svg>
