<?xml version="1.0" encoding="utf-8"?>
<!-- Generator: Adobe Illustrator 19.2.1, SVG Export Plug-In . SVG Version: 6.00 Build 0)  -->
<svg version="1.1" xmlns="http://www.w3.org/2000/svg" xmlns:xlink="http://www.w3.org/1999/xlink" x="0px" y="0px"
	 viewBox="0 0 288 288" style="enable-background:new 0 0 288 288;" xml:space="preserve">
<style type="text/css">
	.st0{display:none;}
	.st1{display:inline;}
	.st2{fill:#EF3E42;}
	.st3{fill:#004B8D;}
	.st4{fill:#D7CA9E;}
	.st5{fill:#A03123;}
	.st6{fill-rule:evenodd;clip-rule:evenodd;fill:#FFFFFF;}
	.st7{fill-rule:evenodd;clip-rule:evenodd;fill:#1E3B6E;}
	.st8{fill-rule:evenodd;clip-rule:evenodd;fill:#BE2132;}
	.st9{fill-rule:evenodd;clip-rule:evenodd;fill:#E19D26;}
	.st10{fill:#DC4329;}
	.st11{fill:#DC4A26;}
	.st12{fill:#231F20;}
	.st13{fill:#FFFFFF;}
	.st14{fill:#050404;}
	.st15{fill:#263C82;}
	.st16{fill:#CC3533;}
	.st17{fill:#E82F4D;}
	.st18{fill:#010101;}
	.st19{fill:#C1C8CF;}
	.st20{fill:#365A8B;}
	.st21{fill:#29417C;}
	.st22{fill:#F47920;}
	.st23{fill:#FAA61A;}
	.st24{fill:#CCCCCC;}
	.st25{fill:#002B54;}
	.st26{fill:#ED1C24;}
	.st27{opacity:0.3;fill:#002B54;}
	.st28{fill:#020303;}
	.st29{fill:#1B9ED8;}
	.st30{fill:#189DD8;}
	.st31{fill:#43748F;}
	.st32{fill:#EB3947;}
	.st33{fill:#EB3A47;}
	.st34{fill:#44758F;}
	.st35{fill:#1F9ED8;}
	.st36{fill:#FCFDFD;}
	.st37{fill:#020202;}
	.st38{fill:#E83543;}
	.st39{fill-rule:evenodd;clip-rule:evenodd;fill:#C1A677;}
	.st40{fill-rule:evenodd;clip-rule:evenodd;fill:#212F55;}
	.st41{fill-rule:evenodd;clip-rule:evenodd;fill:#AB285C;}
	.st42{fill-rule:evenodd;clip-rule:evenodd;fill:#014A67;}
	.st43{fill:#F47A39;}
	.st44{fill-rule:evenodd;clip-rule:evenodd;fill:#242052;}
	.st45{fill:#123B35;}
	.st46{display:inline;fill:#DB2732;}
	.st47{display:inline;fill:#1D3665;}
	.st48{fill-rule:evenodd;clip-rule:evenodd;}
	.st49{fill:#F58220;}
	.st50{fill:#1A3562;}
	.st51{fill:#036B66;}
	.st52{fill:#C4CDD3;}
	.st53{fill:#EB1F4E;}
	.st54{display:inline;fill:#C4203B;}
	.st55{display:inline;fill:#164883;}
	.st56{display:inline;fill:#90BCE5;}
	.st57{display:inline;fill:#1B2F5B;}
	.st58{fill:#144983;}
	.st59{fill:#CD1F43;}
	.st60{fill:#1A459D;}
	.st61{fill:#0A2042;}
	.st62{fill:#D92E27;}
	.st63{display:inline;fill:#CF1F45;}
	.st64{fill-rule:evenodd;clip-rule:evenodd;fill:#D7CA9E;}
	.st65{fill:#1E3B6E;}
	.st66{fill:#39B54A;}
	.st67{fill:#E19D26;}
	.st68{fill:#BE2132;}
	.st69{fill:#EF5426;}
	.st70{display:inline;fill:#FFFFFF;}
	.st71{display:inline;fill:#E31837;}
	.st72{display:inline;fill:#E21D37;}
	.st73{display:inline;fill:#005596;}
	.st74{display:inline;fill:#CC3533;}
	.st75{display:inline;fill:#E82F4D;}
	.st76{display:inline;fill:#010101;}
	.st77{display:inline;fill:#2A398B;}
	.st78{fill:#999999;}
	.st79{display:inline;fill:#999999;}
	.st80{display:inline;fill:#041E41;}
	.st81{display:inline;fill:#D4451D;}
	.st82{display:inline;fill:#EA7200;}
	.st83{display:inline;fill:#BDBBBB;}
	.st84{fill:#041E41;}
	.st85{fill:none;stroke:#000000;stroke-width:0.34;}
	.st86{fill:#D4451D;}
	.st87{fill:#EA7200;}
	.st88{fill:#BDBBBB;}
	.st89{fill:none;stroke:#EA7200;stroke-width:0;stroke-linecap:round;stroke-linejoin:round;}
	.st90{fill:#9C9FA1;}
	.st91{fill-rule:evenodd;clip-rule:evenodd;fill:#333290;}
	.st92{fill:#005B9B;}
	.st93{fill:#EF4043;}
	.st94{fill-rule:evenodd;clip-rule:evenodd;fill:#09A2DD;}
	.st95{fill-rule:evenodd;clip-rule:evenodd;fill:#43758E;}
	.st96{fill-rule:evenodd;clip-rule:evenodd;fill:#FCEE1E;}
	.st97{fill-rule:evenodd;clip-rule:evenodd;fill:#EE3441;}
	.st98{fill:#B89760;}
	.st99{fill:#D52D47;}
	.st100{fill-rule:evenodd;clip-rule:evenodd;fill:#0B2242;}
	.st101{fill:#F37938;}
	.st102{fill:#164883;}
	.st103{fill:#8E6D2A;}
	.st104{fill-rule:evenodd;clip-rule:evenodd;fill:#1A314F;}
	.st105{fill-rule:evenodd;clip-rule:evenodd;fill:#8F3326;}
	.st106{fill-rule:evenodd;clip-rule:evenodd;fill:#B68E64;}
	.st107{fill:#03493B;}
	.st108{fill:#FCC158;}
	.st109{fill:#BB544F;}
	.st110{fill:#D0B04A;}
	.st111{fill-rule:evenodd;clip-rule:evenodd;fill:#B6A269;}
	.st112{fill-rule:evenodd;clip-rule:evenodd;fill:#001F5B;}
	.st113{fill:#1D3665;}
	.st114{fill:#FFFFFF;stroke:#FFFFFF;stroke-width:0.16;}
	.st115{fill:#004666;}
	.st116{fill:none;stroke:#037062;stroke-width:2.8199;}
	.st117{fill:#BCCBD2;}
	.st118{fill:#037062;}
	.st119{fill:#E63248;}
	.st120{fill:none;stroke:#E63248;stroke-width:0.2826;}
	.st121{fill:none;stroke:#037062;stroke-width:1.0988;}
	.st122{fill:none;stroke:#BCCBD2;stroke-width:4.9365;}
	.st123{fill:#FCEE21;}
	.st124{fill:#FCEE23;}
	.st125{fill:#C4203B;}
	.st126{fill:#193661;}
	.st127{fill:#164884;}
	.st128{fill:#CF1F44;}
	.st129{fill:#0A2042;stroke:#010101;stroke-width:0.2131;}
	.st130{fill:#CF1F45;}
	.st131{fill:#1E3160;}
	.st132{fill:#BA202E;}
	.st133{fill:#212759;}
	.st134{fill:#BA1F31;}
	.st135{fill:#7BBCE8;}
	.st136{fill:#FED208;}
	.st137{fill:#6DB3E3;}
	.st138{fill:#FFCE04;}
	.st139{fill:#1B2F5B;}
	.st140{fill:#90BCE5;}
	.st141{fill:#D8782C;}
	.st142{fill:#C49C6F;}
	.st143{fill:#F04B23;}
	.st144{display:inline;fill-rule:evenodd;clip-rule:evenodd;fill:#F58220;}
	.st145{fill:#094F91;}
	.st146{fill:#DB2732;}
	.st147{fill:none;}
	.st148{fill:#00174A;}
	.st149{fill:none;stroke:#FFFFFF;stroke-width:3;stroke-miterlimit:10;}
	.st150{fill:none;stroke:#000000;stroke-width:0.1055;stroke-linecap:round;stroke-linejoin:round;}
	.st151{fill:#25358E;}
	.st152{fill:#ED1C2E;}
	.st153{fill:#FFFFFF;stroke:#000000;stroke-width:0.3293;stroke-linecap:round;stroke-linejoin:round;}
	.st154{display:inline;fill-rule:evenodd;clip-rule:evenodd;fill:#00174A;}
	.st155{fill:#0D2240;}
	.st156{display:inline;fill:#8EC641;}
	.st157{fill:#182D56;}
	.st158{fill:#BE323A;}
	.st159{fill:#C62034;}
	.st160{fill:#0B1437;}
	.st161{fill:#EC2135;}
	.st162{fill:#8EC641;}
	.st163{fill-rule:evenodd;clip-rule:evenodd;fill:#332312;}
	.st164{fill:#E4E5E6;}
	.st165{clip-path:url(#XMLID_4225_);}
	.st166{clip-path:url(#XMLID_4226_);fill:url(#XMLID_4227_);}
	.st167{clip-path:url(#XMLID_4228_);}
	.st168{clip-path:url(#XMLID_4229_);fill:url(#XMLID_4230_);}
	.st169{clip-path:url(#XMLID_4231_);}
	.st170{clip-path:url(#XMLID_4232_);fill:url(#XMLID_4233_);}
	.st171{clip-path:url(#XMLID_4234_);}
	.st172{clip-path:url(#XMLID_4235_);fill:url(#XMLID_4236_);}
	.st173{clip-path:url(#XMLID_4237_);}
	.st174{clip-path:url(#XMLID_4238_);fill:url(#XMLID_4239_);}
	.st175{clip-path:url(#XMLID_4240_);}
	.st176{clip-path:url(#XMLID_4241_);fill:url(#XMLID_4242_);}
	.st177{clip-path:url(#XMLID_4243_);}
	.st178{clip-path:url(#XMLID_4244_);fill:url(#XMLID_4245_);}
	.st179{clip-path:url(#XMLID_4246_);}
	.st180{clip-path:url(#XMLID_4247_);fill:url(#XMLID_4248_);}
	.st181{fill:#A4A9AD;}
	.st182{fill:#F05123;}
	.st183{fill:#8E744B;}
	.st184{fill:#EEE0C6;}
	.st185{fill:#8F182B;}
	.st186{fill:#FFC526;}
	.st187{fill:#B0B8BC;}
	.st188{fill:#FCBB30;}
	.st189{fill:#E21D38;}
	.st190{fill:#FFC759;}
	.st191{fill:#E03B3F;}
	.st192{fill:#8E8F92;}
	.st193{fill:#E13B3F;}
	.st194{fill:#FDDF0A;}
	.st195{fill:#E7AA23;}
	.st196{fill:#F37321;}
	.st197{fill:#008056;}
	.st198{fill:#E2293A;}
	.st199{fill:#1F438B;}
	.st200{fill:#005588;}
	.st201{fill:#A7B2B8;}
	.st202{fill:#8C2A43;}
	.st203{fill:#1C2D5B;}
	.st204{fill:#0C724D;}
	.st205{fill:#232020;}
	.st206{fill:#A8ABAD;}
	.st207{fill:#EB2627;}
	.st208{fill:#E56C25;}
	.st209{fill:#203C73;}
	.st210{fill:#B99758;}
	.st211{fill:#C8202F;}
	.st212{fill:#EEE3C6;}
	.st213{fill:#045937;}
	.st214{fill:#C02C38;}
	.st215{fill:#EEB41E;}
	.st216{fill:#F37E2F;}
	.st217{fill:#01549C;}
	.st218{fill:#0862AB;}
	.st219{fill:#E43B40;}
	.st220{fill:#DF1E38;}
	.st221{fill:#CD9C2B;}
	.st222{fill:#F47A3E;}
	.st223{fill:#FBB516;}
	.st224{fill:#E97424;}
	.st225{fill:#056D75;}
	.st226{fill:#142048;}
	.st227{fill:#FFC429;}
	.st228{fill:#114B9D;}
	.st229{fill:#213065;}
	.st230{fill:#1D2859;}
	.st231{fill:#A8AAAD;}
	.st232{fill:#1D427C;}
	.st233{fill:#153055;}
	.st234{fill:#AFB0B3;}
	.st235{fill:#20396F;}
	.st236{fill:#BE3138;}
	.st237{fill:#B4975A;}
	.st238{fill:#344042;}
	.st239{fill:#14244C;}
	.st240{fill:#D0202D;}
	.st241{fill:#A9A9AD;}
	.st242{fill:#1D3261;}
	.st243{fill:#811423;}
	.st244{fill:#6F6E76;}
	.st245{fill:#C62031;}
</style>
<g id="Layer_5" class="st0">
</g>
<g id="Layer_3">
</g>
<g id="Layer_4">
	<g id="XMLID_2602_">
		<path id="XMLID_2634_" class="st13" d="M50.4,132.4c0,0,1.3-16.6,6.8-16.6h10.1c0,0,1-23.5,9.7-23.5h100.4l15.2-35.6h16.2
			l-31.4,75.6h19.7c8.3,0,12.3,6.4,12.3,6.4l16.2-39.8h16.5l-14.8,36.2c0,0,5-2.7,7.5-2.7h34.8l-5.8,14h-5.4c0,0,3,3,3,7.1
			c0,6.2-5.8,14-13.1,14H178c-6.5,0-11.7-5.2-11.7-8.9l-8.3,20.3c0,0-0.4,0.7-0.4,2.1c0,1.4,0.2,1.6,0.4,1.8l18.1,15.5l9.3-11.4
			l29.9,0l-13,16.3h-23.8l-14.2,20.8c0,0-17.1-26.8-18.9-30c-1.9-3.2-2.5-8.1-2.5-10.7c0-7,2-11.6,2.5-13l1.1-2.7H98.1l-6.6,16.2
			H75.1l6.7-16.2H60.2c-5.9,0-9.4-5.6-9.4-5.6s-7.6,5.7-13.4,5.7H20.9c-7,0-11.3-6.3-11.3-10.6c0-9.8,14.8-24.6,33.7-24.6H50.4z"/>
		<path id="XMLID_2633_" class="st239" d="M42.4,142.5h10l2.5-6.1H44.1c-15.9,0-30.3,12-30.3,20.6c0,4.5,5,6.6,6,6.6h17.3
			c4.5,0,12.3-5.6,12.3-5.6l-6.2-2.9c0,0-3,2.2-5.2,2.2H23.1c-1.1,0-1.6-0.8-1.6-2C21.5,152.7,27.8,142.5,42.4,142.5"/>
		<path id="XMLID_2630_" class="st239" d="M74.7,157.4l-13.3,0c-0.8,0-0.9-0.9-0.9-1.4s1-3.6,4-3.6h12.5c0.7,0,3.3-1.1,3.3-1.1
			S78.5,157.4,74.7,157.4 M79.8,136.3H59.5l-2.5,6.1h21.7c3.4,0,3.8,1.3,3.8,3.5h-16c-9.4,0-13.4,6.7-13.4,9.9
			c0,5.7,5.1,7.7,7.5,7.7h10.6c2,0,4.4-1.6,4.4-1.6l-0.6,1.6l7.7,0l6-14.4c0.5-1.3,1.3-3.8,1.3-4.9C90,139.7,86.4,136.3,79.8,136.3"
			/>
		<path id="XMLID_2629_" class="st239" d="M80.8,179.7l7.5-17c1-2.3,7.6-26.3,32.7-26.3h18.4l-7.9,19.3c-1.6,3.9-5.1,8-9,8h-23
			l2.5-6.2h18.4c2.8,0,3.6-2.2,4.4-4.2l4.3-10.7h-7.5c-10.8,0-19.8,6.7-22.3,12.7l-10.4,24.5H80.8z"/>
		<polygon id="XMLID_2628_" class="st239" points="139.8,145.9 132.5,163.6 140.2,163.6 147.5,145.9 		"/>
		<polygon id="XMLID_2627_" class="st239" points="148.9,142.5 151.4,136.3 143.7,136.3 141.2,142.5 		"/>
		<path id="XMLID_2626_" class="st239" d="M154.5,136.3l-2.4,6.1h9.2L148.9,172c-0.9,2.1-2,5.2-2,12.4c0,2.6,0.5,5.1,1.2,6.2
			s16.5,25.6,16.5,25.6l10-14.2l-19.7-16.5c-0.6-0.5-1.1-1.8-1.1-4.4c0-2.6,0.5-3.4,1.2-5l47.8-115.6h-7.5L164,136.3H154.5z"/>
		<path id="XMLID_2623_" class="st239" d="M191.6,157.4l-13.3,0c-0.8,0-0.9-0.9-0.9-1.4c0-0.5,1-3.6,4-3.6h12.5
			c0.7,0,3.3-1.1,3.3-1.1S195.4,157.4,191.6,157.4 M196.7,136.3h-22.9l-2.5,6.1h24.3c3.4,0,3.8,1.3,3.8,3.5h-16
			c-9.4,0-13.4,6.7-13.4,9.9c0,5.7,5.1,7.7,7.5,7.7h10.6c2,0,4.4-1.6,4.4-1.6l-0.6,1.6l7.7,0l6-14.4c0.5-1.3,1.3-3.8,1.3-4.9
			C206.9,139.7,203.3,136.3,196.7,136.3"/>
		<polygon id="XMLID_2622_" class="st239" points="211.1,163.6 236.2,102.6 228.7,102.6 203.6,163.6 		"/>
		<path id="XMLID_2621_" class="st239" d="M215.3,163.6l2.5-6.2c0,0,27.1,0,28.8,0c1.8,0,3.2-1.8,3.2-2.7c0-1-0.5-1.7-1.7-1.7h-17.2
			c-1.8,0-6.1-2.3-6.1-6.3c0-3.9,2.2-10.3,13.8-10.3h25.3l-2.5,6.1h-25.9c-2,0-3.2,2.1-3.2,3.2c0,1,1,1.4,1.2,1.4h16.1
			c3.7,0,7.7,1.3,7.7,6.4s-3.3,10.1-11.3,10.1H215.3z"/>
		<polygon id="XMLID_2620_" class="st240" points="200.7,198.7 207,191.1 187.2,191.1 181.2,198.7 		"/>
		<polygon id="XMLID_2619_" class="st240" points="65.6,127.2 63.3,127.2 64,121.1 58.9,127.2 56.6,127.2 57,118.8 59.2,118.8 
			58.9,124.7 63.4,118.8 65.9,118.8 65.6,124.6 70.2,118.8 72.4,118.8 		"/>
		<path id="XMLID_2616_" class="st240" d="M76.8,124l0-3.4l-3.3,3.4H76.8z M76.9,125.4h-4.3l-1.6,1.9h-2.3l7.7-8.4h2.5l0.3,8.4h-2.1
			L76.9,125.4z"/>
		<path id="XMLID_2615_" class="st240" d="M80.9,124.5l2.2-0.1c-0.1,0.5,0,0.9,0.2,1.1c0.3,0.3,0.9,0.4,1.7,0.4
			c0.7,0,1.3-0.1,1.7-0.3c0.4-0.2,0.6-0.4,0.6-0.7c0-0.2-0.1-0.5-0.3-0.6c-0.2-0.1-0.6-0.3-1.4-0.6c-0.8-0.3-1.4-0.5-1.7-0.7
			c-0.4-0.2-0.6-0.4-0.8-0.7c-0.2-0.3-0.2-0.7-0.1-1.1c0.1-0.7,0.6-1.3,1.3-1.8c0.8-0.5,1.8-0.7,3-0.7c1.3,0,2.2,0.2,2.9,0.7
			s0.9,1.1,0.8,1.8l-2.2,0.1c0-0.4-0.1-0.7-0.4-0.9c-0.3-0.2-0.7-0.3-1.4-0.3c-0.6,0-1.1,0.1-1.4,0.3c-0.3,0.2-0.5,0.4-0.5,0.6
			c0,0.2,0,0.4,0.3,0.6c0.2,0.2,0.7,0.4,1.5,0.7c1.2,0.4,1.9,0.8,2.2,1c0.4,0.4,0.6,0.9,0.5,1.5c-0.1,0.7-0.6,1.4-1.5,1.9
			c-0.9,0.5-2,0.8-3.3,0.8c-0.9,0-1.7-0.1-2.4-0.4c-0.6-0.2-1.1-0.6-1.3-1C80.9,125.6,80.8,125.1,80.9,124.5"/>
		<polygon id="XMLID_2614_" class="st240" points="98.4,123.5 94.2,123.5 92.5,127.2 90.2,127.2 94,118.8 96.3,118.8 94.8,122.1 
			99,122.1 100.5,118.8 102.7,118.8 98.9,127.2 96.7,127.2 		"/>
		<polygon id="XMLID_2613_" class="st240" points="100.9,127.2 104.8,118.8 107,118.8 103.2,127.2 		"/>
		<polygon id="XMLID_2612_" class="st240" points="114.6,127.2 112.5,127.2 110.5,121.6 107.8,127.2 105.7,127.2 109.7,118.8 
			111.8,118.8 113.8,124.4 116.1,118.8 118.2,118.8 		"/>
		<path id="XMLID_2611_" class="st240" d="M123.7,122.7h4.9l-1.6,3.6c-0.6,0.3-1.4,0.5-2.3,0.7c-0.9,0.2-1.7,0.3-2.6,0.3
			c-1.4,0-2.3-0.2-3-0.7c-0.9-0.6-1.2-1.6-1-2.8c0.1-0.8,0.5-1.6,1.1-2.3c0.7-0.9,1.5-1.6,2.5-2.1c1-0.5,2.2-0.7,3.4-0.7
			c1.3,0,2.2,0.2,2.9,0.7c0.7,0.5,0.7,1.2,0.8,2.1l-2.1,0c-0.1-0.5,0-0.7-0.3-1c-0.4-0.2-0.9-0.4-1.5-0.4c-0.7,0-1.4,0.1-2.1,0.4
			c-0.7,0.3-1.2,0.7-1.7,1.3c-0.5,0.6-0.7,1.3-0.9,2c-0.1,0.7,0,1.2,0.3,1.6c0.4,0.3,0.9,0.5,1.7,0.5c0.5,0,1-0.1,1.5-0.2
			c0.5-0.1,1-0.2,1.4-0.4l0.6-1.2h-2.8L123.7,122.7z"/>
		<polygon id="XMLID_2610_" class="st240" points="132.7,127.2 130.5,127.2 133.6,120.2 130.4,120.2 131.1,118.8 139.7,118.8 
			139,120.2 135.9,120.2 		"/>
		<path id="XMLID_2607_" class="st240" d="M140.5,123.9c-0.1,0.6,0,1.1,0.4,1.4c0.4,0.4,1,0.6,1.7,0.6c0.6,0,1.2-0.2,1.8-0.5
			c0.6-0.3,1.2-0.8,1.6-1.4c0.5-0.6,0.8-1.2,0.9-1.8c0.1-0.7,0-1.2-0.4-1.6c-0.4-0.4-0.9-0.6-1.7-0.6c-1.1,0-2.1,0.4-2.9,1.2
			C141.2,122.1,140.7,123,140.5,123.9 M138.3,123.9c0.1-0.5,0.3-1,0.6-1.6c0.4-0.7,0.9-1.4,1.5-1.9c0.6-0.5,1.4-1,2.2-1.3
			c0.8-0.3,1.8-0.5,2.8-0.5c1.4,0,2.4,0.3,3.1,1c0.7,0.6,1,1.5,0.8,2.6c-0.2,0.9-0.6,1.7-1.3,2.6c-0.7,0.8-1.5,1.5-2.6,1.9
			c-1,0.4-2.1,0.7-3.3,0.7c-1,0-1.8-0.2-2.5-0.5c-0.6-0.4-1-0.8-1.2-1.3S138.2,124.5,138.3,123.9"/>
		<polygon id="XMLID_2606_" class="st240" points="157.4,127.2 155.4,127.2 153.4,121.6 150.9,127.2 148.8,127.2 152.6,118.8 
			154.7,118.8 156.6,124.4 159.2,118.8 161.3,118.8 		"/>
		<polygon id="XMLID_2605_" class="st240" points="86.9,105.1 92.6,100.9 85.6,100.9 83.4,94.3 81.3,100.9 74.4,100.9 80,105 
			77.9,111.8 83.6,107.6 89,111.6 		"/>
		<polygon id="XMLID_2604_" class="st240" points="123.9,105.1 129.6,100.9 122.5,100.9 120.3,94.3 118.3,100.9 111.4,100.9 
			117,105 114.8,111.8 120.5,107.6 126,111.6 		"/>
		<polygon id="XMLID_2603_" class="st240" points="160.7,105.1 166.4,100.9 159.3,100.9 157.2,94.3 155.1,100.9 148.2,100.9 
			153.8,105 151.7,111.8 157.3,107.6 162.8,111.6 		"/>
	</g>
</g>
<g id="Watermark">
</g>
</svg>
