<?xml version="1.0" encoding="utf-8"?>
<!-- Generator: Adobe Illustrator 19.2.1, SVG Export Plug-In . SVG Version: 6.00 Build 0)  -->
<svg version="1.1" xmlns="http://www.w3.org/2000/svg" xmlns:xlink="http://www.w3.org/1999/xlink" x="0px" y="0px"
	 viewBox="0 0 288 288" style="enable-background:new 0 0 288 288;" xml:space="preserve">
<style type="text/css">
	.st0{display:none;}
	.st1{display:inline;}
	.st2{fill:#EF3E42;}
	.st3{fill:#004B8D;}
	.st4{fill:#D7CA9E;}
	.st5{fill:#A03123;}
	.st6{fill-rule:evenodd;clip-rule:evenodd;fill:#FFFFFF;}
	.st7{fill-rule:evenodd;clip-rule:evenodd;fill:#1E3B6E;}
	.st8{fill-rule:evenodd;clip-rule:evenodd;fill:#BE2132;}
	.st9{fill-rule:evenodd;clip-rule:evenodd;fill:#E19D26;}
	.st10{fill:#DC4329;}
	.st11{fill:#DC4A26;}
	.st12{fill:#231F20;}
	.st13{fill:#FFFFFF;}
	.st14{fill:#050404;}
	.st15{fill:#263C82;}
	.st16{fill:#CC3533;}
	.st17{fill:#E82F4D;}
	.st18{fill:#010101;}
	.st19{fill:#C1C8CF;}
	.st20{fill:#365A8B;}
	.st21{fill:#29417C;}
	.st22{fill:#F47920;}
	.st23{fill:#FAA61A;}
	.st24{fill:#CCCCCC;}
	.st25{fill:#002B54;}
	.st26{fill:#ED1C24;}
	.st27{opacity:0.3;fill:#002B54;}
	.st28{fill:#020303;}
	.st29{fill:#1B9ED8;}
	.st30{fill:#189DD8;}
	.st31{fill:#43748F;}
	.st32{fill:#EB3947;}
	.st33{fill:#EB3A47;}
	.st34{fill:#44758F;}
	.st35{fill:#1F9ED8;}
	.st36{fill:#FCFDFD;}
	.st37{fill:#020202;}
	.st38{fill:#E83543;}
	.st39{fill-rule:evenodd;clip-rule:evenodd;fill:#C1A677;}
	.st40{fill-rule:evenodd;clip-rule:evenodd;fill:#212F55;}
	.st41{fill-rule:evenodd;clip-rule:evenodd;fill:#AB285C;}
	.st42{fill-rule:evenodd;clip-rule:evenodd;fill:#014A67;}
	.st43{fill:#F47A39;}
	.st44{fill-rule:evenodd;clip-rule:evenodd;fill:#242052;}
	.st45{fill:#123B35;}
	.st46{display:inline;fill:#DB2732;}
	.st47{display:inline;fill:#1D3665;}
	.st48{fill-rule:evenodd;clip-rule:evenodd;}
	.st49{fill:#F58220;}
	.st50{fill:#1A3562;}
	.st51{fill:#036B66;}
	.st52{fill:#C4CDD3;}
	.st53{fill:#EB1F4E;}
	.st54{display:inline;fill:#C4203B;}
	.st55{display:inline;fill:#164883;}
	.st56{display:inline;fill:#90BCE5;}
	.st57{display:inline;fill:#1B2F5B;}
	.st58{fill:#144983;}
	.st59{fill:#CD1F43;}
	.st60{fill:#1A459D;}
	.st61{fill:#0A2042;}
	.st62{fill:#D92E27;}
	.st63{display:inline;fill:#CF1F45;}
	.st64{fill-rule:evenodd;clip-rule:evenodd;fill:#D7CA9E;}
	.st65{fill:#1E3B6E;}
	.st66{fill:#39B54A;}
	.st67{fill:#E19D26;}
	.st68{fill:#BE2132;}
	.st69{fill:#EF5426;}
	.st70{display:inline;fill:#FFFFFF;}
	.st71{display:inline;fill:#E31837;}
	.st72{display:inline;fill:#E21D37;}
	.st73{display:inline;fill:#005596;}
	.st74{display:inline;fill:#CC3533;}
	.st75{display:inline;fill:#E82F4D;}
	.st76{display:inline;fill:#010101;}
	.st77{display:inline;fill:#2A398B;}
	.st78{fill:#999999;}
	.st79{display:inline;fill:#999999;}
	.st80{display:inline;fill:#041E41;}
	.st81{display:inline;fill:#D4451D;}
	.st82{display:inline;fill:#EA7200;}
	.st83{display:inline;fill:#BDBBBB;}
	.st84{fill:#041E41;}
	.st85{fill:none;stroke:#000000;stroke-width:0.34;}
	.st86{fill:#D4451D;}
	.st87{fill:#EA7200;}
	.st88{fill:#BDBBBB;}
	.st89{fill:none;stroke:#EA7200;stroke-width:0;stroke-linecap:round;stroke-linejoin:round;}
	.st90{fill:#9C9FA1;}
	.st91{fill-rule:evenodd;clip-rule:evenodd;fill:#333290;}
	.st92{fill:#005B9B;}
	.st93{fill:#EF4043;}
	.st94{fill-rule:evenodd;clip-rule:evenodd;fill:#09A2DD;}
	.st95{fill-rule:evenodd;clip-rule:evenodd;fill:#43758E;}
	.st96{fill-rule:evenodd;clip-rule:evenodd;fill:#FCEE1E;}
	.st97{fill-rule:evenodd;clip-rule:evenodd;fill:#EE3441;}
	.st98{fill:#B89760;}
	.st99{fill:#D52D47;}
	.st100{fill-rule:evenodd;clip-rule:evenodd;fill:#0B2242;}
	.st101{fill:#F37938;}
	.st102{fill:#164883;}
	.st103{fill:#8E6D2A;}
	.st104{fill-rule:evenodd;clip-rule:evenodd;fill:#1A314F;}
	.st105{fill-rule:evenodd;clip-rule:evenodd;fill:#8F3326;}
	.st106{fill-rule:evenodd;clip-rule:evenodd;fill:#B68E64;}
	.st107{fill:#03493B;}
	.st108{fill:#FCC158;}
	.st109{fill:#BB544F;}
	.st110{fill:#D0B04A;}
	.st111{fill-rule:evenodd;clip-rule:evenodd;fill:#B6A269;}
	.st112{fill-rule:evenodd;clip-rule:evenodd;fill:#001F5B;}
	.st113{fill:#1D3665;}
	.st114{fill:#FFFFFF;stroke:#FFFFFF;stroke-width:0.16;}
	.st115{fill:#004666;}
	.st116{fill:none;stroke:#037062;stroke-width:2.8199;}
	.st117{fill:#BCCBD2;}
	.st118{fill:#037062;}
	.st119{fill:#E63248;}
	.st120{fill:none;stroke:#E63248;stroke-width:0.2826;}
	.st121{fill:none;stroke:#037062;stroke-width:1.0988;}
	.st122{fill:none;stroke:#BCCBD2;stroke-width:4.9365;}
	.st123{fill:#FCEE21;}
	.st124{fill:#FCEE23;}
	.st125{fill:#C4203B;}
	.st126{fill:#193661;}
	.st127{fill:#164884;}
	.st128{fill:#CF1F44;}
	.st129{fill:#0A2042;stroke:#010101;stroke-width:0.2131;}
	.st130{fill:#CF1F45;}
	.st131{fill:#1E3160;}
	.st132{fill:#BA202E;}
	.st133{fill:#212759;}
	.st134{fill:#BA1F31;}
	.st135{fill:#7BBCE8;}
	.st136{fill:#FED208;}
	.st137{fill:#6DB3E3;}
	.st138{fill:#FFCE04;}
	.st139{fill:#1B2F5B;}
	.st140{fill:#90BCE5;}
	.st141{fill:#D8782C;}
	.st142{fill:#C49C6F;}
	.st143{fill:#F04B23;}
	.st144{display:inline;fill-rule:evenodd;clip-rule:evenodd;fill:#F58220;}
	.st145{fill:#094F91;}
	.st146{fill:#DB2732;}
	.st147{fill:none;}
	.st148{fill:#00174A;}
	.st149{fill:none;stroke:#FFFFFF;stroke-width:3;stroke-miterlimit:10;}
	.st150{fill:none;stroke:#000000;stroke-width:0.1055;stroke-linecap:round;stroke-linejoin:round;}
	.st151{fill:#25358E;}
	.st152{fill:#ED1C2E;}
	.st153{fill:#FFFFFF;stroke:#000000;stroke-width:0.3293;stroke-linecap:round;stroke-linejoin:round;}
	.st154{display:inline;fill-rule:evenodd;clip-rule:evenodd;fill:#00174A;}
	.st155{fill:#0D2240;}
	.st156{display:inline;fill:#8EC641;}
	.st157{fill:#182D56;}
	.st158{fill:#BE323A;}
	.st159{fill:#C62034;}
	.st160{fill:#0B1437;}
	.st161{fill:#EC2135;}
	.st162{fill:#8EC641;}
	.st163{fill-rule:evenodd;clip-rule:evenodd;fill:#332312;}
	.st164{fill:#E4E5E6;}
	.st165{clip-path:url(#XMLID_4225_);}
	.st166{clip-path:url(#XMLID_4226_);fill:url(#XMLID_4227_);}
	.st167{clip-path:url(#XMLID_4228_);}
	.st168{clip-path:url(#XMLID_4229_);fill:url(#XMLID_4230_);}
	.st169{clip-path:url(#XMLID_4231_);}
	.st170{clip-path:url(#XMLID_4232_);fill:url(#XMLID_4233_);}
	.st171{clip-path:url(#XMLID_4234_);}
	.st172{clip-path:url(#XMLID_4235_);fill:url(#XMLID_4236_);}
	.st173{clip-path:url(#XMLID_4237_);}
	.st174{clip-path:url(#XMLID_4238_);fill:url(#XMLID_4239_);}
	.st175{clip-path:url(#XMLID_4240_);}
	.st176{clip-path:url(#XMLID_4241_);fill:url(#XMLID_4242_);}
	.st177{clip-path:url(#XMLID_4243_);}
	.st178{clip-path:url(#XMLID_4244_);fill:url(#XMLID_4245_);}
	.st179{clip-path:url(#XMLID_4246_);}
	.st180{clip-path:url(#XMLID_4247_);fill:url(#XMLID_4248_);}
	.st181{fill:#A4A9AD;}
	.st182{fill:#F05123;}
	.st183{fill:#8E744B;}
	.st184{fill:#EEE0C6;}
	.st185{fill:#8F182B;}
	.st186{fill:#FFC526;}
	.st187{fill:#B0B8BC;}
	.st188{fill:#FCBB30;}
	.st189{fill:#E21D38;}
	.st190{fill:#FFC759;}
	.st191{fill:#E03B3F;}
	.st192{fill:#8E8F92;}
	.st193{fill:#E13B3F;}
	.st194{fill:#FDDF0A;}
	.st195{fill:#E7AA23;}
	.st196{fill:#F37321;}
	.st197{fill:#008056;}
	.st198{fill:#E2293A;}
	.st199{fill:#1F438B;}
	.st200{fill:#005588;}
	.st201{fill:#A7B2B8;}
	.st202{fill:#8C2A43;}
	.st203{fill:#1C2D5B;}
	.st204{fill:#0C724D;}
	.st205{fill:#232020;}
	.st206{fill:#A8ABAD;}
	.st207{fill:#EB2627;}
	.st208{fill:#E56C25;}
	.st209{fill:#203C73;}
	.st210{fill:#B99758;}
	.st211{fill:#C8202F;}
	.st212{fill:#EEE3C6;}
	.st213{fill:#045937;}
	.st214{fill:#C02C38;}
	.st215{fill:#EEB41E;}
	.st216{fill:#F37E2F;}
	.st217{fill:#01549C;}
	.st218{fill:#0862AB;}
	.st219{fill:#E43B40;}
	.st220{fill:#DF1E38;}
	.st221{fill:#CD9C2B;}
	.st222{fill:#F47A3E;}
	.st223{fill:#FBB516;}
	.st224{fill:#E97424;}
	.st225{fill:#056D75;}
	.st226{fill:#142048;}
	.st227{fill:#FFC429;}
	.st228{fill:#114B9D;}
	.st229{fill:#213065;}
	.st230{fill:#1D2859;}
	.st231{fill:#A8AAAD;}
	.st232{fill:#1D427C;}
	.st233{fill:#153055;}
	.st234{fill:#AFB0B3;}
	.st235{fill:#20396F;}
	.st236{fill:#BE3138;}
	.st237{fill:#B4975A;}
	.st238{fill:#344042;}
	.st239{fill:#14244C;}
	.st240{fill:#D0202D;}
	.st241{fill:#A9A9AD;}
	.st242{fill:#1D3261;}
	.st243{fill:#811423;}
	.st244{fill:#6F6E76;}
	.st245{fill:#C62031;}
</style>
<g id="Layer_5" class="st0">
</g>
<g id="Layer_3">
</g>
<g id="Layer_4">
	<g id="XMLID_2965_">
		<path id="XMLID_2997_" class="st13" d="M94.9,105c0,0-9.6,3.9-16.2,13.9c3-0.8,6.3-1.7,9.9-2.5C91.5,109.5,94.9,105,94.9,105"/>
		<path id="XMLID_2996_" class="st13" d="M231.5,125.7c6,1.6,10.7,3.8,10.7,3.8s8.1,5.1,11.8-1.4l-12.4-5.8
			C238.1,124.2,234.7,125.3,231.5,125.7"/>
		<path id="XMLID_2995_" class="st13" d="M63.2,104.7l44.1-9.9c0,0,1.7,5.7,9.3,10.2l-0.1,1.4c-3.5,0.7-9,3-14.2,7
			c7.9-1.5,16.6-2.8,26-3.7l2.2-5.2c-13.8,2-20.1-9.7-20.1-9.7l-1.1-3.6l-80.3,18c8.7,0.6,18.2,3.4,26.9,7.8
			C58.1,110,63.2,104.7,63.2,104.7"/>
		<path id="XMLID_2994_" class="st13" d="M197.6,126.7c-3.7,1.8-6.9,4.4-10.5,7.4l4.2-7.8c0,0-11-0.4-21.5-0.2l-6.9,7.6
			c-2.6-0.8-5.3-1.2-8.1-1.3c-0.2-3.8,1.3-8.2,4.7-12.3c-4.5,3.4-7.1,7.7-7.7,12.4c-2,0.2-3.9,0.5-5.7,1c-1-3.2-0.9-7.1,0.6-11.3
			c-2.6,4-3.7,8.1-3.1,12.2c-1.8,0.7-3.6,1.6-5.3,2.6c-1.6-2.5-2.6-5.8-2.7-9.7c-0.9,4-0.7,7.8,0.7,11c-5.9,4.4-8.5,9.7-8.5,9.7
			c-18.7-3.4-29.9,12.2-30.3,23.2c-1.2-7.6,1.2-21,16.3-27.4l5-11.7c0.3-0.7,0.7-1.4,1.2-2c-16.8,3.1-27.1,9.8-27.1,9.8
			s-4.5,8.1-2.6,16.3c0,0-2.9-4-4.7-10.8c-0.8,0.7-1.4,1.4-1.9,1.9c0.6,2.4,0.9,4.9,0.9,7.5c0,12.2-5.1,19.9-5.1,19.9l17.1,3.5
			c0,0,6.5,9.4,20.3,9.4c4.4,0,10.2-0.5,10.2-3.3c0-2.1-5.2-5-5.2-11.1c0-9.9,12.5-20.3,25.9-24.7c15.7-5.2,39.6-11.2,51.6-11.2
			c34.1,0,33,22.5,33,22.5l1.7-0.1c7.6-4.3,14.3-5.1,16.3-5.2C253.6,142.1,247.4,131.1,197.6,126.7"/>
		<path id="XMLID_2991_" class="st13" d="M155.8,102.8c-7.2,0.3-12.9,2.9-17.2,6.2c5.7-0.3,11.5-0.5,17.5-0.5
			c2.9-3.9,4.7-8.1,4.7-12.6c0-7.7-3.9-12.2-3.9-12.2l19-4.2l5.9,2.9c0,0-14,5.4-14,20.5c0,2.2,0.3,4.1,0.8,5.9
			c10,0.5,20.4,1.6,31,3.5c0,0,3.4,8.3,12.8,8.3c4.5,0,8-2.5,8-2.5c10.2,7.7,19.5,3.4,19.5,3.4l-3.5-2.9l-3.3,1.8l2.1-3.1l-1.3-1.4
			l-4.5,2.3l2.8-4.3l-1-1.1l-3.8,1.7l2.2-3.7l-1.5-2.4c-1.4,6.3-7,7-11.8,6.6l-0.2-2.8c-1,0.7-2.3,1-3.6,1c-3.7,0-6.8-3-6.8-6.8
			c0-2.1-10.6-11.6-10.6-11.6l13.7,4.2c11.5,3.5,11,9.2,11.1,12.3c1.9,0.9,6.3,1.5,8.2-3.1l-1.4-7.5l-9.1-4.4l-6.3-5.9l-35-14.2
			L141.8,84c8.1,2,14.9,6.2,14.9,6.2S159.2,96.1,155.8,102.8 M224.5,103.9l-1.7,6.6c0-5-3-7.8-11.7-13L224.5,103.9z"/>
		<path id="XMLID_2990_" class="st13" d="M60.6,119.6c1.7,1,3.3,2.1,4.9,3.2c1.4-0.5,3.1-1,5-1.6c3-11.3,9-18.9,9-18.9
			C67,107,61.7,117.3,60.6,119.6"/>
		<path id="XMLID_2989_" class="st13" d="M112.9,93.7c0,0,5,8.6,14,8.6l9.3-0.6l7.7-8l10.5-1.6c-3.9-2.3-8.2-4-12.7-5.2l-8.7,12.2
			l5.6-13c-1.6-0.4-3.2-0.7-4.8-0.9l-7.5,10.5l4.7-10.9c-2-0.2-3.9-0.4-5.7-0.5l-5.8,8l3.5-8.2c-8.1-0.3-14.1,0.3-14.1,0.3l2,1.7
			L112.9,93.7L112.9,93.7z"/>
		<path id="XMLID_2988_" class="st13" d="M124.7,174.1c1.1,5,4.4,6.4,4.7,8.2c0,0,8.6-1.8,14.4-10.3
			C132.6,177.6,124.7,174.1,124.7,174.1"/>
		<path id="XMLID_2987_" class="st13" d="M225.7,153.5c0-4.9-8.1-9.5-11.9-9.5c-15.6,0-15.4,33.2-70.6,61.4
			C190.3,198.6,225.7,166.6,225.7,153.5"/>
		<path id="XMLID_2984_" class="st188" d="M257.8,125.3c-0.3-0.7-0.8-1.3-1.5-1.6l-13.1-6.3l-4-3.1l-5.9-7.3l-1.9-8.7
			c-0.2-0.8-0.7-1.6-1.5-2l-9.2-5.2l-5.8-5.8c-0.3-0.3-0.6-0.5-1-0.6l-36-15.6c-0.6-0.2-1.2-0.3-1.8-0.2l-49,9.8
			c-13.3-1-25,0.6-25.5,0.7c-3,0.5-3,3.7-2,4.8L26.3,98.7c-0.7,0.1-1.4,0.6-1.8,1.1l-7.8,10.2c-1.4,1.8-0.3,4.6,2,4.9
			c0.5,0.1,53.6,7.3,53.6,39.5c0,11.9-8.1,23.5-8.2,23.6c-1.2,1.7-0.5,4.3,2,4.8l30,5.4c2.3,1.8,9.9,7.2,21,7.2
			c13.1,0,16.9-5,17.7-9c6.5-2.8,14.7-9.3,14.7-14.6c0-3.3-3-5.5-5.7-5.5c-0.3,0-0.6,0.1-0.9,0.2c0,0-1.4-2.6-4.8-2.6
			c-1.4,0-3,0.7-4.2,1.2c3-3.5,8-7.6,15.9-10.2c12.3-4.1,28.2-7.5,36.2-9.1c-12.2,35.3-53.8,53.9-54.2,54.1c-2.5,1.1-2,4.2-1,4.9
			l-4.6,2c-3.2,1.4-1.9,6.1,1.5,5.9c44-3.7,76.3-19.1,98.8-46.9h9.1c0.5,0,1-0.1,1.5-0.4c8.9-4.9,14.8-4.7,14.9-4.7
			c1.2,0.1,2.4-0.6,2.9-1.7c4.4-8.9,9.1-13.7,9.2-13.7c0.7-0.7,1.3-1.9,0.7-3.3L257.8,125.3z M252,157.5c0,0-6.6-0.4-16.5,5.1h-8.3
			l-1.5-0.8c-22.4,28.9-54.4,44-98.3,47.8c0,0,14.9-6.6,23-10.8l-17.4,3.9c0,0,47.2-20.5,57.5-60.9c0,0-24.4,4.5-41.7,10.2
			c-17.2,5.7-21.8,18.1-21.8,18.1c6.1-0.6,9.3-3.2,11.1-3.2c2.2,0,3.1,2.3,2.5,3.6c1-0.4,2.3-1.2,3.2-1.2c1.1,0,2.7,1,2.7,2.5
			c0,3.7-8.3,10.5-14.5,12.5c0,2.3-0.9,8.1-14.9,8.1c-12,0-19.7-7-19.7-7l-30.8-5.6c0,0,8.8-12.4,8.8-25.4
			c0-35.3-56.3-42.6-56.3-42.6l7.8-10.2l79.4-15.9l-4.2-3.6c0,0,12-1.8,25.3-0.7l49.4-9.9l36,15.6l6.1,6.1l9.6,5.4l2.1,9.4l6.6,8.1
			l4.6,3.5l13.4,6.5l6.8,16.6C261.8,143,256.7,147.9,252,157.5"/>
		<path id="XMLID_2983_" class="st188" d="M242.2,129.5c0,0-4.7-2.1-10.7-3.8c-9.3,1.3-16.4-2.6-16.4-2.6c-7.7,0-13,1.2-17.5,3.5
			c49.8,4.4,56.1,15.4,52.8,27.7c0.4,0,0.6,0,0.6,0s3.4-6.3,7.3-10.8c0,0-5.1-10.6-22.9-11.5L242.2,129.5L242.2,129.5z"/>
		<path id="XMLID_2982_" class="st188" d="M88.6,116.3c-3.6,0.8-6.9,1.7-9.9,2.5c-2.1,3.1-3.8,6.8-4.9,11.1c4.8,5,8.3,10.8,9.9,17.2
			c0.5-0.5,1.1-1.2,1.9-1.9c-0.7-2.9-1.2-6.2-1.2-10C84.3,128.3,86.3,121.6,88.6,116.3"/>
		<path id="XMLID_2981_" class="st188" d="M199.6,112.3c-10.5-1.9-20.9-3-31-3.5c2,7,6.9,10.9,6.9,10.9l-5.8,6.4
			c10.5-0.2,21.5,0.2,21.5,0.2l-4.2,7.8l10.8-11.9L199.6,112.3z"/>
		<path id="XMLID_2980_" class="st188" d="M127.4,123l-5.3,1.2l6.2-14.4c-9.4,0.9-18.1,2.2-26,3.7c-7.4,5.8-14.4,15.4-14.4,29.6
			c0,7.1,2.4,13,2.4,13c-1.9-8.3,2.6-16.3,2.6-16.3s10.4-6.6,27.1-9.8c1.2-1.4,2.9-2.4,5.4-3c12-3.1,24.3-9.9,30.8-18.5
			c-6,0-11.9,0.2-17.5,0.5C130.7,114.9,127.4,123,127.4,123"/>
		<path id="XMLID_2979_" class="st188" d="M69.6,126c0.3-1.7,0.6-3.3,1-4.8c-1.9,0.6-3.6,1.1-5,1.6C66.9,123.8,68.3,124.9,69.6,126"
			/>
		<path id="XMLID_2978_" class="st188" d="M213.4,111.1c1.4,0,2.5-0.7,2.5-0.7c-0.1-0.5-0.2-1-0.3-1.4c-0.3,0.2-0.8,0.4-1.4,0.4
			c-1.5,0-2.5-1.2-2.5-2.5c0-1.1,0.8-2.1,1.9-2.4c-1.4-1.9-2.7-2.7-2.7-2.7s-2.4,1.3-2.4,4.3C208.3,109,210.8,111.1,213.4,111.1"/>
		<path id="XMLID_2971_" class="st131" d="M241.6,120l-4.6-3.5l-6.6-8.1l-2.1-9.4l-9.6-5.4l-6.1-6.1l-36-15.6l-49.4,9.9
			c-13.3-1.1-25.3,0.7-25.3,0.7l4.2,3.6l-79.4,15.8l-7.8,10.2c0,0,56.3,7.3,56.3,42.6c0,13-8.8,25.4-8.8,25.4l30.8,5.6
			c0,0,7.7,7,19.7,7c14,0,14.9-5.9,14.9-8.1c6.2-2,14.5-8.7,14.5-12.5c0-1.5-1.6-2.5-2.7-2.5c-0.9,0-2.2,0.7-3.2,1.2
			c0.6-1.3-0.3-3.6-2.5-3.6c-1.9,0-5,2.6-11.1,3.2c0,0,4.7-12.5,21.8-18.1c17.3-5.7,41.7-10.2,41.7-10.2
			c-10.3,40.4-57.5,60.9-57.5,60.9l17.4-3.9c-8.1,4.3-23,10.8-23,10.8c43.9-3.7,75.9-18.8,98.3-47.8l1.5,0.8h8.3
			c9.9-5.5,16.5-5.1,16.5-5.1c4.7-9.6,9.8-14.5,9.8-14.5l-6.8-16.6L241.6,120z M122.7,84l-3.5,8.2l5.8-8c1.8,0.1,3.7,0.3,5.7,0.5
			l-4.7,10.9l7.5-10.5c1.6,0.2,3.2,0.5,4.8,0.9l-5.6,13l8.7-12.2c4.5,1.2,8.8,2.9,12.7,5.2l-10.5,1.6l-7.7,8l-9.3,0.6
			c-9,0-14-8.6-14-8.6l-2.2-7.6l-2-1.7C108.7,84.3,114.6,83.7,122.7,84 M69.6,126c-1.3-1.1-2.6-2.2-4-3.2c-1.6-1.1-3.2-2.2-4.9-3.2
			c1-2.3,6.4-12.5,19-17.2c0,0-6.1,7.5-9,18.9C70.2,122.7,69.8,124.3,69.6,126 M143.8,172c-5.7,8.5-14.4,10.3-14.4,10.3
			c-0.3-1.9-3.6-3.3-4.7-8.2C124.7,174.1,132.6,177.6,143.8,172 M143.3,205.3c55.2-28.2,54.9-61.4,70.6-61.4
			c3.8,0,11.9,4.7,11.9,9.5C225.7,166.6,190.3,198.6,143.3,205.3 M258.2,143.5c-3.9,4.6-7.3,10.8-7.3,10.8s-0.2,0-0.6,0
			c-2,0.2-8.7,1-16.3,5.2l-1.7,0.1c0,0,1.1-22.5-33-22.5c-12,0-36,6-51.6,11.2c-13.4,4.4-25.9,14.7-25.9,24.7c0,6.1,5.2,9,5.2,11.1
			c0,2.8-5.8,3.3-10.2,3.3c-13.9,0-20.3-9.4-20.3-9.4l-17.1-3.5c0,0,5.1-7.7,5.1-19.9c0-2.6-0.3-5.1-0.9-7.5
			c-1.6-6.3-5.1-12.1-9.9-17.1c1.1-4.3,2.9-8,4.9-11.1c6.6-10,16.2-13.9,16.2-13.9s-3.4,4.5-6.3,11.4c-2.3,5.3-4.3,11.9-4.3,18.9
			c0,3.8,0.5,7.1,1.2,10c1.7,6.8,4.7,10.8,4.7,10.8s-2.4-5.8-2.4-13c0-14.2,6.9-23.8,14.4-29.6c5.2-4.1,10.7-6.3,14.2-7.1l0.1-1.4
			c-7.5-4.5-9.3-10.2-9.3-10.2l-44.1,9.9c0,0-5.1,5.4-7.2,12.3c-8.7-4.4-18.2-7.2-26.9-7.8l80.3-18l1.1,3.6c0,0,6.2,11.8,20.1,9.7
			l-2.2,5.2l-6.2,14.4l5.3-1.2c0,0,3.3-8.1,11.2-14c4.3-3.3,10-5.9,17.2-6.2c3.4-6.6,0.8-12.6,0.8-12.6s-6.7-4.2-14.8-6.2l34.5-7.7
			l35,14.2l6.3,5.9l9.1,4.4l1.4,7.5l1.5,2.4l-2.2,3.7l3.8-1.7l1,1.1l-2.8,4.3l4.5-2.3l1.3,1.5l-2.1,3.1l3.3-1.8l3.5,2.9
			c0,0-9.3,4.2-19.5-3.4c0,0-3.5,2.5-8,2.5c-9.4,0-12.8-8.3-12.8-8.3l-1.7,9.9l-10.8,11.9c3.6-3.1,6.8-5.6,10.5-7.4
			c4.5-2.3,9.8-3.5,17.5-3.5c0,0,7.1,3.9,16.4,2.6c3.2-0.5,6.6-1.5,10-3.5l12.4,5.8c-3.6,6.6-11.8,1.4-11.8,1.4l-6.9,2.4
			C253.1,132.8,258.2,143.5,258.2,143.5"/>
		<path id="XMLID_2968_" class="st131" d="M219.9,111.4c-0.1-3.1,0.4-8.8-11.1-12.3l-13.7-4.2c0,0,10.6,9.5,10.6,11.6
			c0,3.7,3,6.8,6.8,6.8c1.3,0,2.6-0.4,3.6-1l0.2,2.8c4.8,0.4,10.4-0.4,11.8-6.6C226.1,112.9,221.8,112.2,219.9,111.4 M213.4,111.1
			c-2.6,0-5-2.1-5-5c0-2.9,2.4-4.3,2.4-4.3s1.4,0.8,2.7,2.7c-1.1,0.3-1.9,1.3-1.9,2.4c0,1.3,1,2.5,2.5,2.5c0.6,0,1.1-0.2,1.4-0.4
			c0.1,0.5,0.2,0.9,0.3,1.4C215.9,110.5,214.8,111.1,213.4,111.1"/>
		<path id="XMLID_2967_" class="st131" d="M222.8,110.5l1.7-6.6l-13.4-6.4C219.8,102.7,222.8,105.5,222.8,110.5"/>
		<path id="XMLID_2966_" class="st131" d="M181.8,82.4l-5.9-2.9l-19,4.2c0,0,3.9,4.5,3.9,12.2c0,4.4-1.8,8.7-4.7,12.6
			c-6.5,8.6-18.8,15.4-30.8,18.5c-2.5,0.6-4.2,1.6-5.4,3c-0.5,0.6-0.9,1.2-1.2,2l-5,11.7c-15,6.4-17.5,19.8-16.3,27.4
			c0.4-11,11.7-26.6,30.3-23.2c0,0,2.6-5.3,8.5-9.7c-1.4-3.2-1.7-7-0.7-11c0.1,3.9,1.1,7.2,2.7,9.7c1.7-1,3.4-1.9,5.3-2.6
			c-0.5-4,0.5-8.2,3.1-12.2c-1.5,4.3-1.6,8.2-0.6,11.3c1.8-0.5,3.8-0.9,5.7-1c0.6-4.8,3.3-9.1,7.7-12.4c-3.4,4.2-4.9,8.5-4.7,12.3
			c2.8,0.1,5.5,0.5,8.1,1.3l6.9-7.6l5.8-6.4c0,0-4.9-3.8-6.9-10.9c-0.5-1.8-0.8-3.7-0.8-5.9C167.8,87.7,181.8,82.4,181.8,82.4"/>
	</g>
</g>
<g id="Watermark">
</g>
</svg>
